<?xml version="1.0" encoding="UTF-8" standalone="no"?>
<!DOCTYPE svg PUBLIC "-//W3C//DTD SVG 1.1//EN"
 "http://www.w3.org/Graphics/SVG/1.1/DTD/svg11.dtd">
<!-- Generated by graphviz version 2.40.1 (20161225.0304)
 -->
<!-- Title: accounts Pages: 1 -->
<svg width="508pt" height="712pt"
 viewBox="0.00 0.00 507.50 712.00" xmlns="http://www.w3.org/2000/svg" xmlns:xlink="http://www.w3.org/1999/xlink">
<g id="graph0" class="graph" transform="scale(1 1) rotate(0) translate(4 708)">
<title>accounts</title>
<polygon fill="#ffffff" stroke="transparent" points="-4,4 -4,-708 503.5,-708 503.5,4 -4,4"/>
<!-- accounts -->
<g id="node1" class="node">
<title>accounts</title>
<polygon fill="#efefef" stroke="transparent" points="46.5,-622.5 46.5,-657.5 259.5,-657.5 259.5,-622.5 46.5,-622.5"/>
<polygon fill="none" stroke="#000000" points="46.5,-622.5 46.5,-657.5 259.5,-657.5 259.5,-622.5 46.5,-622.5"/>
<text text-anchor="start" x="53.2025" y="-635.3" font-family="Arial Bold" font-size="18.00" fill="#000000">accounts</text>
<text text-anchor="start" x="125.2295" y="-635.3" font-family="Arial" font-size="14.00" fill="#000000">    </text>
<text text-anchor="start" x="159.4343" y="-635.3" font-family="Arial" font-size="14.00" fill="#666666">[BASE TABLE]</text>
<polygon fill="none" stroke="#000000" points="46.5,-592.5 46.5,-622.5 259.5,-622.5 259.5,-592.5 46.5,-592.5"/>
<text text-anchor="start" x="53.5" y="-603.9" font-family="Arial" font-size="14.00" fill="#000000">id </text>
<text text-anchor="start" x="68.2798" y="-603.9" font-family="Arial" font-size="14.00" fill="#666666">[char(36)]</text>
<polygon fill="none" stroke="#000000" points="46.5,-562.5 46.5,-592.5 259.5,-592.5 259.5,-562.5 46.5,-562.5"/>
<text text-anchor="start" x="53.5" y="-573.9" font-family="Arial" font-size="14.00" fill="#000000">type </text>
<text text-anchor="start" x="83.8464" y="-573.9" font-family="Arial" font-size="14.00" fill="#666666">[tinyint(1)]</text>
<polygon fill="none" stroke="#000000" points="46.5,-532.5 46.5,-562.5 259.5,-562.5 259.5,-532.5 46.5,-532.5"/>
<text text-anchor="start" x="53.5" y="-543.9" font-family="Arial" font-size="14.00" fill="#000000">name </text>
<text text-anchor="start" x="92.399" y="-543.9" font-family="Arial" font-size="14.00" fill="#666666">[varchar(256)]</text>
<polygon fill="none" stroke="#000000" points="46.5,-502.5 46.5,-532.5 259.5,-532.5 259.5,-502.5 46.5,-502.5"/>
<text text-anchor="start" x="53.5" y="-513.9" font-family="Arial" font-size="14.00" fill="#000000">url </text>
<text text-anchor="start" x="72.9404" y="-513.9" font-family="Arial" font-size="14.00" fill="#666666">[text]</text>
<polygon fill="none" stroke="#000000" points="46.5,-472.5 46.5,-502.5 259.5,-502.5 259.5,-472.5 46.5,-472.5"/>
<text text-anchor="start" x="53.5" y="-483.9" font-family="Arial" font-size="14.00" fill="#000000">user_id </text>
<text text-anchor="start" x="103.2882" y="-483.9" font-family="Arial" font-size="14.00" fill="#666666">[char(36)]</text>
<polygon fill="none" stroke="#000000" points="46.5,-442.5 46.5,-472.5 259.5,-472.5 259.5,-442.5 46.5,-442.5"/>
<text text-anchor="start" x="53.5" y="-453.9" font-family="Arial" font-size="14.00" fill="#000000">check </text>
<text text-anchor="start" x="93.9558" y="-453.9" font-family="Arial" font-size="14.00" fill="#666666">[tinyint(1)]</text>
<polygon fill="none" stroke="#000000" points="46.5,-412.5 46.5,-442.5 259.5,-442.5 259.5,-412.5 46.5,-412.5"/>
<text text-anchor="start" x="53.5" y="-423.9" font-family="Arial" font-size="14.00" fill="#000000">created_at </text>
<text text-anchor="start" x="123.528" y="-423.9" font-family="Arial" font-size="14.00" fill="#666666">[datetime(6)]</text>
<polygon fill="none" stroke="#000000" points="46.5,-382.5 46.5,-412.5 259.5,-412.5 259.5,-382.5 46.5,-382.5"/>
<text text-anchor="start" x="53.5" y="-393.9" font-family="Arial" font-size="14.00" fill="#000000">updated_at </text>
<text text-anchor="start" x="127.4326" y="-393.9" font-family="Arial" font-size="14.00" fill="#666666">[datetime(6)]</text>
<polygon fill="none" stroke="#000000" stroke-width="3" points="44.5,-381.5 44.5,-659.5 260.5,-659.5 260.5,-381.5 44.5,-381.5"/>
</g>
<!-- users -->
<g id="node2" class="node">
<title>users</title>
<polygon fill="#efefef" stroke="transparent" points="55.5,-222.5 55.5,-257.5 251.5,-257.5 251.5,-222.5 55.5,-222.5"/>
<polygon fill="none" stroke="#000000" points="55.5,-222.5 55.5,-257.5 251.5,-257.5 251.5,-222.5 55.5,-222.5"/>
<text text-anchor="start" x="67.7137" y="-235.3" font-family="Arial Bold" font-size="18.00" fill="#000000">users</text>
<text text-anchor="start" x="111.7183" y="-235.3" font-family="Arial" font-size="14.00" fill="#000000">    </text>
<text text-anchor="start" x="145.9231" y="-235.3" font-family="Arial" font-size="14.00" fill="#666666">[BASE TABLE]</text>
<polygon fill="none" stroke="#000000" points="55.5,-192.5 55.5,-222.5 251.5,-222.5 251.5,-192.5 55.5,-192.5"/>
<text text-anchor="start" x="62.5" y="-203.9" font-family="Arial" font-size="14.00" fill="#000000">id    </text>
<text text-anchor="start" x="107.594" y="-203.9" font-family="Arial" font-size="14.00" fill="#666666">[char(36)]</text>
<polygon fill="none" stroke="#000000" points="55.5,-162.5 55.5,-192.5 251.5,-192.5 251.5,-162.5 55.5,-162.5"/>
<text text-anchor="start" x="62.5" y="-173.9" font-family="Arial" font-size="14.00" fill="#000000">description    </text>
<text text-anchor="start" x="164.3822" y="-173.9" font-family="Arial" font-size="14.00" fill="#666666">[text]</text>
<polygon fill="none" stroke="#000000" points="55.5,-132.5 55.5,-162.5 251.5,-162.5 251.5,-132.5 55.5,-132.5"/>
<text text-anchor="start" x="62.5" y="-143.9" font-family="Arial" font-size="14.00" fill="#000000">check    </text>
<text text-anchor="start" x="133.27" y="-143.9" font-family="Arial" font-size="14.00" fill="#666666">[tinyint(1)]</text>
<polygon fill="none" stroke="#000000" points="55.5,-102.5 55.5,-132.5 251.5,-132.5 251.5,-102.5 55.5,-102.5"/>
<text text-anchor="start" x="62.5" y="-113.9" font-family="Arial" font-size="14.00" fill="#000000">name    </text>
<text text-anchor="start" x="131.7132" y="-113.9" font-family="Arial" font-size="14.00" fill="#666666">[varchar(32)]</text>
<polygon fill="none" stroke="#000000" points="55.5,-72.5 55.5,-102.5 251.5,-102.5 251.5,-72.5 55.5,-72.5"/>
<text text-anchor="start" x="62.5" y="-83.9" font-family="Arial" font-size="14.00" fill="#000000">created_at    </text>
<text text-anchor="start" x="162.8422" y="-83.9" font-family="Arial" font-size="14.00" fill="#666666">[datetime(6)]</text>
<polygon fill="none" stroke="#000000" points="55.5,-42.5 55.5,-72.5 251.5,-72.5 251.5,-42.5 55.5,-42.5"/>
<text text-anchor="start" x="62.0947" y="-53.9" font-family="Arial" font-size="14.00" fill="#000000">updated_at    </text>
<text text-anchor="start" x="166.3415" y="-53.9" font-family="Arial" font-size="14.00" fill="#666666">[datetime(6)]</text>
</g>
<!-- accounts&#45;&gt;users -->
<g id="edge1" class="edge">
<title>accounts:user_id&#45;&gt;users:id</title>
<path fill="none" stroke="#000000" d="M269.6711,-486.6335C323.718,-476.7873 300.1407,-385.4405 259.5,-337 200.325,-266.468 114.675,-371.532 55.5,-301 28.7908,-269.1647 13.9444,-207.5 55.5,-207.5"/>
<polygon fill="#000000" stroke="#000000" points="269.4639,-486.6511 259.118,-483.0162 264.482,-487.0755 259.5,-487.5 259.5,-487.5 259.5,-487.5 264.482,-487.0755 259.882,-491.9838 269.4639,-486.6511 269.4639,-486.6511"/>
<text text-anchor="start" x="266.445" y="-497.5" font-family="Arial" font-size="10.00" fill="#000000">FOREIGN KEY (user_id) REFERENCES users (id)</text>
</g>
</g>
</svg>
