<?xml version="1.0" encoding="UTF-8" standalone="no"?>
<!DOCTYPE svg PUBLIC "-//W3C//DTD SVG 1.1//EN"
 "http://www.w3.org/Graphics/SVG/1.1/DTD/svg11.dtd">
<!-- Generated by graphviz version 2.40.1 (20161225.0304)
 -->
<!-- Title: accounts Pages: 1 -->
<svg width="478pt" height="712pt"
 viewBox="0.00 0.00 477.50 712.00" xmlns="http://www.w3.org/2000/svg" xmlns:xlink="http://www.w3.org/1999/xlink">
<g id="graph0" class="graph" transform="scale(1 1) rotate(0) translate(4 708)">
<title>accounts</title>
<polygon fill="#ffffff" stroke="transparent" points="-4,4 -4,-708 473.5,-708 473.5,4 -4,4"/>
<!-- accounts -->
<g id="node1" class="node">
<title>accounts</title>
<polygon fill="#efefef" stroke="transparent" points="46.5,-622.5 46.5,-657.5 229.5,-657.5 229.5,-622.5 46.5,-622.5"/>
<polygon fill="none" stroke="#000000" points="46.5,-622.5 46.5,-657.5 229.5,-657.5 229.5,-622.5 46.5,-622.5"/>
<text text-anchor="start" x="53.3596" y="-635.3" font-family="Arial Bold" font-size="18.00" fill="#000000">accounts</text>
<text text-anchor="start" x="125.3866" y="-635.3" font-family="Arial" font-size="14.00" fill="#000000"> </text>
<text text-anchor="start" x="129.2772" y="-635.3" font-family="Arial" font-size="14.00" fill="#666666">[BASE TABLE]</text>
<polygon fill="none" stroke="#000000" points="46.5,-592.5 46.5,-622.5 229.5,-622.5 229.5,-592.5 46.5,-592.5"/>
<text text-anchor="start" x="53.5" y="-603.9" font-family="Arial" font-size="14.00" fill="#000000">id </text>
<text text-anchor="start" x="68.2798" y="-603.9" font-family="Arial" font-size="14.00" fill="#666666">[char(36)]</text>
<polygon fill="none" stroke="#000000" points="46.5,-562.5 46.5,-592.5 229.5,-592.5 229.5,-562.5 46.5,-562.5"/>
<text text-anchor="start" x="53.5" y="-573.9" font-family="Arial" font-size="14.00" fill="#000000">type </text>
<text text-anchor="start" x="83.8464" y="-573.9" font-family="Arial" font-size="14.00" fill="#666666">[tinyint(1)]</text>
<polygon fill="none" stroke="#000000" points="46.5,-532.5 46.5,-562.5 229.5,-562.5 229.5,-532.5 46.5,-532.5"/>
<text text-anchor="start" x="53.5" y="-543.9" font-family="Arial" font-size="14.00" fill="#000000">name </text>
<text text-anchor="start" x="92.399" y="-543.9" font-family="Arial" font-size="14.00" fill="#666666">[varchar(32)]</text>
<polygon fill="none" stroke="#000000" points="46.5,-502.5 46.5,-532.5 229.5,-532.5 229.5,-502.5 46.5,-502.5"/>
<text text-anchor="start" x="53.5" y="-513.9" font-family="Arial" font-size="14.00" fill="#000000">url </text>
<text text-anchor="start" x="72.9404" y="-513.9" font-family="Arial" font-size="14.00" fill="#666666">[text]</text>
<polygon fill="none" stroke="#000000" points="46.5,-472.5 46.5,-502.5 229.5,-502.5 229.5,-472.5 46.5,-472.5"/>
<text text-anchor="start" x="53.5" y="-483.9" font-family="Arial" font-size="14.00" fill="#000000">user_id </text>
<text text-anchor="start" x="103.2882" y="-483.9" font-family="Arial" font-size="14.00" fill="#666666">[char(36)]</text>
<polygon fill="none" stroke="#000000" points="46.5,-442.5 46.5,-472.5 229.5,-472.5 229.5,-442.5 46.5,-442.5"/>
<text text-anchor="start" x="53.5" y="-453.9" font-family="Arial" font-size="14.00" fill="#000000">check </text>
<text text-anchor="start" x="93.9558" y="-453.9" font-family="Arial" font-size="14.00" fill="#666666">[tinyint(1)]</text>
<polygon fill="none" stroke="#000000" points="46.5,-412.5 46.5,-442.5 229.5,-442.5 229.5,-412.5 46.5,-412.5"/>
<text text-anchor="start" x="53.5" y="-423.9" font-family="Arial" font-size="14.00" fill="#000000">created_at </text>
<text text-anchor="start" x="123.528" y="-423.9" font-family="Arial" font-size="14.00" fill="#666666">[datetime(6)]</text>
<polygon fill="none" stroke="#000000" points="46.5,-382.5 46.5,-412.5 229.5,-412.5 229.5,-382.5 46.5,-382.5"/>
<text text-anchor="start" x="53.5" y="-393.9" font-family="Arial" font-size="14.00" fill="#000000">updated_at </text>
<text text-anchor="start" x="127.4326" y="-393.9" font-family="Arial" font-size="14.00" fill="#666666">[datetime(6)]</text>
<polygon fill="none" stroke="#000000" stroke-width="3" points="44.5,-381.5 44.5,-659.5 230.5,-659.5 230.5,-381.5 44.5,-381.5"/>
</g>
<!-- users -->
<g id="node2" class="node">
<title>users</title>
<polygon fill="#efefef" stroke="transparent" points="55.5,-222.5 55.5,-257.5 221.5,-257.5 221.5,-222.5 55.5,-222.5"/>
<polygon fill="none" stroke="#000000" points="55.5,-222.5 55.5,-257.5 221.5,-257.5 221.5,-222.5 55.5,-222.5"/>
<text text-anchor="start" x="67.8708" y="-235.3" font-family="Arial Bold" font-size="18.00" fill="#000000">users</text>
<text text-anchor="start" x="111.8754" y="-235.3" font-family="Arial" font-size="14.00" fill="#000000"> </text>
<text text-anchor="start" x="115.766" y="-235.3" font-family="Arial" font-size="14.00" fill="#666666">[BASE TABLE]</text>
<polygon fill="none" stroke="#000000" points="55.5,-192.5 55.5,-222.5 221.5,-222.5 221.5,-192.5 55.5,-192.5"/>
<text text-anchor="start" x="62.5" y="-203.9" font-family="Arial" font-size="14.00" fill="#000000">id </text>
<text text-anchor="start" x="77.2798" y="-203.9" font-family="Arial" font-size="14.00" fill="#666666">[char(36)]</text>
<polygon fill="none" stroke="#000000" points="55.5,-162.5 55.5,-192.5 221.5,-192.5 221.5,-162.5 55.5,-162.5"/>
<text text-anchor="start" x="62.5" y="-173.9" font-family="Arial" font-size="14.00" fill="#000000">description </text>
<text text-anchor="start" x="134.068" y="-173.9" font-family="Arial" font-size="14.00" fill="#666666">[text]</text>
<polygon fill="none" stroke="#000000" points="55.5,-132.5 55.5,-162.5 221.5,-162.5 221.5,-132.5 55.5,-132.5"/>
<text text-anchor="start" x="62.5" y="-143.9" font-family="Arial" font-size="14.00" fill="#000000">check </text>
<text text-anchor="start" x="102.9558" y="-143.9" font-family="Arial" font-size="14.00" fill="#666666">[tinyint(1)]</text>
<polygon fill="none" stroke="#000000" points="55.5,-102.5 55.5,-132.5 221.5,-132.5 221.5,-102.5 55.5,-102.5"/>
<text text-anchor="start" x="62.5" y="-113.9" font-family="Arial" font-size="14.00" fill="#000000">name </text>
<text text-anchor="start" x="101.399" y="-113.9" font-family="Arial" font-size="14.00" fill="#666666">[varchar(32)]</text>
<polygon fill="none" stroke="#000000" points="55.5,-72.5 55.5,-102.5 221.5,-102.5 221.5,-72.5 55.5,-72.5"/>
<text text-anchor="start" x="62.5" y="-83.9" font-family="Arial" font-size="14.00" fill="#000000">created_at </text>
<text text-anchor="start" x="132.528" y="-83.9" font-family="Arial" font-size="14.00" fill="#666666">[datetime(6)]</text>
<polygon fill="none" stroke="#000000" points="55.5,-42.5 55.5,-72.5 221.5,-72.5 221.5,-42.5 55.5,-42.5"/>
<text text-anchor="start" x="62.2518" y="-53.9" font-family="Arial" font-size="14.00" fill="#000000">updated_at </text>
<text text-anchor="start" x="136.1844" y="-53.9" font-family="Arial" font-size="14.00" fill="#666666">[datetime(6)]</text>
</g>
<!-- accounts&#45;&gt;users -->
<g id="edge1" class="edge">
<title>accounts:user_id&#45;&gt;users:id</title>
<path fill="none" stroke="#000000" d="M239.6647,-486.6388C293.6398,-476.852 269.4256,-386.0316 229.5,-337 179.6357,-275.7628 105.3643,-362.2372 55.5,-301 29.2608,-268.7763 13.9444,-207.5 55.5,-207.5"/>
<polygon fill="#000000" stroke="#000000" points="239.4643,-486.6557 229.1201,-483.0161 234.4822,-487.0779 229.5,-487.5 229.5,-487.5 229.5,-487.5 234.4822,-487.0779 229.8799,-491.9839 239.4643,-486.6557 239.4643,-486.6557"/>
<text text-anchor="start" x="236.445" y="-497.5" font-family="Arial" font-size="10.00" fill="#000000">FOREIGN KEY (user_id) REFERENCES users (id)</text>
</g>
</g>
</svg>
