<?xml version="1.0" encoding="UTF-8" standalone="no"?>
<!DOCTYPE svg PUBLIC "-//W3C//DTD SVG 1.1//EN"
 "http://www.w3.org/Graphics/SVG/1.1/DTD/svg11.dtd">
<!-- Generated by graphviz version 2.40.1 (20161225.0304)
 -->
<!-- Title: contests Pages: 1 -->
<svg width="544pt" height="772pt"
 viewBox="0.00 0.00 544.00 772.00" xmlns="http://www.w3.org/2000/svg" xmlns:xlink="http://www.w3.org/1999/xlink">
<g id="graph0" class="graph" transform="scale(1 1) rotate(0) translate(4 768)">
<title>contests</title>
<polygon fill="#ffffff" stroke="transparent" points="-4,4 -4,-768 540,-768 540,4 -4,4"/>
<!-- contests -->
<g id="node1" class="node">
<title>contests</title>
<polygon fill="#efefef" stroke="transparent" points="68,-285.5 68,-320.5 246,-320.5 246,-285.5 68,-285.5"/>
<polygon fill="none" stroke="#000000" points="68,-285.5 68,-320.5 246,-320.5 246,-285.5 68,-285.5"/>
<text text-anchor="start" x="74.8616" y="-298.3" font-family="Arial Bold" font-size="18.00" fill="#000000">contests</text>
<text text-anchor="start" x="141.8846" y="-298.3" font-family="Arial" font-size="14.00" fill="#000000"> </text>
<text text-anchor="start" x="145.7752" y="-298.3" font-family="Arial" font-size="14.00" fill="#666666">[BASE TABLE]</text>
<polygon fill="none" stroke="#000000" points="68,-255.5 68,-285.5 246,-285.5 246,-255.5 68,-255.5"/>
<text text-anchor="start" x="75" y="-266.9" font-family="Arial" font-size="14.00" fill="#000000">id </text>
<text text-anchor="start" x="89.7798" y="-266.9" font-family="Arial" font-size="14.00" fill="#666666">[char(36)]</text>
<polygon fill="none" stroke="#000000" points="68,-225.5 68,-255.5 246,-255.5 246,-225.5 68,-225.5"/>
<text text-anchor="start" x="75" y="-236.9" font-family="Arial" font-size="14.00" fill="#000000">name </text>
<text text-anchor="start" x="113.899" y="-236.9" font-family="Arial" font-size="14.00" fill="#666666">[varchar(32)]</text>
<polygon fill="none" stroke="#000000" points="68,-195.5 68,-225.5 246,-225.5 246,-195.5 68,-195.5"/>
<text text-anchor="start" x="75" y="-206.9" font-family="Arial" font-size="14.00" fill="#000000">description </text>
<text text-anchor="start" x="146.568" y="-206.9" font-family="Arial" font-size="14.00" fill="#666666">[text]</text>
<polygon fill="none" stroke="#000000" points="68,-165.5 68,-195.5 246,-195.5 246,-165.5 68,-165.5"/>
<text text-anchor="start" x="75" y="-176.9" font-family="Arial" font-size="14.00" fill="#000000">link </text>
<text text-anchor="start" x="99.8864" y="-176.9" font-family="Arial" font-size="14.00" fill="#666666">[text]</text>
<polygon fill="none" stroke="#000000" points="68,-135.5 68,-165.5 246,-165.5 246,-135.5 68,-135.5"/>
<text text-anchor="start" x="75" y="-146.9" font-family="Arial" font-size="14.00" fill="#000000">since </text>
<text text-anchor="start" x="111.5624" y="-146.9" font-family="Arial" font-size="14.00" fill="#666666">[datetime(6)]</text>
<polygon fill="none" stroke="#000000" points="68,-105.5 68,-135.5 246,-135.5 246,-105.5 68,-105.5"/>
<text text-anchor="start" x="75" y="-116.9" font-family="Arial" font-size="14.00" fill="#000000">until </text>
<text text-anchor="start" x="104.5596" y="-116.9" font-family="Arial" font-size="14.00" fill="#666666">[datetime(6)]</text>
<polygon fill="none" stroke="#000000" points="68,-75.5 68,-105.5 246,-105.5 246,-75.5 68,-75.5"/>
<text text-anchor="start" x="75" y="-86.9" font-family="Arial" font-size="14.00" fill="#000000">created_at </text>
<text text-anchor="start" x="145.028" y="-86.9" font-family="Arial" font-size="14.00" fill="#666666">[datetime(6)]</text>
<polygon fill="none" stroke="#000000" points="68,-45.5 68,-75.5 246,-75.5 246,-45.5 68,-45.5"/>
<text text-anchor="start" x="75" y="-56.9" font-family="Arial" font-size="14.00" fill="#000000">updated_at </text>
<text text-anchor="start" x="148.9326" y="-56.9" font-family="Arial" font-size="14.00" fill="#666666">[datetime(6)]</text>
<polygon fill="none" stroke="#000000" stroke-width="3" points="66.5,-44.5 66.5,-322.5 247.5,-322.5 247.5,-44.5 66.5,-44.5"/>
</g>
<!-- contest_teams -->
<g id="node2" class="node">
<title>contest_teams</title>
<polygon fill="#efefef" stroke="transparent" points="43,-685.5 43,-720.5 271,-720.5 271,-685.5 43,-685.5"/>
<polygon fill="none" stroke="#000000" points="43,-685.5 43,-720.5 271,-720.5 271,-685.5 43,-685.5"/>
<text text-anchor="start" x="49.8551" y="-698.3" font-family="Arial Bold" font-size="18.00" fill="#000000">contest_teams</text>
<text text-anchor="start" x="166.8911" y="-698.3" font-family="Arial" font-size="14.00" fill="#000000"> </text>
<text text-anchor="start" x="170.7817" y="-698.3" font-family="Arial" font-size="14.00" fill="#666666">[BASE TABLE]</text>
<polygon fill="none" stroke="#000000" points="43,-655.5 43,-685.5 271,-685.5 271,-655.5 43,-655.5"/>
<text text-anchor="start" x="50" y="-666.9" font-family="Arial" font-size="14.00" fill="#000000">id </text>
<text text-anchor="start" x="64.7798" y="-666.9" font-family="Arial" font-size="14.00" fill="#666666">[char(36)]</text>
<polygon fill="none" stroke="#000000" points="43,-625.5 43,-655.5 271,-655.5 271,-625.5 43,-625.5"/>
<text text-anchor="start" x="50" y="-636.9" font-family="Arial" font-size="14.00" fill="#000000">contest_id </text>
<text text-anchor="start" x="117.6914" y="-636.9" font-family="Arial" font-size="14.00" fill="#666666">[char(36)]</text>
<polygon fill="none" stroke="#000000" points="43,-595.5 43,-625.5 271,-625.5 271,-595.5 43,-595.5"/>
<text text-anchor="start" x="50" y="-606.9" font-family="Arial" font-size="14.00" fill="#000000">name </text>
<text text-anchor="start" x="88.899" y="-606.9" font-family="Arial" font-size="14.00" fill="#666666">[varchar(32)]</text>
<polygon fill="none" stroke="#000000" points="43,-565.5 43,-595.5 271,-595.5 271,-565.5 43,-565.5"/>
<text text-anchor="start" x="50" y="-576.9" font-family="Arial" font-size="14.00" fill="#000000">description </text>
<text text-anchor="start" x="121.568" y="-576.9" font-family="Arial" font-size="14.00" fill="#666666">[text]</text>
<polygon fill="none" stroke="#000000" points="43,-535.5 43,-565.5 271,-565.5 271,-535.5 43,-535.5"/>
<text text-anchor="start" x="50" y="-546.9" font-family="Arial" font-size="14.00" fill="#000000">result </text>
<text text-anchor="start" x="88.1136" y="-546.9" font-family="Arial" font-size="14.00" fill="#666666">[text]</text>
<polygon fill="none" stroke="#000000" points="43,-505.5 43,-535.5 271,-535.5 271,-505.5 43,-505.5"/>
<text text-anchor="start" x="50" y="-516.9" font-family="Arial" font-size="14.00" fill="#000000">link </text>
<text text-anchor="start" x="74.8864" y="-516.9" font-family="Arial" font-size="14.00" fill="#666666">[text]</text>
<polygon fill="none" stroke="#000000" points="43,-475.5 43,-505.5 271,-505.5 271,-475.5 43,-475.5"/>
<text text-anchor="start" x="50" y="-486.9" font-family="Arial" font-size="14.00" fill="#000000">created_at </text>
<text text-anchor="start" x="120.028" y="-486.9" font-family="Arial" font-size="14.00" fill="#666666">[datetime(6)]</text>
<polygon fill="none" stroke="#000000" points="43,-445.5 43,-475.5 271,-475.5 271,-445.5 43,-445.5"/>
<text text-anchor="start" x="50" y="-456.9" font-family="Arial" font-size="14.00" fill="#000000">updated_at </text>
<text text-anchor="start" x="123.9326" y="-456.9" font-family="Arial" font-size="14.00" fill="#666666">[datetime(6)]</text>
</g>
<!-- contest_teams&#45;&gt;contests -->
<g id="edge1" class="edge">
<title>contest_teams:contest_id&#45;&gt;contests:id</title>
<path fill="none" stroke="#000000" d="M281.0322,-638.5093C351.1553,-609.3863 324.8687,-270.5 246,-270.5"/>
<polygon fill="#000000" stroke="#000000" points="280.8088,-638.5536 270.1241,-636.0861 275.9044,-639.5268 271,-640.5 271,-640.5 271,-640.5 275.9044,-639.5268 271.8759,-644.9139 280.8088,-638.5536 280.8088,-638.5536"/>
<text text-anchor="start" x="278.157" y="-650.5" font-family="Arial" font-size="10.00" fill="#000000">FOREIGN KEY (contest_id) REFERENCES contests (id)</text>
</g>
</g>
</svg>
