<?xml version="1.0" encoding="UTF-8" standalone="no"?>
<!DOCTYPE svg PUBLIC "-//W3C//DTD SVG 1.1//EN"
 "http://www.w3.org/Graphics/SVG/1.1/DTD/svg11.dtd">
<!-- Generated by graphviz version 2.40.1 (20161225.0304)
 -->
<!-- Title: contest_teams Pages: 1 -->
<svg width="726pt" height="1049pt"
 viewBox="0.00 0.00 725.50 1049.00" xmlns="http://www.w3.org/2000/svg" xmlns:xlink="http://www.w3.org/1999/xlink">
<g id="graph0" class="graph" transform="scale(1 1) rotate(0) translate(4 1045)">
<title>contest_teams</title>
<polygon fill="#ffffff" stroke="transparent" points="-4,4 -4,-1045 721.5,-1045 721.5,4 -4,4"/>
<!-- contest_teams -->
<g id="node1" class="node">
<title>contest_teams</title>
<polygon fill="#efefef" stroke="transparent" points="110.5,-682.5 110.5,-717.5 368.5,-717.5 368.5,-682.5 110.5,-682.5"/>
<polygon fill="none" stroke="#000000" points="110.5,-682.5 110.5,-717.5 368.5,-717.5 368.5,-682.5 110.5,-682.5"/>
<text text-anchor="start" x="117.198" y="-695.3" font-family="Arial Bold" font-size="18.00" fill="#000000">contest_teams</text>
<text text-anchor="start" x="234.234" y="-695.3" font-family="Arial" font-size="14.00" fill="#000000">    </text>
<text text-anchor="start" x="268.4388" y="-695.3" font-family="Arial" font-size="14.00" fill="#666666">[BASE TABLE]</text>
<polygon fill="none" stroke="#000000" points="110.5,-652.5 110.5,-682.5 368.5,-682.5 368.5,-652.5 110.5,-652.5"/>
<text text-anchor="start" x="117.5" y="-663.9" font-family="Arial" font-size="14.00" fill="#000000">id </text>
<text text-anchor="start" x="132.2798" y="-663.9" font-family="Arial" font-size="14.00" fill="#666666">[char(36)]</text>
<polygon fill="none" stroke="#000000" points="110.5,-622.5 110.5,-652.5 368.5,-652.5 368.5,-622.5 110.5,-622.5"/>
<text text-anchor="start" x="117.5" y="-633.9" font-family="Arial" font-size="14.00" fill="#000000">contest_id </text>
<text text-anchor="start" x="185.1914" y="-633.9" font-family="Arial" font-size="14.00" fill="#666666">[char(36)]</text>
<polygon fill="none" stroke="#000000" points="110.5,-592.5 110.5,-622.5 368.5,-622.5 368.5,-592.5 110.5,-592.5"/>
<text text-anchor="start" x="117.5" y="-603.9" font-family="Arial" font-size="14.00" fill="#000000">name </text>
<text text-anchor="start" x="156.399" y="-603.9" font-family="Arial" font-size="14.00" fill="#666666">[varchar(32)]</text>
<polygon fill="none" stroke="#000000" points="110.5,-562.5 110.5,-592.5 368.5,-592.5 368.5,-562.5 110.5,-562.5"/>
<text text-anchor="start" x="117.5" y="-573.9" font-family="Arial" font-size="14.00" fill="#000000">description </text>
<text text-anchor="start" x="189.068" y="-573.9" font-family="Arial" font-size="14.00" fill="#666666">[text]</text>
<polygon fill="none" stroke="#000000" points="110.5,-532.5 110.5,-562.5 368.5,-562.5 368.5,-532.5 110.5,-532.5"/>
<text text-anchor="start" x="117.5" y="-543.9" font-family="Arial" font-size="14.00" fill="#000000">result </text>
<text text-anchor="start" x="155.6136" y="-543.9" font-family="Arial" font-size="14.00" fill="#666666">[text]</text>
<polygon fill="none" stroke="#000000" points="110.5,-502.5 110.5,-532.5 368.5,-532.5 368.5,-502.5 110.5,-502.5"/>
<text text-anchor="start" x="117.5" y="-513.9" font-family="Arial" font-size="14.00" fill="#000000">link </text>
<text text-anchor="start" x="142.3864" y="-513.9" font-family="Arial" font-size="14.00" fill="#666666">[text]</text>
<polygon fill="none" stroke="#000000" points="110.5,-472.5 110.5,-502.5 368.5,-502.5 368.5,-472.5 110.5,-472.5"/>
<text text-anchor="start" x="117.5" y="-483.9" font-family="Arial" font-size="14.00" fill="#000000">created_at </text>
<text text-anchor="start" x="187.528" y="-483.9" font-family="Arial" font-size="14.00" fill="#666666">[datetime(6)]</text>
<polygon fill="none" stroke="#000000" points="110.5,-442.5 110.5,-472.5 368.5,-472.5 368.5,-442.5 110.5,-442.5"/>
<text text-anchor="start" x="117.5" y="-453.9" font-family="Arial" font-size="14.00" fill="#000000">updated_at </text>
<text text-anchor="start" x="191.4326" y="-453.9" font-family="Arial" font-size="14.00" fill="#666666">[datetime(6)]</text>
<polygon fill="none" stroke="#000000" stroke-width="3" points="109,-441.5 109,-719.5 370,-719.5 370,-441.5 109,-441.5"/>
</g>
<!-- contests -->
<g id="node3" class="node">
<title>contests</title>
<polygon fill="#efefef" stroke="transparent" points="135.5,-282.5 135.5,-317.5 343.5,-317.5 343.5,-282.5 135.5,-282.5"/>
<polygon fill="none" stroke="#000000" points="135.5,-282.5 135.5,-317.5 343.5,-317.5 343.5,-282.5 135.5,-282.5"/>
<text text-anchor="start" x="142.2045" y="-295.3" font-family="Arial Bold" font-size="18.00" fill="#000000">contests</text>
<text text-anchor="start" x="209.2275" y="-295.3" font-family="Arial" font-size="14.00" fill="#000000">    </text>
<text text-anchor="start" x="243.4323" y="-295.3" font-family="Arial" font-size="14.00" fill="#666666">[BASE TABLE]</text>
<polygon fill="none" stroke="#000000" points="135.5,-252.5 135.5,-282.5 343.5,-282.5 343.5,-252.5 135.5,-252.5"/>
<text text-anchor="start" x="142.5" y="-263.9" font-family="Arial" font-size="14.00" fill="#000000">id    </text>
<text text-anchor="start" x="187.594" y="-263.9" font-family="Arial" font-size="14.00" fill="#666666">[char(36)]</text>
<polygon fill="none" stroke="#000000" points="135.5,-222.5 135.5,-252.5 343.5,-252.5 343.5,-222.5 135.5,-222.5"/>
<text text-anchor="start" x="142.5" y="-233.9" font-family="Arial" font-size="14.00" fill="#000000">name    </text>
<text text-anchor="start" x="211.7132" y="-233.9" font-family="Arial" font-size="14.00" fill="#666666">[varchar(32)]</text>
<polygon fill="none" stroke="#000000" points="135.5,-192.5 135.5,-222.5 343.5,-222.5 343.5,-192.5 135.5,-192.5"/>
<text text-anchor="start" x="142.5" y="-203.9" font-family="Arial" font-size="14.00" fill="#000000">description    </text>
<text text-anchor="start" x="244.3822" y="-203.9" font-family="Arial" font-size="14.00" fill="#666666">[text]</text>
<polygon fill="none" stroke="#000000" points="135.5,-162.5 135.5,-192.5 343.5,-192.5 343.5,-162.5 135.5,-162.5"/>
<text text-anchor="start" x="142.5" y="-173.9" font-family="Arial" font-size="14.00" fill="#000000">link    </text>
<text text-anchor="start" x="197.7006" y="-173.9" font-family="Arial" font-size="14.00" fill="#666666">[text]</text>
<polygon fill="none" stroke="#000000" points="135.5,-132.5 135.5,-162.5 343.5,-162.5 343.5,-132.5 135.5,-132.5"/>
<text text-anchor="start" x="142.5" y="-143.9" font-family="Arial" font-size="14.00" fill="#000000">since    </text>
<text text-anchor="start" x="209.3766" y="-143.9" font-family="Arial" font-size="14.00" fill="#666666">[datetime(6)]</text>
<polygon fill="none" stroke="#000000" points="135.5,-102.5 135.5,-132.5 343.5,-132.5 343.5,-102.5 135.5,-102.5"/>
<text text-anchor="start" x="142.5" y="-113.9" font-family="Arial" font-size="14.00" fill="#000000">until    </text>
<text text-anchor="start" x="202.3738" y="-113.9" font-family="Arial" font-size="14.00" fill="#666666">[datetime(6)]</text>
<polygon fill="none" stroke="#000000" points="135.5,-72.5 135.5,-102.5 343.5,-102.5 343.5,-72.5 135.5,-72.5"/>
<text text-anchor="start" x="142.5" y="-83.9" font-family="Arial" font-size="14.00" fill="#000000">created_at    </text>
<text text-anchor="start" x="242.8422" y="-83.9" font-family="Arial" font-size="14.00" fill="#666666">[datetime(6)]</text>
<polygon fill="none" stroke="#000000" points="135.5,-42.5 135.5,-72.5 343.5,-72.5 343.5,-42.5 135.5,-42.5"/>
<text text-anchor="start" x="142.5" y="-53.9" font-family="Arial" font-size="14.00" fill="#000000">updated_at    </text>
<text text-anchor="start" x="246.7468" y="-53.9" font-family="Arial" font-size="14.00" fill="#666666">[datetime(6)]</text>
</g>
<!-- contest_teams&#45;&gt;contests -->
<g id="edge2" class="edge">
<title>contest_teams:contest_id&#45;&gt;contests:id</title>
<path fill="none" stroke="#000000" d="M378.8608,-636.995C532.1806,-621.7723 504.7784,-267.5 343.5,-267.5"/>
<polygon fill="#000000" stroke="#000000" points="378.4881,-637.0131 368.2809,-633.0053 373.4941,-637.2565 368.5,-637.5 368.5,-637.5 368.5,-637.5 373.4941,-637.2565 368.7191,-641.9947 378.4881,-637.0131 378.4881,-637.0131"/>
<text text-anchor="start" x="375.657" y="-647.5" font-family="Arial" font-size="10.00" fill="#000000">FOREIGN KEY (contest_id) REFERENCES contests (id)</text>
</g>
<!-- contest_team_user_belongings -->
<g id="node2" class="node">
<title>contest_team_user_belongings</title>
<polygon fill="#efefef" stroke="transparent" points="43.5,-962.5 43.5,-997.5 434.5,-997.5 434.5,-962.5 43.5,-962.5"/>
<polygon fill="none" stroke="#000000" points="43.5,-962.5 43.5,-997.5 434.5,-997.5 434.5,-962.5 43.5,-962.5"/>
<text text-anchor="start" x="50.1736" y="-975.3" font-family="Arial Bold" font-size="18.00" fill="#000000">contest_team_user_belongings</text>
<text text-anchor="start" x="300.2584" y="-975.3" font-family="Arial" font-size="14.00" fill="#000000">    </text>
<text text-anchor="start" x="334.4632" y="-975.3" font-family="Arial" font-size="14.00" fill="#666666">[BASE TABLE]</text>
<polygon fill="none" stroke="#000000" points="43.5,-932.5 43.5,-962.5 434.5,-962.5 434.5,-932.5 43.5,-932.5"/>
<text text-anchor="start" x="50.5" y="-943.9" font-family="Arial" font-size="14.00" fill="#000000">team_id    </text>
<text text-anchor="start" x="134.493" y="-943.9" font-family="Arial" font-size="14.00" fill="#666666">[char(36)]</text>
<polygon fill="none" stroke="#000000" points="43.5,-902.5 43.5,-932.5 434.5,-932.5 434.5,-902.5 43.5,-902.5"/>
<text text-anchor="start" x="50.5" y="-913.9" font-family="Arial" font-size="14.00" fill="#000000">user_id    </text>
<text text-anchor="start" x="130.6024" y="-913.9" font-family="Arial" font-size="14.00" fill="#666666">[char(36)]</text>
<polygon fill="none" stroke="#000000" points="43.5,-872.5 43.5,-902.5 434.5,-902.5 434.5,-872.5 43.5,-872.5"/>
<text text-anchor="start" x="50.5" y="-883.9" font-family="Arial" font-size="14.00" fill="#000000">created_at    </text>
<text text-anchor="start" x="150.8422" y="-883.9" font-family="Arial" font-size="14.00" fill="#666666">[datetime(6)]</text>
<polygon fill="none" stroke="#000000" points="43.5,-842.5 43.5,-872.5 434.5,-872.5 434.5,-842.5 43.5,-842.5"/>
<text text-anchor="start" x="50.5" y="-853.9" font-family="Arial" font-size="14.00" fill="#000000">updated_at    </text>
<text text-anchor="start" x="154.7468" y="-853.9" font-family="Arial" font-size="14.00" fill="#666666">[datetime(6)]</text>
</g>
<!-- contest_team_user_belongings&#45;&gt;contest_teams -->
<g id="edge1" class="edge">
<title>contest_team_user_belongings:team_id&#45;&gt;contest_teams:id</title>
<path fill="none" stroke="#000000" d="M444.4818,-946.6392C497.6019,-936.8588 475.8294,-846.1759 434.5,-800 337.8723,-692.0413 207.1277,-871.9587 110.5,-764 81.8965,-732.0423 67.6111,-667.5 110.5,-667.5"/>
<polygon fill="#000000" stroke="#000000" points="444.463,-946.6407 434.1133,-943.0166 439.4815,-947.0703 434.5,-947.5 434.5,-947.5 434.5,-947.5 439.4815,-947.0703 434.8867,-951.9834 444.463,-946.6407 444.463,-946.6407"/>
<text text-anchor="start" x="441.769" y="-957.5" font-family="Arial" font-size="10.00" fill="#000000">FOREIGN KEY (team_id) REFERENCES contest_teams (id)</text>
</g>
</g>
</svg>
