<?xml version="1.0" encoding="UTF-8" standalone="no"?>
<!DOCTYPE svg PUBLIC "-//W3C//DTD SVG 1.1//EN"
 "http://www.w3.org/Graphics/SVG/1.1/DTD/svg11.dtd">
<!-- Generated by graphviz version 2.40.1 (20161225.0304)
 -->
<!-- Title: contests Pages: 1 -->
<svg width="574pt" height="772pt"
 viewBox="0.00 0.00 574.00 772.00" xmlns="http://www.w3.org/2000/svg" xmlns:xlink="http://www.w3.org/1999/xlink">
<g id="graph0" class="graph" transform="scale(1 1) rotate(0) translate(4 768)">
<title>contests</title>
<polygon fill="#ffffff" stroke="transparent" points="-4,4 -4,-768 570,-768 570,4 -4,4"/>
<!-- contests -->
<g id="node1" class="node">
<title>contests</title>
<polygon fill="#efefef" stroke="transparent" points="68,-285.5 68,-320.5 276,-320.5 276,-285.5 68,-285.5"/>
<polygon fill="none" stroke="#000000" points="68,-285.5 68,-320.5 276,-320.5 276,-285.5 68,-285.5"/>
<text text-anchor="start" x="74.7045" y="-298.3" font-family="Arial Bold" font-size="18.00" fill="#000000">contests</text>
<text text-anchor="start" x="141.7275" y="-298.3" font-family="Arial" font-size="14.00" fill="#000000">    </text>
<text text-anchor="start" x="175.9323" y="-298.3" font-family="Arial" font-size="14.00" fill="#666666">[BASE TABLE]</text>
<polygon fill="none" stroke="#000000" points="68,-255.5 68,-285.5 276,-285.5 276,-255.5 68,-255.5"/>
<text text-anchor="start" x="75" y="-266.9" font-family="Arial" font-size="14.00" fill="#000000">id </text>
<text text-anchor="start" x="89.7798" y="-266.9" font-family="Arial" font-size="14.00" fill="#666666">[char(36)]</text>
<polygon fill="none" stroke="#000000" points="68,-225.5 68,-255.5 276,-255.5 276,-225.5 68,-225.5"/>
<text text-anchor="start" x="75" y="-236.9" font-family="Arial" font-size="14.00" fill="#000000">name </text>
<text text-anchor="start" x="113.899" y="-236.9" font-family="Arial" font-size="14.00" fill="#666666">[varchar(32)]</text>
<polygon fill="none" stroke="#000000" points="68,-195.5 68,-225.5 276,-225.5 276,-195.5 68,-195.5"/>
<text text-anchor="start" x="75" y="-206.9" font-family="Arial" font-size="14.00" fill="#000000">description </text>
<text text-anchor="start" x="146.568" y="-206.9" font-family="Arial" font-size="14.00" fill="#666666">[text]</text>
<polygon fill="none" stroke="#000000" points="68,-165.5 68,-195.5 276,-195.5 276,-165.5 68,-165.5"/>
<text text-anchor="start" x="75" y="-176.9" font-family="Arial" font-size="14.00" fill="#000000">link </text>
<text text-anchor="start" x="99.8864" y="-176.9" font-family="Arial" font-size="14.00" fill="#666666">[text]</text>
<polygon fill="none" stroke="#000000" points="68,-135.5 68,-165.5 276,-165.5 276,-135.5 68,-135.5"/>
<text text-anchor="start" x="75" y="-146.9" font-family="Arial" font-size="14.00" fill="#000000">since </text>
<text text-anchor="start" x="111.5624" y="-146.9" font-family="Arial" font-size="14.00" fill="#666666">[datetime(6)]</text>
<polygon fill="none" stroke="#000000" points="68,-105.5 68,-135.5 276,-135.5 276,-105.5 68,-105.5"/>
<text text-anchor="start" x="75" y="-116.9" font-family="Arial" font-size="14.00" fill="#000000">until </text>
<text text-anchor="start" x="104.5596" y="-116.9" font-family="Arial" font-size="14.00" fill="#666666">[datetime(6)]</text>
<polygon fill="none" stroke="#000000" points="68,-75.5 68,-105.5 276,-105.5 276,-75.5 68,-75.5"/>
<text text-anchor="start" x="75" y="-86.9" font-family="Arial" font-size="14.00" fill="#000000">created_at </text>
<text text-anchor="start" x="145.028" y="-86.9" font-family="Arial" font-size="14.00" fill="#666666">[datetime(6)]</text>
<polygon fill="none" stroke="#000000" points="68,-45.5 68,-75.5 276,-75.5 276,-45.5 68,-45.5"/>
<text text-anchor="start" x="75" y="-56.9" font-family="Arial" font-size="14.00" fill="#000000">updated_at </text>
<text text-anchor="start" x="148.9326" y="-56.9" font-family="Arial" font-size="14.00" fill="#666666">[datetime(6)]</text>
<polygon fill="none" stroke="#000000" stroke-width="3" points="66.5,-44.5 66.5,-322.5 277.5,-322.5 277.5,-44.5 66.5,-44.5"/>
</g>
<!-- contest_teams -->
<g id="node2" class="node">
<title>contest_teams</title>
<polygon fill="#efefef" stroke="transparent" points="43,-685.5 43,-720.5 301,-720.5 301,-685.5 43,-685.5"/>
<polygon fill="none" stroke="#000000" points="43,-685.5 43,-720.5 301,-720.5 301,-685.5 43,-685.5"/>
<text text-anchor="start" x="49.698" y="-698.3" font-family="Arial Bold" font-size="18.00" fill="#000000">contest_teams</text>
<text text-anchor="start" x="166.734" y="-698.3" font-family="Arial" font-size="14.00" fill="#000000">    </text>
<text text-anchor="start" x="200.9388" y="-698.3" font-family="Arial" font-size="14.00" fill="#666666">[BASE TABLE]</text>
<polygon fill="none" stroke="#000000" points="43,-655.5 43,-685.5 301,-685.5 301,-655.5 43,-655.5"/>
<text text-anchor="start" x="50" y="-666.9" font-family="Arial" font-size="14.00" fill="#000000">id    </text>
<text text-anchor="start" x="95.094" y="-666.9" font-family="Arial" font-size="14.00" fill="#666666">[char(36)]</text>
<polygon fill="none" stroke="#000000" points="43,-625.5 43,-655.5 301,-655.5 301,-625.5 43,-625.5"/>
<text text-anchor="start" x="50" y="-636.9" font-family="Arial" font-size="14.00" fill="#000000">contest_id    </text>
<text text-anchor="start" x="148.0056" y="-636.9" font-family="Arial" font-size="14.00" fill="#666666">[char(36)]</text>
<polygon fill="none" stroke="#000000" points="43,-595.5 43,-625.5 301,-625.5 301,-595.5 43,-595.5"/>
<text text-anchor="start" x="50" y="-606.9" font-family="Arial" font-size="14.00" fill="#000000">name    </text>
<text text-anchor="start" x="119.2132" y="-606.9" font-family="Arial" font-size="14.00" fill="#666666">[varchar(32)]</text>
<polygon fill="none" stroke="#000000" points="43,-565.5 43,-595.5 301,-595.5 301,-565.5 43,-565.5"/>
<text text-anchor="start" x="50" y="-576.9" font-family="Arial" font-size="14.00" fill="#000000">description    </text>
<text text-anchor="start" x="151.8822" y="-576.9" font-family="Arial" font-size="14.00" fill="#666666">[text]</text>
<polygon fill="none" stroke="#000000" points="43,-535.5 43,-565.5 301,-565.5 301,-535.5 43,-535.5"/>
<text text-anchor="start" x="50" y="-546.9" font-family="Arial" font-size="14.00" fill="#000000">result    </text>
<text text-anchor="start" x="118.4278" y="-546.9" font-family="Arial" font-size="14.00" fill="#666666">[text]</text>
<polygon fill="none" stroke="#000000" points="43,-505.5 43,-535.5 301,-535.5 301,-505.5 43,-505.5"/>
<text text-anchor="start" x="50" y="-516.9" font-family="Arial" font-size="14.00" fill="#000000">link    </text>
<text text-anchor="start" x="105.2006" y="-516.9" font-family="Arial" font-size="14.00" fill="#666666">[text]</text>
<polygon fill="none" stroke="#000000" points="43,-475.5 43,-505.5 301,-505.5 301,-475.5 43,-475.5"/>
<text text-anchor="start" x="50" y="-486.9" font-family="Arial" font-size="14.00" fill="#000000">created_at    </text>
<text text-anchor="start" x="150.3422" y="-486.9" font-family="Arial" font-size="14.00" fill="#666666">[datetime(6)]</text>
<polygon fill="none" stroke="#000000" points="43,-445.5 43,-475.5 301,-475.5 301,-445.5 43,-445.5"/>
<text text-anchor="start" x="50" y="-456.9" font-family="Arial" font-size="14.00" fill="#000000">updated_at    </text>
<text text-anchor="start" x="154.2468" y="-456.9" font-family="Arial" font-size="14.00" fill="#666666">[datetime(6)]</text>
</g>
<!-- contest_teams&#45;&gt;contests -->
<g id="edge1" class="edge">
<title>contest_teams:contest_id&#45;&gt;contests:id</title>
<path fill="none" stroke="#000000" d="M311.0322,-638.5093C381.1553,-609.3863 354.8687,-270.5 276,-270.5"/>
<polygon fill="#000000" stroke="#000000" points="310.8088,-638.5536 300.1241,-636.0861 305.9044,-639.5268 301,-640.5 301,-640.5 301,-640.5 305.9044,-639.5268 301.8759,-644.9139 310.8088,-638.5536 310.8088,-638.5536"/>
<text text-anchor="start" x="308.157" y="-650.5" font-family="Arial" font-size="10.00" fill="#000000">FOREIGN KEY (contest_id) REFERENCES contests (id)</text>
</g>
</g>
</svg>
