<?xml version="1.0" encoding="UTF-8" standalone="no"?>
<!DOCTYPE svg PUBLIC "-//W3C//DTD SVG 1.1//EN"
 "http://www.w3.org/Graphics/SVG/1.1/DTD/svg11.dtd">
<!-- Generated by graphviz version 2.40.1 (20161225.0304)
 -->
<!-- Title: contest_team_user_belongings Pages: 1 -->
<svg width="922pt" height="652pt"
 viewBox="0.00 0.00 922.00 652.00" xmlns="http://www.w3.org/2000/svg" xmlns:xlink="http://www.w3.org/1999/xlink">
<g id="graph0" class="graph" transform="scale(1 1) rotate(0) translate(4 648)">
<title>contest_team_user_belongings</title>
<polygon fill="#ffffff" stroke="transparent" points="-4,4 -4,-648 918,-648 918,4 -4,4"/>
<!-- contest_team_user_belongings -->
<g id="node1" class="node">
<title>contest_team_user_belongings</title>
<polygon fill="#efefef" stroke="transparent" points="283,-562.5 283,-597.5 674,-597.5 674,-562.5 283,-562.5"/>
<polygon fill="none" stroke="#000000" points="283,-562.5 283,-597.5 674,-597.5 674,-562.5 283,-562.5"/>
<text text-anchor="start" x="289.6736" y="-575.3" font-family="Arial Bold" font-size="18.00" fill="#000000">contest_team_user_belongings</text>
<text text-anchor="start" x="539.7584" y="-575.3" font-family="Arial" font-size="14.00" fill="#000000">    </text>
<text text-anchor="start" x="573.9632" y="-575.3" font-family="Arial" font-size="14.00" fill="#666666">[BASE TABLE]</text>
<polygon fill="none" stroke="#000000" points="283,-532.5 283,-562.5 674,-562.5 674,-532.5 283,-532.5"/>
<text text-anchor="start" x="290" y="-543.9" font-family="Arial" font-size="14.00" fill="#000000">team_id </text>
<text text-anchor="start" x="343.6788" y="-543.9" font-family="Arial" font-size="14.00" fill="#666666">[char(36)]</text>
<polygon fill="none" stroke="#000000" points="283,-502.5 283,-532.5 674,-532.5 674,-502.5 283,-502.5"/>
<text text-anchor="start" x="290" y="-513.9" font-family="Arial" font-size="14.00" fill="#000000">user_id </text>
<text text-anchor="start" x="339.7882" y="-513.9" font-family="Arial" font-size="14.00" fill="#666666">[char(36)]</text>
<polygon fill="none" stroke="#000000" points="283,-472.5 283,-502.5 674,-502.5 674,-472.5 283,-472.5"/>
<text text-anchor="start" x="290" y="-483.9" font-family="Arial" font-size="14.00" fill="#000000">created_at </text>
<text text-anchor="start" x="360.028" y="-483.9" font-family="Arial" font-size="14.00" fill="#666666">[datetime(6)]</text>
<polygon fill="none" stroke="#000000" points="283,-442.5 283,-472.5 674,-472.5 674,-442.5 283,-442.5"/>
<text text-anchor="start" x="290" y="-453.9" font-family="Arial" font-size="14.00" fill="#000000">updated_at </text>
<text text-anchor="start" x="363.9326" y="-453.9" font-family="Arial" font-size="14.00" fill="#666666">[datetime(6)]</text>
<polygon fill="none" stroke="#000000" stroke-width="3" points="281,-441.5 281,-599.5 675,-599.5 675,-441.5 281,-441.5"/>
</g>
<!-- contest_teams -->
<g id="node2" class="node">
<title>contest_teams</title>
<polygon fill="#efefef" stroke="transparent" points="185,-282.5 185,-317.5 443,-317.5 443,-282.5 185,-282.5"/>
<polygon fill="none" stroke="#000000" points="185,-282.5 185,-317.5 443,-317.5 443,-282.5 185,-282.5"/>
<text text-anchor="start" x="191.698" y="-295.3" font-family="Arial Bold" font-size="18.00" fill="#000000">contest_teams</text>
<text text-anchor="start" x="308.734" y="-295.3" font-family="Arial" font-size="14.00" fill="#000000">    </text>
<text text-anchor="start" x="342.9388" y="-295.3" font-family="Arial" font-size="14.00" fill="#666666">[BASE TABLE]</text>
<polygon fill="none" stroke="#000000" points="185,-252.5 185,-282.5 443,-282.5 443,-252.5 185,-252.5"/>
<text text-anchor="start" x="192" y="-263.9" font-family="Arial" font-size="14.00" fill="#000000">id    </text>
<text text-anchor="start" x="237.094" y="-263.9" font-family="Arial" font-size="14.00" fill="#666666">[char(36)]</text>
<polygon fill="none" stroke="#000000" points="185,-222.5 185,-252.5 443,-252.5 443,-222.5 185,-222.5"/>
<text text-anchor="start" x="192" y="-233.9" font-family="Arial" font-size="14.00" fill="#000000">contest_id    </text>
<text text-anchor="start" x="290.0056" y="-233.9" font-family="Arial" font-size="14.00" fill="#666666">[char(36)]</text>
<polygon fill="none" stroke="#000000" points="185,-192.5 185,-222.5 443,-222.5 443,-192.5 185,-192.5"/>
<text text-anchor="start" x="192" y="-203.9" font-family="Arial" font-size="14.00" fill="#000000">name    </text>
<text text-anchor="start" x="261.2132" y="-203.9" font-family="Arial" font-size="14.00" fill="#666666">[varchar(32)]</text>
<polygon fill="none" stroke="#000000" points="185,-162.5 185,-192.5 443,-192.5 443,-162.5 185,-162.5"/>
<text text-anchor="start" x="192" y="-173.9" font-family="Arial" font-size="14.00" fill="#000000">description    </text>
<text text-anchor="start" x="293.8822" y="-173.9" font-family="Arial" font-size="14.00" fill="#666666">[text]</text>
<polygon fill="none" stroke="#000000" points="185,-132.5 185,-162.5 443,-162.5 443,-132.5 185,-132.5"/>
<text text-anchor="start" x="192" y="-143.9" font-family="Arial" font-size="14.00" fill="#000000">result    </text>
<text text-anchor="start" x="260.4278" y="-143.9" font-family="Arial" font-size="14.00" fill="#666666">[text]</text>
<polygon fill="none" stroke="#000000" points="185,-102.5 185,-132.5 443,-132.5 443,-102.5 185,-102.5"/>
<text text-anchor="start" x="192" y="-113.9" font-family="Arial" font-size="14.00" fill="#000000">link    </text>
<text text-anchor="start" x="247.2006" y="-113.9" font-family="Arial" font-size="14.00" fill="#666666">[text]</text>
<polygon fill="none" stroke="#000000" points="185,-72.5 185,-102.5 443,-102.5 443,-72.5 185,-72.5"/>
<text text-anchor="start" x="192" y="-83.9" font-family="Arial" font-size="14.00" fill="#000000">created_at    </text>
<text text-anchor="start" x="292.3422" y="-83.9" font-family="Arial" font-size="14.00" fill="#666666">[datetime(6)]</text>
<polygon fill="none" stroke="#000000" points="185,-42.5 185,-72.5 443,-72.5 443,-42.5 185,-42.5"/>
<text text-anchor="start" x="192" y="-53.9" font-family="Arial" font-size="14.00" fill="#000000">updated_at    </text>
<text text-anchor="start" x="296.2468" y="-53.9" font-family="Arial" font-size="14.00" fill="#666666">[datetime(6)]</text>
</g>
<!-- contest_team_user_belongings&#45;&gt;contest_teams -->
<g id="edge1" class="edge">
<title>contest_team_user_belongings:team_id&#45;&gt;contest_teams:id</title>
<path fill="none" stroke="#000000" d="M272.8391,-546.6419C218.9067,-536.8896 243.5,-446.375 283,-397 328.5333,-340.0833 397.4667,-417.9167 443,-361 468.9595,-328.5506 484.5556,-267.5 443,-267.5"/>
<polygon fill="#000000" stroke="#000000" points="273.0355,-546.6584 282.6213,-551.984 278.0177,-547.0792 283,-547.5 283,-547.5 283,-547.5 278.0177,-547.0792 283.3787,-543.016 273.0355,-546.6584 273.0355,-546.6584"/>
<text text-anchor="start" x="7.269" y="-557.5" font-family="Arial" font-size="10.00" fill="#000000">FOREIGN KEY (team_id) REFERENCES contest_teams (id)</text>
</g>
<!-- users -->
<g id="node3" class="node">
<title>users</title>
<polygon fill="#efefef" stroke="transparent" points="547,-252.5 547,-287.5 743,-287.5 743,-252.5 547,-252.5"/>
<polygon fill="none" stroke="#000000" points="547,-252.5 547,-287.5 743,-287.5 743,-252.5 547,-252.5"/>
<text text-anchor="start" x="559.2137" y="-265.3" font-family="Arial Bold" font-size="18.00" fill="#000000">users</text>
<text text-anchor="start" x="603.2183" y="-265.3" font-family="Arial" font-size="14.00" fill="#000000">    </text>
<text text-anchor="start" x="637.4231" y="-265.3" font-family="Arial" font-size="14.00" fill="#666666">[BASE TABLE]</text>
<polygon fill="none" stroke="#000000" points="547,-222.5 547,-252.5 743,-252.5 743,-222.5 547,-222.5"/>
<text text-anchor="start" x="554" y="-233.9" font-family="Arial" font-size="14.00" fill="#000000">id    </text>
<text text-anchor="start" x="599.094" y="-233.9" font-family="Arial" font-size="14.00" fill="#666666">[char(36)]</text>
<polygon fill="none" stroke="#000000" points="547,-192.5 547,-222.5 743,-222.5 743,-192.5 547,-192.5"/>
<text text-anchor="start" x="554" y="-203.9" font-family="Arial" font-size="14.00" fill="#000000">description    </text>
<text text-anchor="start" x="655.8822" y="-203.9" font-family="Arial" font-size="14.00" fill="#666666">[text]</text>
<polygon fill="none" stroke="#000000" points="547,-162.5 547,-192.5 743,-192.5 743,-162.5 547,-162.5"/>
<text text-anchor="start" x="554" y="-173.9" font-family="Arial" font-size="14.00" fill="#000000">check    </text>
<text text-anchor="start" x="624.77" y="-173.9" font-family="Arial" font-size="14.00" fill="#666666">[tinyint(1)]</text>
<polygon fill="none" stroke="#000000" points="547,-132.5 547,-162.5 743,-162.5 743,-132.5 547,-132.5"/>
<text text-anchor="start" x="554" y="-143.9" font-family="Arial" font-size="14.00" fill="#000000">name    </text>
<text text-anchor="start" x="623.2132" y="-143.9" font-family="Arial" font-size="14.00" fill="#666666">[varchar(32)]</text>
<polygon fill="none" stroke="#000000" points="547,-102.5 547,-132.5 743,-132.5 743,-102.5 547,-102.5"/>
<text text-anchor="start" x="554" y="-113.9" font-family="Arial" font-size="14.00" fill="#000000">created_at    </text>
<text text-anchor="start" x="654.3422" y="-113.9" font-family="Arial" font-size="14.00" fill="#666666">[datetime(6)]</text>
<polygon fill="none" stroke="#000000" points="547,-72.5 547,-102.5 743,-102.5 743,-72.5 547,-72.5"/>
<text text-anchor="start" x="553.5947" y="-83.9" font-family="Arial" font-size="14.00" fill="#000000">updated_at    </text>
<text text-anchor="start" x="657.8415" y="-83.9" font-family="Arial" font-size="14.00" fill="#666666">[datetime(6)]</text>
</g>
<!-- contest_team_user_belongings&#45;&gt;users -->
<g id="edge2" class="edge">
<title>contest_team_user_belongings:user_id&#45;&gt;users:id</title>
<path fill="none" stroke="#000000" d="M684.1474,-516.4278C723.9235,-507.135 699.8445,-439.557 674,-397 640.9812,-342.6293 580.0188,-385.3707 547,-331 525.4298,-295.4811 505.4444,-237.5 547,-237.5"/>
<polygon fill="#000000" stroke="#000000" points="683.9446,-516.4491 673.5271,-513.0249 678.9723,-516.9745 674,-517.5 674,-517.5 674,-517.5 678.9723,-516.9745 674.4729,-521.9751 683.9446,-516.4491 683.9446,-516.4491"/>
<text text-anchor="start" x="680.945" y="-527.5" font-family="Arial" font-size="10.00" fill="#000000">FOREIGN KEY (user_id) REFERENCES users (id)</text>
</g>
</g>
</svg>
