<?xml version="1.0" encoding="UTF-8" standalone="no"?>
<!DOCTYPE svg PUBLIC "-//W3C//DTD SVG 1.1//EN"
 "http://www.w3.org/Graphics/SVG/1.1/DTD/svg11.dtd">
<!-- Generated by graphviz version 2.40.1 (20161225.0304)
 -->
<!-- Title: contest_team_user_belongings Pages: 1 -->
<svg width="892pt" height="652pt"
 viewBox="0.00 0.00 892.00 652.00" xmlns="http://www.w3.org/2000/svg" xmlns:xlink="http://www.w3.org/1999/xlink">
<g id="graph0" class="graph" transform="scale(1 1) rotate(0) translate(4 648)">
<title>contest_team_user_belongings</title>
<polygon fill="#ffffff" stroke="transparent" points="-4,4 -4,-648 888,-648 888,4 -4,4"/>
<!-- contest_team_user_belongings -->
<g id="node1" class="node">
<title>contest_team_user_belongings</title>
<polygon fill="#efefef" stroke="transparent" points="283,-562.5 283,-597.5 644,-597.5 644,-562.5 283,-562.5"/>
<polygon fill="none" stroke="#000000" points="283,-562.5 283,-597.5 644,-597.5 644,-562.5 283,-562.5"/>
<text text-anchor="start" x="289.8307" y="-575.3" font-family="Arial Bold" font-size="18.00" fill="#000000">contest_team_user_belongings</text>
<text text-anchor="start" x="539.9155" y="-575.3" font-family="Arial" font-size="14.00" fill="#000000"> </text>
<text text-anchor="start" x="543.8061" y="-575.3" font-family="Arial" font-size="14.00" fill="#666666">[BASE TABLE]</text>
<polygon fill="none" stroke="#000000" points="283,-532.5 283,-562.5 644,-562.5 644,-532.5 283,-532.5"/>
<text text-anchor="start" x="290" y="-543.9" font-family="Arial" font-size="14.00" fill="#000000">team_id </text>
<text text-anchor="start" x="343.6788" y="-543.9" font-family="Arial" font-size="14.00" fill="#666666">[char(36)]</text>
<polygon fill="none" stroke="#000000" points="283,-502.5 283,-532.5 644,-532.5 644,-502.5 283,-502.5"/>
<text text-anchor="start" x="290" y="-513.9" font-family="Arial" font-size="14.00" fill="#000000">user_id </text>
<text text-anchor="start" x="339.7882" y="-513.9" font-family="Arial" font-size="14.00" fill="#666666">[char(36)]</text>
<polygon fill="none" stroke="#000000" points="283,-472.5 283,-502.5 644,-502.5 644,-472.5 283,-472.5"/>
<text text-anchor="start" x="290" y="-483.9" font-family="Arial" font-size="14.00" fill="#000000">created_at </text>
<text text-anchor="start" x="360.028" y="-483.9" font-family="Arial" font-size="14.00" fill="#666666">[datetime(6)]</text>
<polygon fill="none" stroke="#000000" points="283,-442.5 283,-472.5 644,-472.5 644,-442.5 283,-442.5"/>
<text text-anchor="start" x="290" y="-453.9" font-family="Arial" font-size="14.00" fill="#000000">updated_at </text>
<text text-anchor="start" x="363.9326" y="-453.9" font-family="Arial" font-size="14.00" fill="#666666">[datetime(6)]</text>
<polygon fill="none" stroke="#000000" stroke-width="3" points="281,-441.5 281,-599.5 645,-599.5 645,-441.5 281,-441.5"/>
</g>
<!-- contest_teams -->
<g id="node2" class="node">
<title>contest_teams</title>
<polygon fill="#efefef" stroke="transparent" points="200,-282.5 200,-317.5 428,-317.5 428,-282.5 200,-282.5"/>
<polygon fill="none" stroke="#000000" points="200,-282.5 200,-317.5 428,-317.5 428,-282.5 200,-282.5"/>
<text text-anchor="start" x="206.8551" y="-295.3" font-family="Arial Bold" font-size="18.00" fill="#000000">contest_teams</text>
<text text-anchor="start" x="323.8911" y="-295.3" font-family="Arial" font-size="14.00" fill="#000000"> </text>
<text text-anchor="start" x="327.7817" y="-295.3" font-family="Arial" font-size="14.00" fill="#666666">[BASE TABLE]</text>
<polygon fill="none" stroke="#000000" points="200,-252.5 200,-282.5 428,-282.5 428,-252.5 200,-252.5"/>
<text text-anchor="start" x="207" y="-263.9" font-family="Arial" font-size="14.00" fill="#000000">id </text>
<text text-anchor="start" x="221.7798" y="-263.9" font-family="Arial" font-size="14.00" fill="#666666">[char(36)]</text>
<polygon fill="none" stroke="#000000" points="200,-222.5 200,-252.5 428,-252.5 428,-222.5 200,-222.5"/>
<text text-anchor="start" x="207" y="-233.9" font-family="Arial" font-size="14.00" fill="#000000">contest_id </text>
<text text-anchor="start" x="274.6914" y="-233.9" font-family="Arial" font-size="14.00" fill="#666666">[char(36)]</text>
<polygon fill="none" stroke="#000000" points="200,-192.5 200,-222.5 428,-222.5 428,-192.5 200,-192.5"/>
<text text-anchor="start" x="207" y="-203.9" font-family="Arial" font-size="14.00" fill="#000000">name </text>
<text text-anchor="start" x="245.899" y="-203.9" font-family="Arial" font-size="14.00" fill="#666666">[varchar(32)]</text>
<polygon fill="none" stroke="#000000" points="200,-162.5 200,-192.5 428,-192.5 428,-162.5 200,-162.5"/>
<text text-anchor="start" x="207" y="-173.9" font-family="Arial" font-size="14.00" fill="#000000">description </text>
<text text-anchor="start" x="278.568" y="-173.9" font-family="Arial" font-size="14.00" fill="#666666">[text]</text>
<polygon fill="none" stroke="#000000" points="200,-132.5 200,-162.5 428,-162.5 428,-132.5 200,-132.5"/>
<text text-anchor="start" x="207" y="-143.9" font-family="Arial" font-size="14.00" fill="#000000">result </text>
<text text-anchor="start" x="245.1136" y="-143.9" font-family="Arial" font-size="14.00" fill="#666666">[text]</text>
<polygon fill="none" stroke="#000000" points="200,-102.5 200,-132.5 428,-132.5 428,-102.5 200,-102.5"/>
<text text-anchor="start" x="207" y="-113.9" font-family="Arial" font-size="14.00" fill="#000000">link </text>
<text text-anchor="start" x="231.8864" y="-113.9" font-family="Arial" font-size="14.00" fill="#666666">[text]</text>
<polygon fill="none" stroke="#000000" points="200,-72.5 200,-102.5 428,-102.5 428,-72.5 200,-72.5"/>
<text text-anchor="start" x="207" y="-83.9" font-family="Arial" font-size="14.00" fill="#000000">created_at </text>
<text text-anchor="start" x="277.028" y="-83.9" font-family="Arial" font-size="14.00" fill="#666666">[datetime(6)]</text>
<polygon fill="none" stroke="#000000" points="200,-42.5 200,-72.5 428,-72.5 428,-42.5 200,-42.5"/>
<text text-anchor="start" x="207" y="-53.9" font-family="Arial" font-size="14.00" fill="#000000">updated_at </text>
<text text-anchor="start" x="280.9326" y="-53.9" font-family="Arial" font-size="14.00" fill="#666666">[datetime(6)]</text>
</g>
<!-- contest_team_user_belongings&#45;&gt;contest_teams -->
<g id="edge1" class="edge">
<title>contest_team_user_belongings:team_id&#45;&gt;contest_teams:id</title>
<path fill="none" stroke="#000000" d="M272.844,-546.6458C218.9665,-536.9368 244.0465,-446.8073 283,-397 323.9064,-344.6956 387.0936,-413.3044 428,-361 453.6004,-328.2665 469.5556,-267.5 428,-267.5"/>
<polygon fill="#000000" stroke="#000000" points="273.0352,-546.6618 282.6228,-551.9842 278.0176,-547.0809 283,-547.5 283,-547.5 283,-547.5 278.0176,-547.0809 283.3772,-543.0158 273.0352,-546.6618 273.0352,-546.6618"/>
<text text-anchor="start" x="7.269" y="-557.5" font-family="Arial" font-size="10.00" fill="#000000">FOREIGN KEY (team_id) REFERENCES contest_teams (id)</text>
</g>
<!-- users -->
<g id="node3" class="node">
<title>users</title>
<polygon fill="#efefef" stroke="transparent" points="532,-252.5 532,-287.5 698,-287.5 698,-252.5 532,-252.5"/>
<polygon fill="none" stroke="#000000" points="532,-252.5 532,-287.5 698,-287.5 698,-252.5 532,-252.5"/>
<text text-anchor="start" x="544.3708" y="-265.3" font-family="Arial Bold" font-size="18.00" fill="#000000">users</text>
<text text-anchor="start" x="588.3754" y="-265.3" font-family="Arial" font-size="14.00" fill="#000000"> </text>
<text text-anchor="start" x="592.266" y="-265.3" font-family="Arial" font-size="14.00" fill="#666666">[BASE TABLE]</text>
<polygon fill="none" stroke="#000000" points="532,-222.5 532,-252.5 698,-252.5 698,-222.5 532,-222.5"/>
<text text-anchor="start" x="539" y="-233.9" font-family="Arial" font-size="14.00" fill="#000000">id </text>
<text text-anchor="start" x="553.7798" y="-233.9" font-family="Arial" font-size="14.00" fill="#666666">[char(36)]</text>
<polygon fill="none" stroke="#000000" points="532,-192.5 532,-222.5 698,-222.5 698,-192.5 532,-192.5"/>
<text text-anchor="start" x="539" y="-203.9" font-family="Arial" font-size="14.00" fill="#000000">description </text>
<text text-anchor="start" x="610.568" y="-203.9" font-family="Arial" font-size="14.00" fill="#666666">[text]</text>
<polygon fill="none" stroke="#000000" points="532,-162.5 532,-192.5 698,-192.5 698,-162.5 532,-162.5"/>
<text text-anchor="start" x="539" y="-173.9" font-family="Arial" font-size="14.00" fill="#000000">check </text>
<text text-anchor="start" x="579.4558" y="-173.9" font-family="Arial" font-size="14.00" fill="#666666">[tinyint(1)]</text>
<polygon fill="none" stroke="#000000" points="532,-132.5 532,-162.5 698,-162.5 698,-132.5 532,-132.5"/>
<text text-anchor="start" x="539" y="-143.9" font-family="Arial" font-size="14.00" fill="#000000">name </text>
<text text-anchor="start" x="577.899" y="-143.9" font-family="Arial" font-size="14.00" fill="#666666">[varchar(32)]</text>
<polygon fill="none" stroke="#000000" points="532,-102.5 532,-132.5 698,-132.5 698,-102.5 532,-102.5"/>
<text text-anchor="start" x="539" y="-113.9" font-family="Arial" font-size="14.00" fill="#000000">created_at </text>
<text text-anchor="start" x="609.028" y="-113.9" font-family="Arial" font-size="14.00" fill="#666666">[datetime(6)]</text>
<polygon fill="none" stroke="#000000" points="532,-72.5 532,-102.5 698,-102.5 698,-72.5 532,-72.5"/>
<text text-anchor="start" x="538.7518" y="-83.9" font-family="Arial" font-size="14.00" fill="#000000">updated_at </text>
<text text-anchor="start" x="612.6844" y="-83.9" font-family="Arial" font-size="14.00" fill="#666666">[datetime(6)]</text>
</g>
<!-- contest_team_user_belongings&#45;&gt;users -->
<g id="edge2" class="edge">
<title>contest_team_user_belongings:user_id&#45;&gt;users:id</title>
<path fill="none" stroke="#000000" d="M654.1305,-516.4377C693.7629,-507.2296 668.7027,-440.2298 644,-397 615.3342,-346.8348 560.6658,-381.1652 532,-331 511.3827,-294.9197 490.4444,-237.5 532,-237.5"/>
<polygon fill="#000000" stroke="#000000" points="653.9455,-516.457 643.5307,-513.0245 648.9727,-516.9785 644,-517.5 644,-517.5 644,-517.5 648.9727,-516.9785 644.4693,-521.9755 653.9455,-516.457 653.9455,-516.457"/>
<text text-anchor="start" x="650.945" y="-527.5" font-family="Arial" font-size="10.00" fill="#000000">FOREIGN KEY (user_id) REFERENCES users (id)</text>
</g>
</g>
</svg>
