<?xml version="1.0" encoding="UTF-8" standalone="no"?>
<!DOCTYPE svg PUBLIC "-//W3C//DTD SVG 1.1//EN"
 "http://www.w3.org/Graphics/SVG/1.1/DTD/svg11.dtd">
<!-- Generated by graphviz version 2.40.1 (20161225.0304)
 -->
<!-- Title: group_user_belongings Pages: 1 -->
<svg width="860pt" height="712pt"
 viewBox="0.00 0.00 860.00 712.00" xmlns="http://www.w3.org/2000/svg" xmlns:xlink="http://www.w3.org/1999/xlink">
<g id="graph0" class="graph" transform="scale(1 1) rotate(0) translate(4 708)">
<title>group_user_belongings</title>
<polygon fill="#ffffff" stroke="transparent" points="-4,4 -4,-708 856,-708 856,4 -4,4"/>
<!-- group_user_belongings -->
<g id="node1" class="node">
<title>group_user_belongings</title>
<polygon fill="#efefef" stroke="transparent" points="240,-622.5 240,-657.5 569,-657.5 569,-622.5 240,-622.5"/>
<polygon fill="none" stroke="#000000" points="240,-622.5 240,-657.5 569,-657.5 569,-622.5 240,-622.5"/>
<text text-anchor="start" x="246.6831" y="-635.3" font-family="Arial Bold" font-size="18.00" fill="#000000">group_user_belongings</text>
<text text-anchor="start" x="434.7489" y="-635.3" font-family="Arial" font-size="14.00" fill="#000000">    </text>
<text text-anchor="start" x="468.9537" y="-635.3" font-family="Arial" font-size="14.00" fill="#666666">[BASE TABLE]</text>
<polygon fill="none" stroke="#000000" points="240,-592.5 240,-622.5 569,-622.5 569,-592.5 240,-592.5"/>
<text text-anchor="start" x="247" y="-603.9" font-family="Arial" font-size="14.00" fill="#000000">user_id </text>
<text text-anchor="start" x="296.7882" y="-603.9" font-family="Arial" font-size="14.00" fill="#666666">[char(36)]</text>
<polygon fill="none" stroke="#000000" points="240,-562.5 240,-592.5 569,-592.5 569,-562.5 240,-562.5"/>
<text text-anchor="start" x="247" y="-573.9" font-family="Arial" font-size="14.00" fill="#000000">group_id </text>
<text text-anchor="start" x="305.3534" y="-573.9" font-family="Arial" font-size="14.00" fill="#666666">[char(36)]</text>
<polygon fill="none" stroke="#000000" points="240,-532.5 240,-562.5 569,-562.5 569,-532.5 240,-532.5"/>
<text text-anchor="start" x="247" y="-543.9" font-family="Arial" font-size="14.00" fill="#000000">since_year </text>
<text text-anchor="start" x="318.5708" y="-543.9" font-family="Arial" font-size="14.00" fill="#666666">[smallint(4)]</text>
<polygon fill="none" stroke="#000000" points="240,-502.5 240,-532.5 569,-532.5 569,-502.5 240,-502.5"/>
<text text-anchor="start" x="247" y="-513.9" font-family="Arial" font-size="14.00" fill="#000000">since_semester </text>
<text text-anchor="start" x="348.9046" y="-513.9" font-family="Arial" font-size="14.00" fill="#666666">[tinyint(1)]</text>
<polygon fill="none" stroke="#000000" points="240,-472.5 240,-502.5 569,-502.5 569,-472.5 240,-472.5"/>
<text text-anchor="start" x="247" y="-483.9" font-family="Arial" font-size="14.00" fill="#000000">until_year </text>
<text text-anchor="start" x="311.568" y="-483.9" font-family="Arial" font-size="14.00" fill="#666666">[smallint(4)]</text>
<polygon fill="none" stroke="#000000" points="240,-442.5 240,-472.5 569,-472.5 569,-442.5 240,-442.5"/>
<text text-anchor="start" x="247" y="-453.9" font-family="Arial" font-size="14.00" fill="#000000">until_semester </text>
<text text-anchor="start" x="341.9018" y="-453.9" font-family="Arial" font-size="14.00" fill="#666666">[tinyint(1)]</text>
<polygon fill="none" stroke="#000000" points="240,-412.5 240,-442.5 569,-442.5 569,-412.5 240,-412.5"/>
<text text-anchor="start" x="247" y="-423.9" font-family="Arial" font-size="14.00" fill="#000000">created_at </text>
<text text-anchor="start" x="317.028" y="-423.9" font-family="Arial" font-size="14.00" fill="#666666">[datetime(6)]</text>
<polygon fill="none" stroke="#000000" points="240,-382.5 240,-412.5 569,-412.5 569,-382.5 240,-382.5"/>
<text text-anchor="start" x="247" y="-393.9" font-family="Arial" font-size="14.00" fill="#000000">updated_at </text>
<text text-anchor="start" x="320.9326" y="-393.9" font-family="Arial" font-size="14.00" fill="#666666">[datetime(6)]</text>
<polygon fill="none" stroke="#000000" stroke-width="3" points="238,-381.5 238,-659.5 570,-659.5 570,-381.5 238,-381.5"/>
</g>
<!-- users -->
<g id="node2" class="node">
<title>users</title>
<polygon fill="#efefef" stroke="transparent" points="157,-222.5 157,-257.5 353,-257.5 353,-222.5 157,-222.5"/>
<polygon fill="none" stroke="#000000" points="157,-222.5 157,-257.5 353,-257.5 353,-222.5 157,-222.5"/>
<text text-anchor="start" x="169.2137" y="-235.3" font-family="Arial Bold" font-size="18.00" fill="#000000">users</text>
<text text-anchor="start" x="213.2183" y="-235.3" font-family="Arial" font-size="14.00" fill="#000000">    </text>
<text text-anchor="start" x="247.4231" y="-235.3" font-family="Arial" font-size="14.00" fill="#666666">[BASE TABLE]</text>
<polygon fill="none" stroke="#000000" points="157,-192.5 157,-222.5 353,-222.5 353,-192.5 157,-192.5"/>
<text text-anchor="start" x="164" y="-203.9" font-family="Arial" font-size="14.00" fill="#000000">id    </text>
<text text-anchor="start" x="209.094" y="-203.9" font-family="Arial" font-size="14.00" fill="#666666">[char(36)]</text>
<polygon fill="none" stroke="#000000" points="157,-162.5 157,-192.5 353,-192.5 353,-162.5 157,-162.5"/>
<text text-anchor="start" x="164" y="-173.9" font-family="Arial" font-size="14.00" fill="#000000">description    </text>
<text text-anchor="start" x="265.8822" y="-173.9" font-family="Arial" font-size="14.00" fill="#666666">[text]</text>
<polygon fill="none" stroke="#000000" points="157,-132.5 157,-162.5 353,-162.5 353,-132.5 157,-132.5"/>
<text text-anchor="start" x="164" y="-143.9" font-family="Arial" font-size="14.00" fill="#000000">check    </text>
<text text-anchor="start" x="234.77" y="-143.9" font-family="Arial" font-size="14.00" fill="#666666">[tinyint(1)]</text>
<polygon fill="none" stroke="#000000" points="157,-102.5 157,-132.5 353,-132.5 353,-102.5 157,-102.5"/>
<text text-anchor="start" x="164" y="-113.9" font-family="Arial" font-size="14.00" fill="#000000">name    </text>
<text text-anchor="start" x="233.2132" y="-113.9" font-family="Arial" font-size="14.00" fill="#666666">[varchar(32)]</text>
<polygon fill="none" stroke="#000000" points="157,-72.5 157,-102.5 353,-102.5 353,-72.5 157,-72.5"/>
<text text-anchor="start" x="164" y="-83.9" font-family="Arial" font-size="14.00" fill="#000000">created_at    </text>
<text text-anchor="start" x="264.3422" y="-83.9" font-family="Arial" font-size="14.00" fill="#666666">[datetime(6)]</text>
<polygon fill="none" stroke="#000000" points="157,-42.5 157,-72.5 353,-72.5 353,-42.5 157,-42.5"/>
<text text-anchor="start" x="163.5947" y="-53.9" font-family="Arial" font-size="14.00" fill="#000000">updated_at    </text>
<text text-anchor="start" x="267.8415" y="-53.9" font-family="Arial" font-size="14.00" fill="#666666">[datetime(6)]</text>
</g>
<!-- group_user_belongings&#45;&gt;users -->
<g id="edge1" class="edge">
<title>group_user_belongings:user_id&#45;&gt;users:id</title>
<path fill="none" stroke="#000000" d="M229.8663,-607.0597C122.6838,-597.403 171.1347,-431.2151 240,-337 271.104,-294.4464 321.896,-343.5536 353,-301 377.5221,-267.4511 394.5556,-207.5 353,-207.5"/>
<polygon fill="#000000" stroke="#000000" points="230.0094,-607.0658 239.8046,-611.9958 235.0047,-607.2829 240,-607.5 240,-607.5 240,-607.5 235.0047,-607.2829 240.1954,-603.0042 230.0094,-607.0658 230.0094,-607.0658"/>
<text text-anchor="start" x="6.945" y="-617.5" font-family="Arial" font-size="10.00" fill="#000000">FOREIGN KEY (user_id) REFERENCES users (id)</text>
</g>
<!-- groups -->
<g id="node3" class="node">
<title>groups</title>
<polygon fill="#efefef" stroke="transparent" points="457,-222.5 457,-257.5 653,-257.5 653,-222.5 457,-222.5"/>
<polygon fill="none" stroke="#000000" points="457,-222.5 457,-257.5 653,-257.5 653,-222.5 457,-222.5"/>
<text text-anchor="start" x="463.7075" y="-235.3" font-family="Arial Bold" font-size="18.00" fill="#000000">groups</text>
<text text-anchor="start" x="518.7245" y="-235.3" font-family="Arial" font-size="14.00" fill="#000000">    </text>
<text text-anchor="start" x="552.9293" y="-235.3" font-family="Arial" font-size="14.00" fill="#666666">[BASE TABLE]</text>
<polygon fill="none" stroke="#000000" points="457,-192.5 457,-222.5 653,-222.5 653,-192.5 457,-192.5"/>
<text text-anchor="start" x="464" y="-203.9" font-family="Arial" font-size="14.00" fill="#000000">group_id    </text>
<text text-anchor="start" x="552.6676" y="-203.9" font-family="Arial" font-size="14.00" fill="#666666">[char(36)]</text>
<polygon fill="none" stroke="#000000" points="457,-162.5 457,-192.5 653,-192.5 653,-162.5 457,-162.5"/>
<text text-anchor="start" x="464" y="-173.9" font-family="Arial" font-size="14.00" fill="#000000">name    </text>
<text text-anchor="start" x="533.2132" y="-173.9" font-family="Arial" font-size="14.00" fill="#666666">[varchar(32)]</text>
<polygon fill="none" stroke="#000000" points="457,-132.5 457,-162.5 653,-162.5 653,-132.5 457,-132.5"/>
<text text-anchor="start" x="464" y="-143.9" font-family="Arial" font-size="14.00" fill="#000000">link    </text>
<text text-anchor="start" x="519.2006" y="-143.9" font-family="Arial" font-size="14.00" fill="#666666">[text]</text>
<polygon fill="none" stroke="#000000" points="457,-102.5 457,-132.5 653,-132.5 653,-102.5 457,-102.5"/>
<text text-anchor="start" x="464" y="-113.9" font-family="Arial" font-size="14.00" fill="#000000">description    </text>
<text text-anchor="start" x="565.8822" y="-113.9" font-family="Arial" font-size="14.00" fill="#666666">[text]</text>
<polygon fill="none" stroke="#000000" points="457,-72.5 457,-102.5 653,-102.5 653,-72.5 457,-72.5"/>
<text text-anchor="start" x="464" y="-83.9" font-family="Arial" font-size="14.00" fill="#000000">created_at    </text>
<text text-anchor="start" x="564.3422" y="-83.9" font-family="Arial" font-size="14.00" fill="#666666">[datetime(6)]</text>
<polygon fill="none" stroke="#000000" points="457,-42.5 457,-72.5 653,-72.5 653,-42.5 457,-42.5"/>
<text text-anchor="start" x="463.5947" y="-53.9" font-family="Arial" font-size="14.00" fill="#000000">updated_at    </text>
<text text-anchor="start" x="567.8415" y="-53.9" font-family="Arial" font-size="14.00" fill="#666666">[datetime(6)]</text>
</g>
<!-- group_user_belongings&#45;&gt;groups -->
<g id="edge2" class="edge">
<title>group_user_belongings:group_id&#45;&gt;groups:group_id</title>
<path fill="none" stroke="#000000" d="M579.1532,-576.9984C672.951,-567.3399 629.8737,-420.5076 569,-337 538.2002,-294.7484 487.7998,-343.2516 457,-301 432.5212,-267.4195 415.4444,-207.5 457,-207.5"/>
<polygon fill="#000000" stroke="#000000" points="578.9878,-577.0065 568.7779,-573.0055 573.9939,-577.2532 569,-577.5 569,-577.5 569,-577.5 573.9939,-577.2532 569.2221,-581.9945 578.9878,-577.0065 578.9878,-577.0065"/>
<text text-anchor="start" x="576.265" y="-587.5" font-family="Arial" font-size="10.00" fill="#000000">FOREIGN KEY (group_id) REFERENCES groups (group_id)</text>
</g>
</g>
</svg>
