<?xml version="1.0" encoding="UTF-8" standalone="no"?>
<!DOCTYPE svg PUBLIC "-//W3C//DTD SVG 1.1//EN"
 "http://www.w3.org/Graphics/SVG/1.1/DTD/svg11.dtd">
<!-- Generated by graphviz version 2.40.1 (20161225.0304)
 -->
<!-- Title: group_user_belongings Pages: 1 -->
<svg width="830pt" height="652pt"
 viewBox="0.00 0.00 830.00 652.00" xmlns="http://www.w3.org/2000/svg" xmlns:xlink="http://www.w3.org/1999/xlink">
<g id="graph0" class="graph" transform="scale(1 1) rotate(0) translate(4 648)">
<title>group_user_belongings</title>
<polygon fill="#ffffff" stroke="transparent" points="-4,4 -4,-648 826,-648 826,4 -4,4"/>
<!-- group_user_belongings -->
<g id="node1" class="node">
<title>group_user_belongings</title>
<polygon fill="#efefef" stroke="transparent" points="240,-562.5 240,-597.5 539,-597.5 539,-562.5 240,-562.5"/>
<polygon fill="none" stroke="#000000" points="240,-562.5 240,-597.5 539,-597.5 539,-562.5 240,-562.5"/>
<text text-anchor="start" x="246.8402" y="-575.3" font-family="Arial Bold" font-size="18.00" fill="#000000">group_user_belongings</text>
<text text-anchor="start" x="434.906" y="-575.3" font-family="Arial" font-size="14.00" fill="#000000"> </text>
<text text-anchor="start" x="438.7966" y="-575.3" font-family="Arial" font-size="14.00" fill="#666666">[BASE TABLE]</text>
<polygon fill="none" stroke="#000000" points="240,-532.5 240,-562.5 539,-562.5 539,-532.5 240,-532.5"/>
<text text-anchor="start" x="247" y="-543.9" font-family="Arial" font-size="14.00" fill="#000000">user_id </text>
<text text-anchor="start" x="296.7882" y="-543.9" font-family="Arial" font-size="14.00" fill="#666666">[char(36)]</text>
<polygon fill="none" stroke="#000000" points="240,-502.5 240,-532.5 539,-532.5 539,-502.5 240,-502.5"/>
<text text-anchor="start" x="247" y="-513.9" font-family="Arial" font-size="14.00" fill="#000000">group_id </text>
<text text-anchor="start" x="305.3534" y="-513.9" font-family="Arial" font-size="14.00" fill="#666666">[char(36)]</text>
<polygon fill="none" stroke="#000000" points="240,-472.5 240,-502.5 539,-502.5 539,-472.5 240,-472.5"/>
<text text-anchor="start" x="247" y="-483.9" font-family="Arial" font-size="14.00" fill="#000000">since_year </text>
<text text-anchor="start" x="318.5708" y="-483.9" font-family="Arial" font-size="14.00" fill="#666666">[tinyint(1)]</text>
<polygon fill="none" stroke="#000000" points="240,-442.5 240,-472.5 539,-472.5 539,-442.5 240,-442.5"/>
<text text-anchor="start" x="247" y="-453.9" font-family="Arial" font-size="14.00" fill="#000000">since_semester </text>
<text text-anchor="start" x="348.9046" y="-453.9" font-family="Arial" font-size="14.00" fill="#666666">[tinyint(1)]</text>
<polygon fill="none" stroke="#000000" points="240,-412.5 240,-442.5 539,-442.5 539,-412.5 240,-412.5"/>
<text text-anchor="start" x="247" y="-423.9" font-family="Arial" font-size="14.00" fill="#000000">until_year </text>
<text text-anchor="start" x="311.568" y="-423.9" font-family="Arial" font-size="14.00" fill="#666666">[tinyint(1)]</text>
<polygon fill="none" stroke="#000000" points="240,-382.5 240,-412.5 539,-412.5 539,-382.5 240,-382.5"/>
<text text-anchor="start" x="247" y="-393.9" font-family="Arial" font-size="14.00" fill="#000000">until_semester </text>
<text text-anchor="start" x="341.9018" y="-393.9" font-family="Arial" font-size="14.00" fill="#666666">[tinyint(1)]</text>
<polygon fill="none" stroke="#000000" stroke-width="3" points="238,-381.5 238,-599.5 540,-599.5 540,-381.5 238,-381.5"/>
</g>
<!-- users -->
<g id="node2" class="node">
<title>users</title>
<polygon fill="#efefef" stroke="transparent" points="172,-222.5 172,-257.5 338,-257.5 338,-222.5 172,-222.5"/>
<polygon fill="none" stroke="#000000" points="172,-222.5 172,-257.5 338,-257.5 338,-222.5 172,-222.5"/>
<text text-anchor="start" x="184.3708" y="-235.3" font-family="Arial Bold" font-size="18.00" fill="#000000">users</text>
<text text-anchor="start" x="228.3754" y="-235.3" font-family="Arial" font-size="14.00" fill="#000000"> </text>
<text text-anchor="start" x="232.266" y="-235.3" font-family="Arial" font-size="14.00" fill="#666666">[BASE TABLE]</text>
<polygon fill="none" stroke="#000000" points="172,-192.5 172,-222.5 338,-222.5 338,-192.5 172,-192.5"/>
<text text-anchor="start" x="179" y="-203.9" font-family="Arial" font-size="14.00" fill="#000000">id </text>
<text text-anchor="start" x="193.7798" y="-203.9" font-family="Arial" font-size="14.00" fill="#666666">[char(36)]</text>
<polygon fill="none" stroke="#000000" points="172,-162.5 172,-192.5 338,-192.5 338,-162.5 172,-162.5"/>
<text text-anchor="start" x="179" y="-173.9" font-family="Arial" font-size="14.00" fill="#000000">description </text>
<text text-anchor="start" x="250.568" y="-173.9" font-family="Arial" font-size="14.00" fill="#666666">[text]</text>
<polygon fill="none" stroke="#000000" points="172,-132.5 172,-162.5 338,-162.5 338,-132.5 172,-132.5"/>
<text text-anchor="start" x="179" y="-143.9" font-family="Arial" font-size="14.00" fill="#000000">check </text>
<text text-anchor="start" x="219.4558" y="-143.9" font-family="Arial" font-size="14.00" fill="#666666">[tinyint(1)]</text>
<polygon fill="none" stroke="#000000" points="172,-102.5 172,-132.5 338,-132.5 338,-102.5 172,-102.5"/>
<text text-anchor="start" x="179" y="-113.9" font-family="Arial" font-size="14.00" fill="#000000">name </text>
<text text-anchor="start" x="217.899" y="-113.9" font-family="Arial" font-size="14.00" fill="#666666">[varchar(32)]</text>
<polygon fill="none" stroke="#000000" points="172,-72.5 172,-102.5 338,-102.5 338,-72.5 172,-72.5"/>
<text text-anchor="start" x="179" y="-83.9" font-family="Arial" font-size="14.00" fill="#000000">created_at </text>
<text text-anchor="start" x="249.028" y="-83.9" font-family="Arial" font-size="14.00" fill="#666666">[datetime(6)]</text>
<polygon fill="none" stroke="#000000" points="172,-42.5 172,-72.5 338,-72.5 338,-42.5 172,-42.5"/>
<text text-anchor="start" x="178.7518" y="-53.9" font-family="Arial" font-size="14.00" fill="#000000">updated_at </text>
<text text-anchor="start" x="252.6844" y="-53.9" font-family="Arial" font-size="14.00" fill="#666666">[datetime(6)]</text>
</g>
<!-- group_user_belongings&#45;&gt;users -->
<g id="edge1" class="edge">
<title>group_user_belongings:user_id&#45;&gt;users:id</title>
<path fill="none" stroke="#000000" d="M229.6407,-546.899C149.5908,-537.1352 188.5446,-410.7193 240,-337 266.5581,-298.9506 311.4419,-339.0494 338,-301 361.7846,-266.9242 379.5556,-207.5 338,-207.5"/>
<polygon fill="#000000" stroke="#000000" points="230.0168,-546.9207 239.7393,-551.9924 235.0084,-547.2103 240,-547.5 240,-547.5 240,-547.5 235.0084,-547.2103 240.2607,-543.0076 230.0168,-546.9207 230.0168,-546.9207"/>
<text text-anchor="start" x="6.945" y="-557.5" font-family="Arial" font-size="10.00" fill="#000000">FOREIGN KEY (user_id) REFERENCES users (id)</text>
</g>
<!-- groups -->
<g id="node3" class="node">
<title>groups</title>
<polygon fill="#efefef" stroke="transparent" points="442,-192.5 442,-227.5 608,-227.5 608,-192.5 442,-192.5"/>
<polygon fill="none" stroke="#000000" points="442,-192.5 442,-227.5 608,-227.5 608,-192.5 442,-192.5"/>
<text text-anchor="start" x="448.8646" y="-205.3" font-family="Arial Bold" font-size="18.00" fill="#000000">groups</text>
<text text-anchor="start" x="503.8816" y="-205.3" font-family="Arial" font-size="14.00" fill="#000000"> </text>
<text text-anchor="start" x="507.7722" y="-205.3" font-family="Arial" font-size="14.00" fill="#666666">[BASE TABLE]</text>
<polygon fill="none" stroke="#000000" points="442,-162.5 442,-192.5 608,-192.5 608,-162.5 442,-162.5"/>
<text text-anchor="start" x="449" y="-173.9" font-family="Arial" font-size="14.00" fill="#000000">group_id </text>
<text text-anchor="start" x="507.3534" y="-173.9" font-family="Arial" font-size="14.00" fill="#666666">[char(36)]</text>
<polygon fill="none" stroke="#000000" points="442,-132.5 442,-162.5 608,-162.5 608,-132.5 442,-132.5"/>
<text text-anchor="start" x="449" y="-143.9" font-family="Arial" font-size="14.00" fill="#000000">name </text>
<text text-anchor="start" x="487.899" y="-143.9" font-family="Arial" font-size="14.00" fill="#666666">[varchar(32)]</text>
<polygon fill="none" stroke="#000000" points="442,-102.5 442,-132.5 608,-132.5 608,-102.5 442,-102.5"/>
<text text-anchor="start" x="449" y="-113.9" font-family="Arial" font-size="14.00" fill="#000000">link </text>
<text text-anchor="start" x="473.8864" y="-113.9" font-family="Arial" font-size="14.00" fill="#666666">[text]</text>
<polygon fill="none" stroke="#000000" points="442,-72.5 442,-102.5 608,-102.5 608,-72.5 442,-72.5"/>
<text text-anchor="start" x="449" y="-83.9" font-family="Arial" font-size="14.00" fill="#000000">leader </text>
<text text-anchor="start" x="491.7882" y="-83.9" font-family="Arial" font-size="14.00" fill="#666666">[char(36)]</text>
</g>
<!-- group_user_belongings&#45;&gt;groups -->
<g id="edge2" class="edge">
<title>group_user_belongings:group_id&#45;&gt;groups:group_id</title>
<path fill="none" stroke="#000000" d="M549.0786,-516.85C615.396,-507.7319 574.8333,-404.7228 539,-337 514.613,-290.91 466.387,-317.09 442,-271 422.5651,-234.2692 400.4444,-177.5 442,-177.5"/>
<polygon fill="#000000" stroke="#000000" points="548.9793,-516.8563 538.7103,-513.0093 543.9896,-517.1781 539,-517.5 539,-517.5 539,-517.5 543.9896,-517.1781 539.2897,-521.9907 548.9793,-516.8563 548.9793,-516.8563"/>
<text text-anchor="start" x="546.265" y="-527.5" font-family="Arial" font-size="10.00" fill="#000000">FOREIGN KEY (group_id) REFERENCES groups (group_id)</text>
</g>
</g>
</svg>
