<?xml version="1.0" encoding="UTF-8" standalone="no"?>
<!DOCTYPE svg PUBLIC "-//W3C//DTD SVG 1.1//EN"
 "http://www.w3.org/Graphics/SVG/1.1/DTD/svg11.dtd">
<!-- Generated by graphviz version 2.40.1 (20161225.0304)
 -->
<!-- Title: group_users Pages: 1 -->
<svg width="311pt" height="225pt"
 viewBox="0.00 0.00 311.00 225.00" xmlns="http://www.w3.org/2000/svg" xmlns:xlink="http://www.w3.org/1999/xlink">
<g id="graph0" class="graph" transform="scale(1 1) rotate(0) translate(4 221)">
<title>group_users</title>
<polygon fill="#ffffff" stroke="transparent" points="-4,4 -4,-221 307,-221 307,4 -4,4"/>
<!-- group_users -->
<g id="node1" class="node">
<title>group_users</title>
<polygon fill="#efefef" stroke="transparent" points="46.5,-135.5 46.5,-170.5 257.5,-170.5 257.5,-135.5 46.5,-135.5"/>
<polygon fill="none" stroke="#000000" points="46.5,-135.5 46.5,-170.5 257.5,-170.5 257.5,-135.5 46.5,-135.5"/>
<text text-anchor="start" x="53.3592" y="-148.3" font-family="Arial Bold" font-size="18.00" fill="#000000">group_users</text>
<text text-anchor="start" x="153.387" y="-148.3" font-family="Arial" font-size="14.00" fill="#000000"> </text>
<text text-anchor="start" x="157.2776" y="-148.3" font-family="Arial" font-size="14.00" fill="#666666">[BASE TABLE]</text>
<polygon fill="none" stroke="#000000" points="46.5,-105.5 46.5,-135.5 257.5,-135.5 257.5,-105.5 46.5,-105.5"/>
<text text-anchor="start" x="53.5" y="-116.9" font-family="Arial" font-size="14.00" fill="#000000">user_id </text>
<text text-anchor="start" x="103.2882" y="-116.9" font-family="Arial" font-size="14.00" fill="#666666">[char(36)]</text>
<polygon fill="none" stroke="#000000" points="46.5,-75.5 46.5,-105.5 257.5,-105.5 257.5,-75.5 46.5,-75.5"/>
<text text-anchor="start" x="53.5" y="-86.9" font-family="Arial" font-size="14.00" fill="#000000">name </text>
<text text-anchor="start" x="92.399" y="-86.9" font-family="Arial" font-size="14.00" fill="#666666">[varchar(32)]</text>
<polygon fill="none" stroke="#000000" points="46.5,-45.5 46.5,-75.5 257.5,-75.5 257.5,-45.5 46.5,-45.5"/>
<text text-anchor="start" x="53.5" y="-56.9" font-family="Arial" font-size="14.00" fill="#000000">realname </text>
<text text-anchor="start" x="115.7314" y="-56.9" font-family="Arial" font-size="14.00" fill="#666666">[varchar(32)]</text>
<polygon fill="none" stroke="#000000" stroke-width="3" points="44.5,-44.5 44.5,-172.5 258.5,-172.5 258.5,-44.5 44.5,-44.5"/>
</g>
</g>
</svg>
