<?xml version="1.0" encoding="UTF-8" standalone="no"?>
<!DOCTYPE svg PUBLIC "-//W3C//DTD SVG 1.1//EN"
 "http://www.w3.org/Graphics/SVG/1.1/DTD/svg11.dtd">
<!-- Generated by graphviz version 2.40.1 (20161225.0304)
 -->
<!-- Title: group_user_belongings Pages: 1 -->
<svg width="830pt" height="712pt"
 viewBox="0.00 0.00 830.00 712.00" xmlns="http://www.w3.org/2000/svg" xmlns:xlink="http://www.w3.org/1999/xlink">
<g id="graph0" class="graph" transform="scale(1 1) rotate(0) translate(4 708)">
<title>group_user_belongings</title>
<polygon fill="#ffffff" stroke="transparent" points="-4,4 -4,-708 826,-708 826,4 -4,4"/>
<!-- group_user_belongings -->
<g id="node1" class="node">
<title>group_user_belongings</title>
<polygon fill="#efefef" stroke="transparent" points="240,-622.5 240,-657.5 539,-657.5 539,-622.5 240,-622.5"/>
<polygon fill="none" stroke="#000000" points="240,-622.5 240,-657.5 539,-657.5 539,-622.5 240,-622.5"/>
<text text-anchor="start" x="246.8402" y="-635.3" font-family="Arial Bold" font-size="18.00" fill="#000000">group_user_belongings</text>
<text text-anchor="start" x="434.906" y="-635.3" font-family="Arial" font-size="14.00" fill="#000000"> </text>
<text text-anchor="start" x="438.7966" y="-635.3" font-family="Arial" font-size="14.00" fill="#666666">[BASE TABLE]</text>
<polygon fill="none" stroke="#000000" points="240,-592.5 240,-622.5 539,-622.5 539,-592.5 240,-592.5"/>
<text text-anchor="start" x="247" y="-603.9" font-family="Arial" font-size="14.00" fill="#000000">user_id </text>
<text text-anchor="start" x="296.7882" y="-603.9" font-family="Arial" font-size="14.00" fill="#666666">[char(36)]</text>
<polygon fill="none" stroke="#000000" points="240,-562.5 240,-592.5 539,-592.5 539,-562.5 240,-562.5"/>
<text text-anchor="start" x="247" y="-573.9" font-family="Arial" font-size="14.00" fill="#000000">group_id </text>
<text text-anchor="start" x="305.3534" y="-573.9" font-family="Arial" font-size="14.00" fill="#666666">[char(36)]</text>
<polygon fill="none" stroke="#000000" points="240,-532.5 240,-562.5 539,-562.5 539,-532.5 240,-532.5"/>
<text text-anchor="start" x="247" y="-543.9" font-family="Arial" font-size="14.00" fill="#000000">since_year </text>
<text text-anchor="start" x="318.5708" y="-543.9" font-family="Arial" font-size="14.00" fill="#666666">[smallint(4)]</text>
<polygon fill="none" stroke="#000000" points="240,-502.5 240,-532.5 539,-532.5 539,-502.5 240,-502.5"/>
<text text-anchor="start" x="247" y="-513.9" font-family="Arial" font-size="14.00" fill="#000000">since_semester </text>
<text text-anchor="start" x="348.9046" y="-513.9" font-family="Arial" font-size="14.00" fill="#666666">[tinyint(1)]</text>
<polygon fill="none" stroke="#000000" points="240,-472.5 240,-502.5 539,-502.5 539,-472.5 240,-472.5"/>
<text text-anchor="start" x="247" y="-483.9" font-family="Arial" font-size="14.00" fill="#000000">until_year </text>
<text text-anchor="start" x="311.568" y="-483.9" font-family="Arial" font-size="14.00" fill="#666666">[smallint(4)]</text>
<polygon fill="none" stroke="#000000" points="240,-442.5 240,-472.5 539,-472.5 539,-442.5 240,-442.5"/>
<text text-anchor="start" x="247" y="-453.9" font-family="Arial" font-size="14.00" fill="#000000">until_semester </text>
<text text-anchor="start" x="341.9018" y="-453.9" font-family="Arial" font-size="14.00" fill="#666666">[tinyint(1)]</text>
<polygon fill="none" stroke="#000000" points="240,-412.5 240,-442.5 539,-442.5 539,-412.5 240,-412.5"/>
<text text-anchor="start" x="247" y="-423.9" font-family="Arial" font-size="14.00" fill="#000000">created_at </text>
<text text-anchor="start" x="317.028" y="-423.9" font-family="Arial" font-size="14.00" fill="#666666">[datetime(6)]</text>
<polygon fill="none" stroke="#000000" points="240,-382.5 240,-412.5 539,-412.5 539,-382.5 240,-382.5"/>
<text text-anchor="start" x="247" y="-393.9" font-family="Arial" font-size="14.00" fill="#000000">updated_at </text>
<text text-anchor="start" x="320.9326" y="-393.9" font-family="Arial" font-size="14.00" fill="#666666">[datetime(6)]</text>
<polygon fill="none" stroke="#000000" stroke-width="3" points="238,-381.5 238,-659.5 540,-659.5 540,-381.5 238,-381.5"/>
</g>
<!-- users -->
<g id="node2" class="node">
<title>users</title>
<polygon fill="#efefef" stroke="transparent" points="172,-222.5 172,-257.5 338,-257.5 338,-222.5 172,-222.5"/>
<polygon fill="none" stroke="#000000" points="172,-222.5 172,-257.5 338,-257.5 338,-222.5 172,-222.5"/>
<text text-anchor="start" x="184.3708" y="-235.3" font-family="Arial Bold" font-size="18.00" fill="#000000">users</text>
<text text-anchor="start" x="228.3754" y="-235.3" font-family="Arial" font-size="14.00" fill="#000000"> </text>
<text text-anchor="start" x="232.266" y="-235.3" font-family="Arial" font-size="14.00" fill="#666666">[BASE TABLE]</text>
<polygon fill="none" stroke="#000000" points="172,-192.5 172,-222.5 338,-222.5 338,-192.5 172,-192.5"/>
<text text-anchor="start" x="179" y="-203.9" font-family="Arial" font-size="14.00" fill="#000000">id </text>
<text text-anchor="start" x="193.7798" y="-203.9" font-family="Arial" font-size="14.00" fill="#666666">[char(36)]</text>
<polygon fill="none" stroke="#000000" points="172,-162.5 172,-192.5 338,-192.5 338,-162.5 172,-162.5"/>
<text text-anchor="start" x="179" y="-173.9" font-family="Arial" font-size="14.00" fill="#000000">description </text>
<text text-anchor="start" x="250.568" y="-173.9" font-family="Arial" font-size="14.00" fill="#666666">[text]</text>
<polygon fill="none" stroke="#000000" points="172,-132.5 172,-162.5 338,-162.5 338,-132.5 172,-132.5"/>
<text text-anchor="start" x="179" y="-143.9" font-family="Arial" font-size="14.00" fill="#000000">check </text>
<text text-anchor="start" x="219.4558" y="-143.9" font-family="Arial" font-size="14.00" fill="#666666">[tinyint(1)]</text>
<polygon fill="none" stroke="#000000" points="172,-102.5 172,-132.5 338,-132.5 338,-102.5 172,-102.5"/>
<text text-anchor="start" x="179" y="-113.9" font-family="Arial" font-size="14.00" fill="#000000">name </text>
<text text-anchor="start" x="217.899" y="-113.9" font-family="Arial" font-size="14.00" fill="#666666">[varchar(32)]</text>
<polygon fill="none" stroke="#000000" points="172,-72.5 172,-102.5 338,-102.5 338,-72.5 172,-72.5"/>
<text text-anchor="start" x="179" y="-83.9" font-family="Arial" font-size="14.00" fill="#000000">created_at </text>
<text text-anchor="start" x="249.028" y="-83.9" font-family="Arial" font-size="14.00" fill="#666666">[datetime(6)]</text>
<polygon fill="none" stroke="#000000" points="172,-42.5 172,-72.5 338,-72.5 338,-42.5 172,-42.5"/>
<text text-anchor="start" x="178.7518" y="-53.9" font-family="Arial" font-size="14.00" fill="#000000">updated_at </text>
<text text-anchor="start" x="252.6844" y="-53.9" font-family="Arial" font-size="14.00" fill="#666666">[datetime(6)]</text>
</g>
<!-- group_user_belongings&#45;&gt;users -->
<g id="edge1" class="edge">
<title>group_user_belongings:user_id&#45;&gt;users:id</title>
<path fill="none" stroke="#000000" d="M229.8717,-607.0635C122.8052,-597.4897 173.206,-432.6947 240,-337 266.5581,-298.9506 311.4419,-339.0494 338,-301 361.7846,-266.9242 379.5556,-207.5 338,-207.5"/>
<polygon fill="#000000" stroke="#000000" points="230.0093,-607.0693 239.8062,-611.9958 235.0046,-607.2847 240,-607.5 240,-607.5 240,-607.5 235.0046,-607.2847 240.1938,-603.0042 230.0093,-607.0693 230.0093,-607.0693"/>
<text text-anchor="start" x="6.945" y="-617.5" font-family="Arial" font-size="10.00" fill="#000000">FOREIGN KEY (user_id) REFERENCES users (id)</text>
</g>
<!-- groups -->
<g id="node3" class="node">
<title>groups</title>
<polygon fill="#efefef" stroke="transparent" points="442,-222.5 442,-257.5 608,-257.5 608,-222.5 442,-222.5"/>
<polygon fill="none" stroke="#000000" points="442,-222.5 442,-257.5 608,-257.5 608,-222.5 442,-222.5"/>
<text text-anchor="start" x="448.8646" y="-235.3" font-family="Arial Bold" font-size="18.00" fill="#000000">groups</text>
<text text-anchor="start" x="503.8816" y="-235.3" font-family="Arial" font-size="14.00" fill="#000000"> </text>
<text text-anchor="start" x="507.7722" y="-235.3" font-family="Arial" font-size="14.00" fill="#666666">[BASE TABLE]</text>
<polygon fill="none" stroke="#000000" points="442,-192.5 442,-222.5 608,-222.5 608,-192.5 442,-192.5"/>
<text text-anchor="start" x="449" y="-203.9" font-family="Arial" font-size="14.00" fill="#000000">group_id </text>
<text text-anchor="start" x="507.3534" y="-203.9" font-family="Arial" font-size="14.00" fill="#666666">[char(36)]</text>
<polygon fill="none" stroke="#000000" points="442,-162.5 442,-192.5 608,-192.5 608,-162.5 442,-162.5"/>
<text text-anchor="start" x="449" y="-173.9" font-family="Arial" font-size="14.00" fill="#000000">name </text>
<text text-anchor="start" x="487.899" y="-173.9" font-family="Arial" font-size="14.00" fill="#666666">[varchar(32)]</text>
<polygon fill="none" stroke="#000000" points="442,-132.5 442,-162.5 608,-162.5 608,-132.5 442,-132.5"/>
<text text-anchor="start" x="449" y="-143.9" font-family="Arial" font-size="14.00" fill="#000000">link </text>
<text text-anchor="start" x="473.8864" y="-143.9" font-family="Arial" font-size="14.00" fill="#666666">[text]</text>
<polygon fill="none" stroke="#000000" points="442,-102.5 442,-132.5 608,-132.5 608,-102.5 442,-102.5"/>
<text text-anchor="start" x="449" y="-113.9" font-family="Arial" font-size="14.00" fill="#000000">leader </text>
<text text-anchor="start" x="491.7882" y="-113.9" font-family="Arial" font-size="14.00" fill="#666666">[char(36)]</text>
<polygon fill="none" stroke="#000000" points="442,-72.5 442,-102.5 608,-102.5 608,-72.5 442,-72.5"/>
<text text-anchor="start" x="449" y="-83.9" font-family="Arial" font-size="14.00" fill="#000000">created_at </text>
<text text-anchor="start" x="519.028" y="-83.9" font-family="Arial" font-size="14.00" fill="#666666">[datetime(6)]</text>
<polygon fill="none" stroke="#000000" points="442,-42.5 442,-72.5 608,-72.5 608,-42.5 442,-42.5"/>
<text text-anchor="start" x="448.7518" y="-53.9" font-family="Arial" font-size="14.00" fill="#000000">updated_at </text>
<text text-anchor="start" x="522.6844" y="-53.9" font-family="Arial" font-size="14.00" fill="#666666">[datetime(6)]</text>
</g>
<!-- group_user_belongings&#45;&gt;groups -->
<g id="edge2" class="edge">
<title>group_user_belongings:group_id&#45;&gt;groups:group_id</title>
<path fill="none" stroke="#000000" d="M549.147,-577.0028C642.827,-567.4282 598.0059,-421.8377 539,-337 512.7434,-299.2487 468.2566,-338.7513 442,-301 418.2722,-266.8846 400.4444,-207.5 442,-207.5"/>
<polygon fill="#000000" stroke="#000000" points="548.988,-577.0105 538.7797,-573.0054 543.994,-577.2552 539,-577.5 539,-577.5 539,-577.5 543.994,-577.2552 539.2203,-581.9946 548.988,-577.0105 548.988,-577.0105"/>
<text text-anchor="start" x="546.265" y="-587.5" font-family="Arial" font-size="10.00" fill="#000000">FOREIGN KEY (group_id) REFERENCES groups (group_id)</text>
</g>
</g>
</svg>
