<?xml version="1.0" encoding="UTF-8" standalone="no"?>
<!DOCTYPE svg PUBLIC "-//W3C//DTD SVG 1.1//EN"
 "http://www.w3.org/Graphics/SVG/1.1/DTD/svg11.dtd">
<!-- Generated by graphviz version 2.40.1 (20161225.0304)
 -->
<!-- Title: groups Pages: 1 -->
<svg width="634pt" height="712pt"
 viewBox="0.00 0.00 633.50 712.00" xmlns="http://www.w3.org/2000/svg" xmlns:xlink="http://www.w3.org/1999/xlink">
<g id="graph0" class="graph" transform="scale(1 1) rotate(0) translate(4 708)">
<title>groups</title>
<polygon fill="#ffffff" stroke="transparent" points="-4,4 -4,-708 629.5,-708 629.5,4 -4,4"/>
<!-- groups -->
<g id="node1" class="node">
<title>groups</title>
<polygon fill="#efefef" stroke="transparent" points="110.5,-225.5 110.5,-260.5 276.5,-260.5 276.5,-225.5 110.5,-225.5"/>
<polygon fill="none" stroke="#000000" points="110.5,-225.5 110.5,-260.5 276.5,-260.5 276.5,-225.5 110.5,-225.5"/>
<text text-anchor="start" x="117.3646" y="-238.3" font-family="Arial Bold" font-size="18.00" fill="#000000">groups</text>
<text text-anchor="start" x="172.3816" y="-238.3" font-family="Arial" font-size="14.00" fill="#000000"> </text>
<text text-anchor="start" x="176.2722" y="-238.3" font-family="Arial" font-size="14.00" fill="#666666">[BASE TABLE]</text>
<polygon fill="none" stroke="#000000" points="110.5,-195.5 110.5,-225.5 276.5,-225.5 276.5,-195.5 110.5,-195.5"/>
<text text-anchor="start" x="117.5" y="-206.9" font-family="Arial" font-size="14.00" fill="#000000">group_id </text>
<text text-anchor="start" x="175.8534" y="-206.9" font-family="Arial" font-size="14.00" fill="#666666">[char(36)]</text>
<polygon fill="none" stroke="#000000" points="110.5,-165.5 110.5,-195.5 276.5,-195.5 276.5,-165.5 110.5,-165.5"/>
<text text-anchor="start" x="117.5" y="-176.9" font-family="Arial" font-size="14.00" fill="#000000">name </text>
<text text-anchor="start" x="156.399" y="-176.9" font-family="Arial" font-size="14.00" fill="#666666">[varchar(32)]</text>
<polygon fill="none" stroke="#000000" points="110.5,-135.5 110.5,-165.5 276.5,-165.5 276.5,-135.5 110.5,-135.5"/>
<text text-anchor="start" x="117.5" y="-146.9" font-family="Arial" font-size="14.00" fill="#000000">link </text>
<text text-anchor="start" x="142.3864" y="-146.9" font-family="Arial" font-size="14.00" fill="#666666">[text]</text>
<polygon fill="none" stroke="#000000" points="110.5,-105.5 110.5,-135.5 276.5,-135.5 276.5,-105.5 110.5,-105.5"/>
<text text-anchor="start" x="117.5" y="-116.9" font-family="Arial" font-size="14.00" fill="#000000">leader </text>
<text text-anchor="start" x="160.2882" y="-116.9" font-family="Arial" font-size="14.00" fill="#666666">[char(36)]</text>
<polygon fill="none" stroke="#000000" points="110.5,-75.5 110.5,-105.5 276.5,-105.5 276.5,-75.5 110.5,-75.5"/>
<text text-anchor="start" x="117.5" y="-86.9" font-family="Arial" font-size="14.00" fill="#000000">created_at </text>
<text text-anchor="start" x="187.528" y="-86.9" font-family="Arial" font-size="14.00" fill="#666666">[datetime(6)]</text>
<polygon fill="none" stroke="#000000" points="110.5,-45.5 110.5,-75.5 276.5,-75.5 276.5,-45.5 110.5,-45.5"/>
<text text-anchor="start" x="117.2518" y="-56.9" font-family="Arial" font-size="14.00" fill="#000000">updated_at </text>
<text text-anchor="start" x="191.1844" y="-56.9" font-family="Arial" font-size="14.00" fill="#666666">[datetime(6)]</text>
<polygon fill="none" stroke="#000000" stroke-width="3" points="109,-44.5 109,-262.5 278,-262.5 278,-44.5 109,-44.5"/>
</g>
<!-- group_user_belongings -->
<g id="node2" class="node">
<title>group_user_belongings</title>
<polygon fill="#efefef" stroke="transparent" points="43.5,-625.5 43.5,-660.5 342.5,-660.5 342.5,-625.5 43.5,-625.5"/>
<polygon fill="none" stroke="#000000" points="43.5,-625.5 43.5,-660.5 342.5,-660.5 342.5,-625.5 43.5,-625.5"/>
<text text-anchor="start" x="50.3402" y="-638.3" font-family="Arial Bold" font-size="18.00" fill="#000000">group_user_belongings</text>
<text text-anchor="start" x="238.406" y="-638.3" font-family="Arial" font-size="14.00" fill="#000000"> </text>
<text text-anchor="start" x="242.2966" y="-638.3" font-family="Arial" font-size="14.00" fill="#666666">[BASE TABLE]</text>
<polygon fill="none" stroke="#000000" points="43.5,-595.5 43.5,-625.5 342.5,-625.5 342.5,-595.5 43.5,-595.5"/>
<text text-anchor="start" x="50.5" y="-606.9" font-family="Arial" font-size="14.00" fill="#000000">user_id </text>
<text text-anchor="start" x="100.2882" y="-606.9" font-family="Arial" font-size="14.00" fill="#666666">[char(36)]</text>
<polygon fill="none" stroke="#000000" points="43.5,-565.5 43.5,-595.5 342.5,-595.5 342.5,-565.5 43.5,-565.5"/>
<text text-anchor="start" x="50.5" y="-576.9" font-family="Arial" font-size="14.00" fill="#000000">group_id </text>
<text text-anchor="start" x="108.8534" y="-576.9" font-family="Arial" font-size="14.00" fill="#666666">[char(36)]</text>
<polygon fill="none" stroke="#000000" points="43.5,-535.5 43.5,-565.5 342.5,-565.5 342.5,-535.5 43.5,-535.5"/>
<text text-anchor="start" x="50.5" y="-546.9" font-family="Arial" font-size="14.00" fill="#000000">since_year </text>
<text text-anchor="start" x="122.0708" y="-546.9" font-family="Arial" font-size="14.00" fill="#666666">[smallint(4)]</text>
<polygon fill="none" stroke="#000000" points="43.5,-505.5 43.5,-535.5 342.5,-535.5 342.5,-505.5 43.5,-505.5"/>
<text text-anchor="start" x="50.5" y="-516.9" font-family="Arial" font-size="14.00" fill="#000000">since_semester </text>
<text text-anchor="start" x="152.4046" y="-516.9" font-family="Arial" font-size="14.00" fill="#666666">[tinyint(1)]</text>
<polygon fill="none" stroke="#000000" points="43.5,-475.5 43.5,-505.5 342.5,-505.5 342.5,-475.5 43.5,-475.5"/>
<text text-anchor="start" x="50.5" y="-486.9" font-family="Arial" font-size="14.00" fill="#000000">until_year </text>
<text text-anchor="start" x="115.068" y="-486.9" font-family="Arial" font-size="14.00" fill="#666666">[smallint(4)]</text>
<polygon fill="none" stroke="#000000" points="43.5,-445.5 43.5,-475.5 342.5,-475.5 342.5,-445.5 43.5,-445.5"/>
<text text-anchor="start" x="50.5" y="-456.9" font-family="Arial" font-size="14.00" fill="#000000">until_semester </text>
<text text-anchor="start" x="145.4018" y="-456.9" font-family="Arial" font-size="14.00" fill="#666666">[tinyint(1)]</text>
<polygon fill="none" stroke="#000000" points="43.5,-415.5 43.5,-445.5 342.5,-445.5 342.5,-415.5 43.5,-415.5"/>
<text text-anchor="start" x="50.5" y="-426.9" font-family="Arial" font-size="14.00" fill="#000000">created_at </text>
<text text-anchor="start" x="120.528" y="-426.9" font-family="Arial" font-size="14.00" fill="#666666">[datetime(6)]</text>
<polygon fill="none" stroke="#000000" points="43.5,-385.5 43.5,-415.5 342.5,-415.5 342.5,-385.5 43.5,-385.5"/>
<text text-anchor="start" x="50.5" y="-396.9" font-family="Arial" font-size="14.00" fill="#000000">updated_at </text>
<text text-anchor="start" x="124.4326" y="-396.9" font-family="Arial" font-size="14.00" fill="#666666">[datetime(6)]</text>
</g>
<!-- group_user_belongings&#45;&gt;groups -->
<g id="edge1" class="edge">
<title>group_user_belongings:group_id&#45;&gt;groups:group_id</title>
<path fill="none" stroke="#000000" d="M352.5473,-579.9882C445.5716,-570.1366 408.8982,-420.496 342.5,-343 274.609,-263.7617 178.391,-386.2383 110.5,-307 82.5948,-274.4307 67.6111,-210.5 110.5,-210.5"/>
<polygon fill="#000000" stroke="#000000" points="352.4871,-579.9912 342.271,-576.0058 347.4935,-580.2456 342.5,-580.5 342.5,-580.5 342.5,-580.5 347.4935,-580.2456 342.729,-584.9942 352.4871,-579.9912 352.4871,-579.9912"/>
<text text-anchor="start" x="349.765" y="-590.5" font-family="Arial" font-size="10.00" fill="#000000">FOREIGN KEY (group_id) REFERENCES groups (group_id)</text>
</g>
</g>
</svg>
