<?xml version="1.0" encoding="UTF-8" standalone="no"?>
<!DOCTYPE svg PUBLIC "-//W3C//DTD SVG 1.1//EN"
 "http://www.w3.org/Graphics/SVG/1.1/DTD/svg11.dtd">
<!-- Generated by graphviz version 2.40.1 (20161225.0304)
 -->
<!-- Title: groups Pages: 1 -->
<svg width="634pt" height="592pt"
 viewBox="0.00 0.00 633.50 592.00" xmlns="http://www.w3.org/2000/svg" xmlns:xlink="http://www.w3.org/1999/xlink">
<g id="graph0" class="graph" transform="scale(1 1) rotate(0) translate(4 588)">
<title>groups</title>
<polygon fill="#ffffff" stroke="transparent" points="-4,4 -4,-588 629.5,-588 629.5,4 -4,4"/>
<!-- groups -->
<g id="node1" class="node">
<title>groups</title>
<polygon fill="#efefef" stroke="transparent" points="110.5,-165.5 110.5,-200.5 276.5,-200.5 276.5,-165.5 110.5,-165.5"/>
<polygon fill="none" stroke="#000000" points="110.5,-165.5 110.5,-200.5 276.5,-200.5 276.5,-165.5 110.5,-165.5"/>
<text text-anchor="start" x="117.3646" y="-178.3" font-family="Arial Bold" font-size="18.00" fill="#000000">groups</text>
<text text-anchor="start" x="172.3816" y="-178.3" font-family="Arial" font-size="14.00" fill="#000000"> </text>
<text text-anchor="start" x="176.2722" y="-178.3" font-family="Arial" font-size="14.00" fill="#666666">[BASE TABLE]</text>
<polygon fill="none" stroke="#000000" points="110.5,-135.5 110.5,-165.5 276.5,-165.5 276.5,-135.5 110.5,-135.5"/>
<text text-anchor="start" x="117.5" y="-146.9" font-family="Arial" font-size="14.00" fill="#000000">group_id </text>
<text text-anchor="start" x="175.8534" y="-146.9" font-family="Arial" font-size="14.00" fill="#666666">[char(36)]</text>
<polygon fill="none" stroke="#000000" points="110.5,-105.5 110.5,-135.5 276.5,-135.5 276.5,-105.5 110.5,-105.5"/>
<text text-anchor="start" x="117.5" y="-116.9" font-family="Arial" font-size="14.00" fill="#000000">name </text>
<text text-anchor="start" x="156.399" y="-116.9" font-family="Arial" font-size="14.00" fill="#666666">[varchar(32)]</text>
<polygon fill="none" stroke="#000000" points="110.5,-75.5 110.5,-105.5 276.5,-105.5 276.5,-75.5 110.5,-75.5"/>
<text text-anchor="start" x="117.5" y="-86.9" font-family="Arial" font-size="14.00" fill="#000000">link </text>
<text text-anchor="start" x="142.3864" y="-86.9" font-family="Arial" font-size="14.00" fill="#666666">[text]</text>
<polygon fill="none" stroke="#000000" points="110.5,-45.5 110.5,-75.5 276.5,-75.5 276.5,-45.5 110.5,-45.5"/>
<text text-anchor="start" x="117.5" y="-56.9" font-family="Arial" font-size="14.00" fill="#000000">leader </text>
<text text-anchor="start" x="160.2882" y="-56.9" font-family="Arial" font-size="14.00" fill="#666666">[char(36)]</text>
<polygon fill="none" stroke="#000000" stroke-width="3" points="109,-44.5 109,-202.5 278,-202.5 278,-44.5 109,-44.5"/>
</g>
<!-- group_user_belongings -->
<g id="node2" class="node">
<title>group_user_belongings</title>
<polygon fill="#efefef" stroke="transparent" points="43.5,-505.5 43.5,-540.5 342.5,-540.5 342.5,-505.5 43.5,-505.5"/>
<polygon fill="none" stroke="#000000" points="43.5,-505.5 43.5,-540.5 342.5,-540.5 342.5,-505.5 43.5,-505.5"/>
<text text-anchor="start" x="50.3402" y="-518.3" font-family="Arial Bold" font-size="18.00" fill="#000000">group_user_belongings</text>
<text text-anchor="start" x="238.406" y="-518.3" font-family="Arial" font-size="14.00" fill="#000000"> </text>
<text text-anchor="start" x="242.2966" y="-518.3" font-family="Arial" font-size="14.00" fill="#666666">[BASE TABLE]</text>
<polygon fill="none" stroke="#000000" points="43.5,-475.5 43.5,-505.5 342.5,-505.5 342.5,-475.5 43.5,-475.5"/>
<text text-anchor="start" x="50.5" y="-486.9" font-family="Arial" font-size="14.00" fill="#000000">user_id </text>
<text text-anchor="start" x="100.2882" y="-486.9" font-family="Arial" font-size="14.00" fill="#666666">[char(36)]</text>
<polygon fill="none" stroke="#000000" points="43.5,-445.5 43.5,-475.5 342.5,-475.5 342.5,-445.5 43.5,-445.5"/>
<text text-anchor="start" x="50.5" y="-456.9" font-family="Arial" font-size="14.00" fill="#000000">group_id </text>
<text text-anchor="start" x="108.8534" y="-456.9" font-family="Arial" font-size="14.00" fill="#666666">[char(36)]</text>
<polygon fill="none" stroke="#000000" points="43.5,-415.5 43.5,-445.5 342.5,-445.5 342.5,-415.5 43.5,-415.5"/>
<text text-anchor="start" x="50.5" y="-426.9" font-family="Arial" font-size="14.00" fill="#000000">since_year </text>
<text text-anchor="start" x="122.0708" y="-426.9" font-family="Arial" font-size="14.00" fill="#666666">[tinyint(1)]</text>
<polygon fill="none" stroke="#000000" points="43.5,-385.5 43.5,-415.5 342.5,-415.5 342.5,-385.5 43.5,-385.5"/>
<text text-anchor="start" x="50.5" y="-396.9" font-family="Arial" font-size="14.00" fill="#000000">since_semester </text>
<text text-anchor="start" x="152.4046" y="-396.9" font-family="Arial" font-size="14.00" fill="#666666">[tinyint(1)]</text>
<polygon fill="none" stroke="#000000" points="43.5,-355.5 43.5,-385.5 342.5,-385.5 342.5,-355.5 43.5,-355.5"/>
<text text-anchor="start" x="50.5" y="-366.9" font-family="Arial" font-size="14.00" fill="#000000">until_year </text>
<text text-anchor="start" x="115.068" y="-366.9" font-family="Arial" font-size="14.00" fill="#666666">[tinyint(1)]</text>
<polygon fill="none" stroke="#000000" points="43.5,-325.5 43.5,-355.5 342.5,-355.5 342.5,-325.5 43.5,-325.5"/>
<text text-anchor="start" x="50.5" y="-336.9" font-family="Arial" font-size="14.00" fill="#000000">until_semester </text>
<text text-anchor="start" x="145.4018" y="-336.9" font-family="Arial" font-size="14.00" fill="#666666">[tinyint(1)]</text>
</g>
<!-- group_user_belongings&#45;&gt;groups -->
<g id="edge1" class="edge">
<title>group_user_belongings:group_id&#45;&gt;groups:group_id</title>
<path fill="none" stroke="#000000" d="M352.4946,-459.804C418.8648,-450.0514 391.5224,-340.2161 342.5,-283 274.609,-203.7617 178.391,-326.2383 110.5,-247 82.5948,-214.4307 67.6111,-150.5 110.5,-150.5"/>
<polygon fill="#000000" stroke="#000000" points="352.4758,-459.8052 342.1873,-456.0109 347.4879,-460.1526 342.5,-460.5 342.5,-460.5 342.5,-460.5 347.4879,-460.1526 342.8127,-464.9891 352.4758,-459.8052 352.4758,-459.8052"/>
<text text-anchor="start" x="349.765" y="-470.5" font-family="Arial" font-size="10.00" fill="#000000">FOREIGN KEY (group_id) REFERENCES groups (group_id)</text>
</g>
</g>
</svg>
