<?xml version="1.0" encoding="UTF-8" standalone="no"?>
<!DOCTYPE svg PUBLIC "-//W3C//DTD SVG 1.1//EN"
 "http://www.w3.org/Graphics/SVG/1.1/DTD/svg11.dtd">
<!-- Generated by graphviz version 2.40.1 (20161225.0304)
 -->
<!-- Title: groups Pages: 1 -->
<svg width="828pt" height="712pt"
 viewBox="0.00 0.00 827.50 712.00" xmlns="http://www.w3.org/2000/svg" xmlns:xlink="http://www.w3.org/1999/xlink">
<g id="graph0" class="graph" transform="scale(1 1) rotate(0) translate(4 708)">
<title>groups</title>
<polygon fill="#ffffff" stroke="transparent" points="-4,4 -4,-708 823.5,-708 823.5,4 -4,4"/>
<!-- groups -->
<g id="node1" class="node">
<title>groups</title>
<polygon fill="#efefef" stroke="transparent" points="305,-225.5 305,-260.5 501,-260.5 501,-225.5 305,-225.5"/>
<polygon fill="none" stroke="#000000" points="305,-225.5 305,-260.5 501,-260.5 501,-225.5 305,-225.5"/>
<text text-anchor="start" x="311.7075" y="-238.3" font-family="Arial Bold" font-size="18.00" fill="#000000">groups</text>
<text text-anchor="start" x="366.7245" y="-238.3" font-family="Arial" font-size="14.00" fill="#000000">    </text>
<text text-anchor="start" x="400.9293" y="-238.3" font-family="Arial" font-size="14.00" fill="#666666">[BASE TABLE]</text>
<polygon fill="none" stroke="#000000" points="305,-195.5 305,-225.5 501,-225.5 501,-195.5 305,-195.5"/>
<text text-anchor="start" x="312" y="-206.9" font-family="Arial" font-size="14.00" fill="#000000">group_id </text>
<text text-anchor="start" x="370.3534" y="-206.9" font-family="Arial" font-size="14.00" fill="#666666">[char(36)]</text>
<polygon fill="none" stroke="#000000" points="305,-165.5 305,-195.5 501,-195.5 501,-165.5 305,-165.5"/>
<text text-anchor="start" x="312" y="-176.9" font-family="Arial" font-size="14.00" fill="#000000">name </text>
<text text-anchor="start" x="350.899" y="-176.9" font-family="Arial" font-size="14.00" fill="#666666">[varchar(32)]</text>
<polygon fill="none" stroke="#000000" points="305,-135.5 305,-165.5 501,-165.5 501,-135.5 305,-135.5"/>
<text text-anchor="start" x="312" y="-146.9" font-family="Arial" font-size="14.00" fill="#000000">link </text>
<text text-anchor="start" x="336.8864" y="-146.9" font-family="Arial" font-size="14.00" fill="#666666">[text]</text>
<polygon fill="none" stroke="#000000" points="305,-105.5 305,-135.5 501,-135.5 501,-105.5 305,-105.5"/>
<text text-anchor="start" x="312" y="-116.9" font-family="Arial" font-size="14.00" fill="#000000">description </text>
<text text-anchor="start" x="383.568" y="-116.9" font-family="Arial" font-size="14.00" fill="#666666">[text]</text>
<polygon fill="none" stroke="#000000" points="305,-75.5 305,-105.5 501,-105.5 501,-75.5 305,-75.5"/>
<text text-anchor="start" x="312" y="-86.9" font-family="Arial" font-size="14.00" fill="#000000">created_at </text>
<text text-anchor="start" x="382.028" y="-86.9" font-family="Arial" font-size="14.00" fill="#666666">[datetime(6)]</text>
<polygon fill="none" stroke="#000000" points="305,-45.5 305,-75.5 501,-75.5 501,-45.5 305,-45.5"/>
<text text-anchor="start" x="312" y="-56.9" font-family="Arial" font-size="14.00" fill="#000000">updated_at </text>
<text text-anchor="start" x="385.9326" y="-56.9" font-family="Arial" font-size="14.00" fill="#666666">[datetime(6)]</text>
<polygon fill="none" stroke="#000000" stroke-width="3" points="303.5,-44.5 303.5,-262.5 502.5,-262.5 502.5,-44.5 303.5,-44.5"/>
</g>
<!-- group_user_admins -->
<g id="node2" class="node">
<title>group_user_admins</title>
<polygon fill="#efefef" stroke="transparent" points="43,-565.5 43,-600.5 343,-600.5 343,-565.5 43,-565.5"/>
<polygon fill="none" stroke="#000000" points="43,-565.5 43,-600.5 343,-600.5 343,-565.5 43,-565.5"/>
<text text-anchor="start" x="49.6965" y="-578.3" font-family="Arial Bold" font-size="18.00" fill="#000000">group_user_admins</text>
<text text-anchor="start" x="208.7355" y="-578.3" font-family="Arial" font-size="14.00" fill="#000000">    </text>
<text text-anchor="start" x="242.9403" y="-578.3" font-family="Arial" font-size="14.00" fill="#666666">[BASE TABLE]</text>
<polygon fill="none" stroke="#000000" points="43,-535.5 43,-565.5 343,-565.5 343,-535.5 43,-535.5"/>
<text text-anchor="start" x="50" y="-546.9" font-family="Arial" font-size="14.00" fill="#000000">user_id    </text>
<text text-anchor="start" x="130.1024" y="-546.9" font-family="Arial" font-size="14.00" fill="#666666">[char(36)]</text>
<polygon fill="none" stroke="#000000" points="43,-505.5 43,-535.5 343,-535.5 343,-505.5 43,-505.5"/>
<text text-anchor="start" x="50" y="-516.9" font-family="Arial" font-size="14.00" fill="#000000">group_id    </text>
<text text-anchor="start" x="138.6676" y="-516.9" font-family="Arial" font-size="14.00" fill="#666666">[char(36)]</text>
<polygon fill="none" stroke="#000000" points="43,-475.5 43,-505.5 343,-505.5 343,-475.5 43,-475.5"/>
<text text-anchor="start" x="50" y="-486.9" font-family="Arial" font-size="14.00" fill="#000000">created_at    </text>
<text text-anchor="start" x="150.3422" y="-486.9" font-family="Arial" font-size="14.00" fill="#666666">[datetime(6)]</text>
<polygon fill="none" stroke="#000000" points="43,-445.5 43,-475.5 343,-475.5 343,-445.5 43,-445.5"/>
<text text-anchor="start" x="50" y="-456.9" font-family="Arial" font-size="14.00" fill="#000000">updated_at    </text>
<text text-anchor="start" x="154.2468" y="-456.9" font-family="Arial" font-size="14.00" fill="#666666">[datetime(6)]</text>
</g>
<!-- group_user_admins&#45;&gt;groups -->
<g id="edge1" class="edge">
<title>group_user_admins:group_id&#45;&gt;groups:group_id</title>
<path fill="none" stroke="#000000" d="M353.0489,-519.8648C465.4811,-504.3679 169.851,-210.5 305,-210.5"/>
<polygon fill="#000000" stroke="#000000" points="352.9801,-519.8691 342.7161,-516.009 347.99,-520.1845 343,-520.5 343,-520.5 343,-520.5 347.99,-520.1845 343.2839,-524.991 352.9801,-519.8691 352.9801,-519.8691"/>
<text text-anchor="start" x="350.265" y="-530.5" font-family="Arial" font-size="10.00" fill="#000000">FOREIGN KEY (group_id) REFERENCES groups (group_id)</text>
</g>
<!-- group_user_belongings -->
<g id="node3" class="node">
<title>group_user_belongings</title>
<polygon fill="#efefef" stroke="transparent" points="448,-625.5 448,-660.5 777,-660.5 777,-625.5 448,-625.5"/>
<polygon fill="none" stroke="#000000" points="448,-625.5 448,-660.5 777,-660.5 777,-625.5 448,-625.5"/>
<text text-anchor="start" x="454.6831" y="-638.3" font-family="Arial Bold" font-size="18.00" fill="#000000">group_user_belongings</text>
<text text-anchor="start" x="642.7489" y="-638.3" font-family="Arial" font-size="14.00" fill="#000000">    </text>
<text text-anchor="start" x="676.9537" y="-638.3" font-family="Arial" font-size="14.00" fill="#666666">[BASE TABLE]</text>
<polygon fill="none" stroke="#000000" points="448,-595.5 448,-625.5 777,-625.5 777,-595.5 448,-595.5"/>
<text text-anchor="start" x="455" y="-606.9" font-family="Arial" font-size="14.00" fill="#000000">user_id    </text>
<text text-anchor="start" x="535.1024" y="-606.9" font-family="Arial" font-size="14.00" fill="#666666">[char(36)]</text>
<polygon fill="none" stroke="#000000" points="448,-565.5 448,-595.5 777,-595.5 777,-565.5 448,-565.5"/>
<text text-anchor="start" x="455" y="-576.9" font-family="Arial" font-size="14.00" fill="#000000">group_id    </text>
<text text-anchor="start" x="543.6676" y="-576.9" font-family="Arial" font-size="14.00" fill="#666666">[char(36)]</text>
<polygon fill="none" stroke="#000000" points="448,-535.5 448,-565.5 777,-565.5 777,-535.5 448,-535.5"/>
<text text-anchor="start" x="455" y="-546.9" font-family="Arial" font-size="14.00" fill="#000000">since_year    </text>
<text text-anchor="start" x="556.885" y="-546.9" font-family="Arial" font-size="14.00" fill="#666666">[smallint(4)]</text>
<polygon fill="none" stroke="#000000" points="448,-505.5 448,-535.5 777,-535.5 777,-505.5 448,-505.5"/>
<text text-anchor="start" x="455" y="-516.9" font-family="Arial" font-size="14.00" fill="#000000">since_semester    </text>
<text text-anchor="start" x="587.2188" y="-516.9" font-family="Arial" font-size="14.00" fill="#666666">[tinyint(1)]</text>
<polygon fill="none" stroke="#000000" points="448,-475.5 448,-505.5 777,-505.5 777,-475.5 448,-475.5"/>
<text text-anchor="start" x="455" y="-486.9" font-family="Arial" font-size="14.00" fill="#000000">until_year    </text>
<text text-anchor="start" x="549.8822" y="-486.9" font-family="Arial" font-size="14.00" fill="#666666">[smallint(4)]</text>
<polygon fill="none" stroke="#000000" points="448,-445.5 448,-475.5 777,-475.5 777,-445.5 448,-445.5"/>
<text text-anchor="start" x="455" y="-456.9" font-family="Arial" font-size="14.00" fill="#000000">until_semester    </text>
<text text-anchor="start" x="580.216" y="-456.9" font-family="Arial" font-size="14.00" fill="#666666">[tinyint(1)]</text>
<polygon fill="none" stroke="#000000" points="448,-415.5 448,-445.5 777,-445.5 777,-415.5 448,-415.5"/>
<text text-anchor="start" x="455" y="-426.9" font-family="Arial" font-size="14.00" fill="#000000">created_at    </text>
<text text-anchor="start" x="555.3422" y="-426.9" font-family="Arial" font-size="14.00" fill="#666666">[datetime(6)]</text>
<polygon fill="none" stroke="#000000" points="448,-385.5 448,-415.5 777,-415.5 777,-385.5 448,-385.5"/>
<text text-anchor="start" x="455" y="-396.9" font-family="Arial" font-size="14.00" fill="#000000">updated_at    </text>
<text text-anchor="start" x="559.2468" y="-396.9" font-family="Arial" font-size="14.00" fill="#666666">[datetime(6)]</text>
</g>
<!-- group_user_belongings&#45;&gt;groups -->
<g id="edge2" class="edge">
<title>group_user_belongings:group_id&#45;&gt;groups:group_id</title>
<path fill="none" stroke="#000000" d="M438.0371,-577.7857C399.1537,-554.3733 425.0349,-386.3608 448,-343 461.3277,-317.8358 487.6723,-332.1642 501,-307 521.0736,-269.0987 543.8889,-210.5 501,-210.5"/>
<polygon fill="#000000" stroke="#000000" points="438.3516,-577.8714 446.8171,-584.8418 443.1758,-579.1857 448,-580.5 448,-580.5 448,-580.5 443.1758,-579.1857 449.1829,-576.1582 438.3516,-577.8714 438.3516,-577.8714"/>
<text text-anchor="start" x="455.265" y="-590.5" font-family="Arial" font-size="10.00" fill="#000000">FOREIGN KEY (group_id) REFERENCES groups (group_id)</text>
</g>
</g>
</svg>
