<?xml version="1.0" encoding="UTF-8" standalone="no"?>
<!DOCTYPE svg PUBLIC "-//W3C//DTD SVG 1.1//EN"
 "http://www.w3.org/Graphics/SVG/1.1/DTD/svg11.dtd">
<!-- Generated by graphviz version 2.40.1 (20161225.0304)
 -->
<!-- Title: group_user_belongings Pages: 1 -->
<svg width="637pt" height="592pt"
 viewBox="0.00 0.00 636.50 592.00" xmlns="http://www.w3.org/2000/svg" xmlns:xlink="http://www.w3.org/1999/xlink">
<g id="graph0" class="graph" transform="scale(1 1) rotate(0) translate(4 588)">
<title>group_user_belongings</title>
<polygon fill="#ffffff" stroke="transparent" points="-4,4 -4,-588 632.5,-588 632.5,4 -4,4"/>
<!-- group_user_belongings -->
<g id="node1" class="node">
<title>group_user_belongings</title>
<polygon fill="#efefef" stroke="transparent" points="46.5,-502.5 46.5,-537.5 345.5,-537.5 345.5,-502.5 46.5,-502.5"/>
<polygon fill="none" stroke="#000000" points="46.5,-502.5 46.5,-537.5 345.5,-537.5 345.5,-502.5 46.5,-502.5"/>
<text text-anchor="start" x="53.3402" y="-515.3" font-family="Arial Bold" font-size="18.00" fill="#000000">group_user_belongings</text>
<text text-anchor="start" x="241.406" y="-515.3" font-family="Arial" font-size="14.00" fill="#000000"> </text>
<text text-anchor="start" x="245.2966" y="-515.3" font-family="Arial" font-size="14.00" fill="#666666">[BASE TABLE]</text>
<polygon fill="none" stroke="#000000" points="46.5,-472.5 46.5,-502.5 345.5,-502.5 345.5,-472.5 46.5,-472.5"/>
<text text-anchor="start" x="53.5" y="-483.9" font-family="Arial" font-size="14.00" fill="#000000">user_id </text>
<text text-anchor="start" x="103.2882" y="-483.9" font-family="Arial" font-size="14.00" fill="#666666">[char(36)]</text>
<polygon fill="none" stroke="#000000" points="46.5,-442.5 46.5,-472.5 345.5,-472.5 345.5,-442.5 46.5,-442.5"/>
<text text-anchor="start" x="53.5" y="-453.9" font-family="Arial" font-size="14.00" fill="#000000">group_id </text>
<text text-anchor="start" x="111.8534" y="-453.9" font-family="Arial" font-size="14.00" fill="#666666">[char(36)]</text>
<polygon fill="none" stroke="#000000" points="46.5,-412.5 46.5,-442.5 345.5,-442.5 345.5,-412.5 46.5,-412.5"/>
<text text-anchor="start" x="53.5" y="-423.9" font-family="Arial" font-size="14.00" fill="#000000">since_year </text>
<text text-anchor="start" x="125.0708" y="-423.9" font-family="Arial" font-size="14.00" fill="#666666">[tinyint(1)]</text>
<polygon fill="none" stroke="#000000" points="46.5,-382.5 46.5,-412.5 345.5,-412.5 345.5,-382.5 46.5,-382.5"/>
<text text-anchor="start" x="53.5" y="-393.9" font-family="Arial" font-size="14.00" fill="#000000">since_semester </text>
<text text-anchor="start" x="155.4046" y="-393.9" font-family="Arial" font-size="14.00" fill="#666666">[tinyint(1)]</text>
<polygon fill="none" stroke="#000000" points="46.5,-352.5 46.5,-382.5 345.5,-382.5 345.5,-352.5 46.5,-352.5"/>
<text text-anchor="start" x="53.5" y="-363.9" font-family="Arial" font-size="14.00" fill="#000000">until_year </text>
<text text-anchor="start" x="118.068" y="-363.9" font-family="Arial" font-size="14.00" fill="#666666">[tinyint(1)]</text>
<polygon fill="none" stroke="#000000" points="46.5,-322.5 46.5,-352.5 345.5,-352.5 345.5,-322.5 46.5,-322.5"/>
<text text-anchor="start" x="53.5" y="-333.9" font-family="Arial" font-size="14.00" fill="#000000">until_semester </text>
<text text-anchor="start" x="148.4018" y="-333.9" font-family="Arial" font-size="14.00" fill="#666666">[tinyint(1)]</text>
<polygon fill="none" stroke="#000000" stroke-width="3" points="44.5,-321.5 44.5,-539.5 346.5,-539.5 346.5,-321.5 44.5,-321.5"/>
</g>
<!-- groups -->
<g id="node2" class="node">
<title>groups</title>
<polygon fill="#efefef" stroke="transparent" points="113.5,-162.5 113.5,-197.5 279.5,-197.5 279.5,-162.5 113.5,-162.5"/>
<polygon fill="none" stroke="#000000" points="113.5,-162.5 113.5,-197.5 279.5,-197.5 279.5,-162.5 113.5,-162.5"/>
<text text-anchor="start" x="120.3646" y="-175.3" font-family="Arial Bold" font-size="18.00" fill="#000000">groups</text>
<text text-anchor="start" x="175.3816" y="-175.3" font-family="Arial" font-size="14.00" fill="#000000"> </text>
<text text-anchor="start" x="179.2722" y="-175.3" font-family="Arial" font-size="14.00" fill="#666666">[BASE TABLE]</text>
<polygon fill="none" stroke="#000000" points="113.5,-132.5 113.5,-162.5 279.5,-162.5 279.5,-132.5 113.5,-132.5"/>
<text text-anchor="start" x="120.5" y="-143.9" font-family="Arial" font-size="14.00" fill="#000000">group_id </text>
<text text-anchor="start" x="178.8534" y="-143.9" font-family="Arial" font-size="14.00" fill="#666666">[char(36)]</text>
<polygon fill="none" stroke="#000000" points="113.5,-102.5 113.5,-132.5 279.5,-132.5 279.5,-102.5 113.5,-102.5"/>
<text text-anchor="start" x="120.5" y="-113.9" font-family="Arial" font-size="14.00" fill="#000000">name </text>
<text text-anchor="start" x="159.399" y="-113.9" font-family="Arial" font-size="14.00" fill="#666666">[varchar(32)]</text>
<polygon fill="none" stroke="#000000" points="113.5,-72.5 113.5,-102.5 279.5,-102.5 279.5,-72.5 113.5,-72.5"/>
<text text-anchor="start" x="120.5" y="-83.9" font-family="Arial" font-size="14.00" fill="#000000">link </text>
<text text-anchor="start" x="145.3864" y="-83.9" font-family="Arial" font-size="14.00" fill="#666666">[text]</text>
<polygon fill="none" stroke="#000000" points="113.5,-42.5 113.5,-72.5 279.5,-72.5 279.5,-42.5 113.5,-42.5"/>
<text text-anchor="start" x="120.5" y="-53.9" font-family="Arial" font-size="14.00" fill="#000000">leader </text>
<text text-anchor="start" x="163.2882" y="-53.9" font-family="Arial" font-size="14.00" fill="#666666">[char(36)]</text>
</g>
<!-- group_user_belongings&#45;&gt;groups -->
<g id="edge1" class="edge">
<title>group_user_belongings:group_id&#45;&gt;groups:group_id</title>
<path fill="none" stroke="#000000" d="M355.6635,-456.7922C423.1554,-446.8748 395.351,-335.1831 345.5,-277 277.609,-197.7617 181.391,-320.2383 113.5,-241 86.4623,-209.4432 71.9444,-147.5 113.5,-147.5"/>
<polygon fill="#000000" stroke="#000000" points="355.4758,-456.8052 345.1873,-453.0109 350.4879,-457.1526 345.5,-457.5 345.5,-457.5 345.5,-457.5 350.4879,-457.1526 345.8127,-461.9891 355.4758,-456.8052 355.4758,-456.8052"/>
<text text-anchor="start" x="352.765" y="-467.5" font-family="Arial" font-size="10.00" fill="#000000">FOREIGN KEY (group_id) REFERENCES groups (group_id)</text>
</g>
</g>
</svg>
