<?xml version="1.0" encoding="UTF-8" standalone="no"?>
<!DOCTYPE svg PUBLIC "-//W3C//DTD SVG 1.1//EN"
 "http://www.w3.org/Graphics/SVG/1.1/DTD/svg11.dtd">
<!-- Generated by graphviz version 2.40.1 (20161225.0304)
 -->
<!-- Title: group_user_admins Pages: 1 -->
<svg width="637pt" height="592pt"
 viewBox="0.00 0.00 637.00 592.00" xmlns="http://www.w3.org/2000/svg" xmlns:xlink="http://www.w3.org/1999/xlink">
<g id="graph0" class="graph" transform="scale(1 1) rotate(0) translate(4 588)">
<title>group_user_admins</title>
<polygon fill="#ffffff" stroke="transparent" points="-4,4 -4,-588 633,-588 633,4 -4,4"/>
<!-- group_user_admins -->
<g id="node1" class="node">
<title>group_user_admins</title>
<polygon fill="#efefef" stroke="transparent" points="46,-502.5 46,-537.5 346,-537.5 346,-502.5 46,-502.5"/>
<polygon fill="none" stroke="#000000" points="46,-502.5 46,-537.5 346,-537.5 346,-502.5 46,-502.5"/>
<text text-anchor="start" x="52.6965" y="-515.3" font-family="Arial Bold" font-size="18.00" fill="#000000">group_user_admins</text>
<text text-anchor="start" x="211.7355" y="-515.3" font-family="Arial" font-size="14.00" fill="#000000">    </text>
<text text-anchor="start" x="245.9403" y="-515.3" font-family="Arial" font-size="14.00" fill="#666666">[BASE TABLE]</text>
<polygon fill="none" stroke="#000000" points="46,-472.5 46,-502.5 346,-502.5 346,-472.5 46,-472.5"/>
<text text-anchor="start" x="53" y="-483.9" font-family="Arial" font-size="14.00" fill="#000000">user_id </text>
<text text-anchor="start" x="102.7882" y="-483.9" font-family="Arial" font-size="14.00" fill="#666666">[char(36)]</text>
<polygon fill="none" stroke="#000000" points="46,-442.5 46,-472.5 346,-472.5 346,-442.5 46,-442.5"/>
<text text-anchor="start" x="53" y="-453.9" font-family="Arial" font-size="14.00" fill="#000000">group_id </text>
<text text-anchor="start" x="111.3534" y="-453.9" font-family="Arial" font-size="14.00" fill="#666666">[char(36)]</text>
<polygon fill="none" stroke="#000000" points="46,-412.5 46,-442.5 346,-442.5 346,-412.5 46,-412.5"/>
<text text-anchor="start" x="53" y="-423.9" font-family="Arial" font-size="14.00" fill="#000000">created_at </text>
<text text-anchor="start" x="123.028" y="-423.9" font-family="Arial" font-size="14.00" fill="#666666">[datetime(6)]</text>
<polygon fill="none" stroke="#000000" points="46,-382.5 46,-412.5 346,-412.5 346,-382.5 46,-382.5"/>
<text text-anchor="start" x="53" y="-393.9" font-family="Arial" font-size="14.00" fill="#000000">updated_at </text>
<text text-anchor="start" x="126.9326" y="-393.9" font-family="Arial" font-size="14.00" fill="#666666">[datetime(6)]</text>
<polygon fill="none" stroke="#000000" stroke-width="3" points="44.5,-381.5 44.5,-539.5 347.5,-539.5 347.5,-381.5 44.5,-381.5"/>
</g>
<!-- groups -->
<g id="node2" class="node">
<title>groups</title>
<polygon fill="#efefef" stroke="transparent" points="98,-222.5 98,-257.5 294,-257.5 294,-222.5 98,-222.5"/>
<polygon fill="none" stroke="#000000" points="98,-222.5 98,-257.5 294,-257.5 294,-222.5 98,-222.5"/>
<text text-anchor="start" x="104.7075" y="-235.3" font-family="Arial Bold" font-size="18.00" fill="#000000">groups</text>
<text text-anchor="start" x="159.7245" y="-235.3" font-family="Arial" font-size="14.00" fill="#000000">    </text>
<text text-anchor="start" x="193.9293" y="-235.3" font-family="Arial" font-size="14.00" fill="#666666">[BASE TABLE]</text>
<polygon fill="none" stroke="#000000" points="98,-192.5 98,-222.5 294,-222.5 294,-192.5 98,-192.5"/>
<text text-anchor="start" x="105" y="-203.9" font-family="Arial" font-size="14.00" fill="#000000">group_id    </text>
<text text-anchor="start" x="193.6676" y="-203.9" font-family="Arial" font-size="14.00" fill="#666666">[char(36)]</text>
<polygon fill="none" stroke="#000000" points="98,-162.5 98,-192.5 294,-192.5 294,-162.5 98,-162.5"/>
<text text-anchor="start" x="105" y="-173.9" font-family="Arial" font-size="14.00" fill="#000000">name    </text>
<text text-anchor="start" x="174.2132" y="-173.9" font-family="Arial" font-size="14.00" fill="#666666">[varchar(32)]</text>
<polygon fill="none" stroke="#000000" points="98,-132.5 98,-162.5 294,-162.5 294,-132.5 98,-132.5"/>
<text text-anchor="start" x="105" y="-143.9" font-family="Arial" font-size="14.00" fill="#000000">link    </text>
<text text-anchor="start" x="160.2006" y="-143.9" font-family="Arial" font-size="14.00" fill="#666666">[text]</text>
<polygon fill="none" stroke="#000000" points="98,-102.5 98,-132.5 294,-132.5 294,-102.5 98,-102.5"/>
<text text-anchor="start" x="105" y="-113.9" font-family="Arial" font-size="14.00" fill="#000000">description    </text>
<text text-anchor="start" x="206.8822" y="-113.9" font-family="Arial" font-size="14.00" fill="#666666">[text]</text>
<polygon fill="none" stroke="#000000" points="98,-72.5 98,-102.5 294,-102.5 294,-72.5 98,-72.5"/>
<text text-anchor="start" x="105" y="-83.9" font-family="Arial" font-size="14.00" fill="#000000">created_at    </text>
<text text-anchor="start" x="205.3422" y="-83.9" font-family="Arial" font-size="14.00" fill="#666666">[datetime(6)]</text>
<polygon fill="none" stroke="#000000" points="98,-42.5 98,-72.5 294,-72.5 294,-42.5 98,-42.5"/>
<text text-anchor="start" x="104.5947" y="-53.9" font-family="Arial" font-size="14.00" fill="#000000">updated_at    </text>
<text text-anchor="start" x="208.8415" y="-53.9" font-family="Arial" font-size="14.00" fill="#666666">[datetime(6)]</text>
</g>
<!-- group_user_admins&#45;&gt;groups -->
<g id="edge1" class="edge">
<title>group_user_admins:group_id&#45;&gt;groups:group_id</title>
<path fill="none" stroke="#000000" d="M356.158,-456.7828C456.1792,-442.1191 403.9427,-207.5 294,-207.5"/>
<polygon fill="#000000" stroke="#000000" points="355.9752,-456.7957 345.683,-453.0112 350.9876,-457.1478 346,-457.5 346,-457.5 346,-457.5 350.9876,-457.1478 346.317,-461.9888 355.9752,-456.7957 355.9752,-456.7957"/>
<text text-anchor="start" x="353.265" y="-467.5" font-family="Arial" font-size="10.00" fill="#000000">FOREIGN KEY (group_id) REFERENCES groups (group_id)</text>
</g>
</g>
</svg>
