<?xml version="1.0" encoding="UTF-8" standalone="no"?>
<!DOCTYPE svg PUBLIC "-//W3C//DTD SVG 1.1//EN"
 "http://www.w3.org/Graphics/SVG/1.1/DTD/svg11.dtd">
<!-- Generated by graphviz version 2.40.1 (20161225.0304)
 -->
<!-- Title: project_members Pages: 1 -->
<svg width="759pt" height="862pt"
 viewBox="0.00 0.00 759.00 862.00" xmlns="http://www.w3.org/2000/svg" xmlns:xlink="http://www.w3.org/1999/xlink">
<g id="graph0" class="graph" transform="scale(1 1) rotate(0) translate(4 858)">
<title>project_members</title>
<polygon fill="#ffffff" stroke="transparent" points="-4,4 -4,-858 755,-858 755,4 -4,4"/>
<!-- project_members -->
<g id="node1" class="node">
<title>project_members</title>
<polygon fill="#efefef" stroke="transparent" points="261,-772.5 261,-807.5 511,-807.5 511,-772.5 261,-772.5"/>
<polygon fill="none" stroke="#000000" points="261,-772.5 261,-807.5 511,-807.5 511,-772.5 261,-772.5"/>
<text text-anchor="start" x="267.8688" y="-785.3" font-family="Arial Bold" font-size="18.00" fill="#000000">project_members</text>
<text text-anchor="start" x="406.8774" y="-785.3" font-family="Arial" font-size="14.00" fill="#000000"> </text>
<text text-anchor="start" x="410.768" y="-785.3" font-family="Arial" font-size="14.00" fill="#666666">[BASE TABLE]</text>
<polygon fill="none" stroke="#000000" points="261,-742.5 261,-772.5 511,-772.5 511,-742.5 261,-742.5"/>
<text text-anchor="start" x="268" y="-753.9" font-family="Arial" font-size="14.00" fill="#000000">id </text>
<text text-anchor="start" x="282.7798" y="-753.9" font-family="Arial" font-size="14.00" fill="#666666">[char(36)]</text>
<polygon fill="none" stroke="#000000" points="261,-712.5 261,-742.5 511,-742.5 511,-712.5 261,-712.5"/>
<text text-anchor="start" x="268" y="-723.9" font-family="Arial" font-size="14.00" fill="#000000">project_id </text>
<text text-anchor="start" x="332.568" y="-723.9" font-family="Arial" font-size="14.00" fill="#666666">[char(36)]</text>
<polygon fill="none" stroke="#000000" points="261,-682.5 261,-712.5 511,-712.5 511,-682.5 261,-682.5"/>
<text text-anchor="start" x="268" y="-693.9" font-family="Arial" font-size="14.00" fill="#000000">user_id </text>
<text text-anchor="start" x="317.7882" y="-693.9" font-family="Arial" font-size="14.00" fill="#666666">[char(36)]</text>
<polygon fill="none" stroke="#000000" points="261,-652.5 261,-682.5 511,-682.5 511,-652.5 261,-652.5"/>
<text text-anchor="start" x="268" y="-663.9" font-family="Arial" font-size="14.00" fill="#000000">since_year </text>
<text text-anchor="start" x="339.5708" y="-663.9" font-family="Arial" font-size="14.00" fill="#666666">[smallint(4)]</text>
<polygon fill="none" stroke="#000000" points="261,-622.5 261,-652.5 511,-652.5 511,-622.5 261,-622.5"/>
<text text-anchor="start" x="268" y="-633.9" font-family="Arial" font-size="14.00" fill="#000000">since_semester </text>
<text text-anchor="start" x="369.9046" y="-633.9" font-family="Arial" font-size="14.00" fill="#666666">[tinyint(1)]</text>
<polygon fill="none" stroke="#000000" points="261,-592.5 261,-622.5 511,-622.5 511,-592.5 261,-592.5"/>
<text text-anchor="start" x="268" y="-603.9" font-family="Arial" font-size="14.00" fill="#000000">until_year </text>
<text text-anchor="start" x="332.568" y="-603.9" font-family="Arial" font-size="14.00" fill="#666666">[smallint(4)]</text>
<polygon fill="none" stroke="#000000" points="261,-562.5 261,-592.5 511,-592.5 511,-562.5 261,-562.5"/>
<text text-anchor="start" x="268" y="-573.9" font-family="Arial" font-size="14.00" fill="#000000">until_semester </text>
<text text-anchor="start" x="362.9018" y="-573.9" font-family="Arial" font-size="14.00" fill="#666666">[tinyint(1)]</text>
<polygon fill="none" stroke="#000000" points="261,-532.5 261,-562.5 511,-562.5 511,-532.5 261,-532.5"/>
<text text-anchor="start" x="268" y="-543.9" font-family="Arial" font-size="14.00" fill="#000000">created_at </text>
<text text-anchor="start" x="338.028" y="-543.9" font-family="Arial" font-size="14.00" fill="#666666">[datetime(6)]</text>
<polygon fill="none" stroke="#000000" points="261,-502.5 261,-532.5 511,-532.5 511,-502.5 261,-502.5"/>
<text text-anchor="start" x="268" y="-513.9" font-family="Arial" font-size="14.00" fill="#000000">updated_at </text>
<text text-anchor="start" x="341.9326" y="-513.9" font-family="Arial" font-size="14.00" fill="#666666">[datetime(6)]</text>
<polygon fill="none" stroke="#000000" stroke-width="3" points="259.5,-501.5 259.5,-809.5 512.5,-809.5 512.5,-501.5 259.5,-501.5"/>
</g>
<!-- projects -->
<g id="node2" class="node">
<title>projects</title>
<polygon fill="#efefef" stroke="transparent" points="160,-342.5 160,-377.5 337,-377.5 337,-342.5 160,-342.5"/>
<polygon fill="none" stroke="#000000" points="160,-342.5 160,-377.5 337,-377.5 337,-342.5 160,-342.5"/>
<text text-anchor="start" x="168.3695" y="-355.3" font-family="Arial Bold" font-size="18.00" fill="#000000">projects</text>
<text text-anchor="start" x="231.3767" y="-355.3" font-family="Arial" font-size="14.00" fill="#000000"> </text>
<text text-anchor="start" x="235.2673" y="-355.3" font-family="Arial" font-size="14.00" fill="#666666">[BASE TABLE]</text>
<polygon fill="none" stroke="#000000" points="160,-312.5 160,-342.5 337,-342.5 337,-312.5 160,-312.5"/>
<text text-anchor="start" x="167" y="-323.9" font-family="Arial" font-size="14.00" fill="#000000">id </text>
<text text-anchor="start" x="181.7798" y="-323.9" font-family="Arial" font-size="14.00" fill="#666666">[char(36)]</text>
<polygon fill="none" stroke="#000000" points="160,-282.5 160,-312.5 337,-312.5 337,-282.5 160,-282.5"/>
<text text-anchor="start" x="167" y="-293.9" font-family="Arial" font-size="14.00" fill="#000000">name </text>
<text text-anchor="start" x="205.899" y="-293.9" font-family="Arial" font-size="14.00" fill="#666666">[varchar(32)]</text>
<polygon fill="none" stroke="#000000" points="160,-252.5 160,-282.5 337,-282.5 337,-252.5 160,-252.5"/>
<text text-anchor="start" x="167" y="-263.9" font-family="Arial" font-size="14.00" fill="#000000">description </text>
<text text-anchor="start" x="238.568" y="-263.9" font-family="Arial" font-size="14.00" fill="#666666">[text]</text>
<polygon fill="none" stroke="#000000" points="160,-222.5 160,-252.5 337,-252.5 337,-222.5 160,-222.5"/>
<text text-anchor="start" x="167" y="-233.9" font-family="Arial" font-size="14.00" fill="#000000">link </text>
<text text-anchor="start" x="191.8864" y="-233.9" font-family="Arial" font-size="14.00" fill="#666666">[text]</text>
<polygon fill="none" stroke="#000000" points="160,-192.5 160,-222.5 337,-222.5 337,-192.5 160,-192.5"/>
<text text-anchor="start" x="167" y="-203.9" font-family="Arial" font-size="14.00" fill="#000000">since_year </text>
<text text-anchor="start" x="238.5708" y="-203.9" font-family="Arial" font-size="14.00" fill="#666666">[smallint(4)]</text>
<polygon fill="none" stroke="#000000" points="160,-162.5 160,-192.5 337,-192.5 337,-162.5 160,-162.5"/>
<text text-anchor="start" x="166.8254" y="-173.9" font-family="Arial" font-size="14.00" fill="#000000">since_semester </text>
<text text-anchor="start" x="268.73" y="-173.9" font-family="Arial" font-size="14.00" fill="#666666">[tinyint(1)]</text>
<polygon fill="none" stroke="#000000" points="160,-132.5 160,-162.5 337,-162.5 337,-132.5 160,-132.5"/>
<text text-anchor="start" x="167" y="-143.9" font-family="Arial" font-size="14.00" fill="#000000">until_year </text>
<text text-anchor="start" x="231.568" y="-143.9" font-family="Arial" font-size="14.00" fill="#666666">[smallint(4)]</text>
<polygon fill="none" stroke="#000000" points="160,-102.5 160,-132.5 337,-132.5 337,-102.5 160,-102.5"/>
<text text-anchor="start" x="167" y="-113.9" font-family="Arial" font-size="14.00" fill="#000000">until_semester </text>
<text text-anchor="start" x="261.9018" y="-113.9" font-family="Arial" font-size="14.00" fill="#666666">[tinyint(1)]</text>
<polygon fill="none" stroke="#000000" points="160,-72.5 160,-102.5 337,-102.5 337,-72.5 160,-72.5"/>
<text text-anchor="start" x="167" y="-83.9" font-family="Arial" font-size="14.00" fill="#000000">created_at </text>
<text text-anchor="start" x="237.028" y="-83.9" font-family="Arial" font-size="14.00" fill="#666666">[datetime(6)]</text>
<polygon fill="none" stroke="#000000" points="160,-42.5 160,-72.5 337,-72.5 337,-42.5 160,-42.5"/>
<text text-anchor="start" x="167" y="-53.9" font-family="Arial" font-size="14.00" fill="#000000">updated_at </text>
<text text-anchor="start" x="240.9326" y="-53.9" font-family="Arial" font-size="14.00" fill="#666666">[datetime(6)]</text>
</g>
<!-- project_members&#45;&gt;projects -->
<g id="edge1" class="edge">
<title>project_members:project_id&#45;&gt;projects:id</title>
<path fill="none" stroke="#000000" d="M250.883,-727.071C144.0623,-717.6607 198.5947,-555.6128 261,-457 280.9866,-425.4172 317.0134,-452.5828 337,-421 359.2218,-385.8851 378.5556,-327.5 337,-327.5"/>
<polygon fill="#000000" stroke="#000000" points="251.009,-727.0763 260.8093,-731.996 256.0045,-727.2881 261,-727.5 261,-727.5 261,-727.5 256.0045,-727.2881 261.1907,-723.004 251.009,-727.0763 251.009,-727.0763"/>
<text text-anchor="start" x="7.388" y="-737.5" font-family="Arial" font-size="10.00" fill="#000000">FOREIGN KEY (project_id) REFERENCES projects (id)</text>
</g>
<!-- users -->
<g id="node3" class="node">
<title>users</title>
<polygon fill="#efefef" stroke="transparent" points="441,-282.5 441,-317.5 607,-317.5 607,-282.5 441,-282.5"/>
<polygon fill="none" stroke="#000000" points="441,-282.5 441,-317.5 607,-317.5 607,-282.5 441,-282.5"/>
<text text-anchor="start" x="453.3708" y="-295.3" font-family="Arial Bold" font-size="18.00" fill="#000000">users</text>
<text text-anchor="start" x="497.3754" y="-295.3" font-family="Arial" font-size="14.00" fill="#000000"> </text>
<text text-anchor="start" x="501.266" y="-295.3" font-family="Arial" font-size="14.00" fill="#666666">[BASE TABLE]</text>
<polygon fill="none" stroke="#000000" points="441,-252.5 441,-282.5 607,-282.5 607,-252.5 441,-252.5"/>
<text text-anchor="start" x="448" y="-263.9" font-family="Arial" font-size="14.00" fill="#000000">id </text>
<text text-anchor="start" x="462.7798" y="-263.9" font-family="Arial" font-size="14.00" fill="#666666">[char(36)]</text>
<polygon fill="none" stroke="#000000" points="441,-222.5 441,-252.5 607,-252.5 607,-222.5 441,-222.5"/>
<text text-anchor="start" x="448" y="-233.9" font-family="Arial" font-size="14.00" fill="#000000">description </text>
<text text-anchor="start" x="519.568" y="-233.9" font-family="Arial" font-size="14.00" fill="#666666">[text]</text>
<polygon fill="none" stroke="#000000" points="441,-192.5 441,-222.5 607,-222.5 607,-192.5 441,-192.5"/>
<text text-anchor="start" x="448" y="-203.9" font-family="Arial" font-size="14.00" fill="#000000">check </text>
<text text-anchor="start" x="488.4558" y="-203.9" font-family="Arial" font-size="14.00" fill="#666666">[tinyint(1)]</text>
<polygon fill="none" stroke="#000000" points="441,-162.5 441,-192.5 607,-192.5 607,-162.5 441,-162.5"/>
<text text-anchor="start" x="448" y="-173.9" font-family="Arial" font-size="14.00" fill="#000000">name </text>
<text text-anchor="start" x="486.899" y="-173.9" font-family="Arial" font-size="14.00" fill="#666666">[varchar(32)]</text>
<polygon fill="none" stroke="#000000" points="441,-132.5 441,-162.5 607,-162.5 607,-132.5 441,-132.5"/>
<text text-anchor="start" x="448" y="-143.9" font-family="Arial" font-size="14.00" fill="#000000">created_at </text>
<text text-anchor="start" x="518.028" y="-143.9" font-family="Arial" font-size="14.00" fill="#666666">[datetime(6)]</text>
<polygon fill="none" stroke="#000000" points="441,-102.5 441,-132.5 607,-132.5 607,-102.5 441,-102.5"/>
<text text-anchor="start" x="447.7518" y="-113.9" font-family="Arial" font-size="14.00" fill="#000000">updated_at </text>
<text text-anchor="start" x="521.6844" y="-113.9" font-family="Arial" font-size="14.00" fill="#666666">[datetime(6)]</text>
</g>
<!-- project_members&#45;&gt;users -->
<g id="edge2" class="edge">
<title>project_members:user_id&#45;&gt;users:id</title>
<path fill="none" stroke="#000000" d="M521.0577,-697.0472C613.0348,-688.3192 543.0181,-555.2546 511,-457 494.6394,-406.7937 457.3606,-411.2063 441,-361 428.1247,-321.4893 399.4444,-267.5 441,-267.5"/>
<polygon fill="#000000" stroke="#000000" points="520.9899,-697.0501 510.7976,-693.0046 515.9949,-697.2751 511,-697.5 511,-697.5 511,-697.5 515.9949,-697.2751 511.2024,-701.9954 520.9899,-697.0501 520.9899,-697.0501"/>
<text text-anchor="start" x="517.945" y="-707.5" font-family="Arial" font-size="10.00" fill="#000000">FOREIGN KEY (user_id) REFERENCES users (id)</text>
</g>
</g>
</svg>
