<?xml version="1.0" encoding="UTF-8" standalone="no"?>
<!DOCTYPE svg PUBLIC "-//W3C//DTD SVG 1.1//EN"
 "http://www.w3.org/Graphics/SVG/1.1/DTD/svg11.dtd">
<!-- Generated by graphviz version 2.40.1 (20161225.0304)
 -->
<!-- Title: projects Pages: 1 -->
<svg width="562pt" height="862pt"
 viewBox="0.00 0.00 562.00 862.00" xmlns="http://www.w3.org/2000/svg" xmlns:xlink="http://www.w3.org/1999/xlink">
<g id="graph0" class="graph" transform="scale(1 1) rotate(0) translate(4 858)">
<title>projects</title>
<polygon fill="#ffffff" stroke="transparent" points="-4,4 -4,-858 558,-858 558,4 -4,4"/>
<!-- projects -->
<g id="node1" class="node">
<title>projects</title>
<polygon fill="#efefef" stroke="transparent" points="297,-345.5 297,-380.5 474,-380.5 474,-345.5 297,-345.5"/>
<polygon fill="none" stroke="#000000" points="297,-345.5 297,-380.5 474,-380.5 474,-345.5 297,-345.5"/>
<text text-anchor="start" x="305.3695" y="-358.3" font-family="Arial Bold" font-size="18.00" fill="#000000">projects</text>
<text text-anchor="start" x="368.3767" y="-358.3" font-family="Arial" font-size="14.00" fill="#000000"> </text>
<text text-anchor="start" x="372.2673" y="-358.3" font-family="Arial" font-size="14.00" fill="#666666">[BASE TABLE]</text>
<polygon fill="none" stroke="#000000" points="297,-315.5 297,-345.5 474,-345.5 474,-315.5 297,-315.5"/>
<text text-anchor="start" x="304" y="-326.9" font-family="Arial" font-size="14.00" fill="#000000">id </text>
<text text-anchor="start" x="318.7798" y="-326.9" font-family="Arial" font-size="14.00" fill="#666666">[char(36)]</text>
<polygon fill="none" stroke="#000000" points="297,-285.5 297,-315.5 474,-315.5 474,-285.5 297,-285.5"/>
<text text-anchor="start" x="304" y="-296.9" font-family="Arial" font-size="14.00" fill="#000000">name </text>
<text text-anchor="start" x="342.899" y="-296.9" font-family="Arial" font-size="14.00" fill="#666666">[varchar(32)]</text>
<polygon fill="none" stroke="#000000" points="297,-255.5 297,-285.5 474,-285.5 474,-255.5 297,-255.5"/>
<text text-anchor="start" x="304" y="-266.9" font-family="Arial" font-size="14.00" fill="#000000">description </text>
<text text-anchor="start" x="375.568" y="-266.9" font-family="Arial" font-size="14.00" fill="#666666">[text]</text>
<polygon fill="none" stroke="#000000" points="297,-225.5 297,-255.5 474,-255.5 474,-225.5 297,-225.5"/>
<text text-anchor="start" x="304" y="-236.9" font-family="Arial" font-size="14.00" fill="#000000">link </text>
<text text-anchor="start" x="328.8864" y="-236.9" font-family="Arial" font-size="14.00" fill="#666666">[text]</text>
<polygon fill="none" stroke="#000000" points="297,-195.5 297,-225.5 474,-225.5 474,-195.5 297,-195.5"/>
<text text-anchor="start" x="304" y="-206.9" font-family="Arial" font-size="14.00" fill="#000000">since_year </text>
<text text-anchor="start" x="375.5708" y="-206.9" font-family="Arial" font-size="14.00" fill="#666666">[smallint(4)]</text>
<polygon fill="none" stroke="#000000" points="297,-165.5 297,-195.5 474,-195.5 474,-165.5 297,-165.5"/>
<text text-anchor="start" x="303.8254" y="-176.9" font-family="Arial" font-size="14.00" fill="#000000">since_semester </text>
<text text-anchor="start" x="405.73" y="-176.9" font-family="Arial" font-size="14.00" fill="#666666">[tinyint(1)]</text>
<polygon fill="none" stroke="#000000" points="297,-135.5 297,-165.5 474,-165.5 474,-135.5 297,-135.5"/>
<text text-anchor="start" x="304" y="-146.9" font-family="Arial" font-size="14.00" fill="#000000">until_year </text>
<text text-anchor="start" x="368.568" y="-146.9" font-family="Arial" font-size="14.00" fill="#666666">[smallint(4)]</text>
<polygon fill="none" stroke="#000000" points="297,-105.5 297,-135.5 474,-135.5 474,-105.5 297,-105.5"/>
<text text-anchor="start" x="304" y="-116.9" font-family="Arial" font-size="14.00" fill="#000000">until_semester </text>
<text text-anchor="start" x="398.9018" y="-116.9" font-family="Arial" font-size="14.00" fill="#666666">[tinyint(1)]</text>
<polygon fill="none" stroke="#000000" points="297,-75.5 297,-105.5 474,-105.5 474,-75.5 297,-75.5"/>
<text text-anchor="start" x="304" y="-86.9" font-family="Arial" font-size="14.00" fill="#000000">created_at </text>
<text text-anchor="start" x="374.028" y="-86.9" font-family="Arial" font-size="14.00" fill="#666666">[datetime(6)]</text>
<polygon fill="none" stroke="#000000" points="297,-45.5 297,-75.5 474,-75.5 474,-45.5 297,-45.5"/>
<text text-anchor="start" x="304" y="-56.9" font-family="Arial" font-size="14.00" fill="#000000">updated_at </text>
<text text-anchor="start" x="377.9326" y="-56.9" font-family="Arial" font-size="14.00" fill="#666666">[datetime(6)]</text>
<polygon fill="none" stroke="#000000" stroke-width="3" points="295,-44.5 295,-382.5 475,-382.5 475,-44.5 295,-44.5"/>
</g>
<!-- project_members -->
<g id="node2" class="node">
<title>project_members</title>
<polygon fill="#efefef" stroke="transparent" points="261,-775.5 261,-810.5 511,-810.5 511,-775.5 261,-775.5"/>
<polygon fill="none" stroke="#000000" points="261,-775.5 261,-810.5 511,-810.5 511,-775.5 261,-775.5"/>
<text text-anchor="start" x="267.8688" y="-788.3" font-family="Arial Bold" font-size="18.00" fill="#000000">project_members</text>
<text text-anchor="start" x="406.8774" y="-788.3" font-family="Arial" font-size="14.00" fill="#000000"> </text>
<text text-anchor="start" x="410.768" y="-788.3" font-family="Arial" font-size="14.00" fill="#666666">[BASE TABLE]</text>
<polygon fill="none" stroke="#000000" points="261,-745.5 261,-775.5 511,-775.5 511,-745.5 261,-745.5"/>
<text text-anchor="start" x="268" y="-756.9" font-family="Arial" font-size="14.00" fill="#000000">id </text>
<text text-anchor="start" x="282.7798" y="-756.9" font-family="Arial" font-size="14.00" fill="#666666">[char(36)]</text>
<polygon fill="none" stroke="#000000" points="261,-715.5 261,-745.5 511,-745.5 511,-715.5 261,-715.5"/>
<text text-anchor="start" x="268" y="-726.9" font-family="Arial" font-size="14.00" fill="#000000">project_id </text>
<text text-anchor="start" x="332.568" y="-726.9" font-family="Arial" font-size="14.00" fill="#666666">[char(36)]</text>
<polygon fill="none" stroke="#000000" points="261,-685.5 261,-715.5 511,-715.5 511,-685.5 261,-685.5"/>
<text text-anchor="start" x="268" y="-696.9" font-family="Arial" font-size="14.00" fill="#000000">user_id </text>
<text text-anchor="start" x="317.7882" y="-696.9" font-family="Arial" font-size="14.00" fill="#666666">[char(36)]</text>
<polygon fill="none" stroke="#000000" points="261,-655.5 261,-685.5 511,-685.5 511,-655.5 261,-655.5"/>
<text text-anchor="start" x="268" y="-666.9" font-family="Arial" font-size="14.00" fill="#000000">since_year </text>
<text text-anchor="start" x="339.5708" y="-666.9" font-family="Arial" font-size="14.00" fill="#666666">[smallint(4)]</text>
<polygon fill="none" stroke="#000000" points="261,-625.5 261,-655.5 511,-655.5 511,-625.5 261,-625.5"/>
<text text-anchor="start" x="268" y="-636.9" font-family="Arial" font-size="14.00" fill="#000000">since_semester </text>
<text text-anchor="start" x="369.9046" y="-636.9" font-family="Arial" font-size="14.00" fill="#666666">[tinyint(1)]</text>
<polygon fill="none" stroke="#000000" points="261,-595.5 261,-625.5 511,-625.5 511,-595.5 261,-595.5"/>
<text text-anchor="start" x="268" y="-606.9" font-family="Arial" font-size="14.00" fill="#000000">until_year </text>
<text text-anchor="start" x="332.568" y="-606.9" font-family="Arial" font-size="14.00" fill="#666666">[smallint(4)]</text>
<polygon fill="none" stroke="#000000" points="261,-565.5 261,-595.5 511,-595.5 511,-565.5 261,-565.5"/>
<text text-anchor="start" x="268" y="-576.9" font-family="Arial" font-size="14.00" fill="#000000">until_semester </text>
<text text-anchor="start" x="362.9018" y="-576.9" font-family="Arial" font-size="14.00" fill="#666666">[tinyint(1)]</text>
<polygon fill="none" stroke="#000000" points="261,-535.5 261,-565.5 511,-565.5 511,-535.5 261,-535.5"/>
<text text-anchor="start" x="268" y="-546.9" font-family="Arial" font-size="14.00" fill="#000000">created_at </text>
<text text-anchor="start" x="338.028" y="-546.9" font-family="Arial" font-size="14.00" fill="#666666">[datetime(6)]</text>
<polygon fill="none" stroke="#000000" points="261,-505.5 261,-535.5 511,-535.5 511,-505.5 261,-505.5"/>
<text text-anchor="start" x="268" y="-516.9" font-family="Arial" font-size="14.00" fill="#000000">updated_at </text>
<text text-anchor="start" x="341.9326" y="-516.9" font-family="Arial" font-size="14.00" fill="#666666">[datetime(6)]</text>
</g>
<!-- project_members&#45;&gt;projects -->
<g id="edge1" class="edge">
<title>project_members:project_id&#45;&gt;projects:id</title>
<path fill="none" stroke="#000000" d="M250.9623,-730.0516C144.6103,-720.2203 186.5051,-551.142 261,-463 322.9743,-389.6722 412.0257,-500.3278 474,-427 501.6849,-394.2433 516.8889,-330.5 474,-330.5"/>
<polygon fill="#000000" stroke="#000000" points="251.01,-730.0537 260.7991,-734.9955 256.005,-730.2768 261,-730.5 261,-730.5 261,-730.5 256.005,-730.2768 261.2009,-726.0045 251.01,-730.0537 251.01,-730.0537"/>
<text text-anchor="start" x="7.388" y="-740.5" font-family="Arial" font-size="10.00" fill="#000000">FOREIGN KEY (project_id) REFERENCES projects (id)</text>
</g>
</g>
</svg>
