<?xml version="1.0" encoding="UTF-8" standalone="no"?>
<!DOCTYPE svg PUBLIC "-//W3C//DTD SVG 1.1//EN"
 "http://www.w3.org/Graphics/SVG/1.1/DTD/svg11.dtd">
<!-- Generated by graphviz version 2.40.1 (20161225.0304)
 -->
<!-- Title: projects Pages: 1 -->
<svg width="592pt" height="862pt"
 viewBox="0.00 0.00 592.00 862.00" xmlns="http://www.w3.org/2000/svg" xmlns:xlink="http://www.w3.org/1999/xlink">
<g id="graph0" class="graph" transform="scale(1 1) rotate(0) translate(4 858)">
<title>projects</title>
<polygon fill="#ffffff" stroke="transparent" points="-4,4 -4,-858 588,-858 588,4 -4,4"/>
<!-- projects -->
<g id="node1" class="node">
<title>projects</title>
<polygon fill="#efefef" stroke="transparent" points="81,-345.5 81,-380.5 285,-380.5 285,-345.5 81,-345.5"/>
<polygon fill="none" stroke="#000000" points="81,-345.5 81,-380.5 285,-380.5 285,-345.5 81,-345.5"/>
<text text-anchor="start" x="87.7124" y="-358.3" font-family="Arial Bold" font-size="18.00" fill="#000000">projects</text>
<text text-anchor="start" x="150.7196" y="-358.3" font-family="Arial" font-size="14.00" fill="#000000">    </text>
<text text-anchor="start" x="184.9244" y="-358.3" font-family="Arial" font-size="14.00" fill="#666666">[BASE TABLE]</text>
<polygon fill="none" stroke="#000000" points="81,-315.5 81,-345.5 285,-345.5 285,-315.5 81,-315.5"/>
<text text-anchor="start" x="88" y="-326.9" font-family="Arial" font-size="14.00" fill="#000000">id </text>
<text text-anchor="start" x="102.7798" y="-326.9" font-family="Arial" font-size="14.00" fill="#666666">[char(36)]</text>
<polygon fill="none" stroke="#000000" points="81,-285.5 81,-315.5 285,-315.5 285,-285.5 81,-285.5"/>
<text text-anchor="start" x="88" y="-296.9" font-family="Arial" font-size="14.00" fill="#000000">name </text>
<text text-anchor="start" x="126.899" y="-296.9" font-family="Arial" font-size="14.00" fill="#666666">[varchar(32)]</text>
<polygon fill="none" stroke="#000000" points="81,-255.5 81,-285.5 285,-285.5 285,-255.5 81,-255.5"/>
<text text-anchor="start" x="88" y="-266.9" font-family="Arial" font-size="14.00" fill="#000000">description </text>
<text text-anchor="start" x="159.568" y="-266.9" font-family="Arial" font-size="14.00" fill="#666666">[text]</text>
<polygon fill="none" stroke="#000000" points="81,-225.5 81,-255.5 285,-255.5 285,-225.5 81,-225.5"/>
<text text-anchor="start" x="88" y="-236.9" font-family="Arial" font-size="14.00" fill="#000000">link </text>
<text text-anchor="start" x="112.8864" y="-236.9" font-family="Arial" font-size="14.00" fill="#666666">[text]</text>
<polygon fill="none" stroke="#000000" points="81,-195.5 81,-225.5 285,-225.5 285,-195.5 81,-195.5"/>
<text text-anchor="start" x="88" y="-206.9" font-family="Arial" font-size="14.00" fill="#000000">since_year </text>
<text text-anchor="start" x="159.5708" y="-206.9" font-family="Arial" font-size="14.00" fill="#666666">[smallint(4)]</text>
<polygon fill="none" stroke="#000000" points="81,-165.5 81,-195.5 285,-195.5 285,-165.5 81,-165.5"/>
<text text-anchor="start" x="88" y="-176.9" font-family="Arial" font-size="14.00" fill="#000000">since_semester </text>
<text text-anchor="start" x="189.9046" y="-176.9" font-family="Arial" font-size="14.00" fill="#666666">[tinyint(1)]</text>
<polygon fill="none" stroke="#000000" points="81,-135.5 81,-165.5 285,-165.5 285,-135.5 81,-135.5"/>
<text text-anchor="start" x="88" y="-146.9" font-family="Arial" font-size="14.00" fill="#000000">until_year </text>
<text text-anchor="start" x="152.568" y="-146.9" font-family="Arial" font-size="14.00" fill="#666666">[smallint(4)]</text>
<polygon fill="none" stroke="#000000" points="81,-105.5 81,-135.5 285,-135.5 285,-105.5 81,-105.5"/>
<text text-anchor="start" x="88" y="-116.9" font-family="Arial" font-size="14.00" fill="#000000">until_semester </text>
<text text-anchor="start" x="182.9018" y="-116.9" font-family="Arial" font-size="14.00" fill="#666666">[tinyint(1)]</text>
<polygon fill="none" stroke="#000000" points="81,-75.5 81,-105.5 285,-105.5 285,-75.5 81,-75.5"/>
<text text-anchor="start" x="88" y="-86.9" font-family="Arial" font-size="14.00" fill="#000000">created_at </text>
<text text-anchor="start" x="158.028" y="-86.9" font-family="Arial" font-size="14.00" fill="#666666">[datetime(6)]</text>
<polygon fill="none" stroke="#000000" points="81,-45.5 81,-75.5 285,-75.5 285,-45.5 81,-45.5"/>
<text text-anchor="start" x="88" y="-56.9" font-family="Arial" font-size="14.00" fill="#000000">updated_at </text>
<text text-anchor="start" x="161.9326" y="-56.9" font-family="Arial" font-size="14.00" fill="#666666">[datetime(6)]</text>
<polygon fill="none" stroke="#000000" stroke-width="3" points="79.5,-44.5 79.5,-382.5 286.5,-382.5 286.5,-44.5 79.5,-44.5"/>
</g>
<!-- project_members -->
<g id="node2" class="node">
<title>project_members</title>
<polygon fill="#efefef" stroke="transparent" points="43,-775.5 43,-810.5 323,-810.5 323,-775.5 43,-775.5"/>
<polygon fill="none" stroke="#000000" points="43,-775.5 43,-810.5 323,-810.5 323,-775.5 43,-775.5"/>
<text text-anchor="start" x="49.7117" y="-788.3" font-family="Arial Bold" font-size="18.00" fill="#000000">project_members</text>
<text text-anchor="start" x="188.7203" y="-788.3" font-family="Arial" font-size="14.00" fill="#000000">    </text>
<text text-anchor="start" x="222.9251" y="-788.3" font-family="Arial" font-size="14.00" fill="#666666">[BASE TABLE]</text>
<polygon fill="none" stroke="#000000" points="43,-745.5 43,-775.5 323,-775.5 323,-745.5 43,-745.5"/>
<text text-anchor="start" x="50" y="-756.9" font-family="Arial" font-size="14.00" fill="#000000">id    </text>
<text text-anchor="start" x="95.094" y="-756.9" font-family="Arial" font-size="14.00" fill="#666666">[char(36)]</text>
<polygon fill="none" stroke="#000000" points="43,-715.5 43,-745.5 323,-745.5 323,-715.5 43,-715.5"/>
<text text-anchor="start" x="50" y="-726.9" font-family="Arial" font-size="14.00" fill="#000000">project_id    </text>
<text text-anchor="start" x="144.8822" y="-726.9" font-family="Arial" font-size="14.00" fill="#666666">[char(36)]</text>
<polygon fill="none" stroke="#000000" points="43,-685.5 43,-715.5 323,-715.5 323,-685.5 43,-685.5"/>
<text text-anchor="start" x="50" y="-696.9" font-family="Arial" font-size="14.00" fill="#000000">user_id    </text>
<text text-anchor="start" x="130.1024" y="-696.9" font-family="Arial" font-size="14.00" fill="#666666">[char(36)]</text>
<polygon fill="none" stroke="#000000" points="43,-655.5 43,-685.5 323,-685.5 323,-655.5 43,-655.5"/>
<text text-anchor="start" x="50" y="-666.9" font-family="Arial" font-size="14.00" fill="#000000">since_year    </text>
<text text-anchor="start" x="151.885" y="-666.9" font-family="Arial" font-size="14.00" fill="#666666">[smallint(4)]</text>
<polygon fill="none" stroke="#000000" points="43,-625.5 43,-655.5 323,-655.5 323,-625.5 43,-625.5"/>
<text text-anchor="start" x="50" y="-636.9" font-family="Arial" font-size="14.00" fill="#000000">since_semester    </text>
<text text-anchor="start" x="182.2188" y="-636.9" font-family="Arial" font-size="14.00" fill="#666666">[tinyint(1)]</text>
<polygon fill="none" stroke="#000000" points="43,-595.5 43,-625.5 323,-625.5 323,-595.5 43,-595.5"/>
<text text-anchor="start" x="50" y="-606.9" font-family="Arial" font-size="14.00" fill="#000000">until_year    </text>
<text text-anchor="start" x="144.8822" y="-606.9" font-family="Arial" font-size="14.00" fill="#666666">[smallint(4)]</text>
<polygon fill="none" stroke="#000000" points="43,-565.5 43,-595.5 323,-595.5 323,-565.5 43,-565.5"/>
<text text-anchor="start" x="50" y="-576.9" font-family="Arial" font-size="14.00" fill="#000000">until_semester    </text>
<text text-anchor="start" x="175.216" y="-576.9" font-family="Arial" font-size="14.00" fill="#666666">[tinyint(1)]</text>
<polygon fill="none" stroke="#000000" points="43,-535.5 43,-565.5 323,-565.5 323,-535.5 43,-535.5"/>
<text text-anchor="start" x="50" y="-546.9" font-family="Arial" font-size="14.00" fill="#000000">created_at    </text>
<text text-anchor="start" x="150.3422" y="-546.9" font-family="Arial" font-size="14.00" fill="#666666">[datetime(6)]</text>
<polygon fill="none" stroke="#000000" points="43,-505.5 43,-535.5 323,-535.5 323,-505.5 43,-505.5"/>
<text text-anchor="start" x="50" y="-516.9" font-family="Arial" font-size="14.00" fill="#000000">updated_at    </text>
<text text-anchor="start" x="154.2468" y="-516.9" font-family="Arial" font-size="14.00" fill="#666666">[datetime(6)]</text>
</g>
<!-- project_members&#45;&gt;projects -->
<g id="edge1" class="edge">
<title>project_members:project_id&#45;&gt;projects:id</title>
<path fill="none" stroke="#000000" d="M332.8854,-728.7166C409.2421,-699.8604 370.8012,-330.5 285,-330.5"/>
<polygon fill="#000000" stroke="#000000" points="332.8411,-728.7245 322.201,-726.0715 327.9206,-729.6123 323,-730.5 323,-730.5 323,-730.5 327.9206,-729.6123 323.799,-734.9285 332.8411,-728.7245 332.8411,-728.7245"/>
<text text-anchor="start" x="330.388" y="-740.5" font-family="Arial" font-size="10.00" fill="#000000">FOREIGN KEY (project_id) REFERENCES projects (id)</text>
</g>
</g>
</svg>
