<?xml version="1.0" encoding="UTF-8" standalone="no"?>
<!DOCTYPE svg PUBLIC "-//W3C//DTD SVG 1.1//EN"
 "http://www.w3.org/Graphics/SVG/1.1/DTD/svg11.dtd">
<!-- Generated by graphviz version 2.40.1 (20161225.0304)
 -->
<!-- Title: project_members Pages: 1 -->
<svg width="789pt" height="862pt"
 viewBox="0.00 0.00 789.00 862.00" xmlns="http://www.w3.org/2000/svg" xmlns:xlink="http://www.w3.org/1999/xlink">
<g id="graph0" class="graph" transform="scale(1 1) rotate(0) translate(4 858)">
<title>project_members</title>
<polygon fill="#ffffff" stroke="transparent" points="-4,4 -4,-858 785,-858 785,4 -4,4"/>
<!-- project_members -->
<g id="node1" class="node">
<title>project_members</title>
<polygon fill="#efefef" stroke="transparent" points="261,-772.5 261,-807.5 541,-807.5 541,-772.5 261,-772.5"/>
<polygon fill="none" stroke="#000000" points="261,-772.5 261,-807.5 541,-807.5 541,-772.5 261,-772.5"/>
<text text-anchor="start" x="267.7117" y="-785.3" font-family="Arial Bold" font-size="18.00" fill="#000000">project_members</text>
<text text-anchor="start" x="406.7203" y="-785.3" font-family="Arial" font-size="14.00" fill="#000000">    </text>
<text text-anchor="start" x="440.9251" y="-785.3" font-family="Arial" font-size="14.00" fill="#666666">[BASE TABLE]</text>
<polygon fill="none" stroke="#000000" points="261,-742.5 261,-772.5 541,-772.5 541,-742.5 261,-742.5"/>
<text text-anchor="start" x="268" y="-753.9" font-family="Arial" font-size="14.00" fill="#000000">id </text>
<text text-anchor="start" x="282.7798" y="-753.9" font-family="Arial" font-size="14.00" fill="#666666">[char(36)]</text>
<polygon fill="none" stroke="#000000" points="261,-712.5 261,-742.5 541,-742.5 541,-712.5 261,-712.5"/>
<text text-anchor="start" x="268" y="-723.9" font-family="Arial" font-size="14.00" fill="#000000">project_id </text>
<text text-anchor="start" x="332.568" y="-723.9" font-family="Arial" font-size="14.00" fill="#666666">[char(36)]</text>
<polygon fill="none" stroke="#000000" points="261,-682.5 261,-712.5 541,-712.5 541,-682.5 261,-682.5"/>
<text text-anchor="start" x="268" y="-693.9" font-family="Arial" font-size="14.00" fill="#000000">user_id </text>
<text text-anchor="start" x="317.7882" y="-693.9" font-family="Arial" font-size="14.00" fill="#666666">[char(36)]</text>
<polygon fill="none" stroke="#000000" points="261,-652.5 261,-682.5 541,-682.5 541,-652.5 261,-652.5"/>
<text text-anchor="start" x="268" y="-663.9" font-family="Arial" font-size="14.00" fill="#000000">since_year </text>
<text text-anchor="start" x="339.5708" y="-663.9" font-family="Arial" font-size="14.00" fill="#666666">[smallint(4)]</text>
<polygon fill="none" stroke="#000000" points="261,-622.5 261,-652.5 541,-652.5 541,-622.5 261,-622.5"/>
<text text-anchor="start" x="268" y="-633.9" font-family="Arial" font-size="14.00" fill="#000000">since_semester </text>
<text text-anchor="start" x="369.9046" y="-633.9" font-family="Arial" font-size="14.00" fill="#666666">[tinyint(1)]</text>
<polygon fill="none" stroke="#000000" points="261,-592.5 261,-622.5 541,-622.5 541,-592.5 261,-592.5"/>
<text text-anchor="start" x="268" y="-603.9" font-family="Arial" font-size="14.00" fill="#000000">until_year </text>
<text text-anchor="start" x="332.568" y="-603.9" font-family="Arial" font-size="14.00" fill="#666666">[smallint(4)]</text>
<polygon fill="none" stroke="#000000" points="261,-562.5 261,-592.5 541,-592.5 541,-562.5 261,-562.5"/>
<text text-anchor="start" x="268" y="-573.9" font-family="Arial" font-size="14.00" fill="#000000">until_semester </text>
<text text-anchor="start" x="362.9018" y="-573.9" font-family="Arial" font-size="14.00" fill="#666666">[tinyint(1)]</text>
<polygon fill="none" stroke="#000000" points="261,-532.5 261,-562.5 541,-562.5 541,-532.5 261,-532.5"/>
<text text-anchor="start" x="268" y="-543.9" font-family="Arial" font-size="14.00" fill="#000000">created_at </text>
<text text-anchor="start" x="338.028" y="-543.9" font-family="Arial" font-size="14.00" fill="#666666">[datetime(6)]</text>
<polygon fill="none" stroke="#000000" points="261,-502.5 261,-532.5 541,-532.5 541,-502.5 261,-502.5"/>
<text text-anchor="start" x="268" y="-513.9" font-family="Arial" font-size="14.00" fill="#000000">updated_at </text>
<text text-anchor="start" x="341.9326" y="-513.9" font-family="Arial" font-size="14.00" fill="#666666">[datetime(6)]</text>
<polygon fill="none" stroke="#000000" stroke-width="3" points="259.5,-501.5 259.5,-809.5 542.5,-809.5 542.5,-501.5 259.5,-501.5"/>
</g>
<!-- projects -->
<g id="node2" class="node">
<title>projects</title>
<polygon fill="#efefef" stroke="transparent" points="145,-342.5 145,-377.5 352,-377.5 352,-342.5 145,-342.5"/>
<polygon fill="none" stroke="#000000" points="145,-342.5 145,-377.5 352,-377.5 352,-342.5 145,-342.5"/>
<text text-anchor="start" x="153.2124" y="-355.3" font-family="Arial Bold" font-size="18.00" fill="#000000">projects</text>
<text text-anchor="start" x="216.2196" y="-355.3" font-family="Arial" font-size="14.00" fill="#000000">    </text>
<text text-anchor="start" x="250.4244" y="-355.3" font-family="Arial" font-size="14.00" fill="#666666">[BASE TABLE]</text>
<polygon fill="none" stroke="#000000" points="145,-312.5 145,-342.5 352,-342.5 352,-312.5 145,-312.5"/>
<text text-anchor="start" x="152" y="-323.9" font-family="Arial" font-size="14.00" fill="#000000">id    </text>
<text text-anchor="start" x="197.094" y="-323.9" font-family="Arial" font-size="14.00" fill="#666666">[char(36)]</text>
<polygon fill="none" stroke="#000000" points="145,-282.5 145,-312.5 352,-312.5 352,-282.5 145,-282.5"/>
<text text-anchor="start" x="152" y="-293.9" font-family="Arial" font-size="14.00" fill="#000000">name    </text>
<text text-anchor="start" x="221.2132" y="-293.9" font-family="Arial" font-size="14.00" fill="#666666">[varchar(32)]</text>
<polygon fill="none" stroke="#000000" points="145,-252.5 145,-282.5 352,-282.5 352,-252.5 145,-252.5"/>
<text text-anchor="start" x="152" y="-263.9" font-family="Arial" font-size="14.00" fill="#000000">description    </text>
<text text-anchor="start" x="253.8822" y="-263.9" font-family="Arial" font-size="14.00" fill="#666666">[text]</text>
<polygon fill="none" stroke="#000000" points="145,-222.5 145,-252.5 352,-252.5 352,-222.5 145,-222.5"/>
<text text-anchor="start" x="152" y="-233.9" font-family="Arial" font-size="14.00" fill="#000000">link    </text>
<text text-anchor="start" x="207.2006" y="-233.9" font-family="Arial" font-size="14.00" fill="#666666">[text]</text>
<polygon fill="none" stroke="#000000" points="145,-192.5 145,-222.5 352,-222.5 352,-192.5 145,-192.5"/>
<text text-anchor="start" x="152" y="-203.9" font-family="Arial" font-size="14.00" fill="#000000">since_year    </text>
<text text-anchor="start" x="253.885" y="-203.9" font-family="Arial" font-size="14.00" fill="#666666">[smallint(4)]</text>
<polygon fill="none" stroke="#000000" points="145,-162.5 145,-192.5 352,-192.5 352,-162.5 145,-162.5"/>
<text text-anchor="start" x="151.6683" y="-173.9" font-family="Arial" font-size="14.00" fill="#000000">since_semester    </text>
<text text-anchor="start" x="283.8871" y="-173.9" font-family="Arial" font-size="14.00" fill="#666666">[tinyint(1)]</text>
<polygon fill="none" stroke="#000000" points="145,-132.5 145,-162.5 352,-162.5 352,-132.5 145,-132.5"/>
<text text-anchor="start" x="152" y="-143.9" font-family="Arial" font-size="14.00" fill="#000000">until_year    </text>
<text text-anchor="start" x="246.8822" y="-143.9" font-family="Arial" font-size="14.00" fill="#666666">[smallint(4)]</text>
<polygon fill="none" stroke="#000000" points="145,-102.5 145,-132.5 352,-132.5 352,-102.5 145,-102.5"/>
<text text-anchor="start" x="152" y="-113.9" font-family="Arial" font-size="14.00" fill="#000000">until_semester    </text>
<text text-anchor="start" x="277.216" y="-113.9" font-family="Arial" font-size="14.00" fill="#666666">[tinyint(1)]</text>
<polygon fill="none" stroke="#000000" points="145,-72.5 145,-102.5 352,-102.5 352,-72.5 145,-72.5"/>
<text text-anchor="start" x="152" y="-83.9" font-family="Arial" font-size="14.00" fill="#000000">created_at    </text>
<text text-anchor="start" x="252.3422" y="-83.9" font-family="Arial" font-size="14.00" fill="#666666">[datetime(6)]</text>
<polygon fill="none" stroke="#000000" points="145,-42.5 145,-72.5 352,-72.5 352,-42.5 145,-42.5"/>
<text text-anchor="start" x="152" y="-53.9" font-family="Arial" font-size="14.00" fill="#000000">updated_at    </text>
<text text-anchor="start" x="256.2468" y="-53.9" font-family="Arial" font-size="14.00" fill="#666666">[datetime(6)]</text>
</g>
<!-- project_members&#45;&gt;projects -->
<g id="edge1" class="edge">
<title>project_members:project_id&#45;&gt;projects:id</title>
<path fill="none" stroke="#000000" d="M250.8747,-727.0656C143.8746,-717.5375 195.3913,-553.5112 261,-457 285.4524,-421.0301 327.5476,-456.9699 352,-421 375.3625,-386.6335 393.5556,-327.5 352,-327.5"/>
<polygon fill="#000000" stroke="#000000" points="251.0092,-727.0713 260.8071,-731.9959 256.0046,-727.2856 261,-727.5 261,-727.5 261,-727.5 256.0046,-727.2856 261.1929,-723.0041 251.0092,-727.0713 251.0092,-727.0713"/>
<text text-anchor="start" x="7.388" y="-737.5" font-family="Arial" font-size="10.00" fill="#000000">FOREIGN KEY (project_id) REFERENCES projects (id)</text>
</g>
<!-- users -->
<g id="node3" class="node">
<title>users</title>
<polygon fill="#efefef" stroke="transparent" points="456,-282.5 456,-317.5 652,-317.5 652,-282.5 456,-282.5"/>
<polygon fill="none" stroke="#000000" points="456,-282.5 456,-317.5 652,-317.5 652,-282.5 456,-282.5"/>
<text text-anchor="start" x="468.2137" y="-295.3" font-family="Arial Bold" font-size="18.00" fill="#000000">users</text>
<text text-anchor="start" x="512.2183" y="-295.3" font-family="Arial" font-size="14.00" fill="#000000">    </text>
<text text-anchor="start" x="546.4231" y="-295.3" font-family="Arial" font-size="14.00" fill="#666666">[BASE TABLE]</text>
<polygon fill="none" stroke="#000000" points="456,-252.5 456,-282.5 652,-282.5 652,-252.5 456,-252.5"/>
<text text-anchor="start" x="463" y="-263.9" font-family="Arial" font-size="14.00" fill="#000000">id    </text>
<text text-anchor="start" x="508.094" y="-263.9" font-family="Arial" font-size="14.00" fill="#666666">[char(36)]</text>
<polygon fill="none" stroke="#000000" points="456,-222.5 456,-252.5 652,-252.5 652,-222.5 456,-222.5"/>
<text text-anchor="start" x="463" y="-233.9" font-family="Arial" font-size="14.00" fill="#000000">description    </text>
<text text-anchor="start" x="564.8822" y="-233.9" font-family="Arial" font-size="14.00" fill="#666666">[text]</text>
<polygon fill="none" stroke="#000000" points="456,-192.5 456,-222.5 652,-222.5 652,-192.5 456,-192.5"/>
<text text-anchor="start" x="463" y="-203.9" font-family="Arial" font-size="14.00" fill="#000000">check    </text>
<text text-anchor="start" x="533.77" y="-203.9" font-family="Arial" font-size="14.00" fill="#666666">[tinyint(1)]</text>
<polygon fill="none" stroke="#000000" points="456,-162.5 456,-192.5 652,-192.5 652,-162.5 456,-162.5"/>
<text text-anchor="start" x="463" y="-173.9" font-family="Arial" font-size="14.00" fill="#000000">name    </text>
<text text-anchor="start" x="532.2132" y="-173.9" font-family="Arial" font-size="14.00" fill="#666666">[varchar(32)]</text>
<polygon fill="none" stroke="#000000" points="456,-132.5 456,-162.5 652,-162.5 652,-132.5 456,-132.5"/>
<text text-anchor="start" x="463" y="-143.9" font-family="Arial" font-size="14.00" fill="#000000">created_at    </text>
<text text-anchor="start" x="563.3422" y="-143.9" font-family="Arial" font-size="14.00" fill="#666666">[datetime(6)]</text>
<polygon fill="none" stroke="#000000" points="456,-102.5 456,-132.5 652,-132.5 652,-102.5 456,-102.5"/>
<text text-anchor="start" x="462.5947" y="-113.9" font-family="Arial" font-size="14.00" fill="#000000">updated_at    </text>
<text text-anchor="start" x="566.8415" y="-113.9" font-family="Arial" font-size="14.00" fill="#666666">[datetime(6)]</text>
</g>
<!-- project_members&#45;&gt;users -->
<g id="edge2" class="edge">
<title>project_members:user_id&#45;&gt;users:id</title>
<path fill="none" stroke="#000000" d="M551.073,-697.0418C643.3412,-688.2112 577.6311,-553.6296 541,-457 520.7994,-403.7127 476.2006,-414.2873 456,-361 441.2697,-322.1428 414.4444,-267.5 456,-267.5"/>
<polygon fill="#000000" stroke="#000000" points="550.9897,-697.0455 540.7955,-693.0046 545.9948,-697.2727 541,-697.5 541,-697.5 541,-697.5 545.9948,-697.2727 541.2045,-701.9954 550.9897,-697.0455 550.9897,-697.0455"/>
<text text-anchor="start" x="547.945" y="-707.5" font-family="Arial" font-size="10.00" fill="#000000">FOREIGN KEY (user_id) REFERENCES users (id)</text>
</g>
</g>
</svg>
