<?xml version="1.0" encoding="UTF-8" standalone="no"?>
<!DOCTYPE svg PUBLIC "-//W3C//DTD SVG 1.1//EN"
 "http://www.w3.org/Graphics/SVG/1.1/DTD/svg11.dtd">
<!-- Generated by graphviz version 2.40.1 (20161225.0304)
 -->
<!-- Title: project_members Pages: 1 -->
<svg width="759pt" height="742pt"
 viewBox="0.00 0.00 759.00 742.00" xmlns="http://www.w3.org/2000/svg" xmlns:xlink="http://www.w3.org/1999/xlink">
<g id="graph0" class="graph" transform="scale(1 1) rotate(0) translate(4 738)">
<title>project_members</title>
<polygon fill="#ffffff" stroke="transparent" points="-4,4 -4,-738 755,-738 755,4 -4,4"/>
<!-- project_members -->
<g id="node1" class="node">
<title>project_members</title>
<polygon fill="#efefef" stroke="transparent" points="261,-652.5 261,-687.5 511,-687.5 511,-652.5 261,-652.5"/>
<polygon fill="none" stroke="#000000" points="261,-652.5 261,-687.5 511,-687.5 511,-652.5 261,-652.5"/>
<text text-anchor="start" x="267.8688" y="-665.3" font-family="Arial Bold" font-size="18.00" fill="#000000">project_members</text>
<text text-anchor="start" x="406.8774" y="-665.3" font-family="Arial" font-size="14.00" fill="#000000"> </text>
<text text-anchor="start" x="410.768" y="-665.3" font-family="Arial" font-size="14.00" fill="#666666">[BASE TABLE]</text>
<polygon fill="none" stroke="#000000" points="261,-622.5 261,-652.5 511,-652.5 511,-622.5 261,-622.5"/>
<text text-anchor="start" x="268" y="-633.9" font-family="Arial" font-size="14.00" fill="#000000">id </text>
<text text-anchor="start" x="282.7798" y="-633.9" font-family="Arial" font-size="14.00" fill="#666666">[char(36)]</text>
<polygon fill="none" stroke="#000000" points="261,-592.5 261,-622.5 511,-622.5 511,-592.5 261,-592.5"/>
<text text-anchor="start" x="268" y="-603.9" font-family="Arial" font-size="14.00" fill="#000000">project_id </text>
<text text-anchor="start" x="332.568" y="-603.9" font-family="Arial" font-size="14.00" fill="#666666">[char(36)]</text>
<polygon fill="none" stroke="#000000" points="261,-562.5 261,-592.5 511,-592.5 511,-562.5 261,-562.5"/>
<text text-anchor="start" x="268" y="-573.9" font-family="Arial" font-size="14.00" fill="#000000">user_id </text>
<text text-anchor="start" x="317.7882" y="-573.9" font-family="Arial" font-size="14.00" fill="#666666">[char(36)]</text>
<polygon fill="none" stroke="#000000" points="261,-532.5 261,-562.5 511,-562.5 511,-532.5 261,-532.5"/>
<text text-anchor="start" x="268" y="-543.9" font-family="Arial" font-size="14.00" fill="#000000">since </text>
<text text-anchor="start" x="304.5624" y="-543.9" font-family="Arial" font-size="14.00" fill="#666666">[datetime(6)]</text>
<polygon fill="none" stroke="#000000" points="261,-502.5 261,-532.5 511,-532.5 511,-502.5 261,-502.5"/>
<text text-anchor="start" x="268" y="-513.9" font-family="Arial" font-size="14.00" fill="#000000">until </text>
<text text-anchor="start" x="297.5596" y="-513.9" font-family="Arial" font-size="14.00" fill="#666666">[datetime(6)]</text>
<polygon fill="none" stroke="#000000" points="261,-472.5 261,-502.5 511,-502.5 511,-472.5 261,-472.5"/>
<text text-anchor="start" x="268" y="-483.9" font-family="Arial" font-size="14.00" fill="#000000">created_at </text>
<text text-anchor="start" x="338.028" y="-483.9" font-family="Arial" font-size="14.00" fill="#666666">[datetime(6)]</text>
<polygon fill="none" stroke="#000000" points="261,-442.5 261,-472.5 511,-472.5 511,-442.5 261,-442.5"/>
<text text-anchor="start" x="268" y="-453.9" font-family="Arial" font-size="14.00" fill="#000000">updated_at </text>
<text text-anchor="start" x="341.9326" y="-453.9" font-family="Arial" font-size="14.00" fill="#666666">[datetime(6)]</text>
<polygon fill="none" stroke="#000000" stroke-width="3" points="259.5,-441.5 259.5,-689.5 512.5,-689.5 512.5,-441.5 259.5,-441.5"/>
</g>
<!-- projects -->
<g id="node2" class="node">
<title>projects</title>
<polygon fill="#efefef" stroke="transparent" points="162,-282.5 162,-317.5 336,-317.5 336,-282.5 162,-282.5"/>
<polygon fill="none" stroke="#000000" points="162,-282.5 162,-317.5 336,-317.5 336,-282.5 162,-282.5"/>
<text text-anchor="start" x="168.8695" y="-295.3" font-family="Arial Bold" font-size="18.00" fill="#000000">projects</text>
<text text-anchor="start" x="231.8767" y="-295.3" font-family="Arial" font-size="14.00" fill="#000000"> </text>
<text text-anchor="start" x="235.7673" y="-295.3" font-family="Arial" font-size="14.00" fill="#666666">[BASE TABLE]</text>
<polygon fill="none" stroke="#000000" points="162,-252.5 162,-282.5 336,-282.5 336,-252.5 162,-252.5"/>
<text text-anchor="start" x="169" y="-263.9" font-family="Arial" font-size="14.00" fill="#000000">id </text>
<text text-anchor="start" x="183.7798" y="-263.9" font-family="Arial" font-size="14.00" fill="#666666">[char(36)]</text>
<polygon fill="none" stroke="#000000" points="162,-222.5 162,-252.5 336,-252.5 336,-222.5 162,-222.5"/>
<text text-anchor="start" x="169" y="-233.9" font-family="Arial" font-size="14.00" fill="#000000">name </text>
<text text-anchor="start" x="207.899" y="-233.9" font-family="Arial" font-size="14.00" fill="#666666">[varchar(32)]</text>
<polygon fill="none" stroke="#000000" points="162,-192.5 162,-222.5 336,-222.5 336,-192.5 162,-192.5"/>
<text text-anchor="start" x="169" y="-203.9" font-family="Arial" font-size="14.00" fill="#000000">description </text>
<text text-anchor="start" x="240.568" y="-203.9" font-family="Arial" font-size="14.00" fill="#666666">[text]</text>
<polygon fill="none" stroke="#000000" points="162,-162.5 162,-192.5 336,-192.5 336,-162.5 162,-162.5"/>
<text text-anchor="start" x="169" y="-173.9" font-family="Arial" font-size="14.00" fill="#000000">link </text>
<text text-anchor="start" x="193.8864" y="-173.9" font-family="Arial" font-size="14.00" fill="#666666">[text]</text>
<polygon fill="none" stroke="#000000" points="162,-132.5 162,-162.5 336,-162.5 336,-132.5 162,-132.5"/>
<text text-anchor="start" x="169" y="-143.9" font-family="Arial" font-size="14.00" fill="#000000">since </text>
<text text-anchor="start" x="205.5624" y="-143.9" font-family="Arial" font-size="14.00" fill="#666666">[datetime(6)]</text>
<polygon fill="none" stroke="#000000" points="162,-102.5 162,-132.5 336,-132.5 336,-102.5 162,-102.5"/>
<text text-anchor="start" x="169" y="-113.9" font-family="Arial" font-size="14.00" fill="#000000">until </text>
<text text-anchor="start" x="198.5596" y="-113.9" font-family="Arial" font-size="14.00" fill="#666666">[datetime(6)]</text>
<polygon fill="none" stroke="#000000" points="162,-72.5 162,-102.5 336,-102.5 336,-72.5 162,-72.5"/>
<text text-anchor="start" x="169" y="-83.9" font-family="Arial" font-size="14.00" fill="#000000">created_at </text>
<text text-anchor="start" x="239.028" y="-83.9" font-family="Arial" font-size="14.00" fill="#666666">[datetime(6)]</text>
<polygon fill="none" stroke="#000000" points="162,-42.5 162,-72.5 336,-72.5 336,-42.5 162,-42.5"/>
<text text-anchor="start" x="169" y="-53.9" font-family="Arial" font-size="14.00" fill="#000000">updated_at </text>
<text text-anchor="start" x="242.9326" y="-53.9" font-family="Arial" font-size="14.00" fill="#666666">[datetime(6)]</text>
</g>
<!-- project_members&#45;&gt;projects -->
<g id="edge1" class="edge">
<title>project_members:project_id&#45;&gt;projects:id</title>
<path fill="none" stroke="#000000" d="M250.6571,-606.9098C170.8702,-597.3205 213.1211,-473.0908 261,-397 280.6916,-365.7054 316.3084,-392.2946 336,-361 358.1314,-325.8281 377.5556,-267.5 336,-267.5"/>
<polygon fill="#000000" stroke="#000000" points="251.0162,-606.9302 260.7436,-611.9927 256.0081,-607.2151 261,-607.5 261,-607.5 261,-607.5 256.0081,-607.2151 261.2564,-603.0073 251.0162,-606.9302 251.0162,-606.9302"/>
<text text-anchor="start" x="7.388" y="-617.5" font-family="Arial" font-size="10.00" fill="#000000">FOREIGN KEY (project_id) REFERENCES projects (id)</text>
</g>
<!-- users -->
<g id="node3" class="node">
<title>users</title>
<polygon fill="#efefef" stroke="transparent" points="440,-252.5 440,-287.5 606,-287.5 606,-252.5 440,-252.5"/>
<polygon fill="none" stroke="#000000" points="440,-252.5 440,-287.5 606,-287.5 606,-252.5 440,-252.5"/>
<text text-anchor="start" x="452.3708" y="-265.3" font-family="Arial Bold" font-size="18.00" fill="#000000">users</text>
<text text-anchor="start" x="496.3754" y="-265.3" font-family="Arial" font-size="14.00" fill="#000000"> </text>
<text text-anchor="start" x="500.266" y="-265.3" font-family="Arial" font-size="14.00" fill="#666666">[BASE TABLE]</text>
<polygon fill="none" stroke="#000000" points="440,-222.5 440,-252.5 606,-252.5 606,-222.5 440,-222.5"/>
<text text-anchor="start" x="447" y="-233.9" font-family="Arial" font-size="14.00" fill="#000000">id </text>
<text text-anchor="start" x="461.7798" y="-233.9" font-family="Arial" font-size="14.00" fill="#666666">[char(36)]</text>
<polygon fill="none" stroke="#000000" points="440,-192.5 440,-222.5 606,-222.5 606,-192.5 440,-192.5"/>
<text text-anchor="start" x="447" y="-203.9" font-family="Arial" font-size="14.00" fill="#000000">description </text>
<text text-anchor="start" x="518.568" y="-203.9" font-family="Arial" font-size="14.00" fill="#666666">[text]</text>
<polygon fill="none" stroke="#000000" points="440,-162.5 440,-192.5 606,-192.5 606,-162.5 440,-162.5"/>
<text text-anchor="start" x="447" y="-173.9" font-family="Arial" font-size="14.00" fill="#000000">check </text>
<text text-anchor="start" x="487.4558" y="-173.9" font-family="Arial" font-size="14.00" fill="#666666">[tinyint(1)]</text>
<polygon fill="none" stroke="#000000" points="440,-132.5 440,-162.5 606,-162.5 606,-132.5 440,-132.5"/>
<text text-anchor="start" x="447" y="-143.9" font-family="Arial" font-size="14.00" fill="#000000">name </text>
<text text-anchor="start" x="485.899" y="-143.9" font-family="Arial" font-size="14.00" fill="#666666">[varchar(32)]</text>
<polygon fill="none" stroke="#000000" points="440,-102.5 440,-132.5 606,-132.5 606,-102.5 440,-102.5"/>
<text text-anchor="start" x="447" y="-113.9" font-family="Arial" font-size="14.00" fill="#000000">created_at </text>
<text text-anchor="start" x="517.028" y="-113.9" font-family="Arial" font-size="14.00" fill="#666666">[datetime(6)]</text>
<polygon fill="none" stroke="#000000" points="440,-72.5 440,-102.5 606,-102.5 606,-72.5 440,-72.5"/>
<text text-anchor="start" x="446.7518" y="-83.9" font-family="Arial" font-size="14.00" fill="#000000">updated_at </text>
<text text-anchor="start" x="520.6844" y="-83.9" font-family="Arial" font-size="14.00" fill="#666666">[datetime(6)]</text>
</g>
<!-- project_members&#45;&gt;users -->
<g id="edge2" class="edge">
<title>project_members:user_id&#45;&gt;users:id</title>
<path fill="none" stroke="#000000" d="M521.0542,-577.4032C796.2068,-571.9828 444.2074,-340.6555 440,-331 423.3998,-292.9041 398.4444,-237.5 440,-237.5"/>
<polygon fill="#000000" stroke="#000000" points="520.9995,-577.4036 510.9566,-573.0002 515.9998,-577.4518 511,-577.5 511,-577.5 511,-577.5 515.9998,-577.4518 511.0434,-581.9998 520.9995,-577.4036 520.9995,-577.4036"/>
<text text-anchor="start" x="517.945" y="-587.5" font-family="Arial" font-size="10.00" fill="#000000">FOREIGN KEY (user_id) REFERENCES users (id)</text>
</g>
</g>
</svg>
