<?xml version="1.0" encoding="UTF-8" standalone="no"?>
<!DOCTYPE svg PUBLIC "-//W3C//DTD SVG 1.1//EN"
 "http://www.w3.org/Graphics/SVG/1.1/DTD/svg11.dtd">
<!-- Generated by graphviz version 2.40.1 (20161225.0304)
 -->
<!-- Title: projects Pages: 1 -->
<svg width="562pt" height="742pt"
 viewBox="0.00 0.00 562.00 742.00" xmlns="http://www.w3.org/2000/svg" xmlns:xlink="http://www.w3.org/1999/xlink">
<g id="graph0" class="graph" transform="scale(1 1) rotate(0) translate(4 738)">
<title>projects</title>
<polygon fill="#ffffff" stroke="transparent" points="-4,4 -4,-738 558,-738 558,4 -4,4"/>
<!-- projects -->
<g id="node1" class="node">
<title>projects</title>
<polygon fill="#efefef" stroke="transparent" points="81,-285.5 81,-320.5 255,-320.5 255,-285.5 81,-285.5"/>
<polygon fill="none" stroke="#000000" points="81,-285.5 81,-320.5 255,-320.5 255,-285.5 81,-285.5"/>
<text text-anchor="start" x="87.8695" y="-298.3" font-family="Arial Bold" font-size="18.00" fill="#000000">projects</text>
<text text-anchor="start" x="150.8767" y="-298.3" font-family="Arial" font-size="14.00" fill="#000000"> </text>
<text text-anchor="start" x="154.7673" y="-298.3" font-family="Arial" font-size="14.00" fill="#666666">[BASE TABLE]</text>
<polygon fill="none" stroke="#000000" points="81,-255.5 81,-285.5 255,-285.5 255,-255.5 81,-255.5"/>
<text text-anchor="start" x="88" y="-266.9" font-family="Arial" font-size="14.00" fill="#000000">id </text>
<text text-anchor="start" x="102.7798" y="-266.9" font-family="Arial" font-size="14.00" fill="#666666">[char(36)]</text>
<polygon fill="none" stroke="#000000" points="81,-225.5 81,-255.5 255,-255.5 255,-225.5 81,-225.5"/>
<text text-anchor="start" x="88" y="-236.9" font-family="Arial" font-size="14.00" fill="#000000">name </text>
<text text-anchor="start" x="126.899" y="-236.9" font-family="Arial" font-size="14.00" fill="#666666">[varchar(32)]</text>
<polygon fill="none" stroke="#000000" points="81,-195.5 81,-225.5 255,-225.5 255,-195.5 81,-195.5"/>
<text text-anchor="start" x="88" y="-206.9" font-family="Arial" font-size="14.00" fill="#000000">description </text>
<text text-anchor="start" x="159.568" y="-206.9" font-family="Arial" font-size="14.00" fill="#666666">[text]</text>
<polygon fill="none" stroke="#000000" points="81,-165.5 81,-195.5 255,-195.5 255,-165.5 81,-165.5"/>
<text text-anchor="start" x="88" y="-176.9" font-family="Arial" font-size="14.00" fill="#000000">link </text>
<text text-anchor="start" x="112.8864" y="-176.9" font-family="Arial" font-size="14.00" fill="#666666">[text]</text>
<polygon fill="none" stroke="#000000" points="81,-135.5 81,-165.5 255,-165.5 255,-135.5 81,-135.5"/>
<text text-anchor="start" x="88" y="-146.9" font-family="Arial" font-size="14.00" fill="#000000">since </text>
<text text-anchor="start" x="124.5624" y="-146.9" font-family="Arial" font-size="14.00" fill="#666666">[datetime(6)]</text>
<polygon fill="none" stroke="#000000" points="81,-105.5 81,-135.5 255,-135.5 255,-105.5 81,-105.5"/>
<text text-anchor="start" x="88" y="-116.9" font-family="Arial" font-size="14.00" fill="#000000">until </text>
<text text-anchor="start" x="117.5596" y="-116.9" font-family="Arial" font-size="14.00" fill="#666666">[datetime(6)]</text>
<polygon fill="none" stroke="#000000" points="81,-75.5 81,-105.5 255,-105.5 255,-75.5 81,-75.5"/>
<text text-anchor="start" x="88" y="-86.9" font-family="Arial" font-size="14.00" fill="#000000">created_at </text>
<text text-anchor="start" x="158.028" y="-86.9" font-family="Arial" font-size="14.00" fill="#666666">[datetime(6)]</text>
<polygon fill="none" stroke="#000000" points="81,-45.5 81,-75.5 255,-75.5 255,-45.5 81,-45.5"/>
<text text-anchor="start" x="88" y="-56.9" font-family="Arial" font-size="14.00" fill="#000000">updated_at </text>
<text text-anchor="start" x="161.9326" y="-56.9" font-family="Arial" font-size="14.00" fill="#666666">[datetime(6)]</text>
<polygon fill="none" stroke="#000000" stroke-width="3" points="79.5,-44.5 79.5,-322.5 256.5,-322.5 256.5,-44.5 79.5,-44.5"/>
</g>
<!-- project_members -->
<g id="node2" class="node">
<title>project_members</title>
<polygon fill="#efefef" stroke="transparent" points="43,-655.5 43,-690.5 293,-690.5 293,-655.5 43,-655.5"/>
<polygon fill="none" stroke="#000000" points="43,-655.5 43,-690.5 293,-690.5 293,-655.5 43,-655.5"/>
<text text-anchor="start" x="49.8688" y="-668.3" font-family="Arial Bold" font-size="18.00" fill="#000000">project_members</text>
<text text-anchor="start" x="188.8774" y="-668.3" font-family="Arial" font-size="14.00" fill="#000000"> </text>
<text text-anchor="start" x="192.768" y="-668.3" font-family="Arial" font-size="14.00" fill="#666666">[BASE TABLE]</text>
<polygon fill="none" stroke="#000000" points="43,-625.5 43,-655.5 293,-655.5 293,-625.5 43,-625.5"/>
<text text-anchor="start" x="50" y="-636.9" font-family="Arial" font-size="14.00" fill="#000000">id </text>
<text text-anchor="start" x="64.7798" y="-636.9" font-family="Arial" font-size="14.00" fill="#666666">[char(36)]</text>
<polygon fill="none" stroke="#000000" points="43,-595.5 43,-625.5 293,-625.5 293,-595.5 43,-595.5"/>
<text text-anchor="start" x="50" y="-606.9" font-family="Arial" font-size="14.00" fill="#000000">project_id </text>
<text text-anchor="start" x="114.568" y="-606.9" font-family="Arial" font-size="14.00" fill="#666666">[char(36)]</text>
<polygon fill="none" stroke="#000000" points="43,-565.5 43,-595.5 293,-595.5 293,-565.5 43,-565.5"/>
<text text-anchor="start" x="50" y="-576.9" font-family="Arial" font-size="14.00" fill="#000000">user_id </text>
<text text-anchor="start" x="99.7882" y="-576.9" font-family="Arial" font-size="14.00" fill="#666666">[char(36)]</text>
<polygon fill="none" stroke="#000000" points="43,-535.5 43,-565.5 293,-565.5 293,-535.5 43,-535.5"/>
<text text-anchor="start" x="50" y="-546.9" font-family="Arial" font-size="14.00" fill="#000000">since </text>
<text text-anchor="start" x="86.5624" y="-546.9" font-family="Arial" font-size="14.00" fill="#666666">[datetime(6)]</text>
<polygon fill="none" stroke="#000000" points="43,-505.5 43,-535.5 293,-535.5 293,-505.5 43,-505.5"/>
<text text-anchor="start" x="50" y="-516.9" font-family="Arial" font-size="14.00" fill="#000000">until </text>
<text text-anchor="start" x="79.5596" y="-516.9" font-family="Arial" font-size="14.00" fill="#666666">[datetime(6)]</text>
<polygon fill="none" stroke="#000000" points="43,-475.5 43,-505.5 293,-505.5 293,-475.5 43,-475.5"/>
<text text-anchor="start" x="50" y="-486.9" font-family="Arial" font-size="14.00" fill="#000000">created_at </text>
<text text-anchor="start" x="120.028" y="-486.9" font-family="Arial" font-size="14.00" fill="#666666">[datetime(6)]</text>
<polygon fill="none" stroke="#000000" points="43,-445.5 43,-475.5 293,-475.5 293,-445.5 43,-445.5"/>
<text text-anchor="start" x="50" y="-456.9" font-family="Arial" font-size="14.00" fill="#000000">updated_at </text>
<text text-anchor="start" x="123.9326" y="-456.9" font-family="Arial" font-size="14.00" fill="#666666">[datetime(6)]</text>
</g>
<!-- project_members&#45;&gt;projects -->
<g id="edge1" class="edge">
<title>project_members:project_id&#45;&gt;projects:id</title>
<path fill="none" stroke="#000000" d="M302.9473,-608.3288C365.3799,-579.3721 327.4623,-270.5 255,-270.5"/>
<polygon fill="#000000" stroke="#000000" points="302.77,-608.3675 292.0404,-606.1035 297.885,-609.4337 293,-610.5 293,-610.5 293,-610.5 297.885,-609.4337 293.9596,-614.8965 302.77,-608.3675 302.77,-608.3675"/>
<text text-anchor="start" x="300.388" y="-620.5" font-family="Arial" font-size="10.00" fill="#000000">FOREIGN KEY (project_id) REFERENCES projects (id)</text>
</g>
</g>
</svg>
