<?xml version="1.0" encoding="UTF-8" standalone="no"?>
<!DOCTYPE svg PUBLIC "-//W3C//DTD SVG 1.1//EN"
 "http://www.w3.org/Graphics/SVG/1.1/DTD/svg11.dtd">
<!-- Generated by graphviz version 2.40.1 (20161225.0304)
 -->
<!-- Title: portfolio Pages: 1 -->
<svg width="558pt" height="309pt"
 viewBox="0.00 0.00 558.00 309.00" xmlns="http://www.w3.org/2000/svg" xmlns:xlink="http://www.w3.org/1999/xlink">
<g id="graph0" class="graph" transform="scale(1 1) rotate(0) translate(4 305)">
<title>portfolio</title>
<polygon fill="#ffffff" stroke="transparent" points="-4,4 -4,-305 554,-305 554,4 -4,4"/>
<!-- migrations -->
<g id="node1" class="node">
<title>migrations</title>
<polygon fill="#efefef" stroke="transparent" points="43,-147.5 43,-182.5 237,-182.5 237,-147.5 43,-147.5"/>
<polygon fill="none" stroke="#000000" points="43,-147.5 43,-182.5 237,-182.5 237,-147.5 43,-147.5"/>
<text text-anchor="start" x="49.8732" y="-160.3" font-family="Arial Bold" font-size="18.00" fill="#000000">migrations</text>
<text text-anchor="start" x="132.873" y="-160.3" font-family="Arial" font-size="14.00" fill="#000000"> </text>
<text text-anchor="start" x="136.7636" y="-160.3" font-family="Arial" font-size="14.00" fill="#666666">[BASE TABLE]</text>
<polygon fill="none" stroke="#000000" points="43,-117.5 43,-147.5 237,-147.5 237,-117.5 43,-117.5"/>
<text text-anchor="start" x="50" y="-128.9" font-family="Arial" font-size="14.00" fill="#000000">id </text>
<text text-anchor="start" x="64.7798" y="-128.9" font-family="Arial" font-size="14.00" fill="#666666">[varchar(255)]</text>
</g>
<!-- users -->
<g id="node2" class="node">
<title>users</title>
<polygon fill="#efefef" stroke="transparent" points="341,-222.5 341,-257.5 507,-257.5 507,-222.5 341,-222.5"/>
<polygon fill="none" stroke="#000000" points="341,-222.5 341,-257.5 507,-257.5 507,-222.5 341,-222.5"/>
<text text-anchor="start" x="353.3708" y="-235.3" font-family="Arial Bold" font-size="18.00" fill="#000000">users</text>
<text text-anchor="start" x="397.3754" y="-235.3" font-family="Arial" font-size="14.00" fill="#000000"> </text>
<text text-anchor="start" x="401.266" y="-235.3" font-family="Arial" font-size="14.00" fill="#666666">[BASE TABLE]</text>
<polygon fill="none" stroke="#000000" points="341,-192.5 341,-222.5 507,-222.5 507,-192.5 341,-192.5"/>
<text text-anchor="start" x="348" y="-203.9" font-family="Arial" font-size="14.00" fill="#000000">id </text>
<text text-anchor="start" x="362.7798" y="-203.9" font-family="Arial" font-size="14.00" fill="#666666">[char(36)]</text>
<polygon fill="none" stroke="#000000" points="341,-162.5 341,-192.5 507,-192.5 507,-162.5 341,-162.5"/>
<text text-anchor="start" x="348" y="-173.9" font-family="Arial" font-size="14.00" fill="#000000">description </text>
<text text-anchor="start" x="419.568" y="-173.9" font-family="Arial" font-size="14.00" fill="#666666">[text]</text>
<polygon fill="none" stroke="#000000" points="341,-132.5 341,-162.5 507,-162.5 507,-132.5 341,-132.5"/>
<text text-anchor="start" x="348" y="-143.9" font-family="Arial" font-size="14.00" fill="#000000">check </text>
<text text-anchor="start" x="388.4558" y="-143.9" font-family="Arial" font-size="14.00" fill="#666666">[tinyint(1)]</text>
<polygon fill="none" stroke="#000000" points="341,-102.5 341,-132.5 507,-132.5 507,-102.5 341,-102.5"/>
<text text-anchor="start" x="348" y="-113.9" font-family="Arial" font-size="14.00" fill="#000000">name </text>
<text text-anchor="start" x="386.899" y="-113.9" font-family="Arial" font-size="14.00" fill="#666666">[varchar(32)]</text>
<polygon fill="none" stroke="#000000" points="341,-72.5 341,-102.5 507,-102.5 507,-72.5 341,-72.5"/>
<text text-anchor="start" x="348" y="-83.9" font-family="Arial" font-size="14.00" fill="#000000">created_at </text>
<text text-anchor="start" x="418.028" y="-83.9" font-family="Arial" font-size="14.00" fill="#666666">[datetime(6)]</text>
<polygon fill="none" stroke="#000000" points="341,-42.5 341,-72.5 507,-72.5 507,-42.5 341,-42.5"/>
<text text-anchor="start" x="347.7518" y="-53.9" font-family="Arial" font-size="14.00" fill="#000000">updated_at </text>
<text text-anchor="start" x="421.6844" y="-53.9" font-family="Arial" font-size="14.00" fill="#666666">[datetime(6)]</text>
</g>
</g>
</svg>
