<?xml version="1.0" encoding="UTF-8" standalone="no"?>
<!DOCTYPE svg PUBLIC "-//W3C//DTD SVG 1.1//EN"
 "http://www.w3.org/Graphics/SVG/1.1/DTD/svg11.dtd">
<!-- Generated by graphviz version 2.40.1 (20161225.0304)
 -->
<!-- Title: portfolio Pages: 1 -->
<svg width="2182pt" height="1253pt"
 viewBox="0.00 0.00 2181.50 1253.00" xmlns="http://www.w3.org/2000/svg" xmlns:xlink="http://www.w3.org/1999/xlink">
<g id="graph0" class="graph" transform="scale(1 1) rotate(0) translate(4 1249)">
<title>portfolio</title>
<polygon fill="#ffffff" stroke="transparent" points="-4,4 -4,-1249 2177.5,-1249 2177.5,4 -4,4"/>
<!-- accounts -->
<g id="node1" class="node">
<title>accounts</title>
<polygon fill="#efefef" stroke="transparent" points="508.5,-1151.5 508.5,-1186.5 691.5,-1186.5 691.5,-1151.5 508.5,-1151.5"/>
<polygon fill="none" stroke="#000000" points="508.5,-1151.5 508.5,-1186.5 691.5,-1186.5 691.5,-1151.5 508.5,-1151.5"/>
<text text-anchor="start" x="515.3596" y="-1164.3" font-family="Arial Bold" font-size="18.00" fill="#000000">accounts</text>
<text text-anchor="start" x="587.3866" y="-1164.3" font-family="Arial" font-size="14.00" fill="#000000"> </text>
<text text-anchor="start" x="591.2772" y="-1164.3" font-family="Arial" font-size="14.00" fill="#666666">[BASE TABLE]</text>
<polygon fill="none" stroke="#000000" points="508.5,-1121.5 508.5,-1151.5 691.5,-1151.5 691.5,-1121.5 508.5,-1121.5"/>
<text text-anchor="start" x="515.5" y="-1132.9" font-family="Arial" font-size="14.00" fill="#000000">id </text>
<text text-anchor="start" x="530.2798" y="-1132.9" font-family="Arial" font-size="14.00" fill="#666666">[char(36)]</text>
<polygon fill="none" stroke="#000000" points="508.5,-1091.5 508.5,-1121.5 691.5,-1121.5 691.5,-1091.5 508.5,-1091.5"/>
<text text-anchor="start" x="515.5" y="-1102.9" font-family="Arial" font-size="14.00" fill="#000000">type </text>
<text text-anchor="start" x="545.8464" y="-1102.9" font-family="Arial" font-size="14.00" fill="#666666">[tinyint(1)]</text>
<polygon fill="none" stroke="#000000" points="508.5,-1061.5 508.5,-1091.5 691.5,-1091.5 691.5,-1061.5 508.5,-1061.5"/>
<text text-anchor="start" x="515.5" y="-1072.9" font-family="Arial" font-size="14.00" fill="#000000">name </text>
<text text-anchor="start" x="554.399" y="-1072.9" font-family="Arial" font-size="14.00" fill="#666666">[varchar(32)]</text>
<polygon fill="none" stroke="#000000" points="508.5,-1031.5 508.5,-1061.5 691.5,-1061.5 691.5,-1031.5 508.5,-1031.5"/>
<text text-anchor="start" x="515.5" y="-1042.9" font-family="Arial" font-size="14.00" fill="#000000">url </text>
<text text-anchor="start" x="534.9404" y="-1042.9" font-family="Arial" font-size="14.00" fill="#666666">[text]</text>
<polygon fill="none" stroke="#000000" points="508.5,-1001.5 508.5,-1031.5 691.5,-1031.5 691.5,-1001.5 508.5,-1001.5"/>
<text text-anchor="start" x="515.5" y="-1012.9" font-family="Arial" font-size="14.00" fill="#000000">user_id </text>
<text text-anchor="start" x="565.2882" y="-1012.9" font-family="Arial" font-size="14.00" fill="#666666">[char(36)]</text>
<polygon fill="none" stroke="#000000" points="508.5,-971.5 508.5,-1001.5 691.5,-1001.5 691.5,-971.5 508.5,-971.5"/>
<text text-anchor="start" x="515.5" y="-982.9" font-family="Arial" font-size="14.00" fill="#000000">check </text>
<text text-anchor="start" x="555.9558" y="-982.9" font-family="Arial" font-size="14.00" fill="#666666">[tinyint(1)]</text>
<polygon fill="none" stroke="#000000" points="508.5,-941.5 508.5,-971.5 691.5,-971.5 691.5,-941.5 508.5,-941.5"/>
<text text-anchor="start" x="515.5" y="-952.9" font-family="Arial" font-size="14.00" fill="#000000">created_at </text>
<text text-anchor="start" x="585.528" y="-952.9" font-family="Arial" font-size="14.00" fill="#666666">[datetime(6)]</text>
<polygon fill="none" stroke="#000000" points="508.5,-911.5 508.5,-941.5 691.5,-941.5 691.5,-911.5 508.5,-911.5"/>
<text text-anchor="start" x="515.5" y="-922.9" font-family="Arial" font-size="14.00" fill="#000000">updated_at </text>
<text text-anchor="start" x="589.4326" y="-922.9" font-family="Arial" font-size="14.00" fill="#666666">[datetime(6)]</text>
</g>
<!-- users -->
<g id="node11" class="node">
<title>users</title>
<polygon fill="#efefef" stroke="transparent" points="554.5,-679.5 554.5,-714.5 720.5,-714.5 720.5,-679.5 554.5,-679.5"/>
<polygon fill="none" stroke="#000000" points="554.5,-679.5 554.5,-714.5 720.5,-714.5 720.5,-679.5 554.5,-679.5"/>
<text text-anchor="start" x="566.8708" y="-692.3" font-family="Arial Bold" font-size="18.00" fill="#000000">users</text>
<text text-anchor="start" x="610.8754" y="-692.3" font-family="Arial" font-size="14.00" fill="#000000"> </text>
<text text-anchor="start" x="614.766" y="-692.3" font-family="Arial" font-size="14.00" fill="#666666">[BASE TABLE]</text>
<polygon fill="none" stroke="#000000" points="554.5,-649.5 554.5,-679.5 720.5,-679.5 720.5,-649.5 554.5,-649.5"/>
<text text-anchor="start" x="561.5" y="-660.9" font-family="Arial" font-size="14.00" fill="#000000">id </text>
<text text-anchor="start" x="576.2798" y="-660.9" font-family="Arial" font-size="14.00" fill="#666666">[char(36)]</text>
<polygon fill="none" stroke="#000000" points="554.5,-619.5 554.5,-649.5 720.5,-649.5 720.5,-619.5 554.5,-619.5"/>
<text text-anchor="start" x="561.5" y="-630.9" font-family="Arial" font-size="14.00" fill="#000000">description </text>
<text text-anchor="start" x="633.068" y="-630.9" font-family="Arial" font-size="14.00" fill="#666666">[text]</text>
<polygon fill="none" stroke="#000000" points="554.5,-589.5 554.5,-619.5 720.5,-619.5 720.5,-589.5 554.5,-589.5"/>
<text text-anchor="start" x="561.5" y="-600.9" font-family="Arial" font-size="14.00" fill="#000000">check </text>
<text text-anchor="start" x="601.9558" y="-600.9" font-family="Arial" font-size="14.00" fill="#666666">[tinyint(1)]</text>
<polygon fill="none" stroke="#000000" points="554.5,-559.5 554.5,-589.5 720.5,-589.5 720.5,-559.5 554.5,-559.5"/>
<text text-anchor="start" x="561.5" y="-570.9" font-family="Arial" font-size="14.00" fill="#000000">name </text>
<text text-anchor="start" x="600.399" y="-570.9" font-family="Arial" font-size="14.00" fill="#666666">[varchar(32)]</text>
<polygon fill="none" stroke="#000000" points="554.5,-529.5 554.5,-559.5 720.5,-559.5 720.5,-529.5 554.5,-529.5"/>
<text text-anchor="start" x="561.5" y="-540.9" font-family="Arial" font-size="14.00" fill="#000000">created_at </text>
<text text-anchor="start" x="631.528" y="-540.9" font-family="Arial" font-size="14.00" fill="#666666">[datetime(6)]</text>
<polygon fill="none" stroke="#000000" points="554.5,-499.5 554.5,-529.5 720.5,-529.5 720.5,-499.5 554.5,-499.5"/>
<text text-anchor="start" x="561.2518" y="-510.9" font-family="Arial" font-size="14.00" fill="#000000">updated_at </text>
<text text-anchor="start" x="635.1844" y="-510.9" font-family="Arial" font-size="14.00" fill="#666666">[datetime(6)]</text>
</g>
<!-- accounts&#45;&gt;users -->
<g id="edge1" class="edge">
<title>accounts:user_id&#45;&gt;users:id</title>
<path fill="none" stroke="#000000" d="M701.6694,-1015.6712C752.8548,-1006.5878 718.1165,-924.8216 691.5,-869 657.7718,-798.2635 588.2282,-828.7365 554.5,-758 536.6148,-720.4902 512.9444,-664.5 554.5,-664.5"/>
<polygon fill="#000000" stroke="#000000" points="701.467,-1015.6877 691.1344,-1012.0149 696.4835,-1016.0938 691.5,-1016.5 691.5,-1016.5 691.5,-1016.5 696.4835,-1016.0938 691.8656,-1020.9851 701.467,-1015.6877 701.467,-1015.6877"/>
<text text-anchor="start" x="578.445" y="-1000.5" font-family="Arial" font-size="10.00" fill="#000000">FOREIGN KEY (user_id) REFERENCES users (id)</text>
</g>
<!-- contests -->
<g id="node2" class="node">
<title>contests</title>
<polygon fill="#efefef" stroke="transparent" points="135.5,-282.5 135.5,-317.5 313.5,-317.5 313.5,-282.5 135.5,-282.5"/>
<polygon fill="none" stroke="#000000" points="135.5,-282.5 135.5,-317.5 313.5,-317.5 313.5,-282.5 135.5,-282.5"/>
<text text-anchor="start" x="142.3616" y="-295.3" font-family="Arial Bold" font-size="18.00" fill="#000000">contests</text>
<text text-anchor="start" x="209.3846" y="-295.3" font-family="Arial" font-size="14.00" fill="#000000"> </text>
<text text-anchor="start" x="213.2752" y="-295.3" font-family="Arial" font-size="14.00" fill="#666666">[BASE TABLE]</text>
<polygon fill="none" stroke="#000000" points="135.5,-252.5 135.5,-282.5 313.5,-282.5 313.5,-252.5 135.5,-252.5"/>
<text text-anchor="start" x="142.5" y="-263.9" font-family="Arial" font-size="14.00" fill="#000000">id </text>
<text text-anchor="start" x="157.2798" y="-263.9" font-family="Arial" font-size="14.00" fill="#666666">[char(36)]</text>
<polygon fill="none" stroke="#000000" points="135.5,-222.5 135.5,-252.5 313.5,-252.5 313.5,-222.5 135.5,-222.5"/>
<text text-anchor="start" x="142.5" y="-233.9" font-family="Arial" font-size="14.00" fill="#000000">name </text>
<text text-anchor="start" x="181.399" y="-233.9" font-family="Arial" font-size="14.00" fill="#666666">[varchar(32)]</text>
<polygon fill="none" stroke="#000000" points="135.5,-192.5 135.5,-222.5 313.5,-222.5 313.5,-192.5 135.5,-192.5"/>
<text text-anchor="start" x="142.5" y="-203.9" font-family="Arial" font-size="14.00" fill="#000000">description </text>
<text text-anchor="start" x="214.068" y="-203.9" font-family="Arial" font-size="14.00" fill="#666666">[text]</text>
<polygon fill="none" stroke="#000000" points="135.5,-162.5 135.5,-192.5 313.5,-192.5 313.5,-162.5 135.5,-162.5"/>
<text text-anchor="start" x="142.5" y="-173.9" font-family="Arial" font-size="14.00" fill="#000000">link </text>
<text text-anchor="start" x="167.3864" y="-173.9" font-family="Arial" font-size="14.00" fill="#666666">[text]</text>
<polygon fill="none" stroke="#000000" points="135.5,-132.5 135.5,-162.5 313.5,-162.5 313.5,-132.5 135.5,-132.5"/>
<text text-anchor="start" x="142.5" y="-143.9" font-family="Arial" font-size="14.00" fill="#000000">since </text>
<text text-anchor="start" x="179.0624" y="-143.9" font-family="Arial" font-size="14.00" fill="#666666">[datetime(6)]</text>
<polygon fill="none" stroke="#000000" points="135.5,-102.5 135.5,-132.5 313.5,-132.5 313.5,-102.5 135.5,-102.5"/>
<text text-anchor="start" x="142.5" y="-113.9" font-family="Arial" font-size="14.00" fill="#000000">until </text>
<text text-anchor="start" x="172.0596" y="-113.9" font-family="Arial" font-size="14.00" fill="#666666">[datetime(6)]</text>
<polygon fill="none" stroke="#000000" points="135.5,-72.5 135.5,-102.5 313.5,-102.5 313.5,-72.5 135.5,-72.5"/>
<text text-anchor="start" x="142.5" y="-83.9" font-family="Arial" font-size="14.00" fill="#000000">created_at </text>
<text text-anchor="start" x="212.528" y="-83.9" font-family="Arial" font-size="14.00" fill="#666666">[datetime(6)]</text>
<polygon fill="none" stroke="#000000" points="135.5,-42.5 135.5,-72.5 313.5,-72.5 313.5,-42.5 135.5,-42.5"/>
<text text-anchor="start" x="142.5" y="-53.9" font-family="Arial" font-size="14.00" fill="#000000">updated_at </text>
<text text-anchor="start" x="216.4326" y="-53.9" font-family="Arial" font-size="14.00" fill="#666666">[datetime(6)]</text>
</g>
<!-- contest_teams -->
<g id="node3" class="node">
<title>contest_teams</title>
<polygon fill="#efefef" stroke="transparent" points="110.5,-709.5 110.5,-744.5 338.5,-744.5 338.5,-709.5 110.5,-709.5"/>
<polygon fill="none" stroke="#000000" points="110.5,-709.5 110.5,-744.5 338.5,-744.5 338.5,-709.5 110.5,-709.5"/>
<text text-anchor="start" x="117.3551" y="-722.3" font-family="Arial Bold" font-size="18.00" fill="#000000">contest_teams</text>
<text text-anchor="start" x="234.3911" y="-722.3" font-family="Arial" font-size="14.00" fill="#000000"> </text>
<text text-anchor="start" x="238.2817" y="-722.3" font-family="Arial" font-size="14.00" fill="#666666">[BASE TABLE]</text>
<polygon fill="none" stroke="#000000" points="110.5,-679.5 110.5,-709.5 338.5,-709.5 338.5,-679.5 110.5,-679.5"/>
<text text-anchor="start" x="117.5" y="-690.9" font-family="Arial" font-size="14.00" fill="#000000">id </text>
<text text-anchor="start" x="132.2798" y="-690.9" font-family="Arial" font-size="14.00" fill="#666666">[char(36)]</text>
<polygon fill="none" stroke="#000000" points="110.5,-649.5 110.5,-679.5 338.5,-679.5 338.5,-649.5 110.5,-649.5"/>
<text text-anchor="start" x="117.5" y="-660.9" font-family="Arial" font-size="14.00" fill="#000000">contest_id </text>
<text text-anchor="start" x="185.1914" y="-660.9" font-family="Arial" font-size="14.00" fill="#666666">[char(36)]</text>
<polygon fill="none" stroke="#000000" points="110.5,-619.5 110.5,-649.5 338.5,-649.5 338.5,-619.5 110.5,-619.5"/>
<text text-anchor="start" x="117.5" y="-630.9" font-family="Arial" font-size="14.00" fill="#000000">name </text>
<text text-anchor="start" x="156.399" y="-630.9" font-family="Arial" font-size="14.00" fill="#666666">[varchar(32)]</text>
<polygon fill="none" stroke="#000000" points="110.5,-589.5 110.5,-619.5 338.5,-619.5 338.5,-589.5 110.5,-589.5"/>
<text text-anchor="start" x="117.5" y="-600.9" font-family="Arial" font-size="14.00" fill="#000000">description </text>
<text text-anchor="start" x="189.068" y="-600.9" font-family="Arial" font-size="14.00" fill="#666666">[text]</text>
<polygon fill="none" stroke="#000000" points="110.5,-559.5 110.5,-589.5 338.5,-589.5 338.5,-559.5 110.5,-559.5"/>
<text text-anchor="start" x="117.5" y="-570.9" font-family="Arial" font-size="14.00" fill="#000000">result </text>
<text text-anchor="start" x="155.6136" y="-570.9" font-family="Arial" font-size="14.00" fill="#666666">[text]</text>
<polygon fill="none" stroke="#000000" points="110.5,-529.5 110.5,-559.5 338.5,-559.5 338.5,-529.5 110.5,-529.5"/>
<text text-anchor="start" x="117.5" y="-540.9" font-family="Arial" font-size="14.00" fill="#000000">link </text>
<text text-anchor="start" x="142.3864" y="-540.9" font-family="Arial" font-size="14.00" fill="#666666">[text]</text>
<polygon fill="none" stroke="#000000" points="110.5,-499.5 110.5,-529.5 338.5,-529.5 338.5,-499.5 110.5,-499.5"/>
<text text-anchor="start" x="117.5" y="-510.9" font-family="Arial" font-size="14.00" fill="#000000">created_at </text>
<text text-anchor="start" x="187.528" y="-510.9" font-family="Arial" font-size="14.00" fill="#666666">[datetime(6)]</text>
<polygon fill="none" stroke="#000000" points="110.5,-469.5 110.5,-499.5 338.5,-499.5 338.5,-469.5 110.5,-469.5"/>
<text text-anchor="start" x="117.5" y="-480.9" font-family="Arial" font-size="14.00" fill="#000000">updated_at </text>
<text text-anchor="start" x="191.4326" y="-480.9" font-family="Arial" font-size="14.00" fill="#666666">[datetime(6)]</text>
</g>
<!-- contest_teams&#45;&gt;contests -->
<g id="edge2" class="edge">
<title>contest_teams:contest_id&#45;&gt;contests:id</title>
<path fill="none" stroke="#000000" d="M348.6285,-664.0516C514.2595,-649.1436 486.8409,-267.5 313.5,-267.5"/>
<polygon fill="#000000" stroke="#000000" points="348.4902,-664.0576 338.3009,-660.0044 343.4951,-664.2788 338.5,-664.5 338.5,-664.5 338.5,-664.5 343.4951,-664.2788 338.6991,-668.9956 348.4902,-664.0576 348.4902,-664.0576"/>
<text text-anchor="start" x="279.407" y="-648.5" font-family="Arial" font-size="10.00" fill="#000000">FOREIGN KEY (contest_id) REFERENCES contests (id)</text>
</g>
<!-- contest_team_user_belongings -->
<g id="node4" class="node">
<title>contest_team_user_belongings</title>
<polygon fill="#efefef" stroke="transparent" points="43.5,-1091.5 43.5,-1126.5 404.5,-1126.5 404.5,-1091.5 43.5,-1091.5"/>
<polygon fill="none" stroke="#000000" points="43.5,-1091.5 43.5,-1126.5 404.5,-1126.5 404.5,-1091.5 43.5,-1091.5"/>
<text text-anchor="start" x="50.3307" y="-1104.3" font-family="Arial Bold" font-size="18.00" fill="#000000">contest_team_user_belongings</text>
<text text-anchor="start" x="300.4155" y="-1104.3" font-family="Arial" font-size="14.00" fill="#000000"> </text>
<text text-anchor="start" x="304.3061" y="-1104.3" font-family="Arial" font-size="14.00" fill="#666666">[BASE TABLE]</text>
<polygon fill="none" stroke="#000000" points="43.5,-1061.5 43.5,-1091.5 404.5,-1091.5 404.5,-1061.5 43.5,-1061.5"/>
<text text-anchor="start" x="50.5" y="-1072.9" font-family="Arial" font-size="14.00" fill="#000000">team_id </text>
<text text-anchor="start" x="104.1788" y="-1072.9" font-family="Arial" font-size="14.00" fill="#666666">[char(36)]</text>
<polygon fill="none" stroke="#000000" points="43.5,-1031.5 43.5,-1061.5 404.5,-1061.5 404.5,-1031.5 43.5,-1031.5"/>
<text text-anchor="start" x="50.5" y="-1042.9" font-family="Arial" font-size="14.00" fill="#000000">user_id </text>
<text text-anchor="start" x="100.2882" y="-1042.9" font-family="Arial" font-size="14.00" fill="#666666">[char(36)]</text>
<polygon fill="none" stroke="#000000" points="43.5,-1001.5 43.5,-1031.5 404.5,-1031.5 404.5,-1001.5 43.5,-1001.5"/>
<text text-anchor="start" x="50.5" y="-1012.9" font-family="Arial" font-size="14.00" fill="#000000">created_at </text>
<text text-anchor="start" x="120.528" y="-1012.9" font-family="Arial" font-size="14.00" fill="#666666">[datetime(6)]</text>
<polygon fill="none" stroke="#000000" points="43.5,-971.5 43.5,-1001.5 404.5,-1001.5 404.5,-971.5 43.5,-971.5"/>
<text text-anchor="start" x="50.5" y="-982.9" font-family="Arial" font-size="14.00" fill="#000000">updated_at </text>
<text text-anchor="start" x="124.4326" y="-982.9" font-family="Arial" font-size="14.00" fill="#666666">[datetime(6)]</text>
</g>
<!-- contest_team_user_belongings&#45;&gt;contest_teams -->
<g id="edge3" class="edge">
<title>contest_team_user_belongings:team_id&#45;&gt;contest_teams:id</title>
<path fill="none" stroke="#000000" d="M414.7303,-1075.6377C466.5716,-1066.193 437.4443,-981.337 404.5,-929 327.3008,-806.3575 187.6992,-910.6425 110.5,-788 88.3628,-752.8317 68.9444,-694.5 110.5,-694.5"/>
<polygon fill="#000000" stroke="#000000" points="414.4647,-1075.66 404.122,-1072.0159 409.4823,-1076.08 404.5,-1076.5 404.5,-1076.5 404.5,-1076.5 409.4823,-1076.08 404.878,-1080.9841 414.4647,-1075.66 414.4647,-1075.66"/>
<text text-anchor="start" x="270.269" y="-1060.5" font-family="Arial" font-size="10.00" fill="#000000">FOREIGN KEY (team_id) REFERENCES contest_teams (id)</text>
</g>
<!-- contest_team_user_belongings&#45;&gt;users -->
<g id="edge4" class="edge">
<title>contest_team_user_belongings:user_id&#45;&gt;users:id</title>
<path fill="none" stroke="#000000" d="M414.6109,-1045.9544C487.4745,-1037.5237 424.7908,-933.1269 455.5,-854 489.8801,-765.4145 459.4769,-664.5 554.5,-664.5"/>
<polygon fill="#000000" stroke="#000000" points="414.4855,-1045.9611 404.2575,-1042.0065 409.4927,-1046.2305 404.5,-1046.5 404.5,-1046.5 404.5,-1046.5 409.4927,-1046.2305 404.7425,-1050.9935 414.4855,-1045.9611 414.4855,-1045.9611"/>
<text text-anchor="start" x="291.445" y="-1030.5" font-family="Arial" font-size="10.00" fill="#000000">FOREIGN KEY (user_id) REFERENCES users (id)</text>
</g>
<!-- event_level_relations -->
<g id="node5" class="node">
<title>event_level_relations</title>
<polygon fill="#efefef" stroke="transparent" points="1552.5,-1091.5 1552.5,-1126.5 1832.5,-1126.5 1832.5,-1091.5 1552.5,-1091.5"/>
<polygon fill="none" stroke="#000000" points="1552.5,-1091.5 1552.5,-1126.5 1832.5,-1126.5 1832.5,-1091.5 1552.5,-1091.5"/>
<text text-anchor="start" x="1559.3523" y="-1104.3" font-family="Arial Bold" font-size="18.00" fill="#000000">event_level_relations</text>
<text text-anchor="start" x="1728.3939" y="-1104.3" font-family="Arial" font-size="14.00" fill="#000000"> </text>
<text text-anchor="start" x="1732.2845" y="-1104.3" font-family="Arial" font-size="14.00" fill="#666666">[BASE TABLE]</text>
<polygon fill="none" stroke="#000000" points="1552.5,-1061.5 1552.5,-1091.5 1832.5,-1091.5 1832.5,-1061.5 1552.5,-1061.5"/>
<text text-anchor="start" x="1559.5" y="-1072.9" font-family="Arial" font-size="14.00" fill="#000000">id </text>
<text text-anchor="start" x="1574.2798" y="-1072.9" font-family="Arial" font-size="14.00" fill="#666666">[char(36)]</text>
<polygon fill="none" stroke="#000000" points="1552.5,-1031.5 1552.5,-1061.5 1832.5,-1061.5 1832.5,-1031.5 1552.5,-1031.5"/>
<text text-anchor="start" x="1559.5" y="-1042.9" font-family="Arial" font-size="14.00" fill="#000000">level </text>
<text text-anchor="start" x="1592.169" y="-1042.9" font-family="Arial" font-size="14.00" fill="#666666">[tinyint(3) unsigned]</text>
<polygon fill="none" stroke="#000000" points="1552.5,-1001.5 1552.5,-1031.5 1832.5,-1031.5 1832.5,-1001.5 1552.5,-1001.5"/>
<text text-anchor="start" x="1559.5" y="-1012.9" font-family="Arial" font-size="14.00" fill="#000000">created_at </text>
<text text-anchor="start" x="1629.528" y="-1012.9" font-family="Arial" font-size="14.00" fill="#666666">[datetime(6)]</text>
<polygon fill="none" stroke="#000000" points="1552.5,-971.5 1552.5,-1001.5 1832.5,-1001.5 1832.5,-971.5 1552.5,-971.5"/>
<text text-anchor="start" x="1559.5" y="-982.9" font-family="Arial" font-size="14.00" fill="#000000">updated_at </text>
<text text-anchor="start" x="1633.4326" y="-982.9" font-family="Arial" font-size="14.00" fill="#666666">[datetime(6)]</text>
</g>
<!-- groups -->
<g id="node6" class="node">
<title>groups</title>
<polygon fill="#efefef" stroke="transparent" points="862.5,-679.5 862.5,-714.5 1028.5,-714.5 1028.5,-679.5 862.5,-679.5"/>
<polygon fill="none" stroke="#000000" points="862.5,-679.5 862.5,-714.5 1028.5,-714.5 1028.5,-679.5 862.5,-679.5"/>
<text text-anchor="start" x="869.3646" y="-692.3" font-family="Arial Bold" font-size="18.00" fill="#000000">groups</text>
<text text-anchor="start" x="924.3816" y="-692.3" font-family="Arial" font-size="14.00" fill="#000000"> </text>
<text text-anchor="start" x="928.2722" y="-692.3" font-family="Arial" font-size="14.00" fill="#666666">[BASE TABLE]</text>
<polygon fill="none" stroke="#000000" points="862.5,-649.5 862.5,-679.5 1028.5,-679.5 1028.5,-649.5 862.5,-649.5"/>
<text text-anchor="start" x="869.5" y="-660.9" font-family="Arial" font-size="14.00" fill="#000000">group_id </text>
<text text-anchor="start" x="927.8534" y="-660.9" font-family="Arial" font-size="14.00" fill="#666666">[char(36)]</text>
<polygon fill="none" stroke="#000000" points="862.5,-619.5 862.5,-649.5 1028.5,-649.5 1028.5,-619.5 862.5,-619.5"/>
<text text-anchor="start" x="869.5" y="-630.9" font-family="Arial" font-size="14.00" fill="#000000">name </text>
<text text-anchor="start" x="908.399" y="-630.9" font-family="Arial" font-size="14.00" fill="#666666">[varchar(32)]</text>
<polygon fill="none" stroke="#000000" points="862.5,-589.5 862.5,-619.5 1028.5,-619.5 1028.5,-589.5 862.5,-589.5"/>
<text text-anchor="start" x="869.5" y="-600.9" font-family="Arial" font-size="14.00" fill="#000000">link </text>
<text text-anchor="start" x="894.3864" y="-600.9" font-family="Arial" font-size="14.00" fill="#666666">[text]</text>
<polygon fill="none" stroke="#000000" points="862.5,-559.5 862.5,-589.5 1028.5,-589.5 1028.5,-559.5 862.5,-559.5"/>
<text text-anchor="start" x="869.5" y="-570.9" font-family="Arial" font-size="14.00" fill="#000000">leader </text>
<text text-anchor="start" x="912.2882" y="-570.9" font-family="Arial" font-size="14.00" fill="#666666">[char(36)]</text>
<polygon fill="none" stroke="#000000" points="862.5,-529.5 862.5,-559.5 1028.5,-559.5 1028.5,-529.5 862.5,-529.5"/>
<text text-anchor="start" x="869.5" y="-540.9" font-family="Arial" font-size="14.00" fill="#000000">created_at </text>
<text text-anchor="start" x="939.528" y="-540.9" font-family="Arial" font-size="14.00" fill="#666666">[datetime(6)]</text>
<polygon fill="none" stroke="#000000" points="862.5,-499.5 862.5,-529.5 1028.5,-529.5 1028.5,-499.5 862.5,-499.5"/>
<text text-anchor="start" x="869.2518" y="-510.9" font-family="Arial" font-size="14.00" fill="#000000">updated_at </text>
<text text-anchor="start" x="943.1844" y="-510.9" font-family="Arial" font-size="14.00" fill="#666666">[datetime(6)]</text>
</g>
<!-- group_user_belongings -->
<g id="node7" class="node">
<title>group_user_belongings</title>
<polygon fill="#efefef" stroke="transparent" points="795.5,-1151.5 795.5,-1186.5 1094.5,-1186.5 1094.5,-1151.5 795.5,-1151.5"/>
<polygon fill="none" stroke="#000000" points="795.5,-1151.5 795.5,-1186.5 1094.5,-1186.5 1094.5,-1151.5 795.5,-1151.5"/>
<text text-anchor="start" x="802.3402" y="-1164.3" font-family="Arial Bold" font-size="18.00" fill="#000000">group_user_belongings</text>
<text text-anchor="start" x="990.406" y="-1164.3" font-family="Arial" font-size="14.00" fill="#000000"> </text>
<text text-anchor="start" x="994.2966" y="-1164.3" font-family="Arial" font-size="14.00" fill="#666666">[BASE TABLE]</text>
<polygon fill="none" stroke="#000000" points="795.5,-1121.5 795.5,-1151.5 1094.5,-1151.5 1094.5,-1121.5 795.5,-1121.5"/>
<text text-anchor="start" x="802.5" y="-1132.9" font-family="Arial" font-size="14.00" fill="#000000">user_id </text>
<text text-anchor="start" x="852.2882" y="-1132.9" font-family="Arial" font-size="14.00" fill="#666666">[char(36)]</text>
<polygon fill="none" stroke="#000000" points="795.5,-1091.5 795.5,-1121.5 1094.5,-1121.5 1094.5,-1091.5 795.5,-1091.5"/>
<text text-anchor="start" x="802.5" y="-1102.9" font-family="Arial" font-size="14.00" fill="#000000">group_id </text>
<text text-anchor="start" x="860.8534" y="-1102.9" font-family="Arial" font-size="14.00" fill="#666666">[char(36)]</text>
<polygon fill="none" stroke="#000000" points="795.5,-1061.5 795.5,-1091.5 1094.5,-1091.5 1094.5,-1061.5 795.5,-1061.5"/>
<text text-anchor="start" x="802.5" y="-1072.9" font-family="Arial" font-size="14.00" fill="#000000">since_year </text>
<text text-anchor="start" x="874.0708" y="-1072.9" font-family="Arial" font-size="14.00" fill="#666666">[smallint(4)]</text>
<polygon fill="none" stroke="#000000" points="795.5,-1031.5 795.5,-1061.5 1094.5,-1061.5 1094.5,-1031.5 795.5,-1031.5"/>
<text text-anchor="start" x="802.5" y="-1042.9" font-family="Arial" font-size="14.00" fill="#000000">since_semester </text>
<text text-anchor="start" x="904.4046" y="-1042.9" font-family="Arial" font-size="14.00" fill="#666666">[tinyint(1)]</text>
<polygon fill="none" stroke="#000000" points="795.5,-1001.5 795.5,-1031.5 1094.5,-1031.5 1094.5,-1001.5 795.5,-1001.5"/>
<text text-anchor="start" x="802.5" y="-1012.9" font-family="Arial" font-size="14.00" fill="#000000">until_year </text>
<text text-anchor="start" x="867.068" y="-1012.9" font-family="Arial" font-size="14.00" fill="#666666">[smallint(4)]</text>
<polygon fill="none" stroke="#000000" points="795.5,-971.5 795.5,-1001.5 1094.5,-1001.5 1094.5,-971.5 795.5,-971.5"/>
<text text-anchor="start" x="802.5" y="-982.9" font-family="Arial" font-size="14.00" fill="#000000">until_semester </text>
<text text-anchor="start" x="897.4018" y="-982.9" font-family="Arial" font-size="14.00" fill="#666666">[tinyint(1)]</text>
<polygon fill="none" stroke="#000000" points="795.5,-941.5 795.5,-971.5 1094.5,-971.5 1094.5,-941.5 795.5,-941.5"/>
<text text-anchor="start" x="802.5" y="-952.9" font-family="Arial" font-size="14.00" fill="#000000">created_at </text>
<text text-anchor="start" x="872.528" y="-952.9" font-family="Arial" font-size="14.00" fill="#666666">[datetime(6)]</text>
<polygon fill="none" stroke="#000000" points="795.5,-911.5 795.5,-941.5 1094.5,-941.5 1094.5,-911.5 795.5,-911.5"/>
<text text-anchor="start" x="802.5" y="-922.9" font-family="Arial" font-size="14.00" fill="#000000">updated_at </text>
<text text-anchor="start" x="876.4326" y="-922.9" font-family="Arial" font-size="14.00" fill="#666666">[datetime(6)]</text>
</g>
<!-- group_user_belongings&#45;&gt;groups -->
<g id="edge5" class="edge">
<title>group_user_belongings:group_id&#45;&gt;groups:group_id</title>
<path fill="none" stroke="#000000" d="M1104.5103,-1103.7583C1143.7953,-1080.1135 1120.6579,-910.5129 1094.5,-869 1033.5631,-772.2924 923.4369,-854.7076 862.5,-758 840.3464,-722.842 820.9444,-664.5 862.5,-664.5"/>
<polygon fill="#000000" stroke="#000000" points="1104.1448,-1103.8584 1093.3113,-1102.1598 1099.3224,-1105.1792 1094.5,-1106.5 1094.5,-1106.5 1094.5,-1106.5 1099.3224,-1105.1792 1095.6887,-1110.8402 1104.1448,-1103.8584 1104.1448,-1103.8584"/>
<text text-anchor="start" x="1101.765" y="-1116.5" font-family="Arial" font-size="10.00" fill="#000000">FOREIGN KEY (group_id) REFERENCES groups (group_id)</text>
</g>
<!-- group_user_belongings&#45;&gt;users -->
<g id="edge6" class="edge">
<title>group_user_belongings:user_id&#45;&gt;users:id</title>
<path fill="none" stroke="#000000" d="M785.4442,-1134.8835C698.4038,-1104.7858 823.0747,-664.5 720.5,-664.5"/>
<polygon fill="#000000" stroke="#000000" points="785.6268,-1134.9127 794.7857,-1140.943 790.5634,-1135.7064 795.5,-1136.5 795.5,-1136.5 795.5,-1136.5 790.5634,-1135.7064 796.2143,-1132.057 785.6268,-1134.9127 785.6268,-1134.9127"/>
<text text-anchor="start" x="562.445" y="-1146.5" font-family="Arial" font-size="10.00" fill="#000000">FOREIGN KEY (user_id) REFERENCES users (id)</text>
</g>
<!-- migrations -->
<g id="node8" class="node">
<title>migrations</title>
<polygon fill="#efefef" stroke="transparent" points="1936.5,-1046.5 1936.5,-1081.5 2130.5,-1081.5 2130.5,-1046.5 1936.5,-1046.5"/>
<polygon fill="none" stroke="#000000" points="1936.5,-1046.5 1936.5,-1081.5 2130.5,-1081.5 2130.5,-1046.5 1936.5,-1046.5"/>
<text text-anchor="start" x="1943.3732" y="-1059.3" font-family="Arial Bold" font-size="18.00" fill="#000000">migrations</text>
<text text-anchor="start" x="2026.373" y="-1059.3" font-family="Arial" font-size="14.00" fill="#000000"> </text>
<text text-anchor="start" x="2030.2636" y="-1059.3" font-family="Arial" font-size="14.00" fill="#666666">[BASE TABLE]</text>
<polygon fill="none" stroke="#000000" points="1936.5,-1016.5 1936.5,-1046.5 2130.5,-1046.5 2130.5,-1016.5 1936.5,-1016.5"/>
<text text-anchor="start" x="1943.5" y="-1027.9" font-family="Arial" font-size="14.00" fill="#000000">id </text>
<text text-anchor="start" x="1958.2798" y="-1027.9" font-family="Arial" font-size="14.00" fill="#666666">[varchar(255)]</text>
</g>
<!-- projects -->
<g id="node9" class="node">
<title>projects</title>
<polygon fill="#efefef" stroke="transparent" points="1234.5,-739.5 1234.5,-774.5 1411.5,-774.5 1411.5,-739.5 1234.5,-739.5"/>
<polygon fill="none" stroke="#000000" points="1234.5,-739.5 1234.5,-774.5 1411.5,-774.5 1411.5,-739.5 1234.5,-739.5"/>
<text text-anchor="start" x="1242.8695" y="-752.3" font-family="Arial Bold" font-size="18.00" fill="#000000">projects</text>
<text text-anchor="start" x="1305.8767" y="-752.3" font-family="Arial" font-size="14.00" fill="#000000"> </text>
<text text-anchor="start" x="1309.7673" y="-752.3" font-family="Arial" font-size="14.00" fill="#666666">[BASE TABLE]</text>
<polygon fill="none" stroke="#000000" points="1234.5,-709.5 1234.5,-739.5 1411.5,-739.5 1411.5,-709.5 1234.5,-709.5"/>
<text text-anchor="start" x="1241.5" y="-720.9" font-family="Arial" font-size="14.00" fill="#000000">id </text>
<text text-anchor="start" x="1256.2798" y="-720.9" font-family="Arial" font-size="14.00" fill="#666666">[char(36)]</text>
<polygon fill="none" stroke="#000000" points="1234.5,-679.5 1234.5,-709.5 1411.5,-709.5 1411.5,-679.5 1234.5,-679.5"/>
<text text-anchor="start" x="1241.5" y="-690.9" font-family="Arial" font-size="14.00" fill="#000000">name </text>
<text text-anchor="start" x="1280.399" y="-690.9" font-family="Arial" font-size="14.00" fill="#666666">[varchar(32)]</text>
<polygon fill="none" stroke="#000000" points="1234.5,-649.5 1234.5,-679.5 1411.5,-679.5 1411.5,-649.5 1234.5,-649.5"/>
<text text-anchor="start" x="1241.5" y="-660.9" font-family="Arial" font-size="14.00" fill="#000000">description </text>
<text text-anchor="start" x="1313.068" y="-660.9" font-family="Arial" font-size="14.00" fill="#666666">[text]</text>
<polygon fill="none" stroke="#000000" points="1234.5,-619.5 1234.5,-649.5 1411.5,-649.5 1411.5,-619.5 1234.5,-619.5"/>
<text text-anchor="start" x="1241.5" y="-630.9" font-family="Arial" font-size="14.00" fill="#000000">link </text>
<text text-anchor="start" x="1266.3864" y="-630.9" font-family="Arial" font-size="14.00" fill="#666666">[text]</text>
<polygon fill="none" stroke="#000000" points="1234.5,-589.5 1234.5,-619.5 1411.5,-619.5 1411.5,-589.5 1234.5,-589.5"/>
<text text-anchor="start" x="1241.5" y="-600.9" font-family="Arial" font-size="14.00" fill="#000000">since_year </text>
<text text-anchor="start" x="1313.0708" y="-600.9" font-family="Arial" font-size="14.00" fill="#666666">[smallint(4)]</text>
<polygon fill="none" stroke="#000000" points="1234.5,-559.5 1234.5,-589.5 1411.5,-589.5 1411.5,-559.5 1234.5,-559.5"/>
<text text-anchor="start" x="1241.3254" y="-570.9" font-family="Arial" font-size="14.00" fill="#000000">since_semester </text>
<text text-anchor="start" x="1343.23" y="-570.9" font-family="Arial" font-size="14.00" fill="#666666">[tinyint(1)]</text>
<polygon fill="none" stroke="#000000" points="1234.5,-529.5 1234.5,-559.5 1411.5,-559.5 1411.5,-529.5 1234.5,-529.5"/>
<text text-anchor="start" x="1241.5" y="-540.9" font-family="Arial" font-size="14.00" fill="#000000">until_year </text>
<text text-anchor="start" x="1306.068" y="-540.9" font-family="Arial" font-size="14.00" fill="#666666">[smallint(4)]</text>
<polygon fill="none" stroke="#000000" points="1234.5,-499.5 1234.5,-529.5 1411.5,-529.5 1411.5,-499.5 1234.5,-499.5"/>
<text text-anchor="start" x="1241.5" y="-510.9" font-family="Arial" font-size="14.00" fill="#000000">until_semester </text>
<text text-anchor="start" x="1336.4018" y="-510.9" font-family="Arial" font-size="14.00" fill="#666666">[tinyint(1)]</text>
<polygon fill="none" stroke="#000000" points="1234.5,-469.5 1234.5,-499.5 1411.5,-499.5 1411.5,-469.5 1234.5,-469.5"/>
<text text-anchor="start" x="1241.5" y="-480.9" font-family="Arial" font-size="14.00" fill="#000000">created_at </text>
<text text-anchor="start" x="1311.528" y="-480.9" font-family="Arial" font-size="14.00" fill="#666666">[datetime(6)]</text>
<polygon fill="none" stroke="#000000" points="1234.5,-439.5 1234.5,-469.5 1411.5,-469.5 1411.5,-439.5 1234.5,-439.5"/>
<text text-anchor="start" x="1241.5" y="-450.9" font-family="Arial" font-size="14.00" fill="#000000">updated_at </text>
<text text-anchor="start" x="1315.4326" y="-450.9" font-family="Arial" font-size="14.00" fill="#666666">[datetime(6)]</text>
</g>
<!-- project_members -->
<g id="node10" class="node">
<title>project_members</title>
<polygon fill="#efefef" stroke="transparent" points="1198.5,-1166.5 1198.5,-1201.5 1448.5,-1201.5 1448.5,-1166.5 1198.5,-1166.5"/>
<polygon fill="none" stroke="#000000" points="1198.5,-1166.5 1198.5,-1201.5 1448.5,-1201.5 1448.5,-1166.5 1198.5,-1166.5"/>
<text text-anchor="start" x="1205.3688" y="-1179.3" font-family="Arial Bold" font-size="18.00" fill="#000000">project_members</text>
<text text-anchor="start" x="1344.3774" y="-1179.3" font-family="Arial" font-size="14.00" fill="#000000"> </text>
<text text-anchor="start" x="1348.268" y="-1179.3" font-family="Arial" font-size="14.00" fill="#666666">[BASE TABLE]</text>
<polygon fill="none" stroke="#000000" points="1198.5,-1136.5 1198.5,-1166.5 1448.5,-1166.5 1448.5,-1136.5 1198.5,-1136.5"/>
<text text-anchor="start" x="1205.5" y="-1147.9" font-family="Arial" font-size="14.00" fill="#000000">id </text>
<text text-anchor="start" x="1220.2798" y="-1147.9" font-family="Arial" font-size="14.00" fill="#666666">[char(36)]</text>
<polygon fill="none" stroke="#000000" points="1198.5,-1106.5 1198.5,-1136.5 1448.5,-1136.5 1448.5,-1106.5 1198.5,-1106.5"/>
<text text-anchor="start" x="1205.5" y="-1117.9" font-family="Arial" font-size="14.00" fill="#000000">project_id </text>
<text text-anchor="start" x="1270.068" y="-1117.9" font-family="Arial" font-size="14.00" fill="#666666">[char(36)]</text>
<polygon fill="none" stroke="#000000" points="1198.5,-1076.5 1198.5,-1106.5 1448.5,-1106.5 1448.5,-1076.5 1198.5,-1076.5"/>
<text text-anchor="start" x="1205.5" y="-1087.9" font-family="Arial" font-size="14.00" fill="#000000">user_id </text>
<text text-anchor="start" x="1255.2882" y="-1087.9" font-family="Arial" font-size="14.00" fill="#666666">[char(36)]</text>
<polygon fill="none" stroke="#000000" points="1198.5,-1046.5 1198.5,-1076.5 1448.5,-1076.5 1448.5,-1046.5 1198.5,-1046.5"/>
<text text-anchor="start" x="1205.5" y="-1057.9" font-family="Arial" font-size="14.00" fill="#000000">since_year </text>
<text text-anchor="start" x="1277.0708" y="-1057.9" font-family="Arial" font-size="14.00" fill="#666666">[smallint(4)]</text>
<polygon fill="none" stroke="#000000" points="1198.5,-1016.5 1198.5,-1046.5 1448.5,-1046.5 1448.5,-1016.5 1198.5,-1016.5"/>
<text text-anchor="start" x="1205.5" y="-1027.9" font-family="Arial" font-size="14.00" fill="#000000">since_semester </text>
<text text-anchor="start" x="1307.4046" y="-1027.9" font-family="Arial" font-size="14.00" fill="#666666">[tinyint(1)]</text>
<polygon fill="none" stroke="#000000" points="1198.5,-986.5 1198.5,-1016.5 1448.5,-1016.5 1448.5,-986.5 1198.5,-986.5"/>
<text text-anchor="start" x="1205.5" y="-997.9" font-family="Arial" font-size="14.00" fill="#000000">until_year </text>
<text text-anchor="start" x="1270.068" y="-997.9" font-family="Arial" font-size="14.00" fill="#666666">[smallint(4)]</text>
<polygon fill="none" stroke="#000000" points="1198.5,-956.5 1198.5,-986.5 1448.5,-986.5 1448.5,-956.5 1198.5,-956.5"/>
<text text-anchor="start" x="1205.5" y="-967.9" font-family="Arial" font-size="14.00" fill="#000000">until_semester </text>
<text text-anchor="start" x="1300.4018" y="-967.9" font-family="Arial" font-size="14.00" fill="#666666">[tinyint(1)]</text>
<polygon fill="none" stroke="#000000" points="1198.5,-926.5 1198.5,-956.5 1448.5,-956.5 1448.5,-926.5 1198.5,-926.5"/>
<text text-anchor="start" x="1205.5" y="-937.9" font-family="Arial" font-size="14.00" fill="#000000">created_at </text>
<text text-anchor="start" x="1275.528" y="-937.9" font-family="Arial" font-size="14.00" fill="#666666">[datetime(6)]</text>
<polygon fill="none" stroke="#000000" points="1198.5,-896.5 1198.5,-926.5 1448.5,-926.5 1448.5,-896.5 1198.5,-896.5"/>
<text text-anchor="start" x="1205.5" y="-907.9" font-family="Arial" font-size="14.00" fill="#000000">updated_at </text>
<text text-anchor="start" x="1279.4326" y="-907.9" font-family="Arial" font-size="14.00" fill="#666666">[datetime(6)]</text>
</g>
<!-- project_members&#45;&gt;projects -->
<g id="edge7" class="edge">
<title>project_members:project_id&#45;&gt;projects:id</title>
<path fill="none" stroke="#000000" d="M1188.574,-1119.1459C1141.6708,-1095.253 1162.4517,-896.6522 1198.5,-854 1260.4743,-780.6722 1349.5257,-891.3278 1411.5,-818 1438.3243,-786.2616 1453.0556,-724.5 1411.5,-724.5"/>
<polygon fill="#000000" stroke="#000000" points="1188.7699,-1119.1923 1197.4615,-1125.8785 1193.6349,-1120.3462 1198.5,-1121.5 1198.5,-1121.5 1198.5,-1121.5 1193.6349,-1120.3462 1199.5385,-1117.1215 1188.7699,-1119.1923 1188.7699,-1119.1923"/>
<text text-anchor="start" x="1205.888" y="-1131.5" font-family="Arial" font-size="10.00" fill="#000000">FOREIGN KEY (project_id) REFERENCES projects (id)</text>
</g>
<!-- project_members&#45;&gt;users -->
<g id="edge8" class="edge">
<title>project_members:user_id&#45;&gt;users:id</title>
<path fill="none" stroke="#000000" d="M1188.2468,-1090.9305C1099.3788,-1080.2993 1223.397,-923.5914 1145.5,-854 1089.6638,-804.1172 873.3828,-858.6415 810.5,-818 744.0807,-775.0728 799.584,-664.5 720.5,-664.5"/>
<polygon fill="#000000" stroke="#000000" points="1188.5154,-1090.9453 1198.2504,-1095.9931 1193.5077,-1091.2227 1198.5,-1091.5 1198.5,-1091.5 1198.5,-1091.5 1193.5077,-1091.2227 1198.7496,-1087.0069 1188.5154,-1090.9453 1188.5154,-1090.9453"/>
<text text-anchor="start" x="1145.445" y="-1075.5" font-family="Arial" font-size="10.00" fill="#000000">FOREIGN KEY (user_id) REFERENCES users (id)</text>
</g>
</g>
</svg>
