<?xml version="1.0" encoding="UTF-8" standalone="no"?>
<!DOCTYPE svg PUBLIC "-//W3C//DTD SVG 1.1//EN"
 "http://www.w3.org/Graphics/SVG/1.1/DTD/svg11.dtd">
<!-- Generated by graphviz version 2.40.1 (20161225.0304)
 -->
<!-- Title: portfolio Pages: 1 -->
<svg width="1779pt" height="1163pt"
 viewBox="0.00 0.00 1778.50 1163.00" xmlns="http://www.w3.org/2000/svg" xmlns:xlink="http://www.w3.org/1999/xlink">
<g id="graph0" class="graph" transform="scale(1 1) rotate(0) translate(4 1159)">
<title>portfolio</title>
<polygon fill="#ffffff" stroke="transparent" points="-4,4 -4,-1159 1774.5,-1159 1774.5,4 -4,4"/>
<!-- accounts -->
<g id="node1" class="node">
<title>accounts</title>
<polygon fill="#efefef" stroke="transparent" points="508.5,-1076.5 508.5,-1111.5 691.5,-1111.5 691.5,-1076.5 508.5,-1076.5"/>
<polygon fill="none" stroke="#000000" points="508.5,-1076.5 508.5,-1111.5 691.5,-1111.5 691.5,-1076.5 508.5,-1076.5"/>
<text text-anchor="start" x="515.3596" y="-1089.3" font-family="Arial Bold" font-size="18.00" fill="#000000">accounts</text>
<text text-anchor="start" x="587.3866" y="-1089.3" font-family="Arial" font-size="14.00" fill="#000000"> </text>
<text text-anchor="start" x="591.2772" y="-1089.3" font-family="Arial" font-size="14.00" fill="#666666">[BASE TABLE]</text>
<polygon fill="none" stroke="#000000" points="508.5,-1046.5 508.5,-1076.5 691.5,-1076.5 691.5,-1046.5 508.5,-1046.5"/>
<text text-anchor="start" x="515.5" y="-1057.9" font-family="Arial" font-size="14.00" fill="#000000">id </text>
<text text-anchor="start" x="530.2798" y="-1057.9" font-family="Arial" font-size="14.00" fill="#666666">[char(36)]</text>
<polygon fill="none" stroke="#000000" points="508.5,-1016.5 508.5,-1046.5 691.5,-1046.5 691.5,-1016.5 508.5,-1016.5"/>
<text text-anchor="start" x="515.5" y="-1027.9" font-family="Arial" font-size="14.00" fill="#000000">type </text>
<text text-anchor="start" x="545.8464" y="-1027.9" font-family="Arial" font-size="14.00" fill="#666666">[tinyint(1)]</text>
<polygon fill="none" stroke="#000000" points="508.5,-986.5 508.5,-1016.5 691.5,-1016.5 691.5,-986.5 508.5,-986.5"/>
<text text-anchor="start" x="515.5" y="-997.9" font-family="Arial" font-size="14.00" fill="#000000">name </text>
<text text-anchor="start" x="554.399" y="-997.9" font-family="Arial" font-size="14.00" fill="#666666">[varchar(32)]</text>
<polygon fill="none" stroke="#000000" points="508.5,-956.5 508.5,-986.5 691.5,-986.5 691.5,-956.5 508.5,-956.5"/>
<text text-anchor="start" x="515.5" y="-967.9" font-family="Arial" font-size="14.00" fill="#000000">url </text>
<text text-anchor="start" x="534.9404" y="-967.9" font-family="Arial" font-size="14.00" fill="#666666">[text]</text>
<polygon fill="none" stroke="#000000" points="508.5,-926.5 508.5,-956.5 691.5,-956.5 691.5,-926.5 508.5,-926.5"/>
<text text-anchor="start" x="515.5" y="-937.9" font-family="Arial" font-size="14.00" fill="#000000">user_id </text>
<text text-anchor="start" x="565.2882" y="-937.9" font-family="Arial" font-size="14.00" fill="#666666">[char(36)]</text>
<polygon fill="none" stroke="#000000" points="508.5,-896.5 508.5,-926.5 691.5,-926.5 691.5,-896.5 508.5,-896.5"/>
<text text-anchor="start" x="515.5" y="-907.9" font-family="Arial" font-size="14.00" fill="#000000">check </text>
<text text-anchor="start" x="555.9558" y="-907.9" font-family="Arial" font-size="14.00" fill="#666666">[tinyint(1)]</text>
<polygon fill="none" stroke="#000000" points="508.5,-866.5 508.5,-896.5 691.5,-896.5 691.5,-866.5 508.5,-866.5"/>
<text text-anchor="start" x="515.5" y="-877.9" font-family="Arial" font-size="14.00" fill="#000000">created_at </text>
<text text-anchor="start" x="585.528" y="-877.9" font-family="Arial" font-size="14.00" fill="#666666">[datetime(6)]</text>
<polygon fill="none" stroke="#000000" points="508.5,-836.5 508.5,-866.5 691.5,-866.5 691.5,-836.5 508.5,-836.5"/>
<text text-anchor="start" x="515.5" y="-847.9" font-family="Arial" font-size="14.00" fill="#000000">updated_at </text>
<text text-anchor="start" x="589.4326" y="-847.9" font-family="Arial" font-size="14.00" fill="#666666">[datetime(6)]</text>
</g>
<!-- users -->
<g id="node9" class="node">
<title>users</title>
<polygon fill="#efefef" stroke="transparent" points="517.5,-649.5 517.5,-684.5 683.5,-684.5 683.5,-649.5 517.5,-649.5"/>
<polygon fill="none" stroke="#000000" points="517.5,-649.5 517.5,-684.5 683.5,-684.5 683.5,-649.5 517.5,-649.5"/>
<text text-anchor="start" x="529.8708" y="-662.3" font-family="Arial Bold" font-size="18.00" fill="#000000">users</text>
<text text-anchor="start" x="573.8754" y="-662.3" font-family="Arial" font-size="14.00" fill="#000000"> </text>
<text text-anchor="start" x="577.766" y="-662.3" font-family="Arial" font-size="14.00" fill="#666666">[BASE TABLE]</text>
<polygon fill="none" stroke="#000000" points="517.5,-619.5 517.5,-649.5 683.5,-649.5 683.5,-619.5 517.5,-619.5"/>
<text text-anchor="start" x="524.5" y="-630.9" font-family="Arial" font-size="14.00" fill="#000000">id </text>
<text text-anchor="start" x="539.2798" y="-630.9" font-family="Arial" font-size="14.00" fill="#666666">[char(36)]</text>
<polygon fill="none" stroke="#000000" points="517.5,-589.5 517.5,-619.5 683.5,-619.5 683.5,-589.5 517.5,-589.5"/>
<text text-anchor="start" x="524.5" y="-600.9" font-family="Arial" font-size="14.00" fill="#000000">description </text>
<text text-anchor="start" x="596.068" y="-600.9" font-family="Arial" font-size="14.00" fill="#666666">[text]</text>
<polygon fill="none" stroke="#000000" points="517.5,-559.5 517.5,-589.5 683.5,-589.5 683.5,-559.5 517.5,-559.5"/>
<text text-anchor="start" x="524.5" y="-570.9" font-family="Arial" font-size="14.00" fill="#000000">check </text>
<text text-anchor="start" x="564.9558" y="-570.9" font-family="Arial" font-size="14.00" fill="#666666">[tinyint(1)]</text>
<polygon fill="none" stroke="#000000" points="517.5,-529.5 517.5,-559.5 683.5,-559.5 683.5,-529.5 517.5,-529.5"/>
<text text-anchor="start" x="524.5" y="-540.9" font-family="Arial" font-size="14.00" fill="#000000">name </text>
<text text-anchor="start" x="563.399" y="-540.9" font-family="Arial" font-size="14.00" fill="#666666">[varchar(32)]</text>
<polygon fill="none" stroke="#000000" points="517.5,-499.5 517.5,-529.5 683.5,-529.5 683.5,-499.5 517.5,-499.5"/>
<text text-anchor="start" x="524.5" y="-510.9" font-family="Arial" font-size="14.00" fill="#000000">created_at </text>
<text text-anchor="start" x="594.528" y="-510.9" font-family="Arial" font-size="14.00" fill="#666666">[datetime(6)]</text>
<polygon fill="none" stroke="#000000" points="517.5,-469.5 517.5,-499.5 683.5,-499.5 683.5,-469.5 517.5,-469.5"/>
<text text-anchor="start" x="524.2518" y="-480.9" font-family="Arial" font-size="14.00" fill="#000000">updated_at </text>
<text text-anchor="start" x="598.1844" y="-480.9" font-family="Arial" font-size="14.00" fill="#666666">[datetime(6)]</text>
</g>
<!-- accounts&#45;&gt;users -->
<g id="edge1" class="edge">
<title>accounts:user_id&#45;&gt;users:id</title>
<path fill="none" stroke="#000000" d="M701.7513,-940.6238C753.8191,-931.0298 726.6292,-844.8963 691.5,-794 644.5174,-725.93 564.4826,-796.07 517.5,-728 493.8947,-693.7998 475.9444,-634.5 517.5,-634.5"/>
<polygon fill="#000000" stroke="#000000" points="701.4637,-940.6483 691.1168,-937.0163 696.4818,-941.0742 691.5,-941.5 691.5,-941.5 691.5,-941.5 696.4818,-941.0742 691.8832,-945.9837 701.4637,-940.6483 701.4637,-940.6483"/>
<text text-anchor="start" x="698.445" y="-951.5" font-family="Arial" font-size="10.00" fill="#000000">FOREIGN KEY (user_id) REFERENCES users (id)</text>
</g>
<!-- contests -->
<g id="node2" class="node">
<title>contests</title>
<polygon fill="#efefef" stroke="transparent" points="135.5,-282.5 135.5,-317.5 313.5,-317.5 313.5,-282.5 135.5,-282.5"/>
<polygon fill="none" stroke="#000000" points="135.5,-282.5 135.5,-317.5 313.5,-317.5 313.5,-282.5 135.5,-282.5"/>
<text text-anchor="start" x="142.3616" y="-295.3" font-family="Arial Bold" font-size="18.00" fill="#000000">contests</text>
<text text-anchor="start" x="209.3846" y="-295.3" font-family="Arial" font-size="14.00" fill="#000000"> </text>
<text text-anchor="start" x="213.2752" y="-295.3" font-family="Arial" font-size="14.00" fill="#666666">[BASE TABLE]</text>
<polygon fill="none" stroke="#000000" points="135.5,-252.5 135.5,-282.5 313.5,-282.5 313.5,-252.5 135.5,-252.5"/>
<text text-anchor="start" x="142.5" y="-263.9" font-family="Arial" font-size="14.00" fill="#000000">id </text>
<text text-anchor="start" x="157.2798" y="-263.9" font-family="Arial" font-size="14.00" fill="#666666">[char(36)]</text>
<polygon fill="none" stroke="#000000" points="135.5,-222.5 135.5,-252.5 313.5,-252.5 313.5,-222.5 135.5,-222.5"/>
<text text-anchor="start" x="142.5" y="-233.9" font-family="Arial" font-size="14.00" fill="#000000">name </text>
<text text-anchor="start" x="181.399" y="-233.9" font-family="Arial" font-size="14.00" fill="#666666">[varchar(32)]</text>
<polygon fill="none" stroke="#000000" points="135.5,-192.5 135.5,-222.5 313.5,-222.5 313.5,-192.5 135.5,-192.5"/>
<text text-anchor="start" x="142.5" y="-203.9" font-family="Arial" font-size="14.00" fill="#000000">description </text>
<text text-anchor="start" x="214.068" y="-203.9" font-family="Arial" font-size="14.00" fill="#666666">[text]</text>
<polygon fill="none" stroke="#000000" points="135.5,-162.5 135.5,-192.5 313.5,-192.5 313.5,-162.5 135.5,-162.5"/>
<text text-anchor="start" x="142.5" y="-173.9" font-family="Arial" font-size="14.00" fill="#000000">link </text>
<text text-anchor="start" x="167.3864" y="-173.9" font-family="Arial" font-size="14.00" fill="#666666">[text]</text>
<polygon fill="none" stroke="#000000" points="135.5,-132.5 135.5,-162.5 313.5,-162.5 313.5,-132.5 135.5,-132.5"/>
<text text-anchor="start" x="142.5" y="-143.9" font-family="Arial" font-size="14.00" fill="#000000">since </text>
<text text-anchor="start" x="179.0624" y="-143.9" font-family="Arial" font-size="14.00" fill="#666666">[datetime(6)]</text>
<polygon fill="none" stroke="#000000" points="135.5,-102.5 135.5,-132.5 313.5,-132.5 313.5,-102.5 135.5,-102.5"/>
<text text-anchor="start" x="142.5" y="-113.9" font-family="Arial" font-size="14.00" fill="#000000">until </text>
<text text-anchor="start" x="172.0596" y="-113.9" font-family="Arial" font-size="14.00" fill="#666666">[datetime(6)]</text>
<polygon fill="none" stroke="#000000" points="135.5,-72.5 135.5,-102.5 313.5,-102.5 313.5,-72.5 135.5,-72.5"/>
<text text-anchor="start" x="142.5" y="-83.9" font-family="Arial" font-size="14.00" fill="#000000">created_at </text>
<text text-anchor="start" x="212.528" y="-83.9" font-family="Arial" font-size="14.00" fill="#666666">[datetime(6)]</text>
<polygon fill="none" stroke="#000000" points="135.5,-42.5 135.5,-72.5 313.5,-72.5 313.5,-42.5 135.5,-42.5"/>
<text text-anchor="start" x="142.5" y="-53.9" font-family="Arial" font-size="14.00" fill="#000000">updated_at </text>
<text text-anchor="start" x="216.4326" y="-53.9" font-family="Arial" font-size="14.00" fill="#666666">[datetime(6)]</text>
</g>
<!-- contest_teams -->
<g id="node3" class="node">
<title>contest_teams</title>
<polygon fill="#efefef" stroke="transparent" points="110.5,-679.5 110.5,-714.5 338.5,-714.5 338.5,-679.5 110.5,-679.5"/>
<polygon fill="none" stroke="#000000" points="110.5,-679.5 110.5,-714.5 338.5,-714.5 338.5,-679.5 110.5,-679.5"/>
<text text-anchor="start" x="117.3551" y="-692.3" font-family="Arial Bold" font-size="18.00" fill="#000000">contest_teams</text>
<text text-anchor="start" x="234.3911" y="-692.3" font-family="Arial" font-size="14.00" fill="#000000"> </text>
<text text-anchor="start" x="238.2817" y="-692.3" font-family="Arial" font-size="14.00" fill="#666666">[BASE TABLE]</text>
<polygon fill="none" stroke="#000000" points="110.5,-649.5 110.5,-679.5 338.5,-679.5 338.5,-649.5 110.5,-649.5"/>
<text text-anchor="start" x="117.5" y="-660.9" font-family="Arial" font-size="14.00" fill="#000000">id </text>
<text text-anchor="start" x="132.2798" y="-660.9" font-family="Arial" font-size="14.00" fill="#666666">[char(36)]</text>
<polygon fill="none" stroke="#000000" points="110.5,-619.5 110.5,-649.5 338.5,-649.5 338.5,-619.5 110.5,-619.5"/>
<text text-anchor="start" x="117.5" y="-630.9" font-family="Arial" font-size="14.00" fill="#000000">contest_id </text>
<text text-anchor="start" x="185.1914" y="-630.9" font-family="Arial" font-size="14.00" fill="#666666">[char(36)]</text>
<polygon fill="none" stroke="#000000" points="110.5,-589.5 110.5,-619.5 338.5,-619.5 338.5,-589.5 110.5,-589.5"/>
<text text-anchor="start" x="117.5" y="-600.9" font-family="Arial" font-size="14.00" fill="#000000">name </text>
<text text-anchor="start" x="156.399" y="-600.9" font-family="Arial" font-size="14.00" fill="#666666">[varchar(32)]</text>
<polygon fill="none" stroke="#000000" points="110.5,-559.5 110.5,-589.5 338.5,-589.5 338.5,-559.5 110.5,-559.5"/>
<text text-anchor="start" x="117.5" y="-570.9" font-family="Arial" font-size="14.00" fill="#000000">description </text>
<text text-anchor="start" x="189.068" y="-570.9" font-family="Arial" font-size="14.00" fill="#666666">[text]</text>
<polygon fill="none" stroke="#000000" points="110.5,-529.5 110.5,-559.5 338.5,-559.5 338.5,-529.5 110.5,-529.5"/>
<text text-anchor="start" x="117.5" y="-540.9" font-family="Arial" font-size="14.00" fill="#000000">result </text>
<text text-anchor="start" x="155.6136" y="-540.9" font-family="Arial" font-size="14.00" fill="#666666">[text]</text>
<polygon fill="none" stroke="#000000" points="110.5,-499.5 110.5,-529.5 338.5,-529.5 338.5,-499.5 110.5,-499.5"/>
<text text-anchor="start" x="117.5" y="-510.9" font-family="Arial" font-size="14.00" fill="#000000">link </text>
<text text-anchor="start" x="142.3864" y="-510.9" font-family="Arial" font-size="14.00" fill="#666666">[text]</text>
<polygon fill="none" stroke="#000000" points="110.5,-469.5 110.5,-499.5 338.5,-499.5 338.5,-469.5 110.5,-469.5"/>
<text text-anchor="start" x="117.5" y="-480.9" font-family="Arial" font-size="14.00" fill="#000000">created_at </text>
<text text-anchor="start" x="187.528" y="-480.9" font-family="Arial" font-size="14.00" fill="#666666">[datetime(6)]</text>
<polygon fill="none" stroke="#000000" points="110.5,-439.5 110.5,-469.5 338.5,-469.5 338.5,-439.5 110.5,-439.5"/>
<text text-anchor="start" x="117.5" y="-450.9" font-family="Arial" font-size="14.00" fill="#000000">updated_at </text>
<text text-anchor="start" x="191.4326" y="-450.9" font-family="Arial" font-size="14.00" fill="#666666">[datetime(6)]</text>
</g>
<!-- contest_teams&#45;&gt;contests -->
<g id="edge2" class="edge">
<title>contest_teams:contest_id&#45;&gt;contests:id</title>
<path fill="none" stroke="#000000" d="M348.7769,-633.9991C500.851,-618.8999 473.4767,-267.5 313.5,-267.5"/>
<polygon fill="#000000" stroke="#000000" points="348.4881,-634.0131 338.2809,-630.0053 343.4941,-634.2565 338.5,-634.5 338.5,-634.5 338.5,-634.5 343.4941,-634.2565 338.7191,-638.9947 348.4881,-634.0131 348.4881,-634.0131"/>
<text text-anchor="start" x="345.657" y="-644.5" font-family="Arial" font-size="10.00" fill="#000000">FOREIGN KEY (contest_id) REFERENCES contests (id)</text>
</g>
<!-- contest_team_user_belongings -->
<g id="node4" class="node">
<title>contest_team_user_belongings</title>
<polygon fill="#efefef" stroke="transparent" points="43.5,-1016.5 43.5,-1051.5 404.5,-1051.5 404.5,-1016.5 43.5,-1016.5"/>
<polygon fill="none" stroke="#000000" points="43.5,-1016.5 43.5,-1051.5 404.5,-1051.5 404.5,-1016.5 43.5,-1016.5"/>
<text text-anchor="start" x="50.3307" y="-1029.3" font-family="Arial Bold" font-size="18.00" fill="#000000">contest_team_user_belongings</text>
<text text-anchor="start" x="300.4155" y="-1029.3" font-family="Arial" font-size="14.00" fill="#000000"> </text>
<text text-anchor="start" x="304.3061" y="-1029.3" font-family="Arial" font-size="14.00" fill="#666666">[BASE TABLE]</text>
<polygon fill="none" stroke="#000000" points="43.5,-986.5 43.5,-1016.5 404.5,-1016.5 404.5,-986.5 43.5,-986.5"/>
<text text-anchor="start" x="50.5" y="-997.9" font-family="Arial" font-size="14.00" fill="#000000">team_id </text>
<text text-anchor="start" x="104.1788" y="-997.9" font-family="Arial" font-size="14.00" fill="#666666">[char(36)]</text>
<polygon fill="none" stroke="#000000" points="43.5,-956.5 43.5,-986.5 404.5,-986.5 404.5,-956.5 43.5,-956.5"/>
<text text-anchor="start" x="50.5" y="-967.9" font-family="Arial" font-size="14.00" fill="#000000">user_id </text>
<text text-anchor="start" x="100.2882" y="-967.9" font-family="Arial" font-size="14.00" fill="#666666">[char(36)]</text>
<polygon fill="none" stroke="#000000" points="43.5,-926.5 43.5,-956.5 404.5,-956.5 404.5,-926.5 43.5,-926.5"/>
<text text-anchor="start" x="50.5" y="-937.9" font-family="Arial" font-size="14.00" fill="#000000">created_at </text>
<text text-anchor="start" x="120.528" y="-937.9" font-family="Arial" font-size="14.00" fill="#666666">[datetime(6)]</text>
<polygon fill="none" stroke="#000000" points="43.5,-896.5 43.5,-926.5 404.5,-926.5 404.5,-896.5 43.5,-896.5"/>
<text text-anchor="start" x="50.5" y="-907.9" font-family="Arial" font-size="14.00" fill="#000000">updated_at </text>
<text text-anchor="start" x="124.4326" y="-907.9" font-family="Arial" font-size="14.00" fill="#666666">[datetime(6)]</text>
</g>
<!-- contest_team_user_belongings&#45;&gt;contest_teams -->
<g id="edge3" class="edge">
<title>contest_team_user_belongings:team_id&#45;&gt;contest_teams:id</title>
<path fill="none" stroke="#000000" d="M414.7627,-1000.6158C466.9533,-990.9349 440.8136,-904.058 404.5,-854 323.7862,-742.7367 191.2138,-869.2633 110.5,-758 86.0987,-724.3631 68.9444,-664.5 110.5,-664.5"/>
<polygon fill="#000000" stroke="#000000" points="414.4631,-1000.6415 404.1137,-997.0166 409.4815,-1001.0708 404.5,-1001.5 404.5,-1001.5 404.5,-1001.5 409.4815,-1001.0708 404.8863,-1005.9834 414.4631,-1000.6415 414.4631,-1000.6415"/>
<text text-anchor="start" x="411.769" y="-1011.5" font-family="Arial" font-size="10.00" fill="#000000">FOREIGN KEY (team_id) REFERENCES contest_teams (id)</text>
</g>
<!-- contest_team_user_belongings&#45;&gt;users -->
<g id="edge4" class="edge">
<title>contest_team_user_belongings:user_id&#45;&gt;users:id</title>
<path fill="none" stroke="#000000" d="M414.738,-970.9073C481.6003,-962.5848 430.4487,-868.283 455.5,-794 479.8044,-721.9317 441.4438,-634.5 517.5,-634.5"/>
<polygon fill="#000000" stroke="#000000" points="414.4833,-970.922 404.2399,-967.0075 409.4916,-971.211 404.5,-971.5 404.5,-971.5 404.5,-971.5 409.4916,-971.211 404.7601,-975.9925 414.4833,-970.922 414.4833,-970.922"/>
<text text-anchor="start" x="411.445" y="-981.5" font-family="Arial" font-size="10.00" fill="#000000">FOREIGN KEY (user_id) REFERENCES users (id)</text>
</g>
<!-- event_level_relations -->
<g id="node5" class="node">
<title>event_level_relations</title>
<polygon fill="#efefef" stroke="transparent" points="1149.5,-986.5 1149.5,-1021.5 1429.5,-1021.5 1429.5,-986.5 1149.5,-986.5"/>
<polygon fill="none" stroke="#000000" points="1149.5,-986.5 1149.5,-1021.5 1429.5,-1021.5 1429.5,-986.5 1149.5,-986.5"/>
<text text-anchor="start" x="1156.3523" y="-999.3" font-family="Arial Bold" font-size="18.00" fill="#000000">event_level_relations</text>
<text text-anchor="start" x="1325.3939" y="-999.3" font-family="Arial" font-size="14.00" fill="#000000"> </text>
<text text-anchor="start" x="1329.2845" y="-999.3" font-family="Arial" font-size="14.00" fill="#666666">[BASE TABLE]</text>
<polygon fill="none" stroke="#000000" points="1149.5,-956.5 1149.5,-986.5 1429.5,-986.5 1429.5,-956.5 1149.5,-956.5"/>
<text text-anchor="start" x="1156.5" y="-967.9" font-family="Arial" font-size="14.00" fill="#000000">id </text>
<text text-anchor="start" x="1171.2798" y="-967.9" font-family="Arial" font-size="14.00" fill="#666666">[char(36)]</text>
<polygon fill="none" stroke="#000000" points="1149.5,-926.5 1149.5,-956.5 1429.5,-956.5 1429.5,-926.5 1149.5,-926.5"/>
<text text-anchor="start" x="1156.5" y="-937.9" font-family="Arial" font-size="14.00" fill="#000000">level </text>
<text text-anchor="start" x="1189.169" y="-937.9" font-family="Arial" font-size="14.00" fill="#666666">[tinyint(3) unsigned]</text>
</g>
<!-- migrations -->
<g id="node6" class="node">
<title>migrations</title>
<polygon fill="#efefef" stroke="transparent" points="1533.5,-971.5 1533.5,-1006.5 1727.5,-1006.5 1727.5,-971.5 1533.5,-971.5"/>
<polygon fill="none" stroke="#000000" points="1533.5,-971.5 1533.5,-1006.5 1727.5,-1006.5 1727.5,-971.5 1533.5,-971.5"/>
<text text-anchor="start" x="1540.3732" y="-984.3" font-family="Arial Bold" font-size="18.00" fill="#000000">migrations</text>
<text text-anchor="start" x="1623.373" y="-984.3" font-family="Arial" font-size="14.00" fill="#000000"> </text>
<text text-anchor="start" x="1627.2636" y="-984.3" font-family="Arial" font-size="14.00" fill="#666666">[BASE TABLE]</text>
<polygon fill="none" stroke="#000000" points="1533.5,-941.5 1533.5,-971.5 1727.5,-971.5 1727.5,-941.5 1533.5,-941.5"/>
<text text-anchor="start" x="1540.5" y="-952.9" font-family="Arial" font-size="14.00" fill="#000000">id </text>
<text text-anchor="start" x="1555.2798" y="-952.9" font-family="Arial" font-size="14.00" fill="#666666">[varchar(255)]</text>
</g>
<!-- projects -->
<g id="node7" class="node">
<title>projects</title>
<polygon fill="#efefef" stroke="transparent" points="833.5,-679.5 833.5,-714.5 1007.5,-714.5 1007.5,-679.5 833.5,-679.5"/>
<polygon fill="none" stroke="#000000" points="833.5,-679.5 833.5,-714.5 1007.5,-714.5 1007.5,-679.5 833.5,-679.5"/>
<text text-anchor="start" x="840.3695" y="-692.3" font-family="Arial Bold" font-size="18.00" fill="#000000">projects</text>
<text text-anchor="start" x="903.3767" y="-692.3" font-family="Arial" font-size="14.00" fill="#000000"> </text>
<text text-anchor="start" x="907.2673" y="-692.3" font-family="Arial" font-size="14.00" fill="#666666">[BASE TABLE]</text>
<polygon fill="none" stroke="#000000" points="833.5,-649.5 833.5,-679.5 1007.5,-679.5 1007.5,-649.5 833.5,-649.5"/>
<text text-anchor="start" x="840.5" y="-660.9" font-family="Arial" font-size="14.00" fill="#000000">id </text>
<text text-anchor="start" x="855.2798" y="-660.9" font-family="Arial" font-size="14.00" fill="#666666">[char(36)]</text>
<polygon fill="none" stroke="#000000" points="833.5,-619.5 833.5,-649.5 1007.5,-649.5 1007.5,-619.5 833.5,-619.5"/>
<text text-anchor="start" x="840.5" y="-630.9" font-family="Arial" font-size="14.00" fill="#000000">name </text>
<text text-anchor="start" x="879.399" y="-630.9" font-family="Arial" font-size="14.00" fill="#666666">[varchar(32)]</text>
<polygon fill="none" stroke="#000000" points="833.5,-589.5 833.5,-619.5 1007.5,-619.5 1007.5,-589.5 833.5,-589.5"/>
<text text-anchor="start" x="840.5" y="-600.9" font-family="Arial" font-size="14.00" fill="#000000">description </text>
<text text-anchor="start" x="912.068" y="-600.9" font-family="Arial" font-size="14.00" fill="#666666">[text]</text>
<polygon fill="none" stroke="#000000" points="833.5,-559.5 833.5,-589.5 1007.5,-589.5 1007.5,-559.5 833.5,-559.5"/>
<text text-anchor="start" x="840.5" y="-570.9" font-family="Arial" font-size="14.00" fill="#000000">link </text>
<text text-anchor="start" x="865.3864" y="-570.9" font-family="Arial" font-size="14.00" fill="#666666">[text]</text>
<polygon fill="none" stroke="#000000" points="833.5,-529.5 833.5,-559.5 1007.5,-559.5 1007.5,-529.5 833.5,-529.5"/>
<text text-anchor="start" x="840.5" y="-540.9" font-family="Arial" font-size="14.00" fill="#000000">since </text>
<text text-anchor="start" x="877.0624" y="-540.9" font-family="Arial" font-size="14.00" fill="#666666">[datetime(6)]</text>
<polygon fill="none" stroke="#000000" points="833.5,-499.5 833.5,-529.5 1007.5,-529.5 1007.5,-499.5 833.5,-499.5"/>
<text text-anchor="start" x="840.5" y="-510.9" font-family="Arial" font-size="14.00" fill="#000000">until </text>
<text text-anchor="start" x="870.0596" y="-510.9" font-family="Arial" font-size="14.00" fill="#666666">[datetime(6)]</text>
<polygon fill="none" stroke="#000000" points="833.5,-469.5 833.5,-499.5 1007.5,-499.5 1007.5,-469.5 833.5,-469.5"/>
<text text-anchor="start" x="840.5" y="-480.9" font-family="Arial" font-size="14.00" fill="#000000">created_at </text>
<text text-anchor="start" x="910.528" y="-480.9" font-family="Arial" font-size="14.00" fill="#666666">[datetime(6)]</text>
<polygon fill="none" stroke="#000000" points="833.5,-439.5 833.5,-469.5 1007.5,-469.5 1007.5,-439.5 833.5,-439.5"/>
<text text-anchor="start" x="840.5" y="-450.9" font-family="Arial" font-size="14.00" fill="#000000">updated_at </text>
<text text-anchor="start" x="914.4326" y="-450.9" font-family="Arial" font-size="14.00" fill="#666666">[datetime(6)]</text>
</g>
<!-- project_members -->
<g id="node8" class="node">
<title>project_members</title>
<polygon fill="#efefef" stroke="transparent" points="795.5,-1031.5 795.5,-1066.5 1045.5,-1066.5 1045.5,-1031.5 795.5,-1031.5"/>
<polygon fill="none" stroke="#000000" points="795.5,-1031.5 795.5,-1066.5 1045.5,-1066.5 1045.5,-1031.5 795.5,-1031.5"/>
<text text-anchor="start" x="802.3688" y="-1044.3" font-family="Arial Bold" font-size="18.00" fill="#000000">project_members</text>
<text text-anchor="start" x="941.3774" y="-1044.3" font-family="Arial" font-size="14.00" fill="#000000"> </text>
<text text-anchor="start" x="945.268" y="-1044.3" font-family="Arial" font-size="14.00" fill="#666666">[BASE TABLE]</text>
<polygon fill="none" stroke="#000000" points="795.5,-1001.5 795.5,-1031.5 1045.5,-1031.5 1045.5,-1001.5 795.5,-1001.5"/>
<text text-anchor="start" x="802.5" y="-1012.9" font-family="Arial" font-size="14.00" fill="#000000">id </text>
<text text-anchor="start" x="817.2798" y="-1012.9" font-family="Arial" font-size="14.00" fill="#666666">[char(36)]</text>
<polygon fill="none" stroke="#000000" points="795.5,-971.5 795.5,-1001.5 1045.5,-1001.5 1045.5,-971.5 795.5,-971.5"/>
<text text-anchor="start" x="802.5" y="-982.9" font-family="Arial" font-size="14.00" fill="#000000">project_id </text>
<text text-anchor="start" x="867.068" y="-982.9" font-family="Arial" font-size="14.00" fill="#666666">[char(36)]</text>
<polygon fill="none" stroke="#000000" points="795.5,-941.5 795.5,-971.5 1045.5,-971.5 1045.5,-941.5 795.5,-941.5"/>
<text text-anchor="start" x="802.5" y="-952.9" font-family="Arial" font-size="14.00" fill="#000000">user_id </text>
<text text-anchor="start" x="852.2882" y="-952.9" font-family="Arial" font-size="14.00" fill="#666666">[char(36)]</text>
<polygon fill="none" stroke="#000000" points="795.5,-911.5 795.5,-941.5 1045.5,-941.5 1045.5,-911.5 795.5,-911.5"/>
<text text-anchor="start" x="802.5" y="-922.9" font-family="Arial" font-size="14.00" fill="#000000">since </text>
<text text-anchor="start" x="839.0624" y="-922.9" font-family="Arial" font-size="14.00" fill="#666666">[datetime(6)]</text>
<polygon fill="none" stroke="#000000" points="795.5,-881.5 795.5,-911.5 1045.5,-911.5 1045.5,-881.5 795.5,-881.5"/>
<text text-anchor="start" x="802.5" y="-892.9" font-family="Arial" font-size="14.00" fill="#000000">until </text>
<text text-anchor="start" x="832.0596" y="-892.9" font-family="Arial" font-size="14.00" fill="#666666">[datetime(6)]</text>
</g>
<!-- project_members&#45;&gt;projects -->
<g id="edge5" class="edge">
<title>project_members:project_id&#45;&gt;projects:id</title>
<path fill="none" stroke="#000000" d="M1055.2762,-984.2718C1113.76,-955.8224 1076.0339,-664.5 1007.5,-664.5"/>
<polygon fill="#000000" stroke="#000000" points="1055.25,-984.2777 1044.5,-982.1125 1050.375,-985.3889 1045.5,-986.5 1045.5,-986.5 1045.5,-986.5 1050.375,-985.3889 1046.5,-990.8875 1055.25,-984.2777 1055.25,-984.2777"/>
<text text-anchor="start" x="1052.888" y="-996.5" font-family="Arial" font-size="10.00" fill="#000000">FOREIGN KEY (project_id) REFERENCES projects (id)</text>
</g>
<!-- project_members&#45;&gt;users -->
<g id="edge6" class="edge">
<title>project_members:user_id&#45;&gt;users:id</title>
<path fill="none" stroke="#000000" d="M785.2353,-955.8637C724.04,-947.6829 766.2414,-862.2455 742.5,-794 717.6658,-722.613 759.0833,-634.5 683.5,-634.5"/>
<polygon fill="#000000" stroke="#000000" points="785.5192,-955.8812 795.2215,-960.9914 790.5096,-956.1906 795.5,-956.5 795.5,-956.5 795.5,-956.5 790.5096,-956.1906 795.7785,-952.0086 785.5192,-955.8812 785.5192,-955.8812"/>
<text text-anchor="start" x="802.445" y="-966.5" font-family="Arial" font-size="10.00" fill="#000000">FOREIGN KEY (user_id) REFERENCES users (id)</text>
</g>
</g>
</svg>
