<?xml version="1.0" encoding="UTF-8" standalone="no"?>
<!DOCTYPE svg PUBLIC "-//W3C//DTD SVG 1.1//EN"
 "http://www.w3.org/Graphics/SVG/1.1/DTD/svg11.dtd">
<!-- Generated by graphviz version 2.40.1 (20161225.0304)
 -->
<!-- Title: portfolio Pages: 1 -->
<svg width="2182pt" height="1163pt"
 viewBox="0.00 0.00 2181.50 1163.00" xmlns="http://www.w3.org/2000/svg" xmlns:xlink="http://www.w3.org/1999/xlink">
<g id="graph0" class="graph" transform="scale(1 1) rotate(0) translate(4 1159)">
<title>portfolio</title>
<polygon fill="#ffffff" stroke="transparent" points="-4,4 -4,-1159 2177.5,-1159 2177.5,4 -4,4"/>
<!-- accounts -->
<g id="node1" class="node">
<title>accounts</title>
<polygon fill="#efefef" stroke="transparent" points="508.5,-1076.5 508.5,-1111.5 691.5,-1111.5 691.5,-1076.5 508.5,-1076.5"/>
<polygon fill="none" stroke="#000000" points="508.5,-1076.5 508.5,-1111.5 691.5,-1111.5 691.5,-1076.5 508.5,-1076.5"/>
<text text-anchor="start" x="515.3596" y="-1089.3" font-family="Arial Bold" font-size="18.00" fill="#000000">accounts</text>
<text text-anchor="start" x="587.3866" y="-1089.3" font-family="Arial" font-size="14.00" fill="#000000"> </text>
<text text-anchor="start" x="591.2772" y="-1089.3" font-family="Arial" font-size="14.00" fill="#666666">[BASE TABLE]</text>
<polygon fill="none" stroke="#000000" points="508.5,-1046.5 508.5,-1076.5 691.5,-1076.5 691.5,-1046.5 508.5,-1046.5"/>
<text text-anchor="start" x="515.5" y="-1057.9" font-family="Arial" font-size="14.00" fill="#000000">id </text>
<text text-anchor="start" x="530.2798" y="-1057.9" font-family="Arial" font-size="14.00" fill="#666666">[char(36)]</text>
<polygon fill="none" stroke="#000000" points="508.5,-1016.5 508.5,-1046.5 691.5,-1046.5 691.5,-1016.5 508.5,-1016.5"/>
<text text-anchor="start" x="515.5" y="-1027.9" font-family="Arial" font-size="14.00" fill="#000000">type </text>
<text text-anchor="start" x="545.8464" y="-1027.9" font-family="Arial" font-size="14.00" fill="#666666">[tinyint(1)]</text>
<polygon fill="none" stroke="#000000" points="508.5,-986.5 508.5,-1016.5 691.5,-1016.5 691.5,-986.5 508.5,-986.5"/>
<text text-anchor="start" x="515.5" y="-997.9" font-family="Arial" font-size="14.00" fill="#000000">name </text>
<text text-anchor="start" x="554.399" y="-997.9" font-family="Arial" font-size="14.00" fill="#666666">[varchar(32)]</text>
<polygon fill="none" stroke="#000000" points="508.5,-956.5 508.5,-986.5 691.5,-986.5 691.5,-956.5 508.5,-956.5"/>
<text text-anchor="start" x="515.5" y="-967.9" font-family="Arial" font-size="14.00" fill="#000000">url </text>
<text text-anchor="start" x="534.9404" y="-967.9" font-family="Arial" font-size="14.00" fill="#666666">[text]</text>
<polygon fill="none" stroke="#000000" points="508.5,-926.5 508.5,-956.5 691.5,-956.5 691.5,-926.5 508.5,-926.5"/>
<text text-anchor="start" x="515.5" y="-937.9" font-family="Arial" font-size="14.00" fill="#000000">user_id </text>
<text text-anchor="start" x="565.2882" y="-937.9" font-family="Arial" font-size="14.00" fill="#666666">[char(36)]</text>
<polygon fill="none" stroke="#000000" points="508.5,-896.5 508.5,-926.5 691.5,-926.5 691.5,-896.5 508.5,-896.5"/>
<text text-anchor="start" x="515.5" y="-907.9" font-family="Arial" font-size="14.00" fill="#000000">check </text>
<text text-anchor="start" x="555.9558" y="-907.9" font-family="Arial" font-size="14.00" fill="#666666">[tinyint(1)]</text>
<polygon fill="none" stroke="#000000" points="508.5,-866.5 508.5,-896.5 691.5,-896.5 691.5,-866.5 508.5,-866.5"/>
<text text-anchor="start" x="515.5" y="-877.9" font-family="Arial" font-size="14.00" fill="#000000">created_at </text>
<text text-anchor="start" x="585.528" y="-877.9" font-family="Arial" font-size="14.00" fill="#666666">[datetime(6)]</text>
<polygon fill="none" stroke="#000000" points="508.5,-836.5 508.5,-866.5 691.5,-866.5 691.5,-836.5 508.5,-836.5"/>
<text text-anchor="start" x="515.5" y="-847.9" font-family="Arial" font-size="14.00" fill="#000000">updated_at </text>
<text text-anchor="start" x="589.4326" y="-847.9" font-family="Arial" font-size="14.00" fill="#666666">[datetime(6)]</text>
</g>
<!-- users -->
<g id="node11" class="node">
<title>users</title>
<polygon fill="#efefef" stroke="transparent" points="554.5,-649.5 554.5,-684.5 720.5,-684.5 720.5,-649.5 554.5,-649.5"/>
<polygon fill="none" stroke="#000000" points="554.5,-649.5 554.5,-684.5 720.5,-684.5 720.5,-649.5 554.5,-649.5"/>
<text text-anchor="start" x="566.8708" y="-662.3" font-family="Arial Bold" font-size="18.00" fill="#000000">users</text>
<text text-anchor="start" x="610.8754" y="-662.3" font-family="Arial" font-size="14.00" fill="#000000"> </text>
<text text-anchor="start" x="614.766" y="-662.3" font-family="Arial" font-size="14.00" fill="#666666">[BASE TABLE]</text>
<polygon fill="none" stroke="#000000" points="554.5,-619.5 554.5,-649.5 720.5,-649.5 720.5,-619.5 554.5,-619.5"/>
<text text-anchor="start" x="561.5" y="-630.9" font-family="Arial" font-size="14.00" fill="#000000">id </text>
<text text-anchor="start" x="576.2798" y="-630.9" font-family="Arial" font-size="14.00" fill="#666666">[char(36)]</text>
<polygon fill="none" stroke="#000000" points="554.5,-589.5 554.5,-619.5 720.5,-619.5 720.5,-589.5 554.5,-589.5"/>
<text text-anchor="start" x="561.5" y="-600.9" font-family="Arial" font-size="14.00" fill="#000000">description </text>
<text text-anchor="start" x="633.068" y="-600.9" font-family="Arial" font-size="14.00" fill="#666666">[text]</text>
<polygon fill="none" stroke="#000000" points="554.5,-559.5 554.5,-589.5 720.5,-589.5 720.5,-559.5 554.5,-559.5"/>
<text text-anchor="start" x="561.5" y="-570.9" font-family="Arial" font-size="14.00" fill="#000000">check </text>
<text text-anchor="start" x="601.9558" y="-570.9" font-family="Arial" font-size="14.00" fill="#666666">[tinyint(1)]</text>
<polygon fill="none" stroke="#000000" points="554.5,-529.5 554.5,-559.5 720.5,-559.5 720.5,-529.5 554.5,-529.5"/>
<text text-anchor="start" x="561.5" y="-540.9" font-family="Arial" font-size="14.00" fill="#000000">name </text>
<text text-anchor="start" x="600.399" y="-540.9" font-family="Arial" font-size="14.00" fill="#666666">[varchar(32)]</text>
<polygon fill="none" stroke="#000000" points="554.5,-499.5 554.5,-529.5 720.5,-529.5 720.5,-499.5 554.5,-499.5"/>
<text text-anchor="start" x="561.5" y="-510.9" font-family="Arial" font-size="14.00" fill="#000000">created_at </text>
<text text-anchor="start" x="631.528" y="-510.9" font-family="Arial" font-size="14.00" fill="#666666">[datetime(6)]</text>
<polygon fill="none" stroke="#000000" points="554.5,-469.5 554.5,-499.5 720.5,-499.5 720.5,-469.5 554.5,-469.5"/>
<text text-anchor="start" x="561.2518" y="-480.9" font-family="Arial" font-size="14.00" fill="#000000">updated_at </text>
<text text-anchor="start" x="635.1844" y="-480.9" font-family="Arial" font-size="14.00" fill="#666666">[datetime(6)]</text>
</g>
<!-- accounts&#45;&gt;users -->
<g id="edge1" class="edge">
<title>accounts:user_id&#45;&gt;users:id</title>
<path fill="none" stroke="#000000" d="M701.7298,-940.638C753.5664,-931.1963 724.3984,-846.3659 691.5,-794 655.5461,-736.7705 590.4539,-785.2295 554.5,-728 532.3936,-692.8123 512.9444,-634.5 554.5,-634.5"/>
<polygon fill="#000000" stroke="#000000" points="701.4647,-940.6602 691.1221,-937.0159 696.4823,-941.0801 691.5,-941.5 691.5,-941.5 691.5,-941.5 696.4823,-941.0801 691.8779,-945.9841 701.4647,-940.6602 701.4647,-940.6602"/>
<text text-anchor="start" x="698.445" y="-951.5" font-family="Arial" font-size="10.00" fill="#000000">FOREIGN KEY (user_id) REFERENCES users (id)</text>
</g>
<!-- contests -->
<g id="node2" class="node">
<title>contests</title>
<polygon fill="#efefef" stroke="transparent" points="135.5,-282.5 135.5,-317.5 313.5,-317.5 313.5,-282.5 135.5,-282.5"/>
<polygon fill="none" stroke="#000000" points="135.5,-282.5 135.5,-317.5 313.5,-317.5 313.5,-282.5 135.5,-282.5"/>
<text text-anchor="start" x="142.3616" y="-295.3" font-family="Arial Bold" font-size="18.00" fill="#000000">contests</text>
<text text-anchor="start" x="209.3846" y="-295.3" font-family="Arial" font-size="14.00" fill="#000000"> </text>
<text text-anchor="start" x="213.2752" y="-295.3" font-family="Arial" font-size="14.00" fill="#666666">[BASE TABLE]</text>
<polygon fill="none" stroke="#000000" points="135.5,-252.5 135.5,-282.5 313.5,-282.5 313.5,-252.5 135.5,-252.5"/>
<text text-anchor="start" x="142.5" y="-263.9" font-family="Arial" font-size="14.00" fill="#000000">id </text>
<text text-anchor="start" x="157.2798" y="-263.9" font-family="Arial" font-size="14.00" fill="#666666">[char(36)]</text>
<polygon fill="none" stroke="#000000" points="135.5,-222.5 135.5,-252.5 313.5,-252.5 313.5,-222.5 135.5,-222.5"/>
<text text-anchor="start" x="142.5" y="-233.9" font-family="Arial" font-size="14.00" fill="#000000">name </text>
<text text-anchor="start" x="181.399" y="-233.9" font-family="Arial" font-size="14.00" fill="#666666">[varchar(32)]</text>
<polygon fill="none" stroke="#000000" points="135.5,-192.5 135.5,-222.5 313.5,-222.5 313.5,-192.5 135.5,-192.5"/>
<text text-anchor="start" x="142.5" y="-203.9" font-family="Arial" font-size="14.00" fill="#000000">description </text>
<text text-anchor="start" x="214.068" y="-203.9" font-family="Arial" font-size="14.00" fill="#666666">[text]</text>
<polygon fill="none" stroke="#000000" points="135.5,-162.5 135.5,-192.5 313.5,-192.5 313.5,-162.5 135.5,-162.5"/>
<text text-anchor="start" x="142.5" y="-173.9" font-family="Arial" font-size="14.00" fill="#000000">link </text>
<text text-anchor="start" x="167.3864" y="-173.9" font-family="Arial" font-size="14.00" fill="#666666">[text]</text>
<polygon fill="none" stroke="#000000" points="135.5,-132.5 135.5,-162.5 313.5,-162.5 313.5,-132.5 135.5,-132.5"/>
<text text-anchor="start" x="142.5" y="-143.9" font-family="Arial" font-size="14.00" fill="#000000">since </text>
<text text-anchor="start" x="179.0624" y="-143.9" font-family="Arial" font-size="14.00" fill="#666666">[datetime(6)]</text>
<polygon fill="none" stroke="#000000" points="135.5,-102.5 135.5,-132.5 313.5,-132.5 313.5,-102.5 135.5,-102.5"/>
<text text-anchor="start" x="142.5" y="-113.9" font-family="Arial" font-size="14.00" fill="#000000">until </text>
<text text-anchor="start" x="172.0596" y="-113.9" font-family="Arial" font-size="14.00" fill="#666666">[datetime(6)]</text>
<polygon fill="none" stroke="#000000" points="135.5,-72.5 135.5,-102.5 313.5,-102.5 313.5,-72.5 135.5,-72.5"/>
<text text-anchor="start" x="142.5" y="-83.9" font-family="Arial" font-size="14.00" fill="#000000">created_at </text>
<text text-anchor="start" x="212.528" y="-83.9" font-family="Arial" font-size="14.00" fill="#666666">[datetime(6)]</text>
<polygon fill="none" stroke="#000000" points="135.5,-42.5 135.5,-72.5 313.5,-72.5 313.5,-42.5 135.5,-42.5"/>
<text text-anchor="start" x="142.5" y="-53.9" font-family="Arial" font-size="14.00" fill="#000000">updated_at </text>
<text text-anchor="start" x="216.4326" y="-53.9" font-family="Arial" font-size="14.00" fill="#666666">[datetime(6)]</text>
</g>
<!-- contest_teams -->
<g id="node3" class="node">
<title>contest_teams</title>
<polygon fill="#efefef" stroke="transparent" points="110.5,-679.5 110.5,-714.5 338.5,-714.5 338.5,-679.5 110.5,-679.5"/>
<polygon fill="none" stroke="#000000" points="110.5,-679.5 110.5,-714.5 338.5,-714.5 338.5,-679.5 110.5,-679.5"/>
<text text-anchor="start" x="117.3551" y="-692.3" font-family="Arial Bold" font-size="18.00" fill="#000000">contest_teams</text>
<text text-anchor="start" x="234.3911" y="-692.3" font-family="Arial" font-size="14.00" fill="#000000"> </text>
<text text-anchor="start" x="238.2817" y="-692.3" font-family="Arial" font-size="14.00" fill="#666666">[BASE TABLE]</text>
<polygon fill="none" stroke="#000000" points="110.5,-649.5 110.5,-679.5 338.5,-679.5 338.5,-649.5 110.5,-649.5"/>
<text text-anchor="start" x="117.5" y="-660.9" font-family="Arial" font-size="14.00" fill="#000000">id </text>
<text text-anchor="start" x="132.2798" y="-660.9" font-family="Arial" font-size="14.00" fill="#666666">[char(36)]</text>
<polygon fill="none" stroke="#000000" points="110.5,-619.5 110.5,-649.5 338.5,-649.5 338.5,-619.5 110.5,-619.5"/>
<text text-anchor="start" x="117.5" y="-630.9" font-family="Arial" font-size="14.00" fill="#000000">contest_id </text>
<text text-anchor="start" x="185.1914" y="-630.9" font-family="Arial" font-size="14.00" fill="#666666">[char(36)]</text>
<polygon fill="none" stroke="#000000" points="110.5,-589.5 110.5,-619.5 338.5,-619.5 338.5,-589.5 110.5,-589.5"/>
<text text-anchor="start" x="117.5" y="-600.9" font-family="Arial" font-size="14.00" fill="#000000">name </text>
<text text-anchor="start" x="156.399" y="-600.9" font-family="Arial" font-size="14.00" fill="#666666">[varchar(32)]</text>
<polygon fill="none" stroke="#000000" points="110.5,-559.5 110.5,-589.5 338.5,-589.5 338.5,-559.5 110.5,-559.5"/>
<text text-anchor="start" x="117.5" y="-570.9" font-family="Arial" font-size="14.00" fill="#000000">description </text>
<text text-anchor="start" x="189.068" y="-570.9" font-family="Arial" font-size="14.00" fill="#666666">[text]</text>
<polygon fill="none" stroke="#000000" points="110.5,-529.5 110.5,-559.5 338.5,-559.5 338.5,-529.5 110.5,-529.5"/>
<text text-anchor="start" x="117.5" y="-540.9" font-family="Arial" font-size="14.00" fill="#000000">result </text>
<text text-anchor="start" x="155.6136" y="-540.9" font-family="Arial" font-size="14.00" fill="#666666">[text]</text>
<polygon fill="none" stroke="#000000" points="110.5,-499.5 110.5,-529.5 338.5,-529.5 338.5,-499.5 110.5,-499.5"/>
<text text-anchor="start" x="117.5" y="-510.9" font-family="Arial" font-size="14.00" fill="#000000">link </text>
<text text-anchor="start" x="142.3864" y="-510.9" font-family="Arial" font-size="14.00" fill="#666666">[text]</text>
<polygon fill="none" stroke="#000000" points="110.5,-469.5 110.5,-499.5 338.5,-499.5 338.5,-469.5 110.5,-469.5"/>
<text text-anchor="start" x="117.5" y="-480.9" font-family="Arial" font-size="14.00" fill="#000000">created_at </text>
<text text-anchor="start" x="187.528" y="-480.9" font-family="Arial" font-size="14.00" fill="#666666">[datetime(6)]</text>
<polygon fill="none" stroke="#000000" points="110.5,-439.5 110.5,-469.5 338.5,-469.5 338.5,-439.5 110.5,-439.5"/>
<text text-anchor="start" x="117.5" y="-450.9" font-family="Arial" font-size="14.00" fill="#000000">updated_at </text>
<text text-anchor="start" x="191.4326" y="-450.9" font-family="Arial" font-size="14.00" fill="#666666">[datetime(6)]</text>
</g>
<!-- contest_teams&#45;&gt;contests -->
<g id="edge2" class="edge">
<title>contest_teams:contest_id&#45;&gt;contests:id</title>
<path fill="none" stroke="#000000" d="M348.7769,-633.9991C500.851,-618.8999 473.4767,-267.5 313.5,-267.5"/>
<polygon fill="#000000" stroke="#000000" points="348.4881,-634.0131 338.2809,-630.0053 343.4941,-634.2565 338.5,-634.5 338.5,-634.5 338.5,-634.5 343.4941,-634.2565 338.7191,-638.9947 348.4881,-634.0131 348.4881,-634.0131"/>
<text text-anchor="start" x="279.407" y="-618.5" font-family="Arial" font-size="10.00" fill="#000000">FOREIGN KEY (contest_id) REFERENCES contests (id)</text>
</g>
<!-- contest_team_user_belongings -->
<g id="node4" class="node">
<title>contest_team_user_belongings</title>
<polygon fill="#efefef" stroke="transparent" points="43.5,-1016.5 43.5,-1051.5 404.5,-1051.5 404.5,-1016.5 43.5,-1016.5"/>
<polygon fill="none" stroke="#000000" points="43.5,-1016.5 43.5,-1051.5 404.5,-1051.5 404.5,-1016.5 43.5,-1016.5"/>
<text text-anchor="start" x="50.3307" y="-1029.3" font-family="Arial Bold" font-size="18.00" fill="#000000">contest_team_user_belongings</text>
<text text-anchor="start" x="300.4155" y="-1029.3" font-family="Arial" font-size="14.00" fill="#000000"> </text>
<text text-anchor="start" x="304.3061" y="-1029.3" font-family="Arial" font-size="14.00" fill="#666666">[BASE TABLE]</text>
<polygon fill="none" stroke="#000000" points="43.5,-986.5 43.5,-1016.5 404.5,-1016.5 404.5,-986.5 43.5,-986.5"/>
<text text-anchor="start" x="50.5" y="-997.9" font-family="Arial" font-size="14.00" fill="#000000">team_id </text>
<text text-anchor="start" x="104.1788" y="-997.9" font-family="Arial" font-size="14.00" fill="#666666">[char(36)]</text>
<polygon fill="none" stroke="#000000" points="43.5,-956.5 43.5,-986.5 404.5,-986.5 404.5,-956.5 43.5,-956.5"/>
<text text-anchor="start" x="50.5" y="-967.9" font-family="Arial" font-size="14.00" fill="#000000">user_id </text>
<text text-anchor="start" x="100.2882" y="-967.9" font-family="Arial" font-size="14.00" fill="#666666">[char(36)]</text>
<polygon fill="none" stroke="#000000" points="43.5,-926.5 43.5,-956.5 404.5,-956.5 404.5,-926.5 43.5,-926.5"/>
<text text-anchor="start" x="50.5" y="-937.9" font-family="Arial" font-size="14.00" fill="#000000">created_at </text>
<text text-anchor="start" x="120.528" y="-937.9" font-family="Arial" font-size="14.00" fill="#666666">[datetime(6)]</text>
<polygon fill="none" stroke="#000000" points="43.5,-896.5 43.5,-926.5 404.5,-926.5 404.5,-896.5 43.5,-896.5"/>
<text text-anchor="start" x="50.5" y="-907.9" font-family="Arial" font-size="14.00" fill="#000000">updated_at </text>
<text text-anchor="start" x="124.4326" y="-907.9" font-family="Arial" font-size="14.00" fill="#666666">[datetime(6)]</text>
</g>
<!-- contest_team_user_belongings&#45;&gt;contest_teams -->
<g id="edge3" class="edge">
<title>contest_team_user_belongings:team_id&#45;&gt;contest_teams:id</title>
<path fill="none" stroke="#000000" d="M414.7627,-1000.6158C466.9533,-990.9349 440.8136,-904.058 404.5,-854 323.7862,-742.7367 191.2138,-869.2633 110.5,-758 86.0987,-724.3631 68.9444,-664.5 110.5,-664.5"/>
<polygon fill="#000000" stroke="#000000" points="414.4631,-1000.6415 404.1137,-997.0166 409.4815,-1001.0708 404.5,-1001.5 404.5,-1001.5 404.5,-1001.5 409.4815,-1001.0708 404.8863,-1005.9834 414.4631,-1000.6415 414.4631,-1000.6415"/>
<text text-anchor="start" x="411.769" y="-1011.5" font-family="Arial" font-size="10.00" fill="#000000">FOREIGN KEY (team_id) REFERENCES contest_teams (id)</text>
</g>
<!-- contest_team_user_belongings&#45;&gt;users -->
<g id="edge4" class="edge">
<title>contest_team_user_belongings:user_id&#45;&gt;users:id</title>
<path fill="none" stroke="#000000" d="M414.6972,-970.8914C480.9942,-962.3487 423.7032,-865.6554 455.5,-794 489.3412,-717.7373 471.066,-634.5 554.5,-634.5"/>
<polygon fill="#000000" stroke="#000000" points="414.4822,-970.9041 404.2319,-967.008 409.4911,-971.2021 404.5,-971.5 404.5,-971.5 404.5,-971.5 409.4911,-971.2021 404.7681,-975.992 414.4822,-970.9041 414.4822,-970.9041"/>
<text text-anchor="start" x="411.445" y="-981.5" font-family="Arial" font-size="10.00" fill="#000000">FOREIGN KEY (user_id) REFERENCES users (id)</text>
</g>
<!-- event_level_relations -->
<g id="node5" class="node">
<title>event_level_relations</title>
<polygon fill="#efefef" stroke="transparent" points="1552.5,-986.5 1552.5,-1021.5 1832.5,-1021.5 1832.5,-986.5 1552.5,-986.5"/>
<polygon fill="none" stroke="#000000" points="1552.5,-986.5 1552.5,-1021.5 1832.5,-1021.5 1832.5,-986.5 1552.5,-986.5"/>
<text text-anchor="start" x="1559.3523" y="-999.3" font-family="Arial Bold" font-size="18.00" fill="#000000">event_level_relations</text>
<text text-anchor="start" x="1728.3939" y="-999.3" font-family="Arial" font-size="14.00" fill="#000000"> </text>
<text text-anchor="start" x="1732.2845" y="-999.3" font-family="Arial" font-size="14.00" fill="#666666">[BASE TABLE]</text>
<polygon fill="none" stroke="#000000" points="1552.5,-956.5 1552.5,-986.5 1832.5,-986.5 1832.5,-956.5 1552.5,-956.5"/>
<text text-anchor="start" x="1559.5" y="-967.9" font-family="Arial" font-size="14.00" fill="#000000">id </text>
<text text-anchor="start" x="1574.2798" y="-967.9" font-family="Arial" font-size="14.00" fill="#666666">[char(36)]</text>
<polygon fill="none" stroke="#000000" points="1552.5,-926.5 1552.5,-956.5 1832.5,-956.5 1832.5,-926.5 1552.5,-926.5"/>
<text text-anchor="start" x="1559.5" y="-937.9" font-family="Arial" font-size="14.00" fill="#000000">level </text>
<text text-anchor="start" x="1592.169" y="-937.9" font-family="Arial" font-size="14.00" fill="#666666">[tinyint(3) unsigned]</text>
</g>
<!-- groups -->
<g id="node6" class="node">
<title>groups</title>
<polygon fill="#efefef" stroke="transparent" points="862.5,-619.5 862.5,-654.5 1028.5,-654.5 1028.5,-619.5 862.5,-619.5"/>
<polygon fill="none" stroke="#000000" points="862.5,-619.5 862.5,-654.5 1028.5,-654.5 1028.5,-619.5 862.5,-619.5"/>
<text text-anchor="start" x="869.3646" y="-632.3" font-family="Arial Bold" font-size="18.00" fill="#000000">groups</text>
<text text-anchor="start" x="924.3816" y="-632.3" font-family="Arial" font-size="14.00" fill="#000000"> </text>
<text text-anchor="start" x="928.2722" y="-632.3" font-family="Arial" font-size="14.00" fill="#666666">[BASE TABLE]</text>
<polygon fill="none" stroke="#000000" points="862.5,-589.5 862.5,-619.5 1028.5,-619.5 1028.5,-589.5 862.5,-589.5"/>
<text text-anchor="start" x="869.5" y="-600.9" font-family="Arial" font-size="14.00" fill="#000000">group_id </text>
<text text-anchor="start" x="927.8534" y="-600.9" font-family="Arial" font-size="14.00" fill="#666666">[char(36)]</text>
<polygon fill="none" stroke="#000000" points="862.5,-559.5 862.5,-589.5 1028.5,-589.5 1028.5,-559.5 862.5,-559.5"/>
<text text-anchor="start" x="869.5" y="-570.9" font-family="Arial" font-size="14.00" fill="#000000">name </text>
<text text-anchor="start" x="908.399" y="-570.9" font-family="Arial" font-size="14.00" fill="#666666">[varchar(32)]</text>
<polygon fill="none" stroke="#000000" points="862.5,-529.5 862.5,-559.5 1028.5,-559.5 1028.5,-529.5 862.5,-529.5"/>
<text text-anchor="start" x="869.5" y="-540.9" font-family="Arial" font-size="14.00" fill="#000000">link </text>
<text text-anchor="start" x="894.3864" y="-540.9" font-family="Arial" font-size="14.00" fill="#666666">[text]</text>
<polygon fill="none" stroke="#000000" points="862.5,-499.5 862.5,-529.5 1028.5,-529.5 1028.5,-499.5 862.5,-499.5"/>
<text text-anchor="start" x="869.5" y="-510.9" font-family="Arial" font-size="14.00" fill="#000000">leader </text>
<text text-anchor="start" x="912.2882" y="-510.9" font-family="Arial" font-size="14.00" fill="#666666">[char(36)]</text>
</g>
<!-- group_user_belongings -->
<g id="node7" class="node">
<title>group_user_belongings</title>
<polygon fill="#efefef" stroke="transparent" points="795.5,-1046.5 795.5,-1081.5 1094.5,-1081.5 1094.5,-1046.5 795.5,-1046.5"/>
<polygon fill="none" stroke="#000000" points="795.5,-1046.5 795.5,-1081.5 1094.5,-1081.5 1094.5,-1046.5 795.5,-1046.5"/>
<text text-anchor="start" x="802.3402" y="-1059.3" font-family="Arial Bold" font-size="18.00" fill="#000000">group_user_belongings</text>
<text text-anchor="start" x="990.406" y="-1059.3" font-family="Arial" font-size="14.00" fill="#000000"> </text>
<text text-anchor="start" x="994.2966" y="-1059.3" font-family="Arial" font-size="14.00" fill="#666666">[BASE TABLE]</text>
<polygon fill="none" stroke="#000000" points="795.5,-1016.5 795.5,-1046.5 1094.5,-1046.5 1094.5,-1016.5 795.5,-1016.5"/>
<text text-anchor="start" x="802.5" y="-1027.9" font-family="Arial" font-size="14.00" fill="#000000">user_id </text>
<text text-anchor="start" x="852.2882" y="-1027.9" font-family="Arial" font-size="14.00" fill="#666666">[char(36)]</text>
<polygon fill="none" stroke="#000000" points="795.5,-986.5 795.5,-1016.5 1094.5,-1016.5 1094.5,-986.5 795.5,-986.5"/>
<text text-anchor="start" x="802.5" y="-997.9" font-family="Arial" font-size="14.00" fill="#000000">group_id </text>
<text text-anchor="start" x="860.8534" y="-997.9" font-family="Arial" font-size="14.00" fill="#666666">[char(36)]</text>
<polygon fill="none" stroke="#000000" points="795.5,-956.5 795.5,-986.5 1094.5,-986.5 1094.5,-956.5 795.5,-956.5"/>
<text text-anchor="start" x="802.5" y="-967.9" font-family="Arial" font-size="14.00" fill="#000000">since_year </text>
<text text-anchor="start" x="874.0708" y="-967.9" font-family="Arial" font-size="14.00" fill="#666666">[tinyint(1)]</text>
<polygon fill="none" stroke="#000000" points="795.5,-926.5 795.5,-956.5 1094.5,-956.5 1094.5,-926.5 795.5,-926.5"/>
<text text-anchor="start" x="802.5" y="-937.9" font-family="Arial" font-size="14.00" fill="#000000">since_semester </text>
<text text-anchor="start" x="904.4046" y="-937.9" font-family="Arial" font-size="14.00" fill="#666666">[tinyint(1)]</text>
<polygon fill="none" stroke="#000000" points="795.5,-896.5 795.5,-926.5 1094.5,-926.5 1094.5,-896.5 795.5,-896.5"/>
<text text-anchor="start" x="802.5" y="-907.9" font-family="Arial" font-size="14.00" fill="#000000">until_year </text>
<text text-anchor="start" x="867.068" y="-907.9" font-family="Arial" font-size="14.00" fill="#666666">[tinyint(1)]</text>
<polygon fill="none" stroke="#000000" points="795.5,-866.5 795.5,-896.5 1094.5,-896.5 1094.5,-866.5 795.5,-866.5"/>
<text text-anchor="start" x="802.5" y="-877.9" font-family="Arial" font-size="14.00" fill="#000000">until_semester </text>
<text text-anchor="start" x="897.4018" y="-877.9" font-family="Arial" font-size="14.00" fill="#666666">[tinyint(1)]</text>
</g>
<!-- group_user_belongings&#45;&gt;groups -->
<g id="edge5" class="edge">
<title>group_user_belongings:group_id&#45;&gt;groups:group_id</title>
<path fill="none" stroke="#000000" d="M1104.8315,-1000.7925C1169.7702,-991.3077 1132.9409,-888.6218 1094.5,-824 1034.5123,-723.1567 922.4877,-798.8433 862.5,-698 841.255,-662.2857 820.9444,-604.5 862.5,-604.5"/>
<polygon fill="#000000" stroke="#000000" points="1104.4766,-1000.8167 1094.1925,-997.0105 1099.4883,-1001.1584 1094.5,-1001.5 1094.5,-1001.5 1094.5,-1001.5 1099.4883,-1001.1584 1094.8075,-1005.9895 1104.4766,-1000.8167 1104.4766,-1000.8167"/>
<text text-anchor="start" x="1101.765" y="-1011.5" font-family="Arial" font-size="10.00" fill="#000000">FOREIGN KEY (group_id) REFERENCES groups (group_id)</text>
</g>
<!-- group_user_belongings&#45;&gt;users -->
<g id="edge6" class="edge">
<title>group_user_belongings:user_id&#45;&gt;users:id</title>
<path fill="none" stroke="#000000" d="M785.4065,-1029.5512C713.968,-999.6015 806.6002,-634.5 720.5,-634.5"/>
<polygon fill="#000000" stroke="#000000" points="785.6813,-1029.6042 794.6469,-1035.9184 790.5907,-1030.5521 795.5,-1031.5 795.5,-1031.5 795.5,-1031.5 790.5907,-1030.5521 796.3531,-1027.0816 785.6813,-1029.6042 785.6813,-1029.6042"/>
<text text-anchor="start" x="742.445" y="-1015.5" font-family="Arial" font-size="10.00" fill="#000000">FOREIGN KEY (user_id) REFERENCES users (id)</text>
</g>
<!-- migrations -->
<g id="node8" class="node">
<title>migrations</title>
<polygon fill="#efefef" stroke="transparent" points="1936.5,-971.5 1936.5,-1006.5 2130.5,-1006.5 2130.5,-971.5 1936.5,-971.5"/>
<polygon fill="none" stroke="#000000" points="1936.5,-971.5 1936.5,-1006.5 2130.5,-1006.5 2130.5,-971.5 1936.5,-971.5"/>
<text text-anchor="start" x="1943.3732" y="-984.3" font-family="Arial Bold" font-size="18.00" fill="#000000">migrations</text>
<text text-anchor="start" x="2026.373" y="-984.3" font-family="Arial" font-size="14.00" fill="#000000"> </text>
<text text-anchor="start" x="2030.2636" y="-984.3" font-family="Arial" font-size="14.00" fill="#666666">[BASE TABLE]</text>
<polygon fill="none" stroke="#000000" points="1936.5,-941.5 1936.5,-971.5 2130.5,-971.5 2130.5,-941.5 1936.5,-941.5"/>
<text text-anchor="start" x="1943.5" y="-952.9" font-family="Arial" font-size="14.00" fill="#000000">id </text>
<text text-anchor="start" x="1958.2798" y="-952.9" font-family="Arial" font-size="14.00" fill="#666666">[varchar(255)]</text>
</g>
<!-- projects -->
<g id="node9" class="node">
<title>projects</title>
<polygon fill="#efefef" stroke="transparent" points="1236.5,-679.5 1236.5,-714.5 1410.5,-714.5 1410.5,-679.5 1236.5,-679.5"/>
<polygon fill="none" stroke="#000000" points="1236.5,-679.5 1236.5,-714.5 1410.5,-714.5 1410.5,-679.5 1236.5,-679.5"/>
<text text-anchor="start" x="1243.3695" y="-692.3" font-family="Arial Bold" font-size="18.00" fill="#000000">projects</text>
<text text-anchor="start" x="1306.3767" y="-692.3" font-family="Arial" font-size="14.00" fill="#000000"> </text>
<text text-anchor="start" x="1310.2673" y="-692.3" font-family="Arial" font-size="14.00" fill="#666666">[BASE TABLE]</text>
<polygon fill="none" stroke="#000000" points="1236.5,-649.5 1236.5,-679.5 1410.5,-679.5 1410.5,-649.5 1236.5,-649.5"/>
<text text-anchor="start" x="1243.5" y="-660.9" font-family="Arial" font-size="14.00" fill="#000000">id </text>
<text text-anchor="start" x="1258.2798" y="-660.9" font-family="Arial" font-size="14.00" fill="#666666">[char(36)]</text>
<polygon fill="none" stroke="#000000" points="1236.5,-619.5 1236.5,-649.5 1410.5,-649.5 1410.5,-619.5 1236.5,-619.5"/>
<text text-anchor="start" x="1243.5" y="-630.9" font-family="Arial" font-size="14.00" fill="#000000">name </text>
<text text-anchor="start" x="1282.399" y="-630.9" font-family="Arial" font-size="14.00" fill="#666666">[varchar(32)]</text>
<polygon fill="none" stroke="#000000" points="1236.5,-589.5 1236.5,-619.5 1410.5,-619.5 1410.5,-589.5 1236.5,-589.5"/>
<text text-anchor="start" x="1243.5" y="-600.9" font-family="Arial" font-size="14.00" fill="#000000">description </text>
<text text-anchor="start" x="1315.068" y="-600.9" font-family="Arial" font-size="14.00" fill="#666666">[text]</text>
<polygon fill="none" stroke="#000000" points="1236.5,-559.5 1236.5,-589.5 1410.5,-589.5 1410.5,-559.5 1236.5,-559.5"/>
<text text-anchor="start" x="1243.5" y="-570.9" font-family="Arial" font-size="14.00" fill="#000000">link </text>
<text text-anchor="start" x="1268.3864" y="-570.9" font-family="Arial" font-size="14.00" fill="#666666">[text]</text>
<polygon fill="none" stroke="#000000" points="1236.5,-529.5 1236.5,-559.5 1410.5,-559.5 1410.5,-529.5 1236.5,-529.5"/>
<text text-anchor="start" x="1243.5" y="-540.9" font-family="Arial" font-size="14.00" fill="#000000">since </text>
<text text-anchor="start" x="1280.0624" y="-540.9" font-family="Arial" font-size="14.00" fill="#666666">[datetime(6)]</text>
<polygon fill="none" stroke="#000000" points="1236.5,-499.5 1236.5,-529.5 1410.5,-529.5 1410.5,-499.5 1236.5,-499.5"/>
<text text-anchor="start" x="1243.5" y="-510.9" font-family="Arial" font-size="14.00" fill="#000000">until </text>
<text text-anchor="start" x="1273.0596" y="-510.9" font-family="Arial" font-size="14.00" fill="#666666">[datetime(6)]</text>
<polygon fill="none" stroke="#000000" points="1236.5,-469.5 1236.5,-499.5 1410.5,-499.5 1410.5,-469.5 1236.5,-469.5"/>
<text text-anchor="start" x="1243.5" y="-480.9" font-family="Arial" font-size="14.00" fill="#000000">created_at </text>
<text text-anchor="start" x="1313.528" y="-480.9" font-family="Arial" font-size="14.00" fill="#666666">[datetime(6)]</text>
<polygon fill="none" stroke="#000000" points="1236.5,-439.5 1236.5,-469.5 1410.5,-469.5 1410.5,-439.5 1236.5,-439.5"/>
<text text-anchor="start" x="1243.5" y="-450.9" font-family="Arial" font-size="14.00" fill="#000000">updated_at </text>
<text text-anchor="start" x="1317.4326" y="-450.9" font-family="Arial" font-size="14.00" fill="#666666">[datetime(6)]</text>
</g>
<!-- project_members -->
<g id="node10" class="node">
<title>project_members</title>
<polygon fill="#efefef" stroke="transparent" points="1198.5,-1031.5 1198.5,-1066.5 1448.5,-1066.5 1448.5,-1031.5 1198.5,-1031.5"/>
<polygon fill="none" stroke="#000000" points="1198.5,-1031.5 1198.5,-1066.5 1448.5,-1066.5 1448.5,-1031.5 1198.5,-1031.5"/>
<text text-anchor="start" x="1205.3688" y="-1044.3" font-family="Arial Bold" font-size="18.00" fill="#000000">project_members</text>
<text text-anchor="start" x="1344.3774" y="-1044.3" font-family="Arial" font-size="14.00" fill="#000000"> </text>
<text text-anchor="start" x="1348.268" y="-1044.3" font-family="Arial" font-size="14.00" fill="#666666">[BASE TABLE]</text>
<polygon fill="none" stroke="#000000" points="1198.5,-1001.5 1198.5,-1031.5 1448.5,-1031.5 1448.5,-1001.5 1198.5,-1001.5"/>
<text text-anchor="start" x="1205.5" y="-1012.9" font-family="Arial" font-size="14.00" fill="#000000">id </text>
<text text-anchor="start" x="1220.2798" y="-1012.9" font-family="Arial" font-size="14.00" fill="#666666">[char(36)]</text>
<polygon fill="none" stroke="#000000" points="1198.5,-971.5 1198.5,-1001.5 1448.5,-1001.5 1448.5,-971.5 1198.5,-971.5"/>
<text text-anchor="start" x="1205.5" y="-982.9" font-family="Arial" font-size="14.00" fill="#000000">project_id </text>
<text text-anchor="start" x="1270.068" y="-982.9" font-family="Arial" font-size="14.00" fill="#666666">[char(36)]</text>
<polygon fill="none" stroke="#000000" points="1198.5,-941.5 1198.5,-971.5 1448.5,-971.5 1448.5,-941.5 1198.5,-941.5"/>
<text text-anchor="start" x="1205.5" y="-952.9" font-family="Arial" font-size="14.00" fill="#000000">user_id </text>
<text text-anchor="start" x="1255.2882" y="-952.9" font-family="Arial" font-size="14.00" fill="#666666">[char(36)]</text>
<polygon fill="none" stroke="#000000" points="1198.5,-911.5 1198.5,-941.5 1448.5,-941.5 1448.5,-911.5 1198.5,-911.5"/>
<text text-anchor="start" x="1205.5" y="-922.9" font-family="Arial" font-size="14.00" fill="#000000">since </text>
<text text-anchor="start" x="1242.0624" y="-922.9" font-family="Arial" font-size="14.00" fill="#666666">[datetime(6)]</text>
<polygon fill="none" stroke="#000000" points="1198.5,-881.5 1198.5,-911.5 1448.5,-911.5 1448.5,-881.5 1198.5,-881.5"/>
<text text-anchor="start" x="1205.5" y="-892.9" font-family="Arial" font-size="14.00" fill="#000000">until </text>
<text text-anchor="start" x="1235.0596" y="-892.9" font-family="Arial" font-size="14.00" fill="#666666">[datetime(6)]</text>
</g>
<!-- project_members&#45;&gt;projects -->
<g id="edge7" class="edge">
<title>project_members:project_id&#45;&gt;projects:id</title>
<path fill="none" stroke="#000000" d="M1458.2762,-984.2718C1516.76,-955.8224 1479.0339,-664.5 1410.5,-664.5"/>
<polygon fill="#000000" stroke="#000000" points="1458.25,-984.2777 1447.5,-982.1125 1453.375,-985.3889 1448.5,-986.5 1448.5,-986.5 1448.5,-986.5 1453.375,-985.3889 1449.5,-990.8875 1458.25,-984.2777 1458.25,-984.2777"/>
<text text-anchor="start" x="1455.888" y="-996.5" font-family="Arial" font-size="10.00" fill="#000000">FOREIGN KEY (project_id) REFERENCES projects (id)</text>
</g>
<!-- project_members&#45;&gt;users -->
<g id="edge8" class="edge">
<title>project_members:user_id&#45;&gt;users:id</title>
<path fill="none" stroke="#000000" d="M1188.467,-955.701C1130.2027,-945.4623 1201.6267,-839.5071 1145.5,-794 1029.1827,-699.691 940.1505,-832.9309 810.5,-758 751.6969,-724.015 788.4175,-634.5 720.5,-634.5"/>
<polygon fill="#000000" stroke="#000000" points="1188.5316,-955.7061 1198.1427,-960.9858 1193.5158,-956.103 1198.5,-956.5 1198.5,-956.5 1198.5,-956.5 1193.5158,-956.103 1198.8573,-952.0142 1188.5316,-955.7061 1188.5316,-955.7061"/>
<text text-anchor="start" x="1145.445" y="-940.5" font-family="Arial" font-size="10.00" fill="#000000">FOREIGN KEY (user_id) REFERENCES users (id)</text>
</g>
</g>
</svg>
