<?xml version="1.0" encoding="UTF-8" standalone="no"?>
<!DOCTYPE svg PUBLIC "-//W3C//DTD SVG 1.1//EN"
 "http://www.w3.org/Graphics/SVG/1.1/DTD/svg11.dtd">
<!-- Generated by graphviz version 2.40.1 (20161225.0304)
 -->
<!-- Title: portfolio Pages: 1 -->
<svg width="942pt" height="309pt"
 viewBox="0.00 0.00 942.00 309.00" xmlns="http://www.w3.org/2000/svg" xmlns:xlink="http://www.w3.org/1999/xlink">
<g id="graph0" class="graph" transform="scale(1 1) rotate(0) translate(4 305)">
<title>portfolio</title>
<polygon fill="#ffffff" stroke="transparent" points="-4,4 -4,-305 938,-305 938,4 -4,4"/>
<!-- event_level_relations -->
<g id="node1" class="node">
<title>event_level_relations</title>
<polygon fill="#efefef" stroke="transparent" points="43,-162.5 43,-197.5 323,-197.5 323,-162.5 43,-162.5"/>
<polygon fill="none" stroke="#000000" points="43,-162.5 43,-197.5 323,-197.5 323,-162.5 43,-162.5"/>
<text text-anchor="start" x="49.8523" y="-175.3" font-family="Arial Bold" font-size="18.00" fill="#000000">event_level_relations</text>
<text text-anchor="start" x="218.8939" y="-175.3" font-family="Arial" font-size="14.00" fill="#000000"> </text>
<text text-anchor="start" x="222.7845" y="-175.3" font-family="Arial" font-size="14.00" fill="#666666">[BASE TABLE]</text>
<polygon fill="none" stroke="#000000" points="43,-132.5 43,-162.5 323,-162.5 323,-132.5 43,-132.5"/>
<text text-anchor="start" x="50" y="-143.9" font-family="Arial" font-size="14.00" fill="#000000">id </text>
<text text-anchor="start" x="64.7798" y="-143.9" font-family="Arial" font-size="14.00" fill="#666666">[char(36)]</text>
<polygon fill="none" stroke="#000000" points="43,-102.5 43,-132.5 323,-132.5 323,-102.5 43,-102.5"/>
<text text-anchor="start" x="50" y="-113.9" font-family="Arial" font-size="14.00" fill="#000000">level </text>
<text text-anchor="start" x="82.669" y="-113.9" font-family="Arial" font-size="14.00" fill="#666666">[tinyint(3) unsigned]</text>
</g>
<!-- migrations -->
<g id="node2" class="node">
<title>migrations</title>
<polygon fill="#efefef" stroke="transparent" points="427,-147.5 427,-182.5 621,-182.5 621,-147.5 427,-147.5"/>
<polygon fill="none" stroke="#000000" points="427,-147.5 427,-182.5 621,-182.5 621,-147.5 427,-147.5"/>
<text text-anchor="start" x="433.8732" y="-160.3" font-family="Arial Bold" font-size="18.00" fill="#000000">migrations</text>
<text text-anchor="start" x="516.873" y="-160.3" font-family="Arial" font-size="14.00" fill="#000000"> </text>
<text text-anchor="start" x="520.7636" y="-160.3" font-family="Arial" font-size="14.00" fill="#666666">[BASE TABLE]</text>
<polygon fill="none" stroke="#000000" points="427,-117.5 427,-147.5 621,-147.5 621,-117.5 427,-117.5"/>
<text text-anchor="start" x="434" y="-128.9" font-family="Arial" font-size="14.00" fill="#000000">id </text>
<text text-anchor="start" x="448.7798" y="-128.9" font-family="Arial" font-size="14.00" fill="#666666">[varchar(255)]</text>
</g>
<!-- users -->
<g id="node3" class="node">
<title>users</title>
<polygon fill="#efefef" stroke="transparent" points="725,-222.5 725,-257.5 891,-257.5 891,-222.5 725,-222.5"/>
<polygon fill="none" stroke="#000000" points="725,-222.5 725,-257.5 891,-257.5 891,-222.5 725,-222.5"/>
<text text-anchor="start" x="737.3708" y="-235.3" font-family="Arial Bold" font-size="18.00" fill="#000000">users</text>
<text text-anchor="start" x="781.3754" y="-235.3" font-family="Arial" font-size="14.00" fill="#000000"> </text>
<text text-anchor="start" x="785.266" y="-235.3" font-family="Arial" font-size="14.00" fill="#666666">[BASE TABLE]</text>
<polygon fill="none" stroke="#000000" points="725,-192.5 725,-222.5 891,-222.5 891,-192.5 725,-192.5"/>
<text text-anchor="start" x="732" y="-203.9" font-family="Arial" font-size="14.00" fill="#000000">id </text>
<text text-anchor="start" x="746.7798" y="-203.9" font-family="Arial" font-size="14.00" fill="#666666">[char(36)]</text>
<polygon fill="none" stroke="#000000" points="725,-162.5 725,-192.5 891,-192.5 891,-162.5 725,-162.5"/>
<text text-anchor="start" x="732" y="-173.9" font-family="Arial" font-size="14.00" fill="#000000">description </text>
<text text-anchor="start" x="803.568" y="-173.9" font-family="Arial" font-size="14.00" fill="#666666">[text]</text>
<polygon fill="none" stroke="#000000" points="725,-132.5 725,-162.5 891,-162.5 891,-132.5 725,-132.5"/>
<text text-anchor="start" x="732" y="-143.9" font-family="Arial" font-size="14.00" fill="#000000">check </text>
<text text-anchor="start" x="772.4558" y="-143.9" font-family="Arial" font-size="14.00" fill="#666666">[tinyint(1)]</text>
<polygon fill="none" stroke="#000000" points="725,-102.5 725,-132.5 891,-132.5 891,-102.5 725,-102.5"/>
<text text-anchor="start" x="732" y="-113.9" font-family="Arial" font-size="14.00" fill="#000000">name </text>
<text text-anchor="start" x="770.899" y="-113.9" font-family="Arial" font-size="14.00" fill="#666666">[varchar(32)]</text>
<polygon fill="none" stroke="#000000" points="725,-72.5 725,-102.5 891,-102.5 891,-72.5 725,-72.5"/>
<text text-anchor="start" x="732" y="-83.9" font-family="Arial" font-size="14.00" fill="#000000">created_at </text>
<text text-anchor="start" x="802.028" y="-83.9" font-family="Arial" font-size="14.00" fill="#666666">[datetime(6)]</text>
<polygon fill="none" stroke="#000000" points="725,-42.5 725,-72.5 891,-72.5 891,-42.5 725,-42.5"/>
<text text-anchor="start" x="731.7518" y="-53.9" font-family="Arial" font-size="14.00" fill="#000000">updated_at </text>
<text text-anchor="start" x="805.6844" y="-53.9" font-family="Arial" font-size="14.00" fill="#666666">[datetime(6)]</text>
</g>
</g>
</svg>
