<?xml version="1.0" encoding="UTF-8" standalone="no"?>
<!DOCTYPE svg PUBLIC "-//W3C//DTD SVG 1.1//EN"
 "http://www.w3.org/Graphics/SVG/1.1/DTD/svg11.dtd">
<!-- Generated by graphviz version 2.40.1 (20161225.0304)
 -->
<!-- Title: portfolio Pages: 1 -->
<svg width="2767pt" height="1253pt"
 viewBox="0.00 0.00 2766.50 1253.00" xmlns="http://www.w3.org/2000/svg" xmlns:xlink="http://www.w3.org/1999/xlink">
<g id="graph0" class="graph" transform="scale(1 1) rotate(0) translate(4 1249)">
<title>portfolio</title>
<polygon fill="#ffffff" stroke="transparent" points="-4,4 -4,-1249 2762.5,-1249 2762.5,4 -4,4"/>
<!-- accounts -->
<g id="node1" class="node">
<title>accounts</title>
<polygon fill="#efefef" stroke="transparent" points="538.5,-1151.5 538.5,-1186.5 751.5,-1186.5 751.5,-1151.5 538.5,-1151.5"/>
<polygon fill="none" stroke="#000000" points="538.5,-1151.5 538.5,-1186.5 751.5,-1186.5 751.5,-1151.5 538.5,-1151.5"/>
<text text-anchor="start" x="545.2025" y="-1164.3" font-family="Arial Bold" font-size="18.00" fill="#000000">accounts</text>
<text text-anchor="start" x="617.2295" y="-1164.3" font-family="Arial" font-size="14.00" fill="#000000">    </text>
<text text-anchor="start" x="651.4343" y="-1164.3" font-family="Arial" font-size="14.00" fill="#666666">[BASE TABLE]</text>
<polygon fill="none" stroke="#000000" points="538.5,-1121.5 538.5,-1151.5 751.5,-1151.5 751.5,-1121.5 538.5,-1121.5"/>
<text text-anchor="start" x="545.5" y="-1132.9" font-family="Arial" font-size="14.00" fill="#000000">id    </text>
<text text-anchor="start" x="590.594" y="-1132.9" font-family="Arial" font-size="14.00" fill="#666666">[char(36)]</text>
<polygon fill="none" stroke="#000000" points="538.5,-1091.5 538.5,-1121.5 751.5,-1121.5 751.5,-1091.5 538.5,-1091.5"/>
<text text-anchor="start" x="545.5" y="-1102.9" font-family="Arial" font-size="14.00" fill="#000000">type    </text>
<text text-anchor="start" x="606.1606" y="-1102.9" font-family="Arial" font-size="14.00" fill="#666666">[tinyint(1)]</text>
<polygon fill="none" stroke="#000000" points="538.5,-1061.5 538.5,-1091.5 751.5,-1091.5 751.5,-1061.5 538.5,-1061.5"/>
<text text-anchor="start" x="545.5" y="-1072.9" font-family="Arial" font-size="14.00" fill="#000000">name    </text>
<text text-anchor="start" x="614.7132" y="-1072.9" font-family="Arial" font-size="14.00" fill="#666666">[varchar(256)]</text>
<polygon fill="none" stroke="#000000" points="538.5,-1031.5 538.5,-1061.5 751.5,-1061.5 751.5,-1031.5 538.5,-1031.5"/>
<text text-anchor="start" x="545.5" y="-1042.9" font-family="Arial" font-size="14.00" fill="#000000">url    </text>
<text text-anchor="start" x="595.2546" y="-1042.9" font-family="Arial" font-size="14.00" fill="#666666">[text]</text>
<polygon fill="none" stroke="#000000" points="538.5,-1001.5 538.5,-1031.5 751.5,-1031.5 751.5,-1001.5 538.5,-1001.5"/>
<text text-anchor="start" x="545.5" y="-1012.9" font-family="Arial" font-size="14.00" fill="#000000">user_id    </text>
<text text-anchor="start" x="625.6024" y="-1012.9" font-family="Arial" font-size="14.00" fill="#666666">[char(36)]</text>
<polygon fill="none" stroke="#000000" points="538.5,-971.5 538.5,-1001.5 751.5,-1001.5 751.5,-971.5 538.5,-971.5"/>
<text text-anchor="start" x="545.5" y="-982.9" font-family="Arial" font-size="14.00" fill="#000000">check    </text>
<text text-anchor="start" x="616.27" y="-982.9" font-family="Arial" font-size="14.00" fill="#666666">[tinyint(1)]</text>
<polygon fill="none" stroke="#000000" points="538.5,-941.5 538.5,-971.5 751.5,-971.5 751.5,-941.5 538.5,-941.5"/>
<text text-anchor="start" x="545.5" y="-952.9" font-family="Arial" font-size="14.00" fill="#000000">created_at    </text>
<text text-anchor="start" x="645.8422" y="-952.9" font-family="Arial" font-size="14.00" fill="#666666">[datetime(6)]</text>
<polygon fill="none" stroke="#000000" points="538.5,-911.5 538.5,-941.5 751.5,-941.5 751.5,-911.5 538.5,-911.5"/>
<text text-anchor="start" x="545.5" y="-922.9" font-family="Arial" font-size="14.00" fill="#000000">updated_at    </text>
<text text-anchor="start" x="649.7468" y="-922.9" font-family="Arial" font-size="14.00" fill="#666666">[datetime(6)]</text>
</g>
<!-- users -->
<g id="node12" class="node">
<title>users</title>
<polygon fill="#efefef" stroke="transparent" points="568.5,-679.5 568.5,-714.5 764.5,-714.5 764.5,-679.5 568.5,-679.5"/>
<polygon fill="none" stroke="#000000" points="568.5,-679.5 568.5,-714.5 764.5,-714.5 764.5,-679.5 568.5,-679.5"/>
<text text-anchor="start" x="580.7137" y="-692.3" font-family="Arial Bold" font-size="18.00" fill="#000000">users</text>
<text text-anchor="start" x="624.7183" y="-692.3" font-family="Arial" font-size="14.00" fill="#000000">    </text>
<text text-anchor="start" x="658.9231" y="-692.3" font-family="Arial" font-size="14.00" fill="#666666">[BASE TABLE]</text>
<polygon fill="none" stroke="#000000" points="568.5,-649.5 568.5,-679.5 764.5,-679.5 764.5,-649.5 568.5,-649.5"/>
<text text-anchor="start" x="575.5" y="-660.9" font-family="Arial" font-size="14.00" fill="#000000">id    </text>
<text text-anchor="start" x="620.594" y="-660.9" font-family="Arial" font-size="14.00" fill="#666666">[char(36)]</text>
<polygon fill="none" stroke="#000000" points="568.5,-619.5 568.5,-649.5 764.5,-649.5 764.5,-619.5 568.5,-619.5"/>
<text text-anchor="start" x="575.5" y="-630.9" font-family="Arial" font-size="14.00" fill="#000000">description    </text>
<text text-anchor="start" x="677.3822" y="-630.9" font-family="Arial" font-size="14.00" fill="#666666">[text]</text>
<polygon fill="none" stroke="#000000" points="568.5,-589.5 568.5,-619.5 764.5,-619.5 764.5,-589.5 568.5,-589.5"/>
<text text-anchor="start" x="575.5" y="-600.9" font-family="Arial" font-size="14.00" fill="#000000">check    </text>
<text text-anchor="start" x="646.27" y="-600.9" font-family="Arial" font-size="14.00" fill="#666666">[tinyint(1)]</text>
<polygon fill="none" stroke="#000000" points="568.5,-559.5 568.5,-589.5 764.5,-589.5 764.5,-559.5 568.5,-559.5"/>
<text text-anchor="start" x="575.5" y="-570.9" font-family="Arial" font-size="14.00" fill="#000000">name    </text>
<text text-anchor="start" x="644.7132" y="-570.9" font-family="Arial" font-size="14.00" fill="#666666">[varchar(32)]</text>
<polygon fill="none" stroke="#000000" points="568.5,-529.5 568.5,-559.5 764.5,-559.5 764.5,-529.5 568.5,-529.5"/>
<text text-anchor="start" x="575.5" y="-540.9" font-family="Arial" font-size="14.00" fill="#000000">created_at    </text>
<text text-anchor="start" x="675.8422" y="-540.9" font-family="Arial" font-size="14.00" fill="#666666">[datetime(6)]</text>
<polygon fill="none" stroke="#000000" points="568.5,-499.5 568.5,-529.5 764.5,-529.5 764.5,-499.5 568.5,-499.5"/>
<text text-anchor="start" x="575.0947" y="-510.9" font-family="Arial" font-size="14.00" fill="#000000">updated_at    </text>
<text text-anchor="start" x="679.3415" y="-510.9" font-family="Arial" font-size="14.00" fill="#666666">[datetime(6)]</text>
</g>
<!-- accounts&#45;&gt;users -->
<g id="edge1" class="edge">
<title>accounts:user_id&#45;&gt;users:id</title>
<path fill="none" stroke="#000000" d="M761.7052,-1015.6526C813.2766,-1006.3688 781.8403,-922.8884 751.5,-869 704.8308,-786.1092 615.1692,-840.8908 568.5,-758 548.1126,-721.7892 526.9444,-664.5 568.5,-664.5"/>
<polygon fill="#000000" stroke="#000000" points="761.4657,-1015.6724 751.1276,-1012.0154 756.4829,-1016.0862 751.5,-1016.5 751.5,-1016.5 751.5,-1016.5 756.4829,-1016.0862 751.8724,-1020.9846 761.4657,-1015.6724 761.4657,-1015.6724"/>
<text text-anchor="start" x="758.445" y="-1026.5" font-family="Arial" font-size="10.00" fill="#000000">FOREIGN KEY (user_id) REFERENCES users (id)</text>
</g>
<!-- contests -->
<g id="node2" class="node">
<title>contests</title>
<polygon fill="#efefef" stroke="transparent" points="135.5,-282.5 135.5,-317.5 343.5,-317.5 343.5,-282.5 135.5,-282.5"/>
<polygon fill="none" stroke="#000000" points="135.5,-282.5 135.5,-317.5 343.5,-317.5 343.5,-282.5 135.5,-282.5"/>
<text text-anchor="start" x="142.2045" y="-295.3" font-family="Arial Bold" font-size="18.00" fill="#000000">contests</text>
<text text-anchor="start" x="209.2275" y="-295.3" font-family="Arial" font-size="14.00" fill="#000000">    </text>
<text text-anchor="start" x="243.4323" y="-295.3" font-family="Arial" font-size="14.00" fill="#666666">[BASE TABLE]</text>
<polygon fill="none" stroke="#000000" points="135.5,-252.5 135.5,-282.5 343.5,-282.5 343.5,-252.5 135.5,-252.5"/>
<text text-anchor="start" x="142.5" y="-263.9" font-family="Arial" font-size="14.00" fill="#000000">id    </text>
<text text-anchor="start" x="187.594" y="-263.9" font-family="Arial" font-size="14.00" fill="#666666">[char(36)]</text>
<polygon fill="none" stroke="#000000" points="135.5,-222.5 135.5,-252.5 343.5,-252.5 343.5,-222.5 135.5,-222.5"/>
<text text-anchor="start" x="142.5" y="-233.9" font-family="Arial" font-size="14.00" fill="#000000">name    </text>
<text text-anchor="start" x="211.7132" y="-233.9" font-family="Arial" font-size="14.00" fill="#666666">[varchar(32)]</text>
<polygon fill="none" stroke="#000000" points="135.5,-192.5 135.5,-222.5 343.5,-222.5 343.5,-192.5 135.5,-192.5"/>
<text text-anchor="start" x="142.5" y="-203.9" font-family="Arial" font-size="14.00" fill="#000000">description    </text>
<text text-anchor="start" x="244.3822" y="-203.9" font-family="Arial" font-size="14.00" fill="#666666">[text]</text>
<polygon fill="none" stroke="#000000" points="135.5,-162.5 135.5,-192.5 343.5,-192.5 343.5,-162.5 135.5,-162.5"/>
<text text-anchor="start" x="142.5" y="-173.9" font-family="Arial" font-size="14.00" fill="#000000">link    </text>
<text text-anchor="start" x="197.7006" y="-173.9" font-family="Arial" font-size="14.00" fill="#666666">[text]</text>
<polygon fill="none" stroke="#000000" points="135.5,-132.5 135.5,-162.5 343.5,-162.5 343.5,-132.5 135.5,-132.5"/>
<text text-anchor="start" x="142.5" y="-143.9" font-family="Arial" font-size="14.00" fill="#000000">since    </text>
<text text-anchor="start" x="209.3766" y="-143.9" font-family="Arial" font-size="14.00" fill="#666666">[datetime(6)]</text>
<polygon fill="none" stroke="#000000" points="135.5,-102.5 135.5,-132.5 343.5,-132.5 343.5,-102.5 135.5,-102.5"/>
<text text-anchor="start" x="142.5" y="-113.9" font-family="Arial" font-size="14.00" fill="#000000">until    </text>
<text text-anchor="start" x="202.3738" y="-113.9" font-family="Arial" font-size="14.00" fill="#666666">[datetime(6)]</text>
<polygon fill="none" stroke="#000000" points="135.5,-72.5 135.5,-102.5 343.5,-102.5 343.5,-72.5 135.5,-72.5"/>
<text text-anchor="start" x="142.5" y="-83.9" font-family="Arial" font-size="14.00" fill="#000000">created_at    </text>
<text text-anchor="start" x="242.8422" y="-83.9" font-family="Arial" font-size="14.00" fill="#666666">[datetime(6)]</text>
<polygon fill="none" stroke="#000000" points="135.5,-42.5 135.5,-72.5 343.5,-72.5 343.5,-42.5 135.5,-42.5"/>
<text text-anchor="start" x="142.5" y="-53.9" font-family="Arial" font-size="14.00" fill="#000000">updated_at    </text>
<text text-anchor="start" x="246.7468" y="-53.9" font-family="Arial" font-size="14.00" fill="#666666">[datetime(6)]</text>
</g>
<!-- contest_teams -->
<g id="node3" class="node">
<title>contest_teams</title>
<polygon fill="#efefef" stroke="transparent" points="110.5,-709.5 110.5,-744.5 368.5,-744.5 368.5,-709.5 110.5,-709.5"/>
<polygon fill="none" stroke="#000000" points="110.5,-709.5 110.5,-744.5 368.5,-744.5 368.5,-709.5 110.5,-709.5"/>
<text text-anchor="start" x="117.198" y="-722.3" font-family="Arial Bold" font-size="18.00" fill="#000000">contest_teams</text>
<text text-anchor="start" x="234.234" y="-722.3" font-family="Arial" font-size="14.00" fill="#000000">    </text>
<text text-anchor="start" x="268.4388" y="-722.3" font-family="Arial" font-size="14.00" fill="#666666">[BASE TABLE]</text>
<polygon fill="none" stroke="#000000" points="110.5,-679.5 110.5,-709.5 368.5,-709.5 368.5,-679.5 110.5,-679.5"/>
<text text-anchor="start" x="117.5" y="-690.9" font-family="Arial" font-size="14.00" fill="#000000">id    </text>
<text text-anchor="start" x="162.594" y="-690.9" font-family="Arial" font-size="14.00" fill="#666666">[char(36)]</text>
<polygon fill="none" stroke="#000000" points="110.5,-649.5 110.5,-679.5 368.5,-679.5 368.5,-649.5 110.5,-649.5"/>
<text text-anchor="start" x="117.5" y="-660.9" font-family="Arial" font-size="14.00" fill="#000000">contest_id    </text>
<text text-anchor="start" x="215.5056" y="-660.9" font-family="Arial" font-size="14.00" fill="#666666">[char(36)]</text>
<polygon fill="none" stroke="#000000" points="110.5,-619.5 110.5,-649.5 368.5,-649.5 368.5,-619.5 110.5,-619.5"/>
<text text-anchor="start" x="117.5" y="-630.9" font-family="Arial" font-size="14.00" fill="#000000">name    </text>
<text text-anchor="start" x="186.7132" y="-630.9" font-family="Arial" font-size="14.00" fill="#666666">[varchar(32)]</text>
<polygon fill="none" stroke="#000000" points="110.5,-589.5 110.5,-619.5 368.5,-619.5 368.5,-589.5 110.5,-589.5"/>
<text text-anchor="start" x="117.5" y="-600.9" font-family="Arial" font-size="14.00" fill="#000000">description    </text>
<text text-anchor="start" x="219.3822" y="-600.9" font-family="Arial" font-size="14.00" fill="#666666">[text]</text>
<polygon fill="none" stroke="#000000" points="110.5,-559.5 110.5,-589.5 368.5,-589.5 368.5,-559.5 110.5,-559.5"/>
<text text-anchor="start" x="117.5" y="-570.9" font-family="Arial" font-size="14.00" fill="#000000">result    </text>
<text text-anchor="start" x="185.9278" y="-570.9" font-family="Arial" font-size="14.00" fill="#666666">[text]</text>
<polygon fill="none" stroke="#000000" points="110.5,-529.5 110.5,-559.5 368.5,-559.5 368.5,-529.5 110.5,-529.5"/>
<text text-anchor="start" x="117.5" y="-540.9" font-family="Arial" font-size="14.00" fill="#000000">link    </text>
<text text-anchor="start" x="172.7006" y="-540.9" font-family="Arial" font-size="14.00" fill="#666666">[text]</text>
<polygon fill="none" stroke="#000000" points="110.5,-499.5 110.5,-529.5 368.5,-529.5 368.5,-499.5 110.5,-499.5"/>
<text text-anchor="start" x="117.5" y="-510.9" font-family="Arial" font-size="14.00" fill="#000000">created_at    </text>
<text text-anchor="start" x="217.8422" y="-510.9" font-family="Arial" font-size="14.00" fill="#666666">[datetime(6)]</text>
<polygon fill="none" stroke="#000000" points="110.5,-469.5 110.5,-499.5 368.5,-499.5 368.5,-469.5 110.5,-469.5"/>
<text text-anchor="start" x="117.5" y="-480.9" font-family="Arial" font-size="14.00" fill="#000000">updated_at    </text>
<text text-anchor="start" x="221.7468" y="-480.9" font-family="Arial" font-size="14.00" fill="#666666">[datetime(6)]</text>
</g>
<!-- contest_teams&#45;&gt;contests -->
<g id="edge2" class="edge">
<title>contest_teams:contest_id&#45;&gt;contests:id</title>
<path fill="none" stroke="#000000" d="M378.6285,-664.0516C544.2595,-649.1436 516.8409,-267.5 343.5,-267.5"/>
<polygon fill="#000000" stroke="#000000" points="378.4902,-664.0576 368.3009,-660.0044 373.4951,-664.2788 368.5,-664.5 368.5,-664.5 368.5,-664.5 373.4951,-664.2788 368.6991,-668.9956 378.4902,-664.0576 378.4902,-664.0576"/>
<text text-anchor="start" x="375.657" y="-674.5" font-family="Arial" font-size="10.00" fill="#000000">FOREIGN KEY (contest_id) REFERENCES contests (id)</text>
</g>
<!-- contest_team_user_belongings -->
<g id="node4" class="node">
<title>contest_team_user_belongings</title>
<polygon fill="#efefef" stroke="transparent" points="43.5,-1091.5 43.5,-1126.5 434.5,-1126.5 434.5,-1091.5 43.5,-1091.5"/>
<polygon fill="none" stroke="#000000" points="43.5,-1091.5 43.5,-1126.5 434.5,-1126.5 434.5,-1091.5 43.5,-1091.5"/>
<text text-anchor="start" x="50.1736" y="-1104.3" font-family="Arial Bold" font-size="18.00" fill="#000000">contest_team_user_belongings</text>
<text text-anchor="start" x="300.2584" y="-1104.3" font-family="Arial" font-size="14.00" fill="#000000">    </text>
<text text-anchor="start" x="334.4632" y="-1104.3" font-family="Arial" font-size="14.00" fill="#666666">[BASE TABLE]</text>
<polygon fill="none" stroke="#000000" points="43.5,-1061.5 43.5,-1091.5 434.5,-1091.5 434.5,-1061.5 43.5,-1061.5"/>
<text text-anchor="start" x="50.5" y="-1072.9" font-family="Arial" font-size="14.00" fill="#000000">team_id    </text>
<text text-anchor="start" x="134.493" y="-1072.9" font-family="Arial" font-size="14.00" fill="#666666">[char(36)]</text>
<polygon fill="none" stroke="#000000" points="43.5,-1031.5 43.5,-1061.5 434.5,-1061.5 434.5,-1031.5 43.5,-1031.5"/>
<text text-anchor="start" x="50.5" y="-1042.9" font-family="Arial" font-size="14.00" fill="#000000">user_id    </text>
<text text-anchor="start" x="130.6024" y="-1042.9" font-family="Arial" font-size="14.00" fill="#666666">[char(36)]</text>
<polygon fill="none" stroke="#000000" points="43.5,-1001.5 43.5,-1031.5 434.5,-1031.5 434.5,-1001.5 43.5,-1001.5"/>
<text text-anchor="start" x="50.5" y="-1012.9" font-family="Arial" font-size="14.00" fill="#000000">created_at    </text>
<text text-anchor="start" x="150.8422" y="-1012.9" font-family="Arial" font-size="14.00" fill="#666666">[datetime(6)]</text>
<polygon fill="none" stroke="#000000" points="43.5,-971.5 43.5,-1001.5 434.5,-1001.5 434.5,-971.5 43.5,-971.5"/>
<text text-anchor="start" x="50.5" y="-982.9" font-family="Arial" font-size="14.00" fill="#000000">updated_at    </text>
<text text-anchor="start" x="154.7468" y="-982.9" font-family="Arial" font-size="14.00" fill="#666666">[datetime(6)]</text>
</g>
<!-- contest_team_user_belongings&#45;&gt;contest_teams -->
<g id="edge3" class="edge">
<title>contest_team_user_belongings:team_id&#45;&gt;contest_teams:id</title>
<path fill="none" stroke="#000000" d="M444.7395,-1075.6318C496.6799,-1066.1235 468.3997,-980.7233 434.5,-929 348.4139,-797.652 196.5861,-919.348 110.5,-788 87.7208,-753.2441 68.9444,-694.5 110.5,-694.5"/>
<polygon fill="#000000" stroke="#000000" points="444.4642,-1075.655 434.1198,-1072.0161 439.4821,-1076.0775 434.5,-1076.5 434.5,-1076.5 434.5,-1076.5 439.4821,-1076.0775 434.8802,-1080.9839 444.4642,-1075.655 444.4642,-1075.655"/>
<text text-anchor="start" x="300.269" y="-1060.5" font-family="Arial" font-size="10.00" fill="#000000">FOREIGN KEY (team_id) REFERENCES contest_teams (id)</text>
</g>
<!-- contest_team_user_belongings&#45;&gt;users -->
<g id="edge4" class="edge">
<title>contest_team_user_belongings:user_id&#45;&gt;users:id</title>
<path fill="none" stroke="#000000" d="M444.6246,-1045.9595C517.6985,-1037.6063 457.5225,-934.1335 485.5,-854 515.8078,-767.1921 476.5534,-664.5 568.5,-664.5"/>
<polygon fill="#000000" stroke="#000000" points="444.4858,-1045.9668 434.2601,-1042.0064 439.4929,-1046.2334 434.5,-1046.5 434.5,-1046.5 434.5,-1046.5 439.4929,-1046.2334 434.7399,-1050.9936 444.4858,-1045.9668 444.4858,-1045.9668"/>
<text text-anchor="start" x="321.445" y="-1030.5" font-family="Arial" font-size="10.00" fill="#000000">FOREIGN KEY (user_id) REFERENCES users (id)</text>
</g>
<!-- event_level_relations -->
<g id="node5" class="node">
<title>event_level_relations</title>
<polygon fill="#efefef" stroke="transparent" points="2077.5,-1091.5 2077.5,-1126.5 2387.5,-1126.5 2387.5,-1091.5 2077.5,-1091.5"/>
<polygon fill="none" stroke="#000000" points="2077.5,-1091.5 2077.5,-1126.5 2387.5,-1126.5 2387.5,-1091.5 2077.5,-1091.5"/>
<text text-anchor="start" x="2084.1952" y="-1104.3" font-family="Arial Bold" font-size="18.00" fill="#000000">event_level_relations</text>
<text text-anchor="start" x="2253.2368" y="-1104.3" font-family="Arial" font-size="14.00" fill="#000000">    </text>
<text text-anchor="start" x="2287.4416" y="-1104.3" font-family="Arial" font-size="14.00" fill="#666666">[BASE TABLE]</text>
<polygon fill="none" stroke="#000000" points="2077.5,-1061.5 2077.5,-1091.5 2387.5,-1091.5 2387.5,-1061.5 2077.5,-1061.5"/>
<text text-anchor="start" x="2084.5" y="-1072.9" font-family="Arial" font-size="14.00" fill="#000000">id    </text>
<text text-anchor="start" x="2129.594" y="-1072.9" font-family="Arial" font-size="14.00" fill="#666666">[char(36)]</text>
<polygon fill="none" stroke="#000000" points="2077.5,-1031.5 2077.5,-1061.5 2387.5,-1061.5 2387.5,-1031.5 2077.5,-1031.5"/>
<text text-anchor="start" x="2084.5" y="-1042.9" font-family="Arial" font-size="14.00" fill="#000000">level    </text>
<text text-anchor="start" x="2147.4832" y="-1042.9" font-family="Arial" font-size="14.00" fill="#666666">[tinyint(3) unsigned]</text>
<polygon fill="none" stroke="#000000" points="2077.5,-1001.5 2077.5,-1031.5 2387.5,-1031.5 2387.5,-1001.5 2077.5,-1001.5"/>
<text text-anchor="start" x="2084.5" y="-1012.9" font-family="Arial" font-size="14.00" fill="#000000">created_at    </text>
<text text-anchor="start" x="2184.8422" y="-1012.9" font-family="Arial" font-size="14.00" fill="#666666">[datetime(6)]</text>
<polygon fill="none" stroke="#000000" points="2077.5,-971.5 2077.5,-1001.5 2387.5,-1001.5 2387.5,-971.5 2077.5,-971.5"/>
<text text-anchor="start" x="2084.5" y="-982.9" font-family="Arial" font-size="14.00" fill="#000000">updated_at    </text>
<text text-anchor="start" x="2188.7468" y="-982.9" font-family="Arial" font-size="14.00" fill="#666666">[datetime(6)]</text>
</g>
<!-- groups -->
<g id="node6" class="node">
<title>groups</title>
<polygon fill="#efefef" stroke="transparent" points="1516.5,-679.5 1516.5,-714.5 1712.5,-714.5 1712.5,-679.5 1516.5,-679.5"/>
<polygon fill="none" stroke="#000000" points="1516.5,-679.5 1516.5,-714.5 1712.5,-714.5 1712.5,-679.5 1516.5,-679.5"/>
<text text-anchor="start" x="1523.2075" y="-692.3" font-family="Arial Bold" font-size="18.00" fill="#000000">groups</text>
<text text-anchor="start" x="1578.2245" y="-692.3" font-family="Arial" font-size="14.00" fill="#000000">    </text>
<text text-anchor="start" x="1612.4293" y="-692.3" font-family="Arial" font-size="14.00" fill="#666666">[BASE TABLE]</text>
<polygon fill="none" stroke="#000000" points="1516.5,-649.5 1516.5,-679.5 1712.5,-679.5 1712.5,-649.5 1516.5,-649.5"/>
<text text-anchor="start" x="1523.5" y="-660.9" font-family="Arial" font-size="14.00" fill="#000000">group_id    </text>
<text text-anchor="start" x="1612.1676" y="-660.9" font-family="Arial" font-size="14.00" fill="#666666">[char(36)]</text>
<polygon fill="none" stroke="#000000" points="1516.5,-619.5 1516.5,-649.5 1712.5,-649.5 1712.5,-619.5 1516.5,-619.5"/>
<text text-anchor="start" x="1523.5" y="-630.9" font-family="Arial" font-size="14.00" fill="#000000">name    </text>
<text text-anchor="start" x="1592.7132" y="-630.9" font-family="Arial" font-size="14.00" fill="#666666">[varchar(32)]</text>
<polygon fill="none" stroke="#000000" points="1516.5,-589.5 1516.5,-619.5 1712.5,-619.5 1712.5,-589.5 1516.5,-589.5"/>
<text text-anchor="start" x="1523.5" y="-600.9" font-family="Arial" font-size="14.00" fill="#000000">link    </text>
<text text-anchor="start" x="1578.7006" y="-600.9" font-family="Arial" font-size="14.00" fill="#666666">[text]</text>
<polygon fill="none" stroke="#000000" points="1516.5,-559.5 1516.5,-589.5 1712.5,-589.5 1712.5,-559.5 1516.5,-559.5"/>
<text text-anchor="start" x="1523.5" y="-570.9" font-family="Arial" font-size="14.00" fill="#000000">description    </text>
<text text-anchor="start" x="1625.3822" y="-570.9" font-family="Arial" font-size="14.00" fill="#666666">[text]</text>
<polygon fill="none" stroke="#000000" points="1516.5,-529.5 1516.5,-559.5 1712.5,-559.5 1712.5,-529.5 1516.5,-529.5"/>
<text text-anchor="start" x="1523.5" y="-540.9" font-family="Arial" font-size="14.00" fill="#000000">created_at    </text>
<text text-anchor="start" x="1623.8422" y="-540.9" font-family="Arial" font-size="14.00" fill="#666666">[datetime(6)]</text>
<polygon fill="none" stroke="#000000" points="1516.5,-499.5 1516.5,-529.5 1712.5,-529.5 1712.5,-499.5 1516.5,-499.5"/>
<text text-anchor="start" x="1523.0947" y="-510.9" font-family="Arial" font-size="14.00" fill="#000000">updated_at    </text>
<text text-anchor="start" x="1627.3415" y="-510.9" font-family="Arial" font-size="14.00" fill="#666666">[datetime(6)]</text>
</g>
<!-- group_user_admins -->
<g id="node7" class="node">
<title>group_user_admins</title>
<polygon fill="#efefef" stroke="transparent" points="1673.5,-1091.5 1673.5,-1126.5 1973.5,-1126.5 1973.5,-1091.5 1673.5,-1091.5"/>
<polygon fill="none" stroke="#000000" points="1673.5,-1091.5 1673.5,-1126.5 1973.5,-1126.5 1973.5,-1091.5 1673.5,-1091.5"/>
<text text-anchor="start" x="1680.1965" y="-1104.3" font-family="Arial Bold" font-size="18.00" fill="#000000">group_user_admins</text>
<text text-anchor="start" x="1839.2355" y="-1104.3" font-family="Arial" font-size="14.00" fill="#000000">    </text>
<text text-anchor="start" x="1873.4403" y="-1104.3" font-family="Arial" font-size="14.00" fill="#666666">[BASE TABLE]</text>
<polygon fill="none" stroke="#000000" points="1673.5,-1061.5 1673.5,-1091.5 1973.5,-1091.5 1973.5,-1061.5 1673.5,-1061.5"/>
<text text-anchor="start" x="1680.5" y="-1072.9" font-family="Arial" font-size="14.00" fill="#000000">user_id    </text>
<text text-anchor="start" x="1760.6024" y="-1072.9" font-family="Arial" font-size="14.00" fill="#666666">[char(36)]</text>
<polygon fill="none" stroke="#000000" points="1673.5,-1031.5 1673.5,-1061.5 1973.5,-1061.5 1973.5,-1031.5 1673.5,-1031.5"/>
<text text-anchor="start" x="1680.5" y="-1042.9" font-family="Arial" font-size="14.00" fill="#000000">group_id    </text>
<text text-anchor="start" x="1769.1676" y="-1042.9" font-family="Arial" font-size="14.00" fill="#666666">[char(36)]</text>
<polygon fill="none" stroke="#000000" points="1673.5,-1001.5 1673.5,-1031.5 1973.5,-1031.5 1973.5,-1001.5 1673.5,-1001.5"/>
<text text-anchor="start" x="1680.5" y="-1012.9" font-family="Arial" font-size="14.00" fill="#000000">created_at    </text>
<text text-anchor="start" x="1780.8422" y="-1012.9" font-family="Arial" font-size="14.00" fill="#666666">[datetime(6)]</text>
<polygon fill="none" stroke="#000000" points="1673.5,-971.5 1673.5,-1001.5 1973.5,-1001.5 1973.5,-971.5 1673.5,-971.5"/>
<text text-anchor="start" x="1680.5" y="-982.9" font-family="Arial" font-size="14.00" fill="#000000">updated_at    </text>
<text text-anchor="start" x="1784.7468" y="-982.9" font-family="Arial" font-size="14.00" fill="#666666">[datetime(6)]</text>
</g>
<!-- group_user_admins&#45;&gt;groups -->
<g id="edge5" class="edge">
<title>group_user_admins:group_id&#45;&gt;groups:group_id</title>
<path fill="none" stroke="#000000" d="M1663.2524,-1045.9786C1518.9273,-1030.2623 1879.4938,-664.5 1712.5,-664.5"/>
<polygon fill="#000000" stroke="#000000" points="1663.5129,-1045.9918 1673.2713,-1050.9942 1668.5065,-1046.2459 1673.5,-1046.5 1673.5,-1046.5 1673.5,-1046.5 1668.5065,-1046.2459 1673.7287,-1042.0058 1663.5129,-1045.9918 1663.5129,-1045.9918"/>
<text text-anchor="start" x="1397.765" y="-1056.5" font-family="Arial" font-size="10.00" fill="#000000">FOREIGN KEY (group_id) REFERENCES groups (group_id)</text>
</g>
<!-- group_user_belongings -->
<g id="node8" class="node">
<title>group_user_belongings</title>
<polygon fill="#efefef" stroke="transparent" points="1240.5,-1151.5 1240.5,-1186.5 1569.5,-1186.5 1569.5,-1151.5 1240.5,-1151.5"/>
<polygon fill="none" stroke="#000000" points="1240.5,-1151.5 1240.5,-1186.5 1569.5,-1186.5 1569.5,-1151.5 1240.5,-1151.5"/>
<text text-anchor="start" x="1247.1831" y="-1164.3" font-family="Arial Bold" font-size="18.00" fill="#000000">group_user_belongings</text>
<text text-anchor="start" x="1435.2489" y="-1164.3" font-family="Arial" font-size="14.00" fill="#000000">    </text>
<text text-anchor="start" x="1469.4537" y="-1164.3" font-family="Arial" font-size="14.00" fill="#666666">[BASE TABLE]</text>
<polygon fill="none" stroke="#000000" points="1240.5,-1121.5 1240.5,-1151.5 1569.5,-1151.5 1569.5,-1121.5 1240.5,-1121.5"/>
<text text-anchor="start" x="1247.5" y="-1132.9" font-family="Arial" font-size="14.00" fill="#000000">user_id    </text>
<text text-anchor="start" x="1327.6024" y="-1132.9" font-family="Arial" font-size="14.00" fill="#666666">[char(36)]</text>
<polygon fill="none" stroke="#000000" points="1240.5,-1091.5 1240.5,-1121.5 1569.5,-1121.5 1569.5,-1091.5 1240.5,-1091.5"/>
<text text-anchor="start" x="1247.5" y="-1102.9" font-family="Arial" font-size="14.00" fill="#000000">group_id    </text>
<text text-anchor="start" x="1336.1676" y="-1102.9" font-family="Arial" font-size="14.00" fill="#666666">[char(36)]</text>
<polygon fill="none" stroke="#000000" points="1240.5,-1061.5 1240.5,-1091.5 1569.5,-1091.5 1569.5,-1061.5 1240.5,-1061.5"/>
<text text-anchor="start" x="1247.5" y="-1072.9" font-family="Arial" font-size="14.00" fill="#000000">since_year    </text>
<text text-anchor="start" x="1349.385" y="-1072.9" font-family="Arial" font-size="14.00" fill="#666666">[smallint(4)]</text>
<polygon fill="none" stroke="#000000" points="1240.5,-1031.5 1240.5,-1061.5 1569.5,-1061.5 1569.5,-1031.5 1240.5,-1031.5"/>
<text text-anchor="start" x="1247.5" y="-1042.9" font-family="Arial" font-size="14.00" fill="#000000">since_semester    </text>
<text text-anchor="start" x="1379.7188" y="-1042.9" font-family="Arial" font-size="14.00" fill="#666666">[tinyint(1)]</text>
<polygon fill="none" stroke="#000000" points="1240.5,-1001.5 1240.5,-1031.5 1569.5,-1031.5 1569.5,-1001.5 1240.5,-1001.5"/>
<text text-anchor="start" x="1247.5" y="-1012.9" font-family="Arial" font-size="14.00" fill="#000000">until_year    </text>
<text text-anchor="start" x="1342.3822" y="-1012.9" font-family="Arial" font-size="14.00" fill="#666666">[smallint(4)]</text>
<polygon fill="none" stroke="#000000" points="1240.5,-971.5 1240.5,-1001.5 1569.5,-1001.5 1569.5,-971.5 1240.5,-971.5"/>
<text text-anchor="start" x="1247.5" y="-982.9" font-family="Arial" font-size="14.00" fill="#000000">until_semester    </text>
<text text-anchor="start" x="1372.716" y="-982.9" font-family="Arial" font-size="14.00" fill="#666666">[tinyint(1)]</text>
<polygon fill="none" stroke="#000000" points="1240.5,-941.5 1240.5,-971.5 1569.5,-971.5 1569.5,-941.5 1240.5,-941.5"/>
<text text-anchor="start" x="1247.5" y="-952.9" font-family="Arial" font-size="14.00" fill="#000000">created_at    </text>
<text text-anchor="start" x="1347.8422" y="-952.9" font-family="Arial" font-size="14.00" fill="#666666">[datetime(6)]</text>
<polygon fill="none" stroke="#000000" points="1240.5,-911.5 1240.5,-941.5 1569.5,-941.5 1569.5,-911.5 1240.5,-911.5"/>
<text text-anchor="start" x="1247.5" y="-922.9" font-family="Arial" font-size="14.00" fill="#000000">updated_at    </text>
<text text-anchor="start" x="1351.7468" y="-922.9" font-family="Arial" font-size="14.00" fill="#666666">[datetime(6)]</text>
</g>
<!-- group_user_belongings&#45;&gt;groups -->
<g id="edge6" class="edge">
<title>group_user_belongings:group_id&#45;&gt;groups:group_id</title>
<path fill="none" stroke="#000000" d="M1579.2831,-1103.8524C1616.641,-1081.0053 1580.3387,-916.8548 1569.5,-869 1557.4239,-815.682 1528.5761,-811.318 1516.5,-758 1507.3205,-717.471 1474.9444,-664.5 1516.5,-664.5"/>
<polygon fill="#000000" stroke="#000000" points="1579.1528,-1103.8876 1568.3244,-1102.1563 1574.3264,-1105.1938 1569.5,-1106.5 1569.5,-1106.5 1569.5,-1106.5 1574.3264,-1105.1938 1570.6756,-1110.8437 1579.1528,-1103.8876 1579.1528,-1103.8876"/>
<text text-anchor="start" x="1435.265" y="-1090.5" font-family="Arial" font-size="10.00" fill="#000000">FOREIGN KEY (group_id) REFERENCES groups (group_id)</text>
</g>
<!-- group_user_belongings&#45;&gt;users -->
<g id="edge7" class="edge">
<title>group_user_belongings:user_id&#45;&gt;users:id</title>
<path fill="none" stroke="#000000" d="M1230.3472,-1136.0354C1122.1003,-1125.4874 1278.8238,-938.0701 1187.5,-854 1130.1379,-801.1941 902.3078,-862.8044 838.5,-818 776.5181,-774.4777 840.2361,-664.5 764.5,-664.5"/>
<polygon fill="#000000" stroke="#000000" points="1230.5105,-1136.0428 1240.2942,-1140.9953 1235.5052,-1136.2714 1240.5,-1136.5 1240.5,-1136.5 1240.5,-1136.5 1235.5052,-1136.2714 1240.7058,-1132.0047 1230.5105,-1136.0428 1230.5105,-1136.0428"/>
<text text-anchor="start" x="1007.445" y="-1146.5" font-family="Arial" font-size="10.00" fill="#000000">FOREIGN KEY (user_id) REFERENCES users (id)</text>
</g>
<!-- migrations -->
<g id="node9" class="node">
<title>migrations</title>
<polygon fill="#efefef" stroke="transparent" points="2491.5,-1046.5 2491.5,-1081.5 2715.5,-1081.5 2715.5,-1046.5 2491.5,-1046.5"/>
<polygon fill="none" stroke="#000000" points="2491.5,-1046.5 2491.5,-1081.5 2715.5,-1081.5 2715.5,-1046.5 2491.5,-1046.5"/>
<text text-anchor="start" x="2498.2161" y="-1059.3" font-family="Arial Bold" font-size="18.00" fill="#000000">migrations</text>
<text text-anchor="start" x="2581.2159" y="-1059.3" font-family="Arial" font-size="14.00" fill="#000000">    </text>
<text text-anchor="start" x="2615.4207" y="-1059.3" font-family="Arial" font-size="14.00" fill="#666666">[BASE TABLE]</text>
<polygon fill="none" stroke="#000000" points="2491.5,-1016.5 2491.5,-1046.5 2715.5,-1046.5 2715.5,-1016.5 2491.5,-1016.5"/>
<text text-anchor="start" x="2498.5" y="-1027.9" font-family="Arial" font-size="14.00" fill="#000000">id    </text>
<text text-anchor="start" x="2543.594" y="-1027.9" font-family="Arial" font-size="14.00" fill="#666666">[varchar(255)]</text>
</g>
<!-- projects -->
<g id="node10" class="node">
<title>projects</title>
<polygon fill="#efefef" stroke="transparent" points="891.5,-739.5 891.5,-774.5 1098.5,-774.5 1098.5,-739.5 891.5,-739.5"/>
<polygon fill="none" stroke="#000000" points="891.5,-739.5 891.5,-774.5 1098.5,-774.5 1098.5,-739.5 891.5,-739.5"/>
<text text-anchor="start" x="899.7124" y="-752.3" font-family="Arial Bold" font-size="18.00" fill="#000000">projects</text>
<text text-anchor="start" x="962.7196" y="-752.3" font-family="Arial" font-size="14.00" fill="#000000">    </text>
<text text-anchor="start" x="996.9244" y="-752.3" font-family="Arial" font-size="14.00" fill="#666666">[BASE TABLE]</text>
<polygon fill="none" stroke="#000000" points="891.5,-709.5 891.5,-739.5 1098.5,-739.5 1098.5,-709.5 891.5,-709.5"/>
<text text-anchor="start" x="898.5" y="-720.9" font-family="Arial" font-size="14.00" fill="#000000">id    </text>
<text text-anchor="start" x="943.594" y="-720.9" font-family="Arial" font-size="14.00" fill="#666666">[char(36)]</text>
<polygon fill="none" stroke="#000000" points="891.5,-679.5 891.5,-709.5 1098.5,-709.5 1098.5,-679.5 891.5,-679.5"/>
<text text-anchor="start" x="898.5" y="-690.9" font-family="Arial" font-size="14.00" fill="#000000">name    </text>
<text text-anchor="start" x="967.7132" y="-690.9" font-family="Arial" font-size="14.00" fill="#666666">[varchar(32)]</text>
<polygon fill="none" stroke="#000000" points="891.5,-649.5 891.5,-679.5 1098.5,-679.5 1098.5,-649.5 891.5,-649.5"/>
<text text-anchor="start" x="898.5" y="-660.9" font-family="Arial" font-size="14.00" fill="#000000">description    </text>
<text text-anchor="start" x="1000.3822" y="-660.9" font-family="Arial" font-size="14.00" fill="#666666">[text]</text>
<polygon fill="none" stroke="#000000" points="891.5,-619.5 891.5,-649.5 1098.5,-649.5 1098.5,-619.5 891.5,-619.5"/>
<text text-anchor="start" x="898.5" y="-630.9" font-family="Arial" font-size="14.00" fill="#000000">link    </text>
<text text-anchor="start" x="953.7006" y="-630.9" font-family="Arial" font-size="14.00" fill="#666666">[text]</text>
<polygon fill="none" stroke="#000000" points="891.5,-589.5 891.5,-619.5 1098.5,-619.5 1098.5,-589.5 891.5,-589.5"/>
<text text-anchor="start" x="898.5" y="-600.9" font-family="Arial" font-size="14.00" fill="#000000">since_year    </text>
<text text-anchor="start" x="1000.385" y="-600.9" font-family="Arial" font-size="14.00" fill="#666666">[smallint(4)]</text>
<polygon fill="none" stroke="#000000" points="891.5,-559.5 891.5,-589.5 1098.5,-589.5 1098.5,-559.5 891.5,-559.5"/>
<text text-anchor="start" x="898.1683" y="-570.9" font-family="Arial" font-size="14.00" fill="#000000">since_semester    </text>
<text text-anchor="start" x="1030.3871" y="-570.9" font-family="Arial" font-size="14.00" fill="#666666">[tinyint(1)]</text>
<polygon fill="none" stroke="#000000" points="891.5,-529.5 891.5,-559.5 1098.5,-559.5 1098.5,-529.5 891.5,-529.5"/>
<text text-anchor="start" x="898.5" y="-540.9" font-family="Arial" font-size="14.00" fill="#000000">until_year    </text>
<text text-anchor="start" x="993.3822" y="-540.9" font-family="Arial" font-size="14.00" fill="#666666">[smallint(4)]</text>
<polygon fill="none" stroke="#000000" points="891.5,-499.5 891.5,-529.5 1098.5,-529.5 1098.5,-499.5 891.5,-499.5"/>
<text text-anchor="start" x="898.5" y="-510.9" font-family="Arial" font-size="14.00" fill="#000000">until_semester    </text>
<text text-anchor="start" x="1023.716" y="-510.9" font-family="Arial" font-size="14.00" fill="#666666">[tinyint(1)]</text>
<polygon fill="none" stroke="#000000" points="891.5,-469.5 891.5,-499.5 1098.5,-499.5 1098.5,-469.5 891.5,-469.5"/>
<text text-anchor="start" x="898.5" y="-480.9" font-family="Arial" font-size="14.00" fill="#000000">created_at    </text>
<text text-anchor="start" x="998.8422" y="-480.9" font-family="Arial" font-size="14.00" fill="#666666">[datetime(6)]</text>
<polygon fill="none" stroke="#000000" points="891.5,-439.5 891.5,-469.5 1098.5,-469.5 1098.5,-439.5 891.5,-439.5"/>
<text text-anchor="start" x="898.5" y="-450.9" font-family="Arial" font-size="14.00" fill="#000000">updated_at    </text>
<text text-anchor="start" x="1002.7468" y="-450.9" font-family="Arial" font-size="14.00" fill="#666666">[datetime(6)]</text>
</g>
<!-- project_members -->
<g id="node11" class="node">
<title>project_members</title>
<polygon fill="#efefef" stroke="transparent" points="855.5,-1166.5 855.5,-1201.5 1135.5,-1201.5 1135.5,-1166.5 855.5,-1166.5"/>
<polygon fill="none" stroke="#000000" points="855.5,-1166.5 855.5,-1201.5 1135.5,-1201.5 1135.5,-1166.5 855.5,-1166.5"/>
<text text-anchor="start" x="862.2117" y="-1179.3" font-family="Arial Bold" font-size="18.00" fill="#000000">project_members</text>
<text text-anchor="start" x="1001.2203" y="-1179.3" font-family="Arial" font-size="14.00" fill="#000000">    </text>
<text text-anchor="start" x="1035.4251" y="-1179.3" font-family="Arial" font-size="14.00" fill="#666666">[BASE TABLE]</text>
<polygon fill="none" stroke="#000000" points="855.5,-1136.5 855.5,-1166.5 1135.5,-1166.5 1135.5,-1136.5 855.5,-1136.5"/>
<text text-anchor="start" x="862.5" y="-1147.9" font-family="Arial" font-size="14.00" fill="#000000">id    </text>
<text text-anchor="start" x="907.594" y="-1147.9" font-family="Arial" font-size="14.00" fill="#666666">[char(36)]</text>
<polygon fill="none" stroke="#000000" points="855.5,-1106.5 855.5,-1136.5 1135.5,-1136.5 1135.5,-1106.5 855.5,-1106.5"/>
<text text-anchor="start" x="862.5" y="-1117.9" font-family="Arial" font-size="14.00" fill="#000000">project_id    </text>
<text text-anchor="start" x="957.3822" y="-1117.9" font-family="Arial" font-size="14.00" fill="#666666">[char(36)]</text>
<polygon fill="none" stroke="#000000" points="855.5,-1076.5 855.5,-1106.5 1135.5,-1106.5 1135.5,-1076.5 855.5,-1076.5"/>
<text text-anchor="start" x="862.5" y="-1087.9" font-family="Arial" font-size="14.00" fill="#000000">user_id    </text>
<text text-anchor="start" x="942.6024" y="-1087.9" font-family="Arial" font-size="14.00" fill="#666666">[char(36)]</text>
<polygon fill="none" stroke="#000000" points="855.5,-1046.5 855.5,-1076.5 1135.5,-1076.5 1135.5,-1046.5 855.5,-1046.5"/>
<text text-anchor="start" x="862.5" y="-1057.9" font-family="Arial" font-size="14.00" fill="#000000">since_year    </text>
<text text-anchor="start" x="964.385" y="-1057.9" font-family="Arial" font-size="14.00" fill="#666666">[smallint(4)]</text>
<polygon fill="none" stroke="#000000" points="855.5,-1016.5 855.5,-1046.5 1135.5,-1046.5 1135.5,-1016.5 855.5,-1016.5"/>
<text text-anchor="start" x="862.5" y="-1027.9" font-family="Arial" font-size="14.00" fill="#000000">since_semester    </text>
<text text-anchor="start" x="994.7188" y="-1027.9" font-family="Arial" font-size="14.00" fill="#666666">[tinyint(1)]</text>
<polygon fill="none" stroke="#000000" points="855.5,-986.5 855.5,-1016.5 1135.5,-1016.5 1135.5,-986.5 855.5,-986.5"/>
<text text-anchor="start" x="862.5" y="-997.9" font-family="Arial" font-size="14.00" fill="#000000">until_year    </text>
<text text-anchor="start" x="957.3822" y="-997.9" font-family="Arial" font-size="14.00" fill="#666666">[smallint(4)]</text>
<polygon fill="none" stroke="#000000" points="855.5,-956.5 855.5,-986.5 1135.5,-986.5 1135.5,-956.5 855.5,-956.5"/>
<text text-anchor="start" x="862.5" y="-967.9" font-family="Arial" font-size="14.00" fill="#000000">until_semester    </text>
<text text-anchor="start" x="987.716" y="-967.9" font-family="Arial" font-size="14.00" fill="#666666">[tinyint(1)]</text>
<polygon fill="none" stroke="#000000" points="855.5,-926.5 855.5,-956.5 1135.5,-956.5 1135.5,-926.5 855.5,-926.5"/>
<text text-anchor="start" x="862.5" y="-937.9" font-family="Arial" font-size="14.00" fill="#000000">created_at    </text>
<text text-anchor="start" x="962.8422" y="-937.9" font-family="Arial" font-size="14.00" fill="#666666">[datetime(6)]</text>
<polygon fill="none" stroke="#000000" points="855.5,-896.5 855.5,-926.5 1135.5,-926.5 1135.5,-896.5 855.5,-896.5"/>
<text text-anchor="start" x="862.5" y="-907.9" font-family="Arial" font-size="14.00" fill="#000000">updated_at    </text>
<text text-anchor="start" x="966.7468" y="-907.9" font-family="Arial" font-size="14.00" fill="#666666">[datetime(6)]</text>
</g>
<!-- project_members&#45;&gt;projects -->
<g id="edge8" class="edge">
<title>project_members:project_id&#45;&gt;projects:id</title>
<path fill="none" stroke="#000000" d="M845.5692,-1119.1419C798.6184,-1095.2083 819.0195,-896.2832 855.5,-854 926.8202,-771.3354 1027.1798,-900.6646 1098.5,-818 1125.6459,-786.5363 1140.0556,-724.5 1098.5,-724.5"/>
<polygon fill="#000000" stroke="#000000" points="845.7705,-1119.1896 854.4603,-1125.8783 850.6353,-1120.3448 855.5,-1121.5 855.5,-1121.5 855.5,-1121.5 850.6353,-1120.3448 856.5397,-1117.1217 845.7705,-1119.1896 845.7705,-1119.1896"/>
<text text-anchor="start" x="862.888" y="-1105.5" font-family="Arial" font-size="10.00" fill="#000000">FOREIGN KEY (project_id) REFERENCES projects (id)</text>
</g>
<!-- project_members&#45;&gt;users -->
<g id="edge9" class="edge">
<title>project_members:user_id&#45;&gt;users:id</title>
<path fill="none" stroke="#000000" d="M845.505,-1089.7796C765.8522,-1060.3966 857.9194,-664.5 764.5,-664.5"/>
<polygon fill="#000000" stroke="#000000" points="845.6449,-1089.8036 854.7366,-1095.9348 850.5725,-1090.6518 855.5,-1091.5 855.5,-1091.5 855.5,-1091.5 850.5725,-1090.6518 856.2634,-1087.0652 845.6449,-1089.8036 845.6449,-1089.8036"/>
<text text-anchor="start" x="802.445" y="-1075.5" font-family="Arial" font-size="10.00" fill="#000000">FOREIGN KEY (user_id) REFERENCES users (id)</text>
</g>
</g>
</svg>
