<?xml version="1.0" encoding="UTF-8" standalone="no"?>
<!DOCTYPE svg PUBLIC "-//W3C//DTD SVG 1.1//EN"
 "http://www.w3.org/Graphics/SVG/1.1/DTD/svg11.dtd">
<!-- Generated by graphviz version 2.40.1 (20161225.0304)
 -->
<!-- Title: portfolio Pages: 1 -->
<svg width="2941pt" height="369pt"
 viewBox="0.00 0.00 2940.50 369.00" xmlns="http://www.w3.org/2000/svg" xmlns:xlink="http://www.w3.org/1999/xlink">
<g id="graph0" class="graph" transform="scale(1 1) rotate(0) translate(4 365)">
<title>portfolio</title>
<polygon fill="#ffffff" stroke="transparent" points="-4,4 -4,-365 2936.5,-365 2936.5,4 -4,4"/>
<!-- accounts -->
<g id="node1" class="node">
<title>accounts</title>
<polygon fill="#efefef" stroke="transparent" points="43.5,-282.5 43.5,-317.5 226.5,-317.5 226.5,-282.5 43.5,-282.5"/>
<polygon fill="none" stroke="#000000" points="43.5,-282.5 43.5,-317.5 226.5,-317.5 226.5,-282.5 43.5,-282.5"/>
<text text-anchor="start" x="50.3596" y="-295.3" font-family="Arial Bold" font-size="18.00" fill="#000000">accounts</text>
<text text-anchor="start" x="122.3866" y="-295.3" font-family="Arial" font-size="14.00" fill="#000000"> </text>
<text text-anchor="start" x="126.2772" y="-295.3" font-family="Arial" font-size="14.00" fill="#666666">[BASE TABLE]</text>
<polygon fill="none" stroke="#000000" points="43.5,-252.5 43.5,-282.5 226.5,-282.5 226.5,-252.5 43.5,-252.5"/>
<text text-anchor="start" x="50.5" y="-263.9" font-family="Arial" font-size="14.00" fill="#000000">id </text>
<text text-anchor="start" x="65.2798" y="-263.9" font-family="Arial" font-size="14.00" fill="#666666">[char(36)]</text>
<polygon fill="none" stroke="#000000" points="43.5,-222.5 43.5,-252.5 226.5,-252.5 226.5,-222.5 43.5,-222.5"/>
<text text-anchor="start" x="50.5" y="-233.9" font-family="Arial" font-size="14.00" fill="#000000">type </text>
<text text-anchor="start" x="80.8464" y="-233.9" font-family="Arial" font-size="14.00" fill="#666666">[tinyint(1)]</text>
<polygon fill="none" stroke="#000000" points="43.5,-192.5 43.5,-222.5 226.5,-222.5 226.5,-192.5 43.5,-192.5"/>
<text text-anchor="start" x="50.5" y="-203.9" font-family="Arial" font-size="14.00" fill="#000000">name </text>
<text text-anchor="start" x="89.399" y="-203.9" font-family="Arial" font-size="14.00" fill="#666666">[varchar(32)]</text>
<polygon fill="none" stroke="#000000" points="43.5,-162.5 43.5,-192.5 226.5,-192.5 226.5,-162.5 43.5,-162.5"/>
<text text-anchor="start" x="50.5" y="-173.9" font-family="Arial" font-size="14.00" fill="#000000">url </text>
<text text-anchor="start" x="69.9404" y="-173.9" font-family="Arial" font-size="14.00" fill="#666666">[text]</text>
<polygon fill="none" stroke="#000000" points="43.5,-132.5 43.5,-162.5 226.5,-162.5 226.5,-132.5 43.5,-132.5"/>
<text text-anchor="start" x="50.5" y="-143.9" font-family="Arial" font-size="14.00" fill="#000000">user_id </text>
<text text-anchor="start" x="100.2882" y="-143.9" font-family="Arial" font-size="14.00" fill="#666666">[char(36)]</text>
<polygon fill="none" stroke="#000000" points="43.5,-102.5 43.5,-132.5 226.5,-132.5 226.5,-102.5 43.5,-102.5"/>
<text text-anchor="start" x="50.5" y="-113.9" font-family="Arial" font-size="14.00" fill="#000000">check </text>
<text text-anchor="start" x="90.9558" y="-113.9" font-family="Arial" font-size="14.00" fill="#666666">[tinyint(1)]</text>
<polygon fill="none" stroke="#000000" points="43.5,-72.5 43.5,-102.5 226.5,-102.5 226.5,-72.5 43.5,-72.5"/>
<text text-anchor="start" x="50.5" y="-83.9" font-family="Arial" font-size="14.00" fill="#000000">created_at </text>
<text text-anchor="start" x="120.528" y="-83.9" font-family="Arial" font-size="14.00" fill="#666666">[datetime(6)]</text>
<polygon fill="none" stroke="#000000" points="43.5,-42.5 43.5,-72.5 226.5,-72.5 226.5,-42.5 43.5,-42.5"/>
<text text-anchor="start" x="50.5" y="-53.9" font-family="Arial" font-size="14.00" fill="#000000">updated_at </text>
<text text-anchor="start" x="124.4326" y="-53.9" font-family="Arial" font-size="14.00" fill="#666666">[datetime(6)]</text>
</g>
<!-- contest_team_user_belongings -->
<g id="node2" class="node">
<title>contest_team_user_belongings</title>
<polygon fill="#efefef" stroke="transparent" points="330.5,-222.5 330.5,-257.5 691.5,-257.5 691.5,-222.5 330.5,-222.5"/>
<polygon fill="none" stroke="#000000" points="330.5,-222.5 330.5,-257.5 691.5,-257.5 691.5,-222.5 330.5,-222.5"/>
<text text-anchor="start" x="337.3307" y="-235.3" font-family="Arial Bold" font-size="18.00" fill="#000000">contest_team_user_belongings</text>
<text text-anchor="start" x="587.4155" y="-235.3" font-family="Arial" font-size="14.00" fill="#000000"> </text>
<text text-anchor="start" x="591.3061" y="-235.3" font-family="Arial" font-size="14.00" fill="#666666">[BASE TABLE]</text>
<polygon fill="none" stroke="#000000" points="330.5,-192.5 330.5,-222.5 691.5,-222.5 691.5,-192.5 330.5,-192.5"/>
<text text-anchor="start" x="337.5" y="-203.9" font-family="Arial" font-size="14.00" fill="#000000">team_id </text>
<text text-anchor="start" x="391.1788" y="-203.9" font-family="Arial" font-size="14.00" fill="#666666">[char(36)]</text>
<polygon fill="none" stroke="#000000" points="330.5,-162.5 330.5,-192.5 691.5,-192.5 691.5,-162.5 330.5,-162.5"/>
<text text-anchor="start" x="337.5" y="-173.9" font-family="Arial" font-size="14.00" fill="#000000">user_id </text>
<text text-anchor="start" x="387.2882" y="-173.9" font-family="Arial" font-size="14.00" fill="#666666">[char(36)]</text>
<polygon fill="none" stroke="#000000" points="330.5,-132.5 330.5,-162.5 691.5,-162.5 691.5,-132.5 330.5,-132.5"/>
<text text-anchor="start" x="337.5" y="-143.9" font-family="Arial" font-size="14.00" fill="#000000">created_at </text>
<text text-anchor="start" x="407.528" y="-143.9" font-family="Arial" font-size="14.00" fill="#666666">[datetime(6)]</text>
<polygon fill="none" stroke="#000000" points="330.5,-102.5 330.5,-132.5 691.5,-132.5 691.5,-102.5 330.5,-102.5"/>
<text text-anchor="start" x="337.5" y="-113.9" font-family="Arial" font-size="14.00" fill="#000000">updated_at </text>
<text text-anchor="start" x="411.4326" y="-113.9" font-family="Arial" font-size="14.00" fill="#666666">[datetime(6)]</text>
</g>
<!-- contest_teams -->
<g id="node3" class="node">
<title>contest_teams</title>
<polygon fill="#efefef" stroke="transparent" points="795.5,-282.5 795.5,-317.5 1023.5,-317.5 1023.5,-282.5 795.5,-282.5"/>
<polygon fill="none" stroke="#000000" points="795.5,-282.5 795.5,-317.5 1023.5,-317.5 1023.5,-282.5 795.5,-282.5"/>
<text text-anchor="start" x="802.3551" y="-295.3" font-family="Arial Bold" font-size="18.00" fill="#000000">contest_teams</text>
<text text-anchor="start" x="919.3911" y="-295.3" font-family="Arial" font-size="14.00" fill="#000000"> </text>
<text text-anchor="start" x="923.2817" y="-295.3" font-family="Arial" font-size="14.00" fill="#666666">[BASE TABLE]</text>
<polygon fill="none" stroke="#000000" points="795.5,-252.5 795.5,-282.5 1023.5,-282.5 1023.5,-252.5 795.5,-252.5"/>
<text text-anchor="start" x="802.5" y="-263.9" font-family="Arial" font-size="14.00" fill="#000000">id </text>
<text text-anchor="start" x="817.2798" y="-263.9" font-family="Arial" font-size="14.00" fill="#666666">[char(36)]</text>
<polygon fill="none" stroke="#000000" points="795.5,-222.5 795.5,-252.5 1023.5,-252.5 1023.5,-222.5 795.5,-222.5"/>
<text text-anchor="start" x="802.5" y="-233.9" font-family="Arial" font-size="14.00" fill="#000000">contest_id </text>
<text text-anchor="start" x="870.1914" y="-233.9" font-family="Arial" font-size="14.00" fill="#666666">[char(36)]</text>
<polygon fill="none" stroke="#000000" points="795.5,-192.5 795.5,-222.5 1023.5,-222.5 1023.5,-192.5 795.5,-192.5"/>
<text text-anchor="start" x="802.5" y="-203.9" font-family="Arial" font-size="14.00" fill="#000000">name </text>
<text text-anchor="start" x="841.399" y="-203.9" font-family="Arial" font-size="14.00" fill="#666666">[varchar(32)]</text>
<polygon fill="none" stroke="#000000" points="795.5,-162.5 795.5,-192.5 1023.5,-192.5 1023.5,-162.5 795.5,-162.5"/>
<text text-anchor="start" x="802.5" y="-173.9" font-family="Arial" font-size="14.00" fill="#000000">description </text>
<text text-anchor="start" x="874.068" y="-173.9" font-family="Arial" font-size="14.00" fill="#666666">[text]</text>
<polygon fill="none" stroke="#000000" points="795.5,-132.5 795.5,-162.5 1023.5,-162.5 1023.5,-132.5 795.5,-132.5"/>
<text text-anchor="start" x="802.5" y="-143.9" font-family="Arial" font-size="14.00" fill="#000000">result </text>
<text text-anchor="start" x="840.6136" y="-143.9" font-family="Arial" font-size="14.00" fill="#666666">[text]</text>
<polygon fill="none" stroke="#000000" points="795.5,-102.5 795.5,-132.5 1023.5,-132.5 1023.5,-102.5 795.5,-102.5"/>
<text text-anchor="start" x="802.5" y="-113.9" font-family="Arial" font-size="14.00" fill="#000000">link </text>
<text text-anchor="start" x="827.3864" y="-113.9" font-family="Arial" font-size="14.00" fill="#666666">[text]</text>
<polygon fill="none" stroke="#000000" points="795.5,-72.5 795.5,-102.5 1023.5,-102.5 1023.5,-72.5 795.5,-72.5"/>
<text text-anchor="start" x="802.5" y="-83.9" font-family="Arial" font-size="14.00" fill="#000000">created_at </text>
<text text-anchor="start" x="872.528" y="-83.9" font-family="Arial" font-size="14.00" fill="#666666">[datetime(6)]</text>
<polygon fill="none" stroke="#000000" points="795.5,-42.5 795.5,-72.5 1023.5,-72.5 1023.5,-42.5 795.5,-42.5"/>
<text text-anchor="start" x="802.5" y="-53.9" font-family="Arial" font-size="14.00" fill="#000000">updated_at </text>
<text text-anchor="start" x="876.4326" y="-53.9" font-family="Arial" font-size="14.00" fill="#666666">[datetime(6)]</text>
</g>
<!-- contests -->
<g id="node4" class="node">
<title>contests</title>
<polygon fill="#efefef" stroke="transparent" points="1127.5,-282.5 1127.5,-317.5 1305.5,-317.5 1305.5,-282.5 1127.5,-282.5"/>
<polygon fill="none" stroke="#000000" points="1127.5,-282.5 1127.5,-317.5 1305.5,-317.5 1305.5,-282.5 1127.5,-282.5"/>
<text text-anchor="start" x="1134.3616" y="-295.3" font-family="Arial Bold" font-size="18.00" fill="#000000">contests</text>
<text text-anchor="start" x="1201.3846" y="-295.3" font-family="Arial" font-size="14.00" fill="#000000"> </text>
<text text-anchor="start" x="1205.2752" y="-295.3" font-family="Arial" font-size="14.00" fill="#666666">[BASE TABLE]</text>
<polygon fill="none" stroke="#000000" points="1127.5,-252.5 1127.5,-282.5 1305.5,-282.5 1305.5,-252.5 1127.5,-252.5"/>
<text text-anchor="start" x="1134.5" y="-263.9" font-family="Arial" font-size="14.00" fill="#000000">id </text>
<text text-anchor="start" x="1149.2798" y="-263.9" font-family="Arial" font-size="14.00" fill="#666666">[char(36)]</text>
<polygon fill="none" stroke="#000000" points="1127.5,-222.5 1127.5,-252.5 1305.5,-252.5 1305.5,-222.5 1127.5,-222.5"/>
<text text-anchor="start" x="1134.5" y="-233.9" font-family="Arial" font-size="14.00" fill="#000000">name </text>
<text text-anchor="start" x="1173.399" y="-233.9" font-family="Arial" font-size="14.00" fill="#666666">[varchar(32)]</text>
<polygon fill="none" stroke="#000000" points="1127.5,-192.5 1127.5,-222.5 1305.5,-222.5 1305.5,-192.5 1127.5,-192.5"/>
<text text-anchor="start" x="1134.5" y="-203.9" font-family="Arial" font-size="14.00" fill="#000000">description </text>
<text text-anchor="start" x="1206.068" y="-203.9" font-family="Arial" font-size="14.00" fill="#666666">[text]</text>
<polygon fill="none" stroke="#000000" points="1127.5,-162.5 1127.5,-192.5 1305.5,-192.5 1305.5,-162.5 1127.5,-162.5"/>
<text text-anchor="start" x="1134.5" y="-173.9" font-family="Arial" font-size="14.00" fill="#000000">link </text>
<text text-anchor="start" x="1159.3864" y="-173.9" font-family="Arial" font-size="14.00" fill="#666666">[text]</text>
<polygon fill="none" stroke="#000000" points="1127.5,-132.5 1127.5,-162.5 1305.5,-162.5 1305.5,-132.5 1127.5,-132.5"/>
<text text-anchor="start" x="1134.5" y="-143.9" font-family="Arial" font-size="14.00" fill="#000000">since </text>
<text text-anchor="start" x="1171.0624" y="-143.9" font-family="Arial" font-size="14.00" fill="#666666">[datetime(6)]</text>
<polygon fill="none" stroke="#000000" points="1127.5,-102.5 1127.5,-132.5 1305.5,-132.5 1305.5,-102.5 1127.5,-102.5"/>
<text text-anchor="start" x="1134.5" y="-113.9" font-family="Arial" font-size="14.00" fill="#000000">until </text>
<text text-anchor="start" x="1164.0596" y="-113.9" font-family="Arial" font-size="14.00" fill="#666666">[datetime(6)]</text>
<polygon fill="none" stroke="#000000" points="1127.5,-72.5 1127.5,-102.5 1305.5,-102.5 1305.5,-72.5 1127.5,-72.5"/>
<text text-anchor="start" x="1134.5" y="-83.9" font-family="Arial" font-size="14.00" fill="#000000">created_at </text>
<text text-anchor="start" x="1204.528" y="-83.9" font-family="Arial" font-size="14.00" fill="#666666">[datetime(6)]</text>
<polygon fill="none" stroke="#000000" points="1127.5,-42.5 1127.5,-72.5 1305.5,-72.5 1305.5,-42.5 1127.5,-42.5"/>
<text text-anchor="start" x="1134.5" y="-53.9" font-family="Arial" font-size="14.00" fill="#000000">updated_at </text>
<text text-anchor="start" x="1208.4326" y="-53.9" font-family="Arial" font-size="14.00" fill="#666666">[datetime(6)]</text>
</g>
<!-- event_level_relations -->
<g id="node5" class="node">
<title>event_level_relations</title>
<polygon fill="#efefef" stroke="transparent" points="1409.5,-192.5 1409.5,-227.5 1689.5,-227.5 1689.5,-192.5 1409.5,-192.5"/>
<polygon fill="none" stroke="#000000" points="1409.5,-192.5 1409.5,-227.5 1689.5,-227.5 1689.5,-192.5 1409.5,-192.5"/>
<text text-anchor="start" x="1416.3523" y="-205.3" font-family="Arial Bold" font-size="18.00" fill="#000000">event_level_relations</text>
<text text-anchor="start" x="1585.3939" y="-205.3" font-family="Arial" font-size="14.00" fill="#000000"> </text>
<text text-anchor="start" x="1589.2845" y="-205.3" font-family="Arial" font-size="14.00" fill="#666666">[BASE TABLE]</text>
<polygon fill="none" stroke="#000000" points="1409.5,-162.5 1409.5,-192.5 1689.5,-192.5 1689.5,-162.5 1409.5,-162.5"/>
<text text-anchor="start" x="1416.5" y="-173.9" font-family="Arial" font-size="14.00" fill="#000000">id </text>
<text text-anchor="start" x="1431.2798" y="-173.9" font-family="Arial" font-size="14.00" fill="#666666">[char(36)]</text>
<polygon fill="none" stroke="#000000" points="1409.5,-132.5 1409.5,-162.5 1689.5,-162.5 1689.5,-132.5 1409.5,-132.5"/>
<text text-anchor="start" x="1416.5" y="-143.9" font-family="Arial" font-size="14.00" fill="#000000">level </text>
<text text-anchor="start" x="1449.169" y="-143.9" font-family="Arial" font-size="14.00" fill="#666666">[tinyint(3) unsigned]</text>
</g>
<!-- migrations -->
<g id="node6" class="node">
<title>migrations</title>
<polygon fill="#efefef" stroke="transparent" points="1793.5,-177.5 1793.5,-212.5 1987.5,-212.5 1987.5,-177.5 1793.5,-177.5"/>
<polygon fill="none" stroke="#000000" points="1793.5,-177.5 1793.5,-212.5 1987.5,-212.5 1987.5,-177.5 1793.5,-177.5"/>
<text text-anchor="start" x="1800.3732" y="-190.3" font-family="Arial Bold" font-size="18.00" fill="#000000">migrations</text>
<text text-anchor="start" x="1883.373" y="-190.3" font-family="Arial" font-size="14.00" fill="#000000"> </text>
<text text-anchor="start" x="1887.2636" y="-190.3" font-family="Arial" font-size="14.00" fill="#666666">[BASE TABLE]</text>
<polygon fill="none" stroke="#000000" points="1793.5,-147.5 1793.5,-177.5 1987.5,-177.5 1987.5,-147.5 1793.5,-147.5"/>
<text text-anchor="start" x="1800.5" y="-158.9" font-family="Arial" font-size="14.00" fill="#000000">id </text>
<text text-anchor="start" x="1815.2798" y="-158.9" font-family="Arial" font-size="14.00" fill="#666666">[varchar(255)]</text>
</g>
<!-- project_members -->
<g id="node7" class="node">
<title>project_members</title>
<polygon fill="#efefef" stroke="transparent" points="2091.5,-222.5 2091.5,-257.5 2341.5,-257.5 2341.5,-222.5 2091.5,-222.5"/>
<polygon fill="none" stroke="#000000" points="2091.5,-222.5 2091.5,-257.5 2341.5,-257.5 2341.5,-222.5 2091.5,-222.5"/>
<text text-anchor="start" x="2098.3688" y="-235.3" font-family="Arial Bold" font-size="18.00" fill="#000000">project_members</text>
<text text-anchor="start" x="2237.3774" y="-235.3" font-family="Arial" font-size="14.00" fill="#000000"> </text>
<text text-anchor="start" x="2241.268" y="-235.3" font-family="Arial" font-size="14.00" fill="#666666">[BASE TABLE]</text>
<polygon fill="none" stroke="#000000" points="2091.5,-192.5 2091.5,-222.5 2341.5,-222.5 2341.5,-192.5 2091.5,-192.5"/>
<text text-anchor="start" x="2098.5" y="-203.9" font-family="Arial" font-size="14.00" fill="#000000">project_id </text>
<text text-anchor="start" x="2163.068" y="-203.9" font-family="Arial" font-size="14.00" fill="#666666">[char(36)]</text>
<polygon fill="none" stroke="#000000" points="2091.5,-162.5 2091.5,-192.5 2341.5,-192.5 2341.5,-162.5 2091.5,-162.5"/>
<text text-anchor="start" x="2098.5" y="-173.9" font-family="Arial" font-size="14.00" fill="#000000">user_id </text>
<text text-anchor="start" x="2148.2882" y="-173.9" font-family="Arial" font-size="14.00" fill="#666666">[char(36)]</text>
<polygon fill="none" stroke="#000000" points="2091.5,-132.5 2091.5,-162.5 2341.5,-162.5 2341.5,-132.5 2091.5,-132.5"/>
<text text-anchor="start" x="2098.5" y="-143.9" font-family="Arial" font-size="14.00" fill="#000000">since </text>
<text text-anchor="start" x="2135.0624" y="-143.9" font-family="Arial" font-size="14.00" fill="#666666">[datetime(6)]</text>
<polygon fill="none" stroke="#000000" points="2091.5,-102.5 2091.5,-132.5 2341.5,-132.5 2341.5,-102.5 2091.5,-102.5"/>
<text text-anchor="start" x="2098.5" y="-113.9" font-family="Arial" font-size="14.00" fill="#000000">until </text>
<text text-anchor="start" x="2128.0596" y="-113.9" font-family="Arial" font-size="14.00" fill="#666666">[datetime(6)]</text>
</g>
<!-- projects -->
<g id="node8" class="node">
<title>projects</title>
<polygon fill="#efefef" stroke="transparent" points="2445.5,-282.5 2445.5,-317.5 2619.5,-317.5 2619.5,-282.5 2445.5,-282.5"/>
<polygon fill="none" stroke="#000000" points="2445.5,-282.5 2445.5,-317.5 2619.5,-317.5 2619.5,-282.5 2445.5,-282.5"/>
<text text-anchor="start" x="2452.3695" y="-295.3" font-family="Arial Bold" font-size="18.00" fill="#000000">projects</text>
<text text-anchor="start" x="2515.3767" y="-295.3" font-family="Arial" font-size="14.00" fill="#000000"> </text>
<text text-anchor="start" x="2519.2673" y="-295.3" font-family="Arial" font-size="14.00" fill="#666666">[BASE TABLE]</text>
<polygon fill="none" stroke="#000000" points="2445.5,-252.5 2445.5,-282.5 2619.5,-282.5 2619.5,-252.5 2445.5,-252.5"/>
<text text-anchor="start" x="2452.5" y="-263.9" font-family="Arial" font-size="14.00" fill="#000000">id </text>
<text text-anchor="start" x="2467.2798" y="-263.9" font-family="Arial" font-size="14.00" fill="#666666">[char(36)]</text>
<polygon fill="none" stroke="#000000" points="2445.5,-222.5 2445.5,-252.5 2619.5,-252.5 2619.5,-222.5 2445.5,-222.5"/>
<text text-anchor="start" x="2452.5" y="-233.9" font-family="Arial" font-size="14.00" fill="#000000">name </text>
<text text-anchor="start" x="2491.399" y="-233.9" font-family="Arial" font-size="14.00" fill="#666666">[varchar(32)]</text>
<polygon fill="none" stroke="#000000" points="2445.5,-192.5 2445.5,-222.5 2619.5,-222.5 2619.5,-192.5 2445.5,-192.5"/>
<text text-anchor="start" x="2452.5" y="-203.9" font-family="Arial" font-size="14.00" fill="#000000">description </text>
<text text-anchor="start" x="2524.068" y="-203.9" font-family="Arial" font-size="14.00" fill="#666666">[text]</text>
<polygon fill="none" stroke="#000000" points="2445.5,-162.5 2445.5,-192.5 2619.5,-192.5 2619.5,-162.5 2445.5,-162.5"/>
<text text-anchor="start" x="2452.5" y="-173.9" font-family="Arial" font-size="14.00" fill="#000000">link </text>
<text text-anchor="start" x="2477.3864" y="-173.9" font-family="Arial" font-size="14.00" fill="#666666">[text]</text>
<polygon fill="none" stroke="#000000" points="2445.5,-132.5 2445.5,-162.5 2619.5,-162.5 2619.5,-132.5 2445.5,-132.5"/>
<text text-anchor="start" x="2452.5" y="-143.9" font-family="Arial" font-size="14.00" fill="#000000">since </text>
<text text-anchor="start" x="2489.0624" y="-143.9" font-family="Arial" font-size="14.00" fill="#666666">[datetime(6)]</text>
<polygon fill="none" stroke="#000000" points="2445.5,-102.5 2445.5,-132.5 2619.5,-132.5 2619.5,-102.5 2445.5,-102.5"/>
<text text-anchor="start" x="2452.5" y="-113.9" font-family="Arial" font-size="14.00" fill="#000000">until </text>
<text text-anchor="start" x="2482.0596" y="-113.9" font-family="Arial" font-size="14.00" fill="#666666">[datetime(6)]</text>
<polygon fill="none" stroke="#000000" points="2445.5,-72.5 2445.5,-102.5 2619.5,-102.5 2619.5,-72.5 2445.5,-72.5"/>
<text text-anchor="start" x="2452.5" y="-83.9" font-family="Arial" font-size="14.00" fill="#000000">created_at </text>
<text text-anchor="start" x="2522.528" y="-83.9" font-family="Arial" font-size="14.00" fill="#666666">[datetime(6)]</text>
<polygon fill="none" stroke="#000000" points="2445.5,-42.5 2445.5,-72.5 2619.5,-72.5 2619.5,-42.5 2445.5,-42.5"/>
<text text-anchor="start" x="2452.5" y="-53.9" font-family="Arial" font-size="14.00" fill="#000000">updated_at </text>
<text text-anchor="start" x="2526.4326" y="-53.9" font-family="Arial" font-size="14.00" fill="#666666">[datetime(6)]</text>
</g>
<!-- users -->
<g id="node9" class="node">
<title>users</title>
<polygon fill="#efefef" stroke="transparent" points="2723.5,-252.5 2723.5,-287.5 2889.5,-287.5 2889.5,-252.5 2723.5,-252.5"/>
<polygon fill="none" stroke="#000000" points="2723.5,-252.5 2723.5,-287.5 2889.5,-287.5 2889.5,-252.5 2723.5,-252.5"/>
<text text-anchor="start" x="2735.8708" y="-265.3" font-family="Arial Bold" font-size="18.00" fill="#000000">users</text>
<text text-anchor="start" x="2779.8754" y="-265.3" font-family="Arial" font-size="14.00" fill="#000000"> </text>
<text text-anchor="start" x="2783.766" y="-265.3" font-family="Arial" font-size="14.00" fill="#666666">[BASE TABLE]</text>
<polygon fill="none" stroke="#000000" points="2723.5,-222.5 2723.5,-252.5 2889.5,-252.5 2889.5,-222.5 2723.5,-222.5"/>
<text text-anchor="start" x="2730.5" y="-233.9" font-family="Arial" font-size="14.00" fill="#000000">id </text>
<text text-anchor="start" x="2745.2798" y="-233.9" font-family="Arial" font-size="14.00" fill="#666666">[char(36)]</text>
<polygon fill="none" stroke="#000000" points="2723.5,-192.5 2723.5,-222.5 2889.5,-222.5 2889.5,-192.5 2723.5,-192.5"/>
<text text-anchor="start" x="2730.5" y="-203.9" font-family="Arial" font-size="14.00" fill="#000000">description </text>
<text text-anchor="start" x="2802.068" y="-203.9" font-family="Arial" font-size="14.00" fill="#666666">[text]</text>
<polygon fill="none" stroke="#000000" points="2723.5,-162.5 2723.5,-192.5 2889.5,-192.5 2889.5,-162.5 2723.5,-162.5"/>
<text text-anchor="start" x="2730.5" y="-173.9" font-family="Arial" font-size="14.00" fill="#000000">check </text>
<text text-anchor="start" x="2770.9558" y="-173.9" font-family="Arial" font-size="14.00" fill="#666666">[tinyint(1)]</text>
<polygon fill="none" stroke="#000000" points="2723.5,-132.5 2723.5,-162.5 2889.5,-162.5 2889.5,-132.5 2723.5,-132.5"/>
<text text-anchor="start" x="2730.5" y="-143.9" font-family="Arial" font-size="14.00" fill="#000000">name </text>
<text text-anchor="start" x="2769.399" y="-143.9" font-family="Arial" font-size="14.00" fill="#666666">[varchar(32)]</text>
<polygon fill="none" stroke="#000000" points="2723.5,-102.5 2723.5,-132.5 2889.5,-132.5 2889.5,-102.5 2723.5,-102.5"/>
<text text-anchor="start" x="2730.5" y="-113.9" font-family="Arial" font-size="14.00" fill="#000000">created_at </text>
<text text-anchor="start" x="2800.528" y="-113.9" font-family="Arial" font-size="14.00" fill="#666666">[datetime(6)]</text>
<polygon fill="none" stroke="#000000" points="2723.5,-72.5 2723.5,-102.5 2889.5,-102.5 2889.5,-72.5 2723.5,-72.5"/>
<text text-anchor="start" x="2730.2518" y="-83.9" font-family="Arial" font-size="14.00" fill="#000000">updated_at </text>
<text text-anchor="start" x="2804.1844" y="-83.9" font-family="Arial" font-size="14.00" fill="#666666">[datetime(6)]</text>
</g>
</g>
</svg>
