<?xml version="1.0" encoding="UTF-8" standalone="no"?>
<!DOCTYPE svg PUBLIC "-//W3C//DTD SVG 1.1//EN"
 "http://www.w3.org/Graphics/SVG/1.1/DTD/svg11.dtd">
<!-- Generated by graphviz version 2.40.1 (20161225.0304)
 -->
<!-- Title: portfolio Pages: 1 -->
<svg width="3076pt" height="369pt"
 viewBox="0.00 0.00 3075.50 369.00" xmlns="http://www.w3.org/2000/svg" xmlns:xlink="http://www.w3.org/1999/xlink">
<g id="graph0" class="graph" transform="scale(1 1) rotate(0) translate(4 365)">
<title>portfolio</title>
<polygon fill="#ffffff" stroke="transparent" points="-4,4 -4,-365 3071.5,-365 3071.5,4 -4,4"/>
<!-- accounts -->
<g id="node1" class="node">
<title>accounts</title>
<polygon fill="#efefef" stroke="transparent" points="43.5,-282.5 43.5,-317.5 226.5,-317.5 226.5,-282.5 43.5,-282.5"/>
<polygon fill="none" stroke="#000000" points="43.5,-282.5 43.5,-317.5 226.5,-317.5 226.5,-282.5 43.5,-282.5"/>
<text text-anchor="start" x="50.3596" y="-295.3" font-family="Arial Bold" font-size="18.00" fill="#000000">accounts</text>
<text text-anchor="start" x="122.3866" y="-295.3" font-family="Arial" font-size="14.00" fill="#000000"> </text>
<text text-anchor="start" x="126.2772" y="-295.3" font-family="Arial" font-size="14.00" fill="#666666">[BASE TABLE]</text>
<polygon fill="none" stroke="#000000" points="43.5,-252.5 43.5,-282.5 226.5,-282.5 226.5,-252.5 43.5,-252.5"/>
<text text-anchor="start" x="50.5" y="-263.9" font-family="Arial" font-size="14.00" fill="#000000">id </text>
<text text-anchor="start" x="65.2798" y="-263.9" font-family="Arial" font-size="14.00" fill="#666666">[char(36)]</text>
<polygon fill="none" stroke="#000000" points="43.5,-222.5 43.5,-252.5 226.5,-252.5 226.5,-222.5 43.5,-222.5"/>
<text text-anchor="start" x="50.5" y="-233.9" font-family="Arial" font-size="14.00" fill="#000000">type </text>
<text text-anchor="start" x="80.8464" y="-233.9" font-family="Arial" font-size="14.00" fill="#666666">[tinyint(1)]</text>
<polygon fill="none" stroke="#000000" points="43.5,-192.5 43.5,-222.5 226.5,-222.5 226.5,-192.5 43.5,-192.5"/>
<text text-anchor="start" x="50.5" y="-203.9" font-family="Arial" font-size="14.00" fill="#000000">name </text>
<text text-anchor="start" x="89.399" y="-203.9" font-family="Arial" font-size="14.00" fill="#666666">[varchar(32)]</text>
<polygon fill="none" stroke="#000000" points="43.5,-162.5 43.5,-192.5 226.5,-192.5 226.5,-162.5 43.5,-162.5"/>
<text text-anchor="start" x="50.5" y="-173.9" font-family="Arial" font-size="14.00" fill="#000000">url </text>
<text text-anchor="start" x="69.9404" y="-173.9" font-family="Arial" font-size="14.00" fill="#666666">[text]</text>
<polygon fill="none" stroke="#000000" points="43.5,-132.5 43.5,-162.5 226.5,-162.5 226.5,-132.5 43.5,-132.5"/>
<text text-anchor="start" x="50.5" y="-143.9" font-family="Arial" font-size="14.00" fill="#000000">user_id </text>
<text text-anchor="start" x="100.2882" y="-143.9" font-family="Arial" font-size="14.00" fill="#666666">[char(36)]</text>
<polygon fill="none" stroke="#000000" points="43.5,-102.5 43.5,-132.5 226.5,-132.5 226.5,-102.5 43.5,-102.5"/>
<text text-anchor="start" x="50.5" y="-113.9" font-family="Arial" font-size="14.00" fill="#000000">check </text>
<text text-anchor="start" x="90.9558" y="-113.9" font-family="Arial" font-size="14.00" fill="#666666">[tinyint(1)]</text>
<polygon fill="none" stroke="#000000" points="43.5,-72.5 43.5,-102.5 226.5,-102.5 226.5,-72.5 43.5,-72.5"/>
<text text-anchor="start" x="50.5" y="-83.9" font-family="Arial" font-size="14.00" fill="#000000">created_at </text>
<text text-anchor="start" x="120.528" y="-83.9" font-family="Arial" font-size="14.00" fill="#666666">[datetime(6)]</text>
<polygon fill="none" stroke="#000000" points="43.5,-42.5 43.5,-72.5 226.5,-72.5 226.5,-42.5 43.5,-42.5"/>
<text text-anchor="start" x="50.5" y="-53.9" font-family="Arial" font-size="14.00" fill="#000000">updated_at </text>
<text text-anchor="start" x="124.4326" y="-53.9" font-family="Arial" font-size="14.00" fill="#666666">[datetime(6)]</text>
</g>
<!-- contest_contest_team_belongings -->
<g id="node2" class="node">
<title>contest_contest_team_belongings</title>
<polygon fill="#efefef" stroke="transparent" points="330.5,-222.5 330.5,-257.5 714.5,-257.5 714.5,-222.5 330.5,-222.5"/>
<polygon fill="none" stroke="#000000" points="330.5,-222.5 330.5,-257.5 714.5,-257.5 714.5,-222.5 330.5,-222.5"/>
<text text-anchor="start" x="337.3215" y="-235.3" font-family="Arial Bold" font-size="18.00" fill="#000000">contest_contest_team_belongings</text>
<text text-anchor="start" x="610.4247" y="-235.3" font-family="Arial" font-size="14.00" fill="#000000"> </text>
<text text-anchor="start" x="614.3153" y="-235.3" font-family="Arial" font-size="14.00" fill="#666666">[BASE TABLE]</text>
<polygon fill="none" stroke="#000000" points="330.5,-192.5 330.5,-222.5 714.5,-222.5 714.5,-192.5 330.5,-192.5"/>
<text text-anchor="start" x="337.5" y="-203.9" font-family="Arial" font-size="14.00" fill="#000000">contest_id </text>
<text text-anchor="start" x="405.1914" y="-203.9" font-family="Arial" font-size="14.00" fill="#666666">[char(36)]</text>
<polygon fill="none" stroke="#000000" points="330.5,-162.5 330.5,-192.5 714.5,-192.5 714.5,-162.5 330.5,-162.5"/>
<text text-anchor="start" x="337.5" y="-173.9" font-family="Arial" font-size="14.00" fill="#000000">team_id </text>
<text text-anchor="start" x="391.1788" y="-173.9" font-family="Arial" font-size="14.00" fill="#666666">[char(36)]</text>
<polygon fill="none" stroke="#000000" points="330.5,-132.5 330.5,-162.5 714.5,-162.5 714.5,-132.5 330.5,-132.5"/>
<text text-anchor="start" x="337.5" y="-143.9" font-family="Arial" font-size="14.00" fill="#000000">created_at </text>
<text text-anchor="start" x="407.528" y="-143.9" font-family="Arial" font-size="14.00" fill="#666666">[datetime(6)]</text>
<polygon fill="none" stroke="#000000" points="330.5,-102.5 330.5,-132.5 714.5,-132.5 714.5,-102.5 330.5,-102.5"/>
<text text-anchor="start" x="337.5" y="-113.9" font-family="Arial" font-size="14.00" fill="#000000">updated_at </text>
<text text-anchor="start" x="411.4326" y="-113.9" font-family="Arial" font-size="14.00" fill="#666666">[datetime(6)]</text>
</g>
<!-- contest_team_user_belongings -->
<g id="node3" class="node">
<title>contest_team_user_belongings</title>
<polygon fill="#efefef" stroke="transparent" points="819.5,-222.5 819.5,-257.5 1180.5,-257.5 1180.5,-222.5 819.5,-222.5"/>
<polygon fill="none" stroke="#000000" points="819.5,-222.5 819.5,-257.5 1180.5,-257.5 1180.5,-222.5 819.5,-222.5"/>
<text text-anchor="start" x="826.3307" y="-235.3" font-family="Arial Bold" font-size="18.00" fill="#000000">contest_team_user_belongings</text>
<text text-anchor="start" x="1076.4155" y="-235.3" font-family="Arial" font-size="14.00" fill="#000000"> </text>
<text text-anchor="start" x="1080.3061" y="-235.3" font-family="Arial" font-size="14.00" fill="#666666">[BASE TABLE]</text>
<polygon fill="none" stroke="#000000" points="819.5,-192.5 819.5,-222.5 1180.5,-222.5 1180.5,-192.5 819.5,-192.5"/>
<text text-anchor="start" x="826.5" y="-203.9" font-family="Arial" font-size="14.00" fill="#000000">team_id </text>
<text text-anchor="start" x="880.1788" y="-203.9" font-family="Arial" font-size="14.00" fill="#666666">[char(36)]</text>
<polygon fill="none" stroke="#000000" points="819.5,-162.5 819.5,-192.5 1180.5,-192.5 1180.5,-162.5 819.5,-162.5"/>
<text text-anchor="start" x="826.5" y="-173.9" font-family="Arial" font-size="14.00" fill="#000000">user_id </text>
<text text-anchor="start" x="876.2882" y="-173.9" font-family="Arial" font-size="14.00" fill="#666666">[char(36)]</text>
<polygon fill="none" stroke="#000000" points="819.5,-132.5 819.5,-162.5 1180.5,-162.5 1180.5,-132.5 819.5,-132.5"/>
<text text-anchor="start" x="826.5" y="-143.9" font-family="Arial" font-size="14.00" fill="#000000">created_at </text>
<text text-anchor="start" x="896.528" y="-143.9" font-family="Arial" font-size="14.00" fill="#666666">[datetime(6)]</text>
<polygon fill="none" stroke="#000000" points="819.5,-102.5 819.5,-132.5 1180.5,-132.5 1180.5,-102.5 819.5,-102.5"/>
<text text-anchor="start" x="826.5" y="-113.9" font-family="Arial" font-size="14.00" fill="#000000">updated_at </text>
<text text-anchor="start" x="900.4326" y="-113.9" font-family="Arial" font-size="14.00" fill="#666666">[datetime(6)]</text>
</g>
<!-- contest_teams -->
<g id="node4" class="node">
<title>contest_teams</title>
<polygon fill="#efefef" stroke="transparent" points="1284.5,-267.5 1284.5,-302.5 1512.5,-302.5 1512.5,-267.5 1284.5,-267.5"/>
<polygon fill="none" stroke="#000000" points="1284.5,-267.5 1284.5,-302.5 1512.5,-302.5 1512.5,-267.5 1284.5,-267.5"/>
<text text-anchor="start" x="1291.3551" y="-280.3" font-family="Arial Bold" font-size="18.00" fill="#000000">contest_teams</text>
<text text-anchor="start" x="1408.3911" y="-280.3" font-family="Arial" font-size="14.00" fill="#000000"> </text>
<text text-anchor="start" x="1412.2817" y="-280.3" font-family="Arial" font-size="14.00" fill="#666666">[BASE TABLE]</text>
<polygon fill="none" stroke="#000000" points="1284.5,-237.5 1284.5,-267.5 1512.5,-267.5 1512.5,-237.5 1284.5,-237.5"/>
<text text-anchor="start" x="1291.5" y="-248.9" font-family="Arial" font-size="14.00" fill="#000000">id </text>
<text text-anchor="start" x="1306.2798" y="-248.9" font-family="Arial" font-size="14.00" fill="#666666">[char(36)]</text>
<polygon fill="none" stroke="#000000" points="1284.5,-207.5 1284.5,-237.5 1512.5,-237.5 1512.5,-207.5 1284.5,-207.5"/>
<text text-anchor="start" x="1291.5" y="-218.9" font-family="Arial" font-size="14.00" fill="#000000">name </text>
<text text-anchor="start" x="1330.399" y="-218.9" font-family="Arial" font-size="14.00" fill="#666666">[varchar(32)]</text>
<polygon fill="none" stroke="#000000" points="1284.5,-177.5 1284.5,-207.5 1512.5,-207.5 1512.5,-177.5 1284.5,-177.5"/>
<text text-anchor="start" x="1291.5" y="-188.9" font-family="Arial" font-size="14.00" fill="#000000">description </text>
<text text-anchor="start" x="1363.068" y="-188.9" font-family="Arial" font-size="14.00" fill="#666666">[text]</text>
<polygon fill="none" stroke="#000000" points="1284.5,-147.5 1284.5,-177.5 1512.5,-177.5 1512.5,-147.5 1284.5,-147.5"/>
<text text-anchor="start" x="1291.5" y="-158.9" font-family="Arial" font-size="14.00" fill="#000000">result </text>
<text text-anchor="start" x="1329.6136" y="-158.9" font-family="Arial" font-size="14.00" fill="#666666">[text]</text>
<polygon fill="none" stroke="#000000" points="1284.5,-117.5 1284.5,-147.5 1512.5,-147.5 1512.5,-117.5 1284.5,-117.5"/>
<text text-anchor="start" x="1291.5" y="-128.9" font-family="Arial" font-size="14.00" fill="#000000">link </text>
<text text-anchor="start" x="1316.3864" y="-128.9" font-family="Arial" font-size="14.00" fill="#666666">[text]</text>
<polygon fill="none" stroke="#000000" points="1284.5,-87.5 1284.5,-117.5 1512.5,-117.5 1512.5,-87.5 1284.5,-87.5"/>
<text text-anchor="start" x="1291.5" y="-98.9" font-family="Arial" font-size="14.00" fill="#000000">created_at </text>
<text text-anchor="start" x="1361.528" y="-98.9" font-family="Arial" font-size="14.00" fill="#666666">[datetime(6)]</text>
<polygon fill="none" stroke="#000000" points="1284.5,-57.5 1284.5,-87.5 1512.5,-87.5 1512.5,-57.5 1284.5,-57.5"/>
<text text-anchor="start" x="1291.5" y="-68.9" font-family="Arial" font-size="14.00" fill="#000000">updated_at </text>
<text text-anchor="start" x="1365.4326" y="-68.9" font-family="Arial" font-size="14.00" fill="#666666">[datetime(6)]</text>
</g>
<!-- contests -->
<g id="node5" class="node">
<title>contests</title>
<polygon fill="#efefef" stroke="transparent" points="1616.5,-282.5 1616.5,-317.5 1794.5,-317.5 1794.5,-282.5 1616.5,-282.5"/>
<polygon fill="none" stroke="#000000" points="1616.5,-282.5 1616.5,-317.5 1794.5,-317.5 1794.5,-282.5 1616.5,-282.5"/>
<text text-anchor="start" x="1623.3616" y="-295.3" font-family="Arial Bold" font-size="18.00" fill="#000000">contests</text>
<text text-anchor="start" x="1690.3846" y="-295.3" font-family="Arial" font-size="14.00" fill="#000000"> </text>
<text text-anchor="start" x="1694.2752" y="-295.3" font-family="Arial" font-size="14.00" fill="#666666">[BASE TABLE]</text>
<polygon fill="none" stroke="#000000" points="1616.5,-252.5 1616.5,-282.5 1794.5,-282.5 1794.5,-252.5 1616.5,-252.5"/>
<text text-anchor="start" x="1623.5" y="-263.9" font-family="Arial" font-size="14.00" fill="#000000">id </text>
<text text-anchor="start" x="1638.2798" y="-263.9" font-family="Arial" font-size="14.00" fill="#666666">[char(36)]</text>
<polygon fill="none" stroke="#000000" points="1616.5,-222.5 1616.5,-252.5 1794.5,-252.5 1794.5,-222.5 1616.5,-222.5"/>
<text text-anchor="start" x="1623.5" y="-233.9" font-family="Arial" font-size="14.00" fill="#000000">name </text>
<text text-anchor="start" x="1662.399" y="-233.9" font-family="Arial" font-size="14.00" fill="#666666">[varchar(32)]</text>
<polygon fill="none" stroke="#000000" points="1616.5,-192.5 1616.5,-222.5 1794.5,-222.5 1794.5,-192.5 1616.5,-192.5"/>
<text text-anchor="start" x="1623.5" y="-203.9" font-family="Arial" font-size="14.00" fill="#000000">description </text>
<text text-anchor="start" x="1695.068" y="-203.9" font-family="Arial" font-size="14.00" fill="#666666">[text]</text>
<polygon fill="none" stroke="#000000" points="1616.5,-162.5 1616.5,-192.5 1794.5,-192.5 1794.5,-162.5 1616.5,-162.5"/>
<text text-anchor="start" x="1623.5" y="-173.9" font-family="Arial" font-size="14.00" fill="#000000">link </text>
<text text-anchor="start" x="1648.3864" y="-173.9" font-family="Arial" font-size="14.00" fill="#666666">[text]</text>
<polygon fill="none" stroke="#000000" points="1616.5,-132.5 1616.5,-162.5 1794.5,-162.5 1794.5,-132.5 1616.5,-132.5"/>
<text text-anchor="start" x="1623.5" y="-143.9" font-family="Arial" font-size="14.00" fill="#000000">since </text>
<text text-anchor="start" x="1660.0624" y="-143.9" font-family="Arial" font-size="14.00" fill="#666666">[datetime(6)]</text>
<polygon fill="none" stroke="#000000" points="1616.5,-102.5 1616.5,-132.5 1794.5,-132.5 1794.5,-102.5 1616.5,-102.5"/>
<text text-anchor="start" x="1623.5" y="-113.9" font-family="Arial" font-size="14.00" fill="#000000">until </text>
<text text-anchor="start" x="1653.0596" y="-113.9" font-family="Arial" font-size="14.00" fill="#666666">[datetime(6)]</text>
<polygon fill="none" stroke="#000000" points="1616.5,-72.5 1616.5,-102.5 1794.5,-102.5 1794.5,-72.5 1616.5,-72.5"/>
<text text-anchor="start" x="1623.5" y="-83.9" font-family="Arial" font-size="14.00" fill="#000000">created_at </text>
<text text-anchor="start" x="1693.528" y="-83.9" font-family="Arial" font-size="14.00" fill="#666666">[datetime(6)]</text>
<polygon fill="none" stroke="#000000" points="1616.5,-42.5 1616.5,-72.5 1794.5,-72.5 1794.5,-42.5 1616.5,-42.5"/>
<text text-anchor="start" x="1623.5" y="-53.9" font-family="Arial" font-size="14.00" fill="#000000">updated_at </text>
<text text-anchor="start" x="1697.4326" y="-53.9" font-family="Arial" font-size="14.00" fill="#666666">[datetime(6)]</text>
</g>
<!-- event_level_relations -->
<g id="node6" class="node">
<title>event_level_relations</title>
<polygon fill="#efefef" stroke="transparent" points="1898.5,-192.5 1898.5,-227.5 2178.5,-227.5 2178.5,-192.5 1898.5,-192.5"/>
<polygon fill="none" stroke="#000000" points="1898.5,-192.5 1898.5,-227.5 2178.5,-227.5 2178.5,-192.5 1898.5,-192.5"/>
<text text-anchor="start" x="1905.3523" y="-205.3" font-family="Arial Bold" font-size="18.00" fill="#000000">event_level_relations</text>
<text text-anchor="start" x="2074.3939" y="-205.3" font-family="Arial" font-size="14.00" fill="#000000"> </text>
<text text-anchor="start" x="2078.2845" y="-205.3" font-family="Arial" font-size="14.00" fill="#666666">[BASE TABLE]</text>
<polygon fill="none" stroke="#000000" points="1898.5,-162.5 1898.5,-192.5 2178.5,-192.5 2178.5,-162.5 1898.5,-162.5"/>
<text text-anchor="start" x="1905.5" y="-173.9" font-family="Arial" font-size="14.00" fill="#000000">id </text>
<text text-anchor="start" x="1920.2798" y="-173.9" font-family="Arial" font-size="14.00" fill="#666666">[char(36)]</text>
<polygon fill="none" stroke="#000000" points="1898.5,-132.5 1898.5,-162.5 2178.5,-162.5 2178.5,-132.5 1898.5,-132.5"/>
<text text-anchor="start" x="1905.5" y="-143.9" font-family="Arial" font-size="14.00" fill="#000000">level </text>
<text text-anchor="start" x="1938.169" y="-143.9" font-family="Arial" font-size="14.00" fill="#666666">[tinyint(3) unsigned]</text>
</g>
<!-- migrations -->
<g id="node7" class="node">
<title>migrations</title>
<polygon fill="#efefef" stroke="transparent" points="2282.5,-177.5 2282.5,-212.5 2476.5,-212.5 2476.5,-177.5 2282.5,-177.5"/>
<polygon fill="none" stroke="#000000" points="2282.5,-177.5 2282.5,-212.5 2476.5,-212.5 2476.5,-177.5 2282.5,-177.5"/>
<text text-anchor="start" x="2289.3732" y="-190.3" font-family="Arial Bold" font-size="18.00" fill="#000000">migrations</text>
<text text-anchor="start" x="2372.373" y="-190.3" font-family="Arial" font-size="14.00" fill="#000000"> </text>
<text text-anchor="start" x="2376.2636" y="-190.3" font-family="Arial" font-size="14.00" fill="#666666">[BASE TABLE]</text>
<polygon fill="none" stroke="#000000" points="2282.5,-147.5 2282.5,-177.5 2476.5,-177.5 2476.5,-147.5 2282.5,-147.5"/>
<text text-anchor="start" x="2289.5" y="-158.9" font-family="Arial" font-size="14.00" fill="#000000">id </text>
<text text-anchor="start" x="2304.2798" y="-158.9" font-family="Arial" font-size="14.00" fill="#666666">[varchar(255)]</text>
</g>
<!-- projects -->
<g id="node8" class="node">
<title>projects</title>
<polygon fill="#efefef" stroke="transparent" points="2580.5,-237.5 2580.5,-272.5 2754.5,-272.5 2754.5,-237.5 2580.5,-237.5"/>
<polygon fill="none" stroke="#000000" points="2580.5,-237.5 2580.5,-272.5 2754.5,-272.5 2754.5,-237.5 2580.5,-237.5"/>
<text text-anchor="start" x="2587.3695" y="-250.3" font-family="Arial Bold" font-size="18.00" fill="#000000">projects</text>
<text text-anchor="start" x="2650.3767" y="-250.3" font-family="Arial" font-size="14.00" fill="#000000"> </text>
<text text-anchor="start" x="2654.2673" y="-250.3" font-family="Arial" font-size="14.00" fill="#666666">[BASE TABLE]</text>
<polygon fill="none" stroke="#000000" points="2580.5,-207.5 2580.5,-237.5 2754.5,-237.5 2754.5,-207.5 2580.5,-207.5"/>
<text text-anchor="start" x="2587.5" y="-218.9" font-family="Arial" font-size="14.00" fill="#000000">id </text>
<text text-anchor="start" x="2602.2798" y="-218.9" font-family="Arial" font-size="14.00" fill="#666666">[char(36)]</text>
<polygon fill="none" stroke="#000000" points="2580.5,-177.5 2580.5,-207.5 2754.5,-207.5 2754.5,-177.5 2580.5,-177.5"/>
<text text-anchor="start" x="2587.5" y="-188.9" font-family="Arial" font-size="14.00" fill="#000000">name </text>
<text text-anchor="start" x="2626.399" y="-188.9" font-family="Arial" font-size="14.00" fill="#666666">[varchar(32)]</text>
<polygon fill="none" stroke="#000000" points="2580.5,-147.5 2580.5,-177.5 2754.5,-177.5 2754.5,-147.5 2580.5,-147.5"/>
<text text-anchor="start" x="2587.5" y="-158.9" font-family="Arial" font-size="14.00" fill="#000000">description </text>
<text text-anchor="start" x="2659.068" y="-158.9" font-family="Arial" font-size="14.00" fill="#666666">[text]</text>
<polygon fill="none" stroke="#000000" points="2580.5,-117.5 2580.5,-147.5 2754.5,-147.5 2754.5,-117.5 2580.5,-117.5"/>
<text text-anchor="start" x="2587.5" y="-128.9" font-family="Arial" font-size="14.00" fill="#000000">start </text>
<text text-anchor="start" x="2618.615" y="-128.9" font-family="Arial" font-size="14.00" fill="#666666">[datetime]</text>
<polygon fill="none" stroke="#000000" points="2580.5,-87.5 2580.5,-117.5 2754.5,-117.5 2754.5,-87.5 2580.5,-87.5"/>
<text text-anchor="start" x="2587.5" y="-98.9" font-family="Arial" font-size="14.00" fill="#000000">end </text>
<text text-anchor="start" x="2614.7384" y="-98.9" font-family="Arial" font-size="14.00" fill="#666666">[datetime]</text>
</g>
<!-- users -->
<g id="node9" class="node">
<title>users</title>
<polygon fill="#efefef" stroke="transparent" points="2858.5,-252.5 2858.5,-287.5 3024.5,-287.5 3024.5,-252.5 2858.5,-252.5"/>
<polygon fill="none" stroke="#000000" points="2858.5,-252.5 2858.5,-287.5 3024.5,-287.5 3024.5,-252.5 2858.5,-252.5"/>
<text text-anchor="start" x="2870.8708" y="-265.3" font-family="Arial Bold" font-size="18.00" fill="#000000">users</text>
<text text-anchor="start" x="2914.8754" y="-265.3" font-family="Arial" font-size="14.00" fill="#000000"> </text>
<text text-anchor="start" x="2918.766" y="-265.3" font-family="Arial" font-size="14.00" fill="#666666">[BASE TABLE]</text>
<polygon fill="none" stroke="#000000" points="2858.5,-222.5 2858.5,-252.5 3024.5,-252.5 3024.5,-222.5 2858.5,-222.5"/>
<text text-anchor="start" x="2865.5" y="-233.9" font-family="Arial" font-size="14.00" fill="#000000">id </text>
<text text-anchor="start" x="2880.2798" y="-233.9" font-family="Arial" font-size="14.00" fill="#666666">[char(36)]</text>
<polygon fill="none" stroke="#000000" points="2858.5,-192.5 2858.5,-222.5 3024.5,-222.5 3024.5,-192.5 2858.5,-192.5"/>
<text text-anchor="start" x="2865.5" y="-203.9" font-family="Arial" font-size="14.00" fill="#000000">description </text>
<text text-anchor="start" x="2937.068" y="-203.9" font-family="Arial" font-size="14.00" fill="#666666">[text]</text>
<polygon fill="none" stroke="#000000" points="2858.5,-162.5 2858.5,-192.5 3024.5,-192.5 3024.5,-162.5 2858.5,-162.5"/>
<text text-anchor="start" x="2865.5" y="-173.9" font-family="Arial" font-size="14.00" fill="#000000">check </text>
<text text-anchor="start" x="2905.9558" y="-173.9" font-family="Arial" font-size="14.00" fill="#666666">[tinyint(1)]</text>
<polygon fill="none" stroke="#000000" points="2858.5,-132.5 2858.5,-162.5 3024.5,-162.5 3024.5,-132.5 2858.5,-132.5"/>
<text text-anchor="start" x="2865.5" y="-143.9" font-family="Arial" font-size="14.00" fill="#000000">name </text>
<text text-anchor="start" x="2904.399" y="-143.9" font-family="Arial" font-size="14.00" fill="#666666">[varchar(32)]</text>
<polygon fill="none" stroke="#000000" points="2858.5,-102.5 2858.5,-132.5 3024.5,-132.5 3024.5,-102.5 2858.5,-102.5"/>
<text text-anchor="start" x="2865.5" y="-113.9" font-family="Arial" font-size="14.00" fill="#000000">created_at </text>
<text text-anchor="start" x="2935.528" y="-113.9" font-family="Arial" font-size="14.00" fill="#666666">[datetime(6)]</text>
<polygon fill="none" stroke="#000000" points="2858.5,-72.5 2858.5,-102.5 3024.5,-102.5 3024.5,-72.5 2858.5,-72.5"/>
<text text-anchor="start" x="2865.2518" y="-83.9" font-family="Arial" font-size="14.00" fill="#000000">updated_at </text>
<text text-anchor="start" x="2939.1844" y="-83.9" font-family="Arial" font-size="14.00" fill="#666666">[datetime(6)]</text>
</g>
</g>
</svg>
