<?xml version="1.0" encoding="UTF-8" standalone="no"?>
<!DOCTYPE svg PUBLIC "-//W3C//DTD SVG 1.1//EN"
 "http://www.w3.org/Graphics/SVG/1.1/DTD/svg11.dtd">
<!-- Generated by graphviz version 2.40.1 (20161225.0304)
 -->
<!-- Title: portfolio Pages: 1 -->
<svg width="1230pt" height="369pt"
 viewBox="0.00 0.00 1229.50 369.00" xmlns="http://www.w3.org/2000/svg" xmlns:xlink="http://www.w3.org/1999/xlink">
<g id="graph0" class="graph" transform="scale(1 1) rotate(0) translate(4 365)">
<title>portfolio</title>
<polygon fill="#ffffff" stroke="transparent" points="-4,4 -4,-365 1225.5,-365 1225.5,4 -4,4"/>
<!-- accounts -->
<g id="node1" class="node">
<title>accounts</title>
<polygon fill="#efefef" stroke="transparent" points="43.5,-282.5 43.5,-317.5 226.5,-317.5 226.5,-282.5 43.5,-282.5"/>
<polygon fill="none" stroke="#000000" points="43.5,-282.5 43.5,-317.5 226.5,-317.5 226.5,-282.5 43.5,-282.5"/>
<text text-anchor="start" x="50.3596" y="-295.3" font-family="Arial Bold" font-size="18.00" fill="#000000">accounts</text>
<text text-anchor="start" x="122.3866" y="-295.3" font-family="Arial" font-size="14.00" fill="#000000"> </text>
<text text-anchor="start" x="126.2772" y="-295.3" font-family="Arial" font-size="14.00" fill="#666666">[BASE TABLE]</text>
<polygon fill="none" stroke="#000000" points="43.5,-252.5 43.5,-282.5 226.5,-282.5 226.5,-252.5 43.5,-252.5"/>
<text text-anchor="start" x="50.5" y="-263.9" font-family="Arial" font-size="14.00" fill="#000000">id </text>
<text text-anchor="start" x="65.2798" y="-263.9" font-family="Arial" font-size="14.00" fill="#666666">[char(36)]</text>
<polygon fill="none" stroke="#000000" points="43.5,-222.5 43.5,-252.5 226.5,-252.5 226.5,-222.5 43.5,-222.5"/>
<text text-anchor="start" x="50.5" y="-233.9" font-family="Arial" font-size="14.00" fill="#000000">type </text>
<text text-anchor="start" x="80.8464" y="-233.9" font-family="Arial" font-size="14.00" fill="#666666">[tinyint(1)]</text>
<polygon fill="none" stroke="#000000" points="43.5,-192.5 43.5,-222.5 226.5,-222.5 226.5,-192.5 43.5,-192.5"/>
<text text-anchor="start" x="50.5" y="-203.9" font-family="Arial" font-size="14.00" fill="#000000">name </text>
<text text-anchor="start" x="89.399" y="-203.9" font-family="Arial" font-size="14.00" fill="#666666">[varchar(32)]</text>
<polygon fill="none" stroke="#000000" points="43.5,-162.5 43.5,-192.5 226.5,-192.5 226.5,-162.5 43.5,-162.5"/>
<text text-anchor="start" x="50.5" y="-173.9" font-family="Arial" font-size="14.00" fill="#000000">url </text>
<text text-anchor="start" x="69.9404" y="-173.9" font-family="Arial" font-size="14.00" fill="#666666">[text]</text>
<polygon fill="none" stroke="#000000" points="43.5,-132.5 43.5,-162.5 226.5,-162.5 226.5,-132.5 43.5,-132.5"/>
<text text-anchor="start" x="50.5" y="-143.9" font-family="Arial" font-size="14.00" fill="#000000">user_id </text>
<text text-anchor="start" x="100.2882" y="-143.9" font-family="Arial" font-size="14.00" fill="#666666">[char(36)]</text>
<polygon fill="none" stroke="#000000" points="43.5,-102.5 43.5,-132.5 226.5,-132.5 226.5,-102.5 43.5,-102.5"/>
<text text-anchor="start" x="50.5" y="-113.9" font-family="Arial" font-size="14.00" fill="#000000">check </text>
<text text-anchor="start" x="90.9558" y="-113.9" font-family="Arial" font-size="14.00" fill="#666666">[tinyint(1)]</text>
<polygon fill="none" stroke="#000000" points="43.5,-72.5 43.5,-102.5 226.5,-102.5 226.5,-72.5 43.5,-72.5"/>
<text text-anchor="start" x="50.5" y="-83.9" font-family="Arial" font-size="14.00" fill="#000000">created_at </text>
<text text-anchor="start" x="120.528" y="-83.9" font-family="Arial" font-size="14.00" fill="#666666">[datetime(6)]</text>
<polygon fill="none" stroke="#000000" points="43.5,-42.5 43.5,-72.5 226.5,-72.5 226.5,-42.5 43.5,-42.5"/>
<text text-anchor="start" x="50.5" y="-53.9" font-family="Arial" font-size="14.00" fill="#000000">updated_at </text>
<text text-anchor="start" x="124.4326" y="-53.9" font-family="Arial" font-size="14.00" fill="#666666">[datetime(6)]</text>
</g>
<!-- event_level_relations -->
<g id="node2" class="node">
<title>event_level_relations</title>
<polygon fill="#efefef" stroke="transparent" points="330.5,-192.5 330.5,-227.5 610.5,-227.5 610.5,-192.5 330.5,-192.5"/>
<polygon fill="none" stroke="#000000" points="330.5,-192.5 330.5,-227.5 610.5,-227.5 610.5,-192.5 330.5,-192.5"/>
<text text-anchor="start" x="337.3523" y="-205.3" font-family="Arial Bold" font-size="18.00" fill="#000000">event_level_relations</text>
<text text-anchor="start" x="506.3939" y="-205.3" font-family="Arial" font-size="14.00" fill="#000000"> </text>
<text text-anchor="start" x="510.2845" y="-205.3" font-family="Arial" font-size="14.00" fill="#666666">[BASE TABLE]</text>
<polygon fill="none" stroke="#000000" points="330.5,-162.5 330.5,-192.5 610.5,-192.5 610.5,-162.5 330.5,-162.5"/>
<text text-anchor="start" x="337.5" y="-173.9" font-family="Arial" font-size="14.00" fill="#000000">id </text>
<text text-anchor="start" x="352.2798" y="-173.9" font-family="Arial" font-size="14.00" fill="#666666">[char(36)]</text>
<polygon fill="none" stroke="#000000" points="330.5,-132.5 330.5,-162.5 610.5,-162.5 610.5,-132.5 330.5,-132.5"/>
<text text-anchor="start" x="337.5" y="-143.9" font-family="Arial" font-size="14.00" fill="#000000">level </text>
<text text-anchor="start" x="370.169" y="-143.9" font-family="Arial" font-size="14.00" fill="#666666">[tinyint(3) unsigned]</text>
</g>
<!-- migrations -->
<g id="node3" class="node">
<title>migrations</title>
<polygon fill="#efefef" stroke="transparent" points="714.5,-177.5 714.5,-212.5 908.5,-212.5 908.5,-177.5 714.5,-177.5"/>
<polygon fill="none" stroke="#000000" points="714.5,-177.5 714.5,-212.5 908.5,-212.5 908.5,-177.5 714.5,-177.5"/>
<text text-anchor="start" x="721.3732" y="-190.3" font-family="Arial Bold" font-size="18.00" fill="#000000">migrations</text>
<text text-anchor="start" x="804.373" y="-190.3" font-family="Arial" font-size="14.00" fill="#000000"> </text>
<text text-anchor="start" x="808.2636" y="-190.3" font-family="Arial" font-size="14.00" fill="#666666">[BASE TABLE]</text>
<polygon fill="none" stroke="#000000" points="714.5,-147.5 714.5,-177.5 908.5,-177.5 908.5,-147.5 714.5,-147.5"/>
<text text-anchor="start" x="721.5" y="-158.9" font-family="Arial" font-size="14.00" fill="#000000">id </text>
<text text-anchor="start" x="736.2798" y="-158.9" font-family="Arial" font-size="14.00" fill="#666666">[varchar(255)]</text>
</g>
<!-- users -->
<g id="node4" class="node">
<title>users</title>
<polygon fill="#efefef" stroke="transparent" points="1012.5,-252.5 1012.5,-287.5 1178.5,-287.5 1178.5,-252.5 1012.5,-252.5"/>
<polygon fill="none" stroke="#000000" points="1012.5,-252.5 1012.5,-287.5 1178.5,-287.5 1178.5,-252.5 1012.5,-252.5"/>
<text text-anchor="start" x="1024.8708" y="-265.3" font-family="Arial Bold" font-size="18.00" fill="#000000">users</text>
<text text-anchor="start" x="1068.8754" y="-265.3" font-family="Arial" font-size="14.00" fill="#000000"> </text>
<text text-anchor="start" x="1072.766" y="-265.3" font-family="Arial" font-size="14.00" fill="#666666">[BASE TABLE]</text>
<polygon fill="none" stroke="#000000" points="1012.5,-222.5 1012.5,-252.5 1178.5,-252.5 1178.5,-222.5 1012.5,-222.5"/>
<text text-anchor="start" x="1019.5" y="-233.9" font-family="Arial" font-size="14.00" fill="#000000">id </text>
<text text-anchor="start" x="1034.2798" y="-233.9" font-family="Arial" font-size="14.00" fill="#666666">[char(36)]</text>
<polygon fill="none" stroke="#000000" points="1012.5,-192.5 1012.5,-222.5 1178.5,-222.5 1178.5,-192.5 1012.5,-192.5"/>
<text text-anchor="start" x="1019.5" y="-203.9" font-family="Arial" font-size="14.00" fill="#000000">description </text>
<text text-anchor="start" x="1091.068" y="-203.9" font-family="Arial" font-size="14.00" fill="#666666">[text]</text>
<polygon fill="none" stroke="#000000" points="1012.5,-162.5 1012.5,-192.5 1178.5,-192.5 1178.5,-162.5 1012.5,-162.5"/>
<text text-anchor="start" x="1019.5" y="-173.9" font-family="Arial" font-size="14.00" fill="#000000">check </text>
<text text-anchor="start" x="1059.9558" y="-173.9" font-family="Arial" font-size="14.00" fill="#666666">[tinyint(1)]</text>
<polygon fill="none" stroke="#000000" points="1012.5,-132.5 1012.5,-162.5 1178.5,-162.5 1178.5,-132.5 1012.5,-132.5"/>
<text text-anchor="start" x="1019.5" y="-143.9" font-family="Arial" font-size="14.00" fill="#000000">name </text>
<text text-anchor="start" x="1058.399" y="-143.9" font-family="Arial" font-size="14.00" fill="#666666">[varchar(32)]</text>
<polygon fill="none" stroke="#000000" points="1012.5,-102.5 1012.5,-132.5 1178.5,-132.5 1178.5,-102.5 1012.5,-102.5"/>
<text text-anchor="start" x="1019.5" y="-113.9" font-family="Arial" font-size="14.00" fill="#000000">created_at </text>
<text text-anchor="start" x="1089.528" y="-113.9" font-family="Arial" font-size="14.00" fill="#666666">[datetime(6)]</text>
<polygon fill="none" stroke="#000000" points="1012.5,-72.5 1012.5,-102.5 1178.5,-102.5 1178.5,-72.5 1012.5,-72.5"/>
<text text-anchor="start" x="1019.2518" y="-83.9" font-family="Arial" font-size="14.00" fill="#000000">updated_at </text>
<text text-anchor="start" x="1093.1844" y="-83.9" font-family="Arial" font-size="14.00" fill="#666666">[datetime(6)]</text>
</g>
</g>
</svg>
