<?xml version="1.0" encoding="UTF-8" standalone="no"?>
<!DOCTYPE svg PUBLIC "-//W3C//DTD SVG 1.1//EN"
 "http://www.w3.org/Graphics/SVG/1.1/DTD/svg11.dtd">
<!-- Generated by graphviz version 2.40.1 (20161225.0304)
 -->
<!-- Title: users Pages: 1 -->
<svg width="1097pt" height="712pt"
 viewBox="0.00 0.00 1096.50 712.00" xmlns="http://www.w3.org/2000/svg" xmlns:xlink="http://www.w3.org/1999/xlink">
<g id="graph0" class="graph" transform="scale(1 1) rotate(0) translate(4 708)">
<title>users</title>
<polygon fill="#ffffff" stroke="transparent" points="-4,4 -4,-708 1092.5,-708 1092.5,4 -4,4"/>
<!-- users -->
<g id="node1" class="node">
<title>users</title>
<polygon fill="#efefef" stroke="transparent" points="428.5,-225.5 428.5,-260.5 594.5,-260.5 594.5,-225.5 428.5,-225.5"/>
<polygon fill="none" stroke="#000000" points="428.5,-225.5 428.5,-260.5 594.5,-260.5 594.5,-225.5 428.5,-225.5"/>
<text text-anchor="start" x="440.8708" y="-238.3" font-family="Arial Bold" font-size="18.00" fill="#000000">users</text>
<text text-anchor="start" x="484.8754" y="-238.3" font-family="Arial" font-size="14.00" fill="#000000"> </text>
<text text-anchor="start" x="488.766" y="-238.3" font-family="Arial" font-size="14.00" fill="#666666">[BASE TABLE]</text>
<polygon fill="none" stroke="#000000" points="428.5,-195.5 428.5,-225.5 594.5,-225.5 594.5,-195.5 428.5,-195.5"/>
<text text-anchor="start" x="435.5" y="-206.9" font-family="Arial" font-size="14.00" fill="#000000">id </text>
<text text-anchor="start" x="450.2798" y="-206.9" font-family="Arial" font-size="14.00" fill="#666666">[char(36)]</text>
<polygon fill="none" stroke="#000000" points="428.5,-165.5 428.5,-195.5 594.5,-195.5 594.5,-165.5 428.5,-165.5"/>
<text text-anchor="start" x="435.5" y="-176.9" font-family="Arial" font-size="14.00" fill="#000000">description </text>
<text text-anchor="start" x="507.068" y="-176.9" font-family="Arial" font-size="14.00" fill="#666666">[text]</text>
<polygon fill="none" stroke="#000000" points="428.5,-135.5 428.5,-165.5 594.5,-165.5 594.5,-135.5 428.5,-135.5"/>
<text text-anchor="start" x="435.5" y="-146.9" font-family="Arial" font-size="14.00" fill="#000000">check </text>
<text text-anchor="start" x="475.9558" y="-146.9" font-family="Arial" font-size="14.00" fill="#666666">[tinyint(1)]</text>
<polygon fill="none" stroke="#000000" points="428.5,-105.5 428.5,-135.5 594.5,-135.5 594.5,-105.5 428.5,-105.5"/>
<text text-anchor="start" x="435.5" y="-116.9" font-family="Arial" font-size="14.00" fill="#000000">name </text>
<text text-anchor="start" x="474.399" y="-116.9" font-family="Arial" font-size="14.00" fill="#666666">[varchar(32)]</text>
<polygon fill="none" stroke="#000000" points="428.5,-75.5 428.5,-105.5 594.5,-105.5 594.5,-75.5 428.5,-75.5"/>
<text text-anchor="start" x="435.5" y="-86.9" font-family="Arial" font-size="14.00" fill="#000000">created_at </text>
<text text-anchor="start" x="505.528" y="-86.9" font-family="Arial" font-size="14.00" fill="#666666">[datetime(6)]</text>
<polygon fill="none" stroke="#000000" points="428.5,-45.5 428.5,-75.5 594.5,-75.5 594.5,-45.5 428.5,-45.5"/>
<text text-anchor="start" x="435.2518" y="-56.9" font-family="Arial" font-size="14.00" fill="#000000">updated_at </text>
<text text-anchor="start" x="509.1844" y="-56.9" font-family="Arial" font-size="14.00" fill="#666666">[datetime(6)]</text>
<polygon fill="none" stroke="#000000" stroke-width="3" points="427,-44.5 427,-262.5 596,-262.5 596,-44.5 427,-44.5"/>
</g>
<!-- accounts -->
<g id="node2" class="node">
<title>accounts</title>
<polygon fill="#efefef" stroke="transparent" points="43.5,-625.5 43.5,-660.5 226.5,-660.5 226.5,-625.5 43.5,-625.5"/>
<polygon fill="none" stroke="#000000" points="43.5,-625.5 43.5,-660.5 226.5,-660.5 226.5,-625.5 43.5,-625.5"/>
<text text-anchor="start" x="50.3596" y="-638.3" font-family="Arial Bold" font-size="18.00" fill="#000000">accounts</text>
<text text-anchor="start" x="122.3866" y="-638.3" font-family="Arial" font-size="14.00" fill="#000000"> </text>
<text text-anchor="start" x="126.2772" y="-638.3" font-family="Arial" font-size="14.00" fill="#666666">[BASE TABLE]</text>
<polygon fill="none" stroke="#000000" points="43.5,-595.5 43.5,-625.5 226.5,-625.5 226.5,-595.5 43.5,-595.5"/>
<text text-anchor="start" x="50.5" y="-606.9" font-family="Arial" font-size="14.00" fill="#000000">id </text>
<text text-anchor="start" x="65.2798" y="-606.9" font-family="Arial" font-size="14.00" fill="#666666">[char(36)]</text>
<polygon fill="none" stroke="#000000" points="43.5,-565.5 43.5,-595.5 226.5,-595.5 226.5,-565.5 43.5,-565.5"/>
<text text-anchor="start" x="50.5" y="-576.9" font-family="Arial" font-size="14.00" fill="#000000">type </text>
<text text-anchor="start" x="80.8464" y="-576.9" font-family="Arial" font-size="14.00" fill="#666666">[tinyint(1)]</text>
<polygon fill="none" stroke="#000000" points="43.5,-535.5 43.5,-565.5 226.5,-565.5 226.5,-535.5 43.5,-535.5"/>
<text text-anchor="start" x="50.5" y="-546.9" font-family="Arial" font-size="14.00" fill="#000000">name </text>
<text text-anchor="start" x="89.399" y="-546.9" font-family="Arial" font-size="14.00" fill="#666666">[varchar(32)]</text>
<polygon fill="none" stroke="#000000" points="43.5,-505.5 43.5,-535.5 226.5,-535.5 226.5,-505.5 43.5,-505.5"/>
<text text-anchor="start" x="50.5" y="-516.9" font-family="Arial" font-size="14.00" fill="#000000">url </text>
<text text-anchor="start" x="69.9404" y="-516.9" font-family="Arial" font-size="14.00" fill="#666666">[text]</text>
<polygon fill="none" stroke="#000000" points="43.5,-475.5 43.5,-505.5 226.5,-505.5 226.5,-475.5 43.5,-475.5"/>
<text text-anchor="start" x="50.5" y="-486.9" font-family="Arial" font-size="14.00" fill="#000000">user_id </text>
<text text-anchor="start" x="100.2882" y="-486.9" font-family="Arial" font-size="14.00" fill="#666666">[char(36)]</text>
<polygon fill="none" stroke="#000000" points="43.5,-445.5 43.5,-475.5 226.5,-475.5 226.5,-445.5 43.5,-445.5"/>
<text text-anchor="start" x="50.5" y="-456.9" font-family="Arial" font-size="14.00" fill="#000000">check </text>
<text text-anchor="start" x="90.9558" y="-456.9" font-family="Arial" font-size="14.00" fill="#666666">[tinyint(1)]</text>
<polygon fill="none" stroke="#000000" points="43.5,-415.5 43.5,-445.5 226.5,-445.5 226.5,-415.5 43.5,-415.5"/>
<text text-anchor="start" x="50.5" y="-426.9" font-family="Arial" font-size="14.00" fill="#000000">created_at </text>
<text text-anchor="start" x="120.528" y="-426.9" font-family="Arial" font-size="14.00" fill="#666666">[datetime(6)]</text>
<polygon fill="none" stroke="#000000" points="43.5,-385.5 43.5,-415.5 226.5,-415.5 226.5,-385.5 43.5,-385.5"/>
<text text-anchor="start" x="50.5" y="-396.9" font-family="Arial" font-size="14.00" fill="#000000">updated_at </text>
<text text-anchor="start" x="124.4326" y="-396.9" font-family="Arial" font-size="14.00" fill="#666666">[datetime(6)]</text>
</g>
<!-- accounts&#45;&gt;users -->
<g id="edge1" class="edge">
<title>accounts:user_id&#45;&gt;users:id</title>
<path fill="none" stroke="#000000" d="M236.7821,-489.7131C289.9096,-480.7607 240.9251,-397.4219 277.5,-343 327.3028,-268.8955 339.215,-210.5 428.5,-210.5"/>
<polygon fill="#000000" stroke="#000000" points="236.4708,-489.7369 226.1566,-486.0131 231.4854,-490.1184 226.5,-490.5 226.5,-490.5 226.5,-490.5 231.4854,-490.1184 226.8434,-494.9869 236.4708,-489.7369 236.4708,-489.7369"/>
<text text-anchor="start" x="233.445" y="-500.5" font-family="Arial" font-size="10.00" fill="#000000">FOREIGN KEY (user_id) REFERENCES users (id)</text>
</g>
<!-- contest_team_user_belongings -->
<g id="node3" class="node">
<title>contest_team_user_belongings</title>
<polygon fill="#efefef" stroke="transparent" points="330.5,-565.5 330.5,-600.5 691.5,-600.5 691.5,-565.5 330.5,-565.5"/>
<polygon fill="none" stroke="#000000" points="330.5,-565.5 330.5,-600.5 691.5,-600.5 691.5,-565.5 330.5,-565.5"/>
<text text-anchor="start" x="337.3307" y="-578.3" font-family="Arial Bold" font-size="18.00" fill="#000000">contest_team_user_belongings</text>
<text text-anchor="start" x="587.4155" y="-578.3" font-family="Arial" font-size="14.00" fill="#000000"> </text>
<text text-anchor="start" x="591.3061" y="-578.3" font-family="Arial" font-size="14.00" fill="#666666">[BASE TABLE]</text>
<polygon fill="none" stroke="#000000" points="330.5,-535.5 330.5,-565.5 691.5,-565.5 691.5,-535.5 330.5,-535.5"/>
<text text-anchor="start" x="337.5" y="-546.9" font-family="Arial" font-size="14.00" fill="#000000">team_id </text>
<text text-anchor="start" x="391.1788" y="-546.9" font-family="Arial" font-size="14.00" fill="#666666">[char(36)]</text>
<polygon fill="none" stroke="#000000" points="330.5,-505.5 330.5,-535.5 691.5,-535.5 691.5,-505.5 330.5,-505.5"/>
<text text-anchor="start" x="337.5" y="-516.9" font-family="Arial" font-size="14.00" fill="#000000">user_id </text>
<text text-anchor="start" x="387.2882" y="-516.9" font-family="Arial" font-size="14.00" fill="#666666">[char(36)]</text>
<polygon fill="none" stroke="#000000" points="330.5,-475.5 330.5,-505.5 691.5,-505.5 691.5,-475.5 330.5,-475.5"/>
<text text-anchor="start" x="337.5" y="-486.9" font-family="Arial" font-size="14.00" fill="#000000">created_at </text>
<text text-anchor="start" x="407.528" y="-486.9" font-family="Arial" font-size="14.00" fill="#666666">[datetime(6)]</text>
<polygon fill="none" stroke="#000000" points="330.5,-445.5 330.5,-475.5 691.5,-475.5 691.5,-445.5 330.5,-445.5"/>
<text text-anchor="start" x="337.5" y="-456.9" font-family="Arial" font-size="14.00" fill="#000000">updated_at </text>
<text text-anchor="start" x="411.4326" y="-456.9" font-family="Arial" font-size="14.00" fill="#666666">[datetime(6)]</text>
</g>
<!-- contest_team_user_belongings&#45;&gt;users -->
<g id="edge2" class="edge">
<title>contest_team_user_belongings:user_id&#45;&gt;users:id</title>
<path fill="none" stroke="#000000" d="M701.9236,-519.309C740.3716,-509.5863 719.212,-442.6158 691.5,-403 620.1756,-301.0378 499.8244,-408.9622 428.5,-307 403.9162,-271.8561 385.6111,-210.5 428.5,-210.5"/>
<polygon fill="#000000" stroke="#000000" points="701.4354,-519.3647 690.9891,-516.0291 696.4677,-519.9324 691.5,-520.5 691.5,-520.5 691.5,-520.5 696.4677,-519.9324 692.0109,-524.9709 701.4354,-519.3647 701.4354,-519.3647"/>
<text text-anchor="start" x="578.445" y="-504.5" font-family="Arial" font-size="10.00" fill="#000000">FOREIGN KEY (user_id) REFERENCES users (id)</text>
</g>
<!-- project_members -->
<g id="node4" class="node">
<title>project_members</title>
<polygon fill="#efefef" stroke="transparent" points="795.5,-580.5 795.5,-615.5 1045.5,-615.5 1045.5,-580.5 795.5,-580.5"/>
<polygon fill="none" stroke="#000000" points="795.5,-580.5 795.5,-615.5 1045.5,-615.5 1045.5,-580.5 795.5,-580.5"/>
<text text-anchor="start" x="802.3688" y="-593.3" font-family="Arial Bold" font-size="18.00" fill="#000000">project_members</text>
<text text-anchor="start" x="941.3774" y="-593.3" font-family="Arial" font-size="14.00" fill="#000000"> </text>
<text text-anchor="start" x="945.268" y="-593.3" font-family="Arial" font-size="14.00" fill="#666666">[BASE TABLE]</text>
<polygon fill="none" stroke="#000000" points="795.5,-550.5 795.5,-580.5 1045.5,-580.5 1045.5,-550.5 795.5,-550.5"/>
<text text-anchor="start" x="802.5" y="-561.9" font-family="Arial" font-size="14.00" fill="#000000">id </text>
<text text-anchor="start" x="817.2798" y="-561.9" font-family="Arial" font-size="14.00" fill="#666666">[char(36)]</text>
<polygon fill="none" stroke="#000000" points="795.5,-520.5 795.5,-550.5 1045.5,-550.5 1045.5,-520.5 795.5,-520.5"/>
<text text-anchor="start" x="802.5" y="-531.9" font-family="Arial" font-size="14.00" fill="#000000">project_id </text>
<text text-anchor="start" x="867.068" y="-531.9" font-family="Arial" font-size="14.00" fill="#666666">[char(36)]</text>
<polygon fill="none" stroke="#000000" points="795.5,-490.5 795.5,-520.5 1045.5,-520.5 1045.5,-490.5 795.5,-490.5"/>
<text text-anchor="start" x="802.5" y="-501.9" font-family="Arial" font-size="14.00" fill="#000000">user_id </text>
<text text-anchor="start" x="852.2882" y="-501.9" font-family="Arial" font-size="14.00" fill="#666666">[char(36)]</text>
<polygon fill="none" stroke="#000000" points="795.5,-460.5 795.5,-490.5 1045.5,-490.5 1045.5,-460.5 795.5,-460.5"/>
<text text-anchor="start" x="802.5" y="-471.9" font-family="Arial" font-size="14.00" fill="#000000">since </text>
<text text-anchor="start" x="839.0624" y="-471.9" font-family="Arial" font-size="14.00" fill="#666666">[datetime(6)]</text>
<polygon fill="none" stroke="#000000" points="795.5,-430.5 795.5,-460.5 1045.5,-460.5 1045.5,-430.5 795.5,-430.5"/>
<text text-anchor="start" x="802.5" y="-441.9" font-family="Arial" font-size="14.00" fill="#000000">until </text>
<text text-anchor="start" x="832.0596" y="-441.9" font-family="Arial" font-size="14.00" fill="#666666">[datetime(6)]</text>
</g>
<!-- project_members&#45;&gt;users -->
<g id="edge3" class="edge">
<title>project_members:user_id&#45;&gt;users:id</title>
<path fill="none" stroke="#000000" d="M785.3719,-504.808C725.7818,-495.9223 782.8357,-403.457 743.5,-343 695.1704,-268.7199 683.1188,-210.5 594.5,-210.5"/>
<polygon fill="#000000" stroke="#000000" points="785.5233,-504.8182 795.1932,-509.9895 790.5116,-505.1591 795.5,-505.5 795.5,-505.5 795.5,-505.5 790.5116,-505.1591 795.8068,-501.0105 785.5233,-504.8182 785.5233,-504.8182"/>
<text text-anchor="start" x="622.445" y="-489.5" font-family="Arial" font-size="10.00" fill="#000000">FOREIGN KEY (user_id) REFERENCES users (id)</text>
</g>
</g>
</svg>
