<?xml version="1.0" encoding="UTF-8" standalone="no"?>
<!DOCTYPE svg PUBLIC "-//W3C//DTD SVG 1.1//EN"
 "http://www.w3.org/Graphics/SVG/1.1/DTD/svg11.dtd">
<!-- Generated by graphviz version 2.40.1 (20161225.0304)
 -->
<!-- Title: users Pages: 1 -->
<svg width="1500pt" height="742pt"
 viewBox="0.00 0.00 1499.50 742.00" xmlns="http://www.w3.org/2000/svg" xmlns:xlink="http://www.w3.org/1999/xlink">
<g id="graph0" class="graph" transform="scale(1 1) rotate(0) translate(4 738)">
<title>users</title>
<polygon fill="#ffffff" stroke="transparent" points="-4,4 -4,-738 1495.5,-738 1495.5,4 -4,4"/>
<!-- users -->
<g id="node1" class="node">
<title>users</title>
<polygon fill="#efefef" stroke="transparent" points="645.5,-225.5 645.5,-260.5 811.5,-260.5 811.5,-225.5 645.5,-225.5"/>
<polygon fill="none" stroke="#000000" points="645.5,-225.5 645.5,-260.5 811.5,-260.5 811.5,-225.5 645.5,-225.5"/>
<text text-anchor="start" x="657.8708" y="-238.3" font-family="Arial Bold" font-size="18.00" fill="#000000">users</text>
<text text-anchor="start" x="701.8754" y="-238.3" font-family="Arial" font-size="14.00" fill="#000000"> </text>
<text text-anchor="start" x="705.766" y="-238.3" font-family="Arial" font-size="14.00" fill="#666666">[BASE TABLE]</text>
<polygon fill="none" stroke="#000000" points="645.5,-195.5 645.5,-225.5 811.5,-225.5 811.5,-195.5 645.5,-195.5"/>
<text text-anchor="start" x="652.5" y="-206.9" font-family="Arial" font-size="14.00" fill="#000000">id </text>
<text text-anchor="start" x="667.2798" y="-206.9" font-family="Arial" font-size="14.00" fill="#666666">[char(36)]</text>
<polygon fill="none" stroke="#000000" points="645.5,-165.5 645.5,-195.5 811.5,-195.5 811.5,-165.5 645.5,-165.5"/>
<text text-anchor="start" x="652.5" y="-176.9" font-family="Arial" font-size="14.00" fill="#000000">description </text>
<text text-anchor="start" x="724.068" y="-176.9" font-family="Arial" font-size="14.00" fill="#666666">[text]</text>
<polygon fill="none" stroke="#000000" points="645.5,-135.5 645.5,-165.5 811.5,-165.5 811.5,-135.5 645.5,-135.5"/>
<text text-anchor="start" x="652.5" y="-146.9" font-family="Arial" font-size="14.00" fill="#000000">check </text>
<text text-anchor="start" x="692.9558" y="-146.9" font-family="Arial" font-size="14.00" fill="#666666">[tinyint(1)]</text>
<polygon fill="none" stroke="#000000" points="645.5,-105.5 645.5,-135.5 811.5,-135.5 811.5,-105.5 645.5,-105.5"/>
<text text-anchor="start" x="652.5" y="-116.9" font-family="Arial" font-size="14.00" fill="#000000">name </text>
<text text-anchor="start" x="691.399" y="-116.9" font-family="Arial" font-size="14.00" fill="#666666">[varchar(32)]</text>
<polygon fill="none" stroke="#000000" points="645.5,-75.5 645.5,-105.5 811.5,-105.5 811.5,-75.5 645.5,-75.5"/>
<text text-anchor="start" x="652.5" y="-86.9" font-family="Arial" font-size="14.00" fill="#000000">created_at </text>
<text text-anchor="start" x="722.528" y="-86.9" font-family="Arial" font-size="14.00" fill="#666666">[datetime(6)]</text>
<polygon fill="none" stroke="#000000" points="645.5,-45.5 645.5,-75.5 811.5,-75.5 811.5,-45.5 645.5,-45.5"/>
<text text-anchor="start" x="652.2518" y="-56.9" font-family="Arial" font-size="14.00" fill="#000000">updated_at </text>
<text text-anchor="start" x="726.1844" y="-56.9" font-family="Arial" font-size="14.00" fill="#666666">[datetime(6)]</text>
<polygon fill="none" stroke="#000000" stroke-width="3" points="644,-44.5 644,-262.5 813,-262.5 813,-44.5 644,-44.5"/>
</g>
<!-- accounts -->
<g id="node2" class="node">
<title>accounts</title>
<polygon fill="#efefef" stroke="transparent" points="43.5,-640.5 43.5,-675.5 226.5,-675.5 226.5,-640.5 43.5,-640.5"/>
<polygon fill="none" stroke="#000000" points="43.5,-640.5 43.5,-675.5 226.5,-675.5 226.5,-640.5 43.5,-640.5"/>
<text text-anchor="start" x="50.3596" y="-653.3" font-family="Arial Bold" font-size="18.00" fill="#000000">accounts</text>
<text text-anchor="start" x="122.3866" y="-653.3" font-family="Arial" font-size="14.00" fill="#000000"> </text>
<text text-anchor="start" x="126.2772" y="-653.3" font-family="Arial" font-size="14.00" fill="#666666">[BASE TABLE]</text>
<polygon fill="none" stroke="#000000" points="43.5,-610.5 43.5,-640.5 226.5,-640.5 226.5,-610.5 43.5,-610.5"/>
<text text-anchor="start" x="50.5" y="-621.9" font-family="Arial" font-size="14.00" fill="#000000">id </text>
<text text-anchor="start" x="65.2798" y="-621.9" font-family="Arial" font-size="14.00" fill="#666666">[char(36)]</text>
<polygon fill="none" stroke="#000000" points="43.5,-580.5 43.5,-610.5 226.5,-610.5 226.5,-580.5 43.5,-580.5"/>
<text text-anchor="start" x="50.5" y="-591.9" font-family="Arial" font-size="14.00" fill="#000000">type </text>
<text text-anchor="start" x="80.8464" y="-591.9" font-family="Arial" font-size="14.00" fill="#666666">[tinyint(1)]</text>
<polygon fill="none" stroke="#000000" points="43.5,-550.5 43.5,-580.5 226.5,-580.5 226.5,-550.5 43.5,-550.5"/>
<text text-anchor="start" x="50.5" y="-561.9" font-family="Arial" font-size="14.00" fill="#000000">name </text>
<text text-anchor="start" x="89.399" y="-561.9" font-family="Arial" font-size="14.00" fill="#666666">[varchar(32)]</text>
<polygon fill="none" stroke="#000000" points="43.5,-520.5 43.5,-550.5 226.5,-550.5 226.5,-520.5 43.5,-520.5"/>
<text text-anchor="start" x="50.5" y="-531.9" font-family="Arial" font-size="14.00" fill="#000000">url </text>
<text text-anchor="start" x="69.9404" y="-531.9" font-family="Arial" font-size="14.00" fill="#666666">[text]</text>
<polygon fill="none" stroke="#000000" points="43.5,-490.5 43.5,-520.5 226.5,-520.5 226.5,-490.5 43.5,-490.5"/>
<text text-anchor="start" x="50.5" y="-501.9" font-family="Arial" font-size="14.00" fill="#000000">user_id </text>
<text text-anchor="start" x="100.2882" y="-501.9" font-family="Arial" font-size="14.00" fill="#666666">[char(36)]</text>
<polygon fill="none" stroke="#000000" points="43.5,-460.5 43.5,-490.5 226.5,-490.5 226.5,-460.5 43.5,-460.5"/>
<text text-anchor="start" x="50.5" y="-471.9" font-family="Arial" font-size="14.00" fill="#000000">check </text>
<text text-anchor="start" x="90.9558" y="-471.9" font-family="Arial" font-size="14.00" fill="#666666">[tinyint(1)]</text>
<polygon fill="none" stroke="#000000" points="43.5,-430.5 43.5,-460.5 226.5,-460.5 226.5,-430.5 43.5,-430.5"/>
<text text-anchor="start" x="50.5" y="-441.9" font-family="Arial" font-size="14.00" fill="#000000">created_at </text>
<text text-anchor="start" x="120.528" y="-441.9" font-family="Arial" font-size="14.00" fill="#666666">[datetime(6)]</text>
<polygon fill="none" stroke="#000000" points="43.5,-400.5 43.5,-430.5 226.5,-430.5 226.5,-400.5 43.5,-400.5"/>
<text text-anchor="start" x="50.5" y="-411.9" font-family="Arial" font-size="14.00" fill="#000000">updated_at </text>
<text text-anchor="start" x="124.4326" y="-411.9" font-family="Arial" font-size="14.00" fill="#666666">[datetime(6)]</text>
</g>
<!-- accounts&#45;&gt;users -->
<g id="edge1" class="edge">
<title>accounts:user_id&#45;&gt;users:id</title>
<path fill="none" stroke="#000000" d="M236.5282,-504.7472C294.9752,-495.0922 227.6557,-394.9566 277.5,-343 397.8429,-217.5572 471.6658,-210.5 645.5,-210.5"/>
<polygon fill="#000000" stroke="#000000" points="236.4719,-504.7513 226.1631,-501.0126 231.486,-505.1256 226.5,-505.5 226.5,-505.5 226.5,-505.5 231.486,-505.1256 226.8369,-509.9874 236.4719,-504.7513 236.4719,-504.7513"/>
<text text-anchor="start" x="113.445" y="-489.5" font-family="Arial" font-size="10.00" fill="#000000">FOREIGN KEY (user_id) REFERENCES users (id)</text>
</g>
<!-- contest_team_user_belongings -->
<g id="node3" class="node">
<title>contest_team_user_belongings</title>
<polygon fill="#efefef" stroke="transparent" points="330.5,-580.5 330.5,-615.5 691.5,-615.5 691.5,-580.5 330.5,-580.5"/>
<polygon fill="none" stroke="#000000" points="330.5,-580.5 330.5,-615.5 691.5,-615.5 691.5,-580.5 330.5,-580.5"/>
<text text-anchor="start" x="337.3307" y="-593.3" font-family="Arial Bold" font-size="18.00" fill="#000000">contest_team_user_belongings</text>
<text text-anchor="start" x="587.4155" y="-593.3" font-family="Arial" font-size="14.00" fill="#000000"> </text>
<text text-anchor="start" x="591.3061" y="-593.3" font-family="Arial" font-size="14.00" fill="#666666">[BASE TABLE]</text>
<polygon fill="none" stroke="#000000" points="330.5,-550.5 330.5,-580.5 691.5,-580.5 691.5,-550.5 330.5,-550.5"/>
<text text-anchor="start" x="337.5" y="-561.9" font-family="Arial" font-size="14.00" fill="#000000">team_id </text>
<text text-anchor="start" x="391.1788" y="-561.9" font-family="Arial" font-size="14.00" fill="#666666">[char(36)]</text>
<polygon fill="none" stroke="#000000" points="330.5,-520.5 330.5,-550.5 691.5,-550.5 691.5,-520.5 330.5,-520.5"/>
<text text-anchor="start" x="337.5" y="-531.9" font-family="Arial" font-size="14.00" fill="#000000">user_id </text>
<text text-anchor="start" x="387.2882" y="-531.9" font-family="Arial" font-size="14.00" fill="#666666">[char(36)]</text>
<polygon fill="none" stroke="#000000" points="330.5,-490.5 330.5,-520.5 691.5,-520.5 691.5,-490.5 330.5,-490.5"/>
<text text-anchor="start" x="337.5" y="-501.9" font-family="Arial" font-size="14.00" fill="#000000">created_at </text>
<text text-anchor="start" x="407.528" y="-501.9" font-family="Arial" font-size="14.00" fill="#666666">[datetime(6)]</text>
<polygon fill="none" stroke="#000000" points="330.5,-460.5 330.5,-490.5 691.5,-490.5 691.5,-460.5 330.5,-460.5"/>
<text text-anchor="start" x="337.5" y="-471.9" font-family="Arial" font-size="14.00" fill="#000000">updated_at </text>
<text text-anchor="start" x="411.4326" y="-471.9" font-family="Arial" font-size="14.00" fill="#666666">[datetime(6)]</text>
</g>
<!-- contest_team_user_belongings&#45;&gt;users -->
<g id="edge2" class="edge">
<title>contest_team_user_belongings:user_id&#45;&gt;users:id</title>
<path fill="none" stroke="#000000" d="M701.6927,-534.8821C820.5436,-519.2056 503.32,-210.5 645.5,-210.5"/>
<polygon fill="#000000" stroke="#000000" points="701.4817,-534.8948 691.2276,-531.0082 696.4908,-535.1974 691.5,-535.5 691.5,-535.5 691.5,-535.5 696.4908,-535.1974 691.7724,-539.9918 701.4817,-534.8948 701.4817,-534.8948"/>
<text text-anchor="start" x="698.445" y="-545.5" font-family="Arial" font-size="10.00" fill="#000000">FOREIGN KEY (user_id) REFERENCES users (id)</text>
</g>
<!-- group_user_belongings -->
<g id="node4" class="node">
<title>group_user_belongings</title>
<polygon fill="#efefef" stroke="transparent" points="795.5,-640.5 795.5,-675.5 1094.5,-675.5 1094.5,-640.5 795.5,-640.5"/>
<polygon fill="none" stroke="#000000" points="795.5,-640.5 795.5,-675.5 1094.5,-675.5 1094.5,-640.5 795.5,-640.5"/>
<text text-anchor="start" x="802.3402" y="-653.3" font-family="Arial Bold" font-size="18.00" fill="#000000">group_user_belongings</text>
<text text-anchor="start" x="990.406" y="-653.3" font-family="Arial" font-size="14.00" fill="#000000"> </text>
<text text-anchor="start" x="994.2966" y="-653.3" font-family="Arial" font-size="14.00" fill="#666666">[BASE TABLE]</text>
<polygon fill="none" stroke="#000000" points="795.5,-610.5 795.5,-640.5 1094.5,-640.5 1094.5,-610.5 795.5,-610.5"/>
<text text-anchor="start" x="802.5" y="-621.9" font-family="Arial" font-size="14.00" fill="#000000">user_id </text>
<text text-anchor="start" x="852.2882" y="-621.9" font-family="Arial" font-size="14.00" fill="#666666">[char(36)]</text>
<polygon fill="none" stroke="#000000" points="795.5,-580.5 795.5,-610.5 1094.5,-610.5 1094.5,-580.5 795.5,-580.5"/>
<text text-anchor="start" x="802.5" y="-591.9" font-family="Arial" font-size="14.00" fill="#000000">group_id </text>
<text text-anchor="start" x="860.8534" y="-591.9" font-family="Arial" font-size="14.00" fill="#666666">[char(36)]</text>
<polygon fill="none" stroke="#000000" points="795.5,-550.5 795.5,-580.5 1094.5,-580.5 1094.5,-550.5 795.5,-550.5"/>
<text text-anchor="start" x="802.5" y="-561.9" font-family="Arial" font-size="14.00" fill="#000000">since_year </text>
<text text-anchor="start" x="874.0708" y="-561.9" font-family="Arial" font-size="14.00" fill="#666666">[smallint(4)]</text>
<polygon fill="none" stroke="#000000" points="795.5,-520.5 795.5,-550.5 1094.5,-550.5 1094.5,-520.5 795.5,-520.5"/>
<text text-anchor="start" x="802.5" y="-531.9" font-family="Arial" font-size="14.00" fill="#000000">since_semester </text>
<text text-anchor="start" x="904.4046" y="-531.9" font-family="Arial" font-size="14.00" fill="#666666">[tinyint(1)]</text>
<polygon fill="none" stroke="#000000" points="795.5,-490.5 795.5,-520.5 1094.5,-520.5 1094.5,-490.5 795.5,-490.5"/>
<text text-anchor="start" x="802.5" y="-501.9" font-family="Arial" font-size="14.00" fill="#000000">until_year </text>
<text text-anchor="start" x="867.068" y="-501.9" font-family="Arial" font-size="14.00" fill="#666666">[smallint(4)]</text>
<polygon fill="none" stroke="#000000" points="795.5,-460.5 795.5,-490.5 1094.5,-490.5 1094.5,-460.5 795.5,-460.5"/>
<text text-anchor="start" x="802.5" y="-471.9" font-family="Arial" font-size="14.00" fill="#000000">until_semester </text>
<text text-anchor="start" x="897.4018" y="-471.9" font-family="Arial" font-size="14.00" fill="#666666">[tinyint(1)]</text>
<polygon fill="none" stroke="#000000" points="795.5,-430.5 795.5,-460.5 1094.5,-460.5 1094.5,-430.5 795.5,-430.5"/>
<text text-anchor="start" x="802.5" y="-441.9" font-family="Arial" font-size="14.00" fill="#000000">created_at </text>
<text text-anchor="start" x="872.528" y="-441.9" font-family="Arial" font-size="14.00" fill="#666666">[datetime(6)]</text>
<polygon fill="none" stroke="#000000" points="795.5,-400.5 795.5,-430.5 1094.5,-430.5 1094.5,-400.5 795.5,-400.5"/>
<text text-anchor="start" x="802.5" y="-411.9" font-family="Arial" font-size="14.00" fill="#000000">updated_at </text>
<text text-anchor="start" x="876.4326" y="-411.9" font-family="Arial" font-size="14.00" fill="#666666">[datetime(6)]</text>
</g>
<!-- group_user_belongings&#45;&gt;users -->
<g id="edge3" class="edge">
<title>group_user_belongings:user_id&#45;&gt;users:id</title>
<path fill="none" stroke="#000000" d="M785.605,-623.1414C742.1991,-599.9932 787.0617,-413.0866 795.5,-358 799.097,-334.5179 807.903,-330.4821 811.5,-307 817.9941,-264.6056 854.3889,-210.5 811.5,-210.5"/>
<polygon fill="#000000" stroke="#000000" points="785.7725,-623.1813 794.4566,-629.8774 790.6363,-624.3406 795.5,-625.5 795.5,-625.5 795.5,-625.5 790.6363,-624.3406 796.5434,-621.1226 785.7725,-623.1813 785.7725,-623.1813"/>
<text text-anchor="start" x="742.445" y="-609.5" font-family="Arial" font-size="10.00" fill="#000000">FOREIGN KEY (user_id) REFERENCES users (id)</text>
</g>
<!-- project_members -->
<g id="node5" class="node">
<title>project_members</title>
<polygon fill="#efefef" stroke="transparent" points="1198.5,-655.5 1198.5,-690.5 1448.5,-690.5 1448.5,-655.5 1198.5,-655.5"/>
<polygon fill="none" stroke="#000000" points="1198.5,-655.5 1198.5,-690.5 1448.5,-690.5 1448.5,-655.5 1198.5,-655.5"/>
<text text-anchor="start" x="1205.3688" y="-668.3" font-family="Arial Bold" font-size="18.00" fill="#000000">project_members</text>
<text text-anchor="start" x="1344.3774" y="-668.3" font-family="Arial" font-size="14.00" fill="#000000"> </text>
<text text-anchor="start" x="1348.268" y="-668.3" font-family="Arial" font-size="14.00" fill="#666666">[BASE TABLE]</text>
<polygon fill="none" stroke="#000000" points="1198.5,-625.5 1198.5,-655.5 1448.5,-655.5 1448.5,-625.5 1198.5,-625.5"/>
<text text-anchor="start" x="1205.5" y="-636.9" font-family="Arial" font-size="14.00" fill="#000000">id </text>
<text text-anchor="start" x="1220.2798" y="-636.9" font-family="Arial" font-size="14.00" fill="#666666">[char(36)]</text>
<polygon fill="none" stroke="#000000" points="1198.5,-595.5 1198.5,-625.5 1448.5,-625.5 1448.5,-595.5 1198.5,-595.5"/>
<text text-anchor="start" x="1205.5" y="-606.9" font-family="Arial" font-size="14.00" fill="#000000">project_id </text>
<text text-anchor="start" x="1270.068" y="-606.9" font-family="Arial" font-size="14.00" fill="#666666">[char(36)]</text>
<polygon fill="none" stroke="#000000" points="1198.5,-565.5 1198.5,-595.5 1448.5,-595.5 1448.5,-565.5 1198.5,-565.5"/>
<text text-anchor="start" x="1205.5" y="-576.9" font-family="Arial" font-size="14.00" fill="#000000">user_id </text>
<text text-anchor="start" x="1255.2882" y="-576.9" font-family="Arial" font-size="14.00" fill="#666666">[char(36)]</text>
<polygon fill="none" stroke="#000000" points="1198.5,-535.5 1198.5,-565.5 1448.5,-565.5 1448.5,-535.5 1198.5,-535.5"/>
<text text-anchor="start" x="1205.5" y="-546.9" font-family="Arial" font-size="14.00" fill="#000000">since_year </text>
<text text-anchor="start" x="1277.0708" y="-546.9" font-family="Arial" font-size="14.00" fill="#666666">[smallint(4)]</text>
<polygon fill="none" stroke="#000000" points="1198.5,-505.5 1198.5,-535.5 1448.5,-535.5 1448.5,-505.5 1198.5,-505.5"/>
<text text-anchor="start" x="1205.5" y="-516.9" font-family="Arial" font-size="14.00" fill="#000000">since_semester </text>
<text text-anchor="start" x="1307.4046" y="-516.9" font-family="Arial" font-size="14.00" fill="#666666">[tinyint(1)]</text>
<polygon fill="none" stroke="#000000" points="1198.5,-475.5 1198.5,-505.5 1448.5,-505.5 1448.5,-475.5 1198.5,-475.5"/>
<text text-anchor="start" x="1205.5" y="-486.9" font-family="Arial" font-size="14.00" fill="#000000">until_year </text>
<text text-anchor="start" x="1270.068" y="-486.9" font-family="Arial" font-size="14.00" fill="#666666">[smallint(4)]</text>
<polygon fill="none" stroke="#000000" points="1198.5,-445.5 1198.5,-475.5 1448.5,-475.5 1448.5,-445.5 1198.5,-445.5"/>
<text text-anchor="start" x="1205.5" y="-456.9" font-family="Arial" font-size="14.00" fill="#000000">until_semester </text>
<text text-anchor="start" x="1300.4018" y="-456.9" font-family="Arial" font-size="14.00" fill="#666666">[tinyint(1)]</text>
<polygon fill="none" stroke="#000000" points="1198.5,-415.5 1198.5,-445.5 1448.5,-445.5 1448.5,-415.5 1198.5,-415.5"/>
<text text-anchor="start" x="1205.5" y="-426.9" font-family="Arial" font-size="14.00" fill="#000000">created_at </text>
<text text-anchor="start" x="1275.528" y="-426.9" font-family="Arial" font-size="14.00" fill="#666666">[datetime(6)]</text>
<polygon fill="none" stroke="#000000" points="1198.5,-385.5 1198.5,-415.5 1448.5,-415.5 1448.5,-385.5 1198.5,-385.5"/>
<text text-anchor="start" x="1205.5" y="-396.9" font-family="Arial" font-size="14.00" fill="#000000">updated_at </text>
<text text-anchor="start" x="1279.4326" y="-396.9" font-family="Arial" font-size="14.00" fill="#666666">[datetime(6)]</text>
</g>
<!-- project_members&#45;&gt;users -->
<g id="edge4" class="edge">
<title>project_members:user_id&#45;&gt;users:id</title>
<path fill="none" stroke="#000000" d="M1188.4952,-579.9951C1098.5995,-570.2746 1214.1871,-422.5743 1146.5,-343 1042.7603,-221.0415 971.6118,-210.5 811.5,-210.5"/>
<polygon fill="#000000" stroke="#000000" points="1188.5127,-579.9959 1198.2731,-584.9943 1193.5064,-580.2479 1198.5,-580.5 1198.5,-580.5 1198.5,-580.5 1193.5064,-580.2479 1198.7269,-576.0057 1188.5127,-579.9959 1188.5127,-579.9959"/>
<text text-anchor="start" x="1025.445" y="-564.5" font-family="Arial" font-size="10.00" fill="#000000">FOREIGN KEY (user_id) REFERENCES users (id)</text>
</g>
</g>
</svg>
