<?xml version="1.0" encoding="UTF-8" standalone="no"?>
<!DOCTYPE svg PUBLIC "-//W3C//DTD SVG 1.1//EN"
 "http://www.w3.org/Graphics/SVG/1.1/DTD/svg11.dtd">
<!-- Generated by graphviz version 2.40.1 (20161225.0304)
 -->
<!-- Title: users Pages: 1 -->
<svg width="1620pt" height="742pt"
 viewBox="0.00 0.00 1619.50 742.00" xmlns="http://www.w3.org/2000/svg" xmlns:xlink="http://www.w3.org/1999/xlink">
<g id="graph0" class="graph" transform="scale(1 1) rotate(0) translate(4 738)">
<title>users</title>
<polygon fill="#ffffff" stroke="transparent" points="-4,4 -4,-738 1615.5,-738 1615.5,4 -4,4"/>
<!-- users -->
<g id="node1" class="node">
<title>users</title>
<polygon fill="#efefef" stroke="transparent" points="695.5,-225.5 695.5,-260.5 880.5,-260.5 880.5,-225.5 695.5,-225.5"/>
<polygon fill="none" stroke="#000000" points="695.5,-225.5 695.5,-260.5 880.5,-260.5 880.5,-225.5 695.5,-225.5"/>
<text text-anchor="start" x="702.2137" y="-238.3" font-family="Arial Bold" font-size="18.00" fill="#000000">users</text>
<text text-anchor="start" x="746.2183" y="-238.3" font-family="Arial" font-size="14.00" fill="#000000">    </text>
<text text-anchor="start" x="780.4231" y="-238.3" font-family="Arial" font-size="14.00" fill="#666666">[BASE TABLE]</text>
<polygon fill="none" stroke="#000000" points="695.5,-195.5 695.5,-225.5 880.5,-225.5 880.5,-195.5 695.5,-195.5"/>
<text text-anchor="start" x="702.5" y="-206.9" font-family="Arial" font-size="14.00" fill="#000000">id </text>
<text text-anchor="start" x="717.2798" y="-206.9" font-family="Arial" font-size="14.00" fill="#666666">[char(36)]</text>
<polygon fill="none" stroke="#000000" points="695.5,-165.5 695.5,-195.5 880.5,-195.5 880.5,-165.5 695.5,-165.5"/>
<text text-anchor="start" x="702.5" y="-176.9" font-family="Arial" font-size="14.00" fill="#000000">description </text>
<text text-anchor="start" x="774.068" y="-176.9" font-family="Arial" font-size="14.00" fill="#666666">[text]</text>
<polygon fill="none" stroke="#000000" points="695.5,-135.5 695.5,-165.5 880.5,-165.5 880.5,-135.5 695.5,-135.5"/>
<text text-anchor="start" x="702.5" y="-146.9" font-family="Arial" font-size="14.00" fill="#000000">check </text>
<text text-anchor="start" x="742.9558" y="-146.9" font-family="Arial" font-size="14.00" fill="#666666">[tinyint(1)]</text>
<polygon fill="none" stroke="#000000" points="695.5,-105.5 695.5,-135.5 880.5,-135.5 880.5,-105.5 695.5,-105.5"/>
<text text-anchor="start" x="702.5" y="-116.9" font-family="Arial" font-size="14.00" fill="#000000">name </text>
<text text-anchor="start" x="741.399" y="-116.9" font-family="Arial" font-size="14.00" fill="#666666">[varchar(32)]</text>
<polygon fill="none" stroke="#000000" points="695.5,-75.5 695.5,-105.5 880.5,-105.5 880.5,-75.5 695.5,-75.5"/>
<text text-anchor="start" x="702.5" y="-86.9" font-family="Arial" font-size="14.00" fill="#000000">created_at </text>
<text text-anchor="start" x="772.528" y="-86.9" font-family="Arial" font-size="14.00" fill="#666666">[datetime(6)]</text>
<polygon fill="none" stroke="#000000" points="695.5,-45.5 695.5,-75.5 880.5,-75.5 880.5,-45.5 695.5,-45.5"/>
<text text-anchor="start" x="702.5" y="-56.9" font-family="Arial" font-size="14.00" fill="#000000">updated_at </text>
<text text-anchor="start" x="776.4326" y="-56.9" font-family="Arial" font-size="14.00" fill="#666666">[datetime(6)]</text>
<polygon fill="none" stroke="#000000" stroke-width="3" points="693.5,-44.5 693.5,-262.5 881.5,-262.5 881.5,-44.5 693.5,-44.5"/>
</g>
<!-- accounts -->
<g id="node2" class="node">
<title>accounts</title>
<polygon fill="#efefef" stroke="transparent" points="43.5,-640.5 43.5,-675.5 256.5,-675.5 256.5,-640.5 43.5,-640.5"/>
<polygon fill="none" stroke="#000000" points="43.5,-640.5 43.5,-675.5 256.5,-675.5 256.5,-640.5 43.5,-640.5"/>
<text text-anchor="start" x="50.2025" y="-653.3" font-family="Arial Bold" font-size="18.00" fill="#000000">accounts</text>
<text text-anchor="start" x="122.2295" y="-653.3" font-family="Arial" font-size="14.00" fill="#000000">    </text>
<text text-anchor="start" x="156.4343" y="-653.3" font-family="Arial" font-size="14.00" fill="#666666">[BASE TABLE]</text>
<polygon fill="none" stroke="#000000" points="43.5,-610.5 43.5,-640.5 256.5,-640.5 256.5,-610.5 43.5,-610.5"/>
<text text-anchor="start" x="50.5" y="-621.9" font-family="Arial" font-size="14.00" fill="#000000">id    </text>
<text text-anchor="start" x="95.594" y="-621.9" font-family="Arial" font-size="14.00" fill="#666666">[char(36)]</text>
<polygon fill="none" stroke="#000000" points="43.5,-580.5 43.5,-610.5 256.5,-610.5 256.5,-580.5 43.5,-580.5"/>
<text text-anchor="start" x="50.5" y="-591.9" font-family="Arial" font-size="14.00" fill="#000000">type    </text>
<text text-anchor="start" x="111.1606" y="-591.9" font-family="Arial" font-size="14.00" fill="#666666">[tinyint(1)]</text>
<polygon fill="none" stroke="#000000" points="43.5,-550.5 43.5,-580.5 256.5,-580.5 256.5,-550.5 43.5,-550.5"/>
<text text-anchor="start" x="50.5" y="-561.9" font-family="Arial" font-size="14.00" fill="#000000">name    </text>
<text text-anchor="start" x="119.7132" y="-561.9" font-family="Arial" font-size="14.00" fill="#666666">[varchar(256)]</text>
<polygon fill="none" stroke="#000000" points="43.5,-520.5 43.5,-550.5 256.5,-550.5 256.5,-520.5 43.5,-520.5"/>
<text text-anchor="start" x="50.5" y="-531.9" font-family="Arial" font-size="14.00" fill="#000000">url    </text>
<text text-anchor="start" x="100.2546" y="-531.9" font-family="Arial" font-size="14.00" fill="#666666">[text]</text>
<polygon fill="none" stroke="#000000" points="43.5,-490.5 43.5,-520.5 256.5,-520.5 256.5,-490.5 43.5,-490.5"/>
<text text-anchor="start" x="50.5" y="-501.9" font-family="Arial" font-size="14.00" fill="#000000">user_id    </text>
<text text-anchor="start" x="130.6024" y="-501.9" font-family="Arial" font-size="14.00" fill="#666666">[char(36)]</text>
<polygon fill="none" stroke="#000000" points="43.5,-460.5 43.5,-490.5 256.5,-490.5 256.5,-460.5 43.5,-460.5"/>
<text text-anchor="start" x="50.5" y="-471.9" font-family="Arial" font-size="14.00" fill="#000000">check    </text>
<text text-anchor="start" x="121.27" y="-471.9" font-family="Arial" font-size="14.00" fill="#666666">[tinyint(1)]</text>
<polygon fill="none" stroke="#000000" points="43.5,-430.5 43.5,-460.5 256.5,-460.5 256.5,-430.5 43.5,-430.5"/>
<text text-anchor="start" x="50.5" y="-441.9" font-family="Arial" font-size="14.00" fill="#000000">created_at    </text>
<text text-anchor="start" x="150.8422" y="-441.9" font-family="Arial" font-size="14.00" fill="#666666">[datetime(6)]</text>
<polygon fill="none" stroke="#000000" points="43.5,-400.5 43.5,-430.5 256.5,-430.5 256.5,-400.5 43.5,-400.5"/>
<text text-anchor="start" x="50.5" y="-411.9" font-family="Arial" font-size="14.00" fill="#000000">updated_at    </text>
<text text-anchor="start" x="154.7468" y="-411.9" font-family="Arial" font-size="14.00" fill="#666666">[datetime(6)]</text>
</g>
<!-- accounts&#45;&gt;users -->
<g id="edge1" class="edge">
<title>accounts:user_id&#45;&gt;users:id</title>
<path fill="none" stroke="#000000" d="M266.5252,-504.7442C324.9335,-495.0518 257.2281,-394.5429 307.5,-343 434.7322,-212.5509 513.2776,-210.5 695.5,-210.5"/>
<polygon fill="#000000" stroke="#000000" points="266.4717,-504.7481 256.1617,-501.0127 261.4859,-505.1241 256.5,-505.5 256.5,-505.5 256.5,-505.5 261.4859,-505.1241 256.8383,-509.9873 266.4717,-504.7481 266.4717,-504.7481"/>
<text text-anchor="start" x="143.445" y="-489.5" font-family="Arial" font-size="10.00" fill="#000000">FOREIGN KEY (user_id) REFERENCES users (id)</text>
</g>
<!-- contest_team_user_belongings -->
<g id="node3" class="node">
<title>contest_team_user_belongings</title>
<polygon fill="#efefef" stroke="transparent" points="360.5,-580.5 360.5,-615.5 751.5,-615.5 751.5,-580.5 360.5,-580.5"/>
<polygon fill="none" stroke="#000000" points="360.5,-580.5 360.5,-615.5 751.5,-615.5 751.5,-580.5 360.5,-580.5"/>
<text text-anchor="start" x="367.1736" y="-593.3" font-family="Arial Bold" font-size="18.00" fill="#000000">contest_team_user_belongings</text>
<text text-anchor="start" x="617.2584" y="-593.3" font-family="Arial" font-size="14.00" fill="#000000">    </text>
<text text-anchor="start" x="651.4632" y="-593.3" font-family="Arial" font-size="14.00" fill="#666666">[BASE TABLE]</text>
<polygon fill="none" stroke="#000000" points="360.5,-550.5 360.5,-580.5 751.5,-580.5 751.5,-550.5 360.5,-550.5"/>
<text text-anchor="start" x="367.5" y="-561.9" font-family="Arial" font-size="14.00" fill="#000000">team_id    </text>
<text text-anchor="start" x="451.493" y="-561.9" font-family="Arial" font-size="14.00" fill="#666666">[char(36)]</text>
<polygon fill="none" stroke="#000000" points="360.5,-520.5 360.5,-550.5 751.5,-550.5 751.5,-520.5 360.5,-520.5"/>
<text text-anchor="start" x="367.5" y="-531.9" font-family="Arial" font-size="14.00" fill="#000000">user_id    </text>
<text text-anchor="start" x="447.6024" y="-531.9" font-family="Arial" font-size="14.00" fill="#666666">[char(36)]</text>
<polygon fill="none" stroke="#000000" points="360.5,-490.5 360.5,-520.5 751.5,-520.5 751.5,-490.5 360.5,-490.5"/>
<text text-anchor="start" x="367.5" y="-501.9" font-family="Arial" font-size="14.00" fill="#000000">created_at    </text>
<text text-anchor="start" x="467.8422" y="-501.9" font-family="Arial" font-size="14.00" fill="#666666">[datetime(6)]</text>
<polygon fill="none" stroke="#000000" points="360.5,-460.5 360.5,-490.5 751.5,-490.5 751.5,-460.5 360.5,-460.5"/>
<text text-anchor="start" x="367.5" y="-471.9" font-family="Arial" font-size="14.00" fill="#000000">updated_at    </text>
<text text-anchor="start" x="471.7468" y="-471.9" font-family="Arial" font-size="14.00" fill="#666666">[datetime(6)]</text>
</g>
<!-- contest_team_user_belongings&#45;&gt;users -->
<g id="edge2" class="edge">
<title>contest_team_user_belongings:user_id&#45;&gt;users:id</title>
<path fill="none" stroke="#000000" d="M761.5683,-534.6971C840.137,-520.9717 702.2847,-335.511 695.5,-307 685.5711,-265.2762 652.6111,-210.5 695.5,-210.5"/>
<polygon fill="#000000" stroke="#000000" points="761.4684,-534.705 751.1423,-531.0142 756.4842,-535.1025 751.5,-535.5 751.5,-535.5 751.5,-535.5 756.4842,-535.1025 751.8577,-539.9858 761.4684,-534.705 761.4684,-534.705"/>
<text text-anchor="start" x="758.445" y="-545.5" font-family="Arial" font-size="10.00" fill="#000000">FOREIGN KEY (user_id) REFERENCES users (id)</text>
</g>
<!-- group_user_belongings -->
<g id="node4" class="node">
<title>group_user_belongings</title>
<polygon fill="#efefef" stroke="transparent" points="855.5,-640.5 855.5,-675.5 1184.5,-675.5 1184.5,-640.5 855.5,-640.5"/>
<polygon fill="none" stroke="#000000" points="855.5,-640.5 855.5,-675.5 1184.5,-675.5 1184.5,-640.5 855.5,-640.5"/>
<text text-anchor="start" x="862.1831" y="-653.3" font-family="Arial Bold" font-size="18.00" fill="#000000">group_user_belongings</text>
<text text-anchor="start" x="1050.2489" y="-653.3" font-family="Arial" font-size="14.00" fill="#000000">    </text>
<text text-anchor="start" x="1084.4537" y="-653.3" font-family="Arial" font-size="14.00" fill="#666666">[BASE TABLE]</text>
<polygon fill="none" stroke="#000000" points="855.5,-610.5 855.5,-640.5 1184.5,-640.5 1184.5,-610.5 855.5,-610.5"/>
<text text-anchor="start" x="862.5" y="-621.9" font-family="Arial" font-size="14.00" fill="#000000">user_id    </text>
<text text-anchor="start" x="942.6024" y="-621.9" font-family="Arial" font-size="14.00" fill="#666666">[char(36)]</text>
<polygon fill="none" stroke="#000000" points="855.5,-580.5 855.5,-610.5 1184.5,-610.5 1184.5,-580.5 855.5,-580.5"/>
<text text-anchor="start" x="862.5" y="-591.9" font-family="Arial" font-size="14.00" fill="#000000">group_id    </text>
<text text-anchor="start" x="951.1676" y="-591.9" font-family="Arial" font-size="14.00" fill="#666666">[char(36)]</text>
<polygon fill="none" stroke="#000000" points="855.5,-550.5 855.5,-580.5 1184.5,-580.5 1184.5,-550.5 855.5,-550.5"/>
<text text-anchor="start" x="862.5" y="-561.9" font-family="Arial" font-size="14.00" fill="#000000">since_year    </text>
<text text-anchor="start" x="964.385" y="-561.9" font-family="Arial" font-size="14.00" fill="#666666">[smallint(4)]</text>
<polygon fill="none" stroke="#000000" points="855.5,-520.5 855.5,-550.5 1184.5,-550.5 1184.5,-520.5 855.5,-520.5"/>
<text text-anchor="start" x="862.5" y="-531.9" font-family="Arial" font-size="14.00" fill="#000000">since_semester    </text>
<text text-anchor="start" x="994.7188" y="-531.9" font-family="Arial" font-size="14.00" fill="#666666">[tinyint(1)]</text>
<polygon fill="none" stroke="#000000" points="855.5,-490.5 855.5,-520.5 1184.5,-520.5 1184.5,-490.5 855.5,-490.5"/>
<text text-anchor="start" x="862.5" y="-501.9" font-family="Arial" font-size="14.00" fill="#000000">until_year    </text>
<text text-anchor="start" x="957.3822" y="-501.9" font-family="Arial" font-size="14.00" fill="#666666">[smallint(4)]</text>
<polygon fill="none" stroke="#000000" points="855.5,-460.5 855.5,-490.5 1184.5,-490.5 1184.5,-460.5 855.5,-460.5"/>
<text text-anchor="start" x="862.5" y="-471.9" font-family="Arial" font-size="14.00" fill="#000000">until_semester    </text>
<text text-anchor="start" x="987.716" y="-471.9" font-family="Arial" font-size="14.00" fill="#666666">[tinyint(1)]</text>
<polygon fill="none" stroke="#000000" points="855.5,-430.5 855.5,-460.5 1184.5,-460.5 1184.5,-430.5 855.5,-430.5"/>
<text text-anchor="start" x="862.5" y="-441.9" font-family="Arial" font-size="14.00" fill="#000000">created_at    </text>
<text text-anchor="start" x="962.8422" y="-441.9" font-family="Arial" font-size="14.00" fill="#666666">[datetime(6)]</text>
<polygon fill="none" stroke="#000000" points="855.5,-400.5 855.5,-430.5 1184.5,-430.5 1184.5,-400.5 855.5,-400.5"/>
<text text-anchor="start" x="862.5" y="-411.9" font-family="Arial" font-size="14.00" fill="#000000">updated_at    </text>
<text text-anchor="start" x="966.7468" y="-411.9" font-family="Arial" font-size="14.00" fill="#666666">[datetime(6)]</text>
</g>
<!-- group_user_belongings&#45;&gt;users -->
<g id="edge3" class="edge">
<title>group_user_belongings:user_id&#45;&gt;users:id</title>
<path fill="none" stroke="#000000" d="M845.5563,-623.132C801.6801,-599.8935 842.9097,-412.2883 855.5,-358 861.203,-333.4091 874.797,-331.5909 880.5,-307 890.1894,-265.22 923.3889,-210.5 880.5,-210.5"/>
<polygon fill="#000000" stroke="#000000" points="845.772,-623.1833 854.4575,-629.8776 850.636,-624.3417 855.5,-625.5 855.5,-625.5 855.5,-625.5 850.636,-624.3417 856.5425,-621.1224 845.772,-623.1833 845.772,-623.1833"/>
<text text-anchor="start" x="802.445" y="-609.5" font-family="Arial" font-size="10.00" fill="#000000">FOREIGN KEY (user_id) REFERENCES users (id)</text>
</g>
<!-- project_members -->
<g id="node5" class="node">
<title>project_members</title>
<polygon fill="#efefef" stroke="transparent" points="1288.5,-655.5 1288.5,-690.5 1568.5,-690.5 1568.5,-655.5 1288.5,-655.5"/>
<polygon fill="none" stroke="#000000" points="1288.5,-655.5 1288.5,-690.5 1568.5,-690.5 1568.5,-655.5 1288.5,-655.5"/>
<text text-anchor="start" x="1295.2117" y="-668.3" font-family="Arial Bold" font-size="18.00" fill="#000000">project_members</text>
<text text-anchor="start" x="1434.2203" y="-668.3" font-family="Arial" font-size="14.00" fill="#000000">    </text>
<text text-anchor="start" x="1468.4251" y="-668.3" font-family="Arial" font-size="14.00" fill="#666666">[BASE TABLE]</text>
<polygon fill="none" stroke="#000000" points="1288.5,-625.5 1288.5,-655.5 1568.5,-655.5 1568.5,-625.5 1288.5,-625.5"/>
<text text-anchor="start" x="1295.5" y="-636.9" font-family="Arial" font-size="14.00" fill="#000000">id    </text>
<text text-anchor="start" x="1340.594" y="-636.9" font-family="Arial" font-size="14.00" fill="#666666">[char(36)]</text>
<polygon fill="none" stroke="#000000" points="1288.5,-595.5 1288.5,-625.5 1568.5,-625.5 1568.5,-595.5 1288.5,-595.5"/>
<text text-anchor="start" x="1295.5" y="-606.9" font-family="Arial" font-size="14.00" fill="#000000">project_id    </text>
<text text-anchor="start" x="1390.3822" y="-606.9" font-family="Arial" font-size="14.00" fill="#666666">[char(36)]</text>
<polygon fill="none" stroke="#000000" points="1288.5,-565.5 1288.5,-595.5 1568.5,-595.5 1568.5,-565.5 1288.5,-565.5"/>
<text text-anchor="start" x="1295.5" y="-576.9" font-family="Arial" font-size="14.00" fill="#000000">user_id    </text>
<text text-anchor="start" x="1375.6024" y="-576.9" font-family="Arial" font-size="14.00" fill="#666666">[char(36)]</text>
<polygon fill="none" stroke="#000000" points="1288.5,-535.5 1288.5,-565.5 1568.5,-565.5 1568.5,-535.5 1288.5,-535.5"/>
<text text-anchor="start" x="1295.5" y="-546.9" font-family="Arial" font-size="14.00" fill="#000000">since_year    </text>
<text text-anchor="start" x="1397.385" y="-546.9" font-family="Arial" font-size="14.00" fill="#666666">[smallint(4)]</text>
<polygon fill="none" stroke="#000000" points="1288.5,-505.5 1288.5,-535.5 1568.5,-535.5 1568.5,-505.5 1288.5,-505.5"/>
<text text-anchor="start" x="1295.5" y="-516.9" font-family="Arial" font-size="14.00" fill="#000000">since_semester    </text>
<text text-anchor="start" x="1427.7188" y="-516.9" font-family="Arial" font-size="14.00" fill="#666666">[tinyint(1)]</text>
<polygon fill="none" stroke="#000000" points="1288.5,-475.5 1288.5,-505.5 1568.5,-505.5 1568.5,-475.5 1288.5,-475.5"/>
<text text-anchor="start" x="1295.5" y="-486.9" font-family="Arial" font-size="14.00" fill="#000000">until_year    </text>
<text text-anchor="start" x="1390.3822" y="-486.9" font-family="Arial" font-size="14.00" fill="#666666">[smallint(4)]</text>
<polygon fill="none" stroke="#000000" points="1288.5,-445.5 1288.5,-475.5 1568.5,-475.5 1568.5,-445.5 1288.5,-445.5"/>
<text text-anchor="start" x="1295.5" y="-456.9" font-family="Arial" font-size="14.00" fill="#000000">until_semester    </text>
<text text-anchor="start" x="1420.716" y="-456.9" font-family="Arial" font-size="14.00" fill="#666666">[tinyint(1)]</text>
<polygon fill="none" stroke="#000000" points="1288.5,-415.5 1288.5,-445.5 1568.5,-445.5 1568.5,-415.5 1288.5,-415.5"/>
<text text-anchor="start" x="1295.5" y="-426.9" font-family="Arial" font-size="14.00" fill="#000000">created_at    </text>
<text text-anchor="start" x="1395.8422" y="-426.9" font-family="Arial" font-size="14.00" fill="#666666">[datetime(6)]</text>
<polygon fill="none" stroke="#000000" points="1288.5,-385.5 1288.5,-415.5 1568.5,-415.5 1568.5,-385.5 1288.5,-385.5"/>
<text text-anchor="start" x="1295.5" y="-396.9" font-family="Arial" font-size="14.00" fill="#000000">updated_at    </text>
<text text-anchor="start" x="1399.7468" y="-396.9" font-family="Arial" font-size="14.00" fill="#666666">[datetime(6)]</text>
</g>
<!-- project_members&#45;&gt;users -->
<g id="edge4" class="edge">
<title>project_members:user_id&#45;&gt;users:id</title>
<path fill="none" stroke="#000000" d="M1278.4979,-579.9928C1188.653,-570.2286 1304.9926,-421.882 1236.5,-343 1125.8125,-215.5228 1049.3259,-210.5 880.5,-210.5"/>
<polygon fill="#000000" stroke="#000000" points="1278.5128,-579.9934 1288.2721,-584.9942 1283.5064,-580.2467 1288.5,-580.5 1288.5,-580.5 1288.5,-580.5 1283.5064,-580.2467 1288.7279,-576.0058 1278.5128,-579.9934 1278.5128,-579.9934"/>
<text text-anchor="start" x="1055.445" y="-590.5" font-family="Arial" font-size="10.00" fill="#000000">FOREIGN KEY (user_id) REFERENCES users (id)</text>
</g>
</g>
</svg>
