<?xml version="1.0" encoding="UTF-8" standalone="no"?>
<!DOCTYPE svg PUBLIC "-//W3C//DTD SVG 1.1//EN"
 "http://www.w3.org/Graphics/SVG/1.1/DTD/svg11.dtd">
<!-- Generated by graphviz version 2.40.1 (20161225.0304)
 -->
<!-- Title: users Pages: 1 -->
<svg width="1500pt" height="712pt"
 viewBox="0.00 0.00 1499.50 712.00" xmlns="http://www.w3.org/2000/svg" xmlns:xlink="http://www.w3.org/1999/xlink">
<g id="graph0" class="graph" transform="scale(1 1) rotate(0) translate(4 708)">
<title>users</title>
<polygon fill="#ffffff" stroke="transparent" points="-4,4 -4,-708 1495.5,-708 1495.5,4 -4,4"/>
<!-- users -->
<g id="node1" class="node">
<title>users</title>
<polygon fill="#efefef" stroke="transparent" points="645.5,-225.5 645.5,-260.5 811.5,-260.5 811.5,-225.5 645.5,-225.5"/>
<polygon fill="none" stroke="#000000" points="645.5,-225.5 645.5,-260.5 811.5,-260.5 811.5,-225.5 645.5,-225.5"/>
<text text-anchor="start" x="657.8708" y="-238.3" font-family="Arial Bold" font-size="18.00" fill="#000000">users</text>
<text text-anchor="start" x="701.8754" y="-238.3" font-family="Arial" font-size="14.00" fill="#000000"> </text>
<text text-anchor="start" x="705.766" y="-238.3" font-family="Arial" font-size="14.00" fill="#666666">[BASE TABLE]</text>
<polygon fill="none" stroke="#000000" points="645.5,-195.5 645.5,-225.5 811.5,-225.5 811.5,-195.5 645.5,-195.5"/>
<text text-anchor="start" x="652.5" y="-206.9" font-family="Arial" font-size="14.00" fill="#000000">id </text>
<text text-anchor="start" x="667.2798" y="-206.9" font-family="Arial" font-size="14.00" fill="#666666">[char(36)]</text>
<polygon fill="none" stroke="#000000" points="645.5,-165.5 645.5,-195.5 811.5,-195.5 811.5,-165.5 645.5,-165.5"/>
<text text-anchor="start" x="652.5" y="-176.9" font-family="Arial" font-size="14.00" fill="#000000">description </text>
<text text-anchor="start" x="724.068" y="-176.9" font-family="Arial" font-size="14.00" fill="#666666">[text]</text>
<polygon fill="none" stroke="#000000" points="645.5,-135.5 645.5,-165.5 811.5,-165.5 811.5,-135.5 645.5,-135.5"/>
<text text-anchor="start" x="652.5" y="-146.9" font-family="Arial" font-size="14.00" fill="#000000">check </text>
<text text-anchor="start" x="692.9558" y="-146.9" font-family="Arial" font-size="14.00" fill="#666666">[tinyint(1)]</text>
<polygon fill="none" stroke="#000000" points="645.5,-105.5 645.5,-135.5 811.5,-135.5 811.5,-105.5 645.5,-105.5"/>
<text text-anchor="start" x="652.5" y="-116.9" font-family="Arial" font-size="14.00" fill="#000000">name </text>
<text text-anchor="start" x="691.399" y="-116.9" font-family="Arial" font-size="14.00" fill="#666666">[varchar(32)]</text>
<polygon fill="none" stroke="#000000" points="645.5,-75.5 645.5,-105.5 811.5,-105.5 811.5,-75.5 645.5,-75.5"/>
<text text-anchor="start" x="652.5" y="-86.9" font-family="Arial" font-size="14.00" fill="#000000">created_at </text>
<text text-anchor="start" x="722.528" y="-86.9" font-family="Arial" font-size="14.00" fill="#666666">[datetime(6)]</text>
<polygon fill="none" stroke="#000000" points="645.5,-45.5 645.5,-75.5 811.5,-75.5 811.5,-45.5 645.5,-45.5"/>
<text text-anchor="start" x="652.2518" y="-56.9" font-family="Arial" font-size="14.00" fill="#000000">updated_at </text>
<text text-anchor="start" x="726.1844" y="-56.9" font-family="Arial" font-size="14.00" fill="#666666">[datetime(6)]</text>
<polygon fill="none" stroke="#000000" stroke-width="3" points="644,-44.5 644,-262.5 813,-262.5 813,-44.5 644,-44.5"/>
</g>
<!-- accounts -->
<g id="node2" class="node">
<title>accounts</title>
<polygon fill="#efefef" stroke="transparent" points="43.5,-625.5 43.5,-660.5 226.5,-660.5 226.5,-625.5 43.5,-625.5"/>
<polygon fill="none" stroke="#000000" points="43.5,-625.5 43.5,-660.5 226.5,-660.5 226.5,-625.5 43.5,-625.5"/>
<text text-anchor="start" x="50.3596" y="-638.3" font-family="Arial Bold" font-size="18.00" fill="#000000">accounts</text>
<text text-anchor="start" x="122.3866" y="-638.3" font-family="Arial" font-size="14.00" fill="#000000"> </text>
<text text-anchor="start" x="126.2772" y="-638.3" font-family="Arial" font-size="14.00" fill="#666666">[BASE TABLE]</text>
<polygon fill="none" stroke="#000000" points="43.5,-595.5 43.5,-625.5 226.5,-625.5 226.5,-595.5 43.5,-595.5"/>
<text text-anchor="start" x="50.5" y="-606.9" font-family="Arial" font-size="14.00" fill="#000000">id </text>
<text text-anchor="start" x="65.2798" y="-606.9" font-family="Arial" font-size="14.00" fill="#666666">[char(36)]</text>
<polygon fill="none" stroke="#000000" points="43.5,-565.5 43.5,-595.5 226.5,-595.5 226.5,-565.5 43.5,-565.5"/>
<text text-anchor="start" x="50.5" y="-576.9" font-family="Arial" font-size="14.00" fill="#000000">type </text>
<text text-anchor="start" x="80.8464" y="-576.9" font-family="Arial" font-size="14.00" fill="#666666">[tinyint(1)]</text>
<polygon fill="none" stroke="#000000" points="43.5,-535.5 43.5,-565.5 226.5,-565.5 226.5,-535.5 43.5,-535.5"/>
<text text-anchor="start" x="50.5" y="-546.9" font-family="Arial" font-size="14.00" fill="#000000">name </text>
<text text-anchor="start" x="89.399" y="-546.9" font-family="Arial" font-size="14.00" fill="#666666">[varchar(32)]</text>
<polygon fill="none" stroke="#000000" points="43.5,-505.5 43.5,-535.5 226.5,-535.5 226.5,-505.5 43.5,-505.5"/>
<text text-anchor="start" x="50.5" y="-516.9" font-family="Arial" font-size="14.00" fill="#000000">url </text>
<text text-anchor="start" x="69.9404" y="-516.9" font-family="Arial" font-size="14.00" fill="#666666">[text]</text>
<polygon fill="none" stroke="#000000" points="43.5,-475.5 43.5,-505.5 226.5,-505.5 226.5,-475.5 43.5,-475.5"/>
<text text-anchor="start" x="50.5" y="-486.9" font-family="Arial" font-size="14.00" fill="#000000">user_id </text>
<text text-anchor="start" x="100.2882" y="-486.9" font-family="Arial" font-size="14.00" fill="#666666">[char(36)]</text>
<polygon fill="none" stroke="#000000" points="43.5,-445.5 43.5,-475.5 226.5,-475.5 226.5,-445.5 43.5,-445.5"/>
<text text-anchor="start" x="50.5" y="-456.9" font-family="Arial" font-size="14.00" fill="#000000">check </text>
<text text-anchor="start" x="90.9558" y="-456.9" font-family="Arial" font-size="14.00" fill="#666666">[tinyint(1)]</text>
<polygon fill="none" stroke="#000000" points="43.5,-415.5 43.5,-445.5 226.5,-445.5 226.5,-415.5 43.5,-415.5"/>
<text text-anchor="start" x="50.5" y="-426.9" font-family="Arial" font-size="14.00" fill="#000000">created_at </text>
<text text-anchor="start" x="120.528" y="-426.9" font-family="Arial" font-size="14.00" fill="#666666">[datetime(6)]</text>
<polygon fill="none" stroke="#000000" points="43.5,-385.5 43.5,-415.5 226.5,-415.5 226.5,-385.5 43.5,-385.5"/>
<text text-anchor="start" x="50.5" y="-396.9" font-family="Arial" font-size="14.00" fill="#000000">updated_at </text>
<text text-anchor="start" x="124.4326" y="-396.9" font-family="Arial" font-size="14.00" fill="#666666">[datetime(6)]</text>
</g>
<!-- accounts&#45;&gt;users -->
<g id="edge1" class="edge">
<title>accounts:user_id&#45;&gt;users:id</title>
<path fill="none" stroke="#000000" d="M236.6969,-489.6435C288.8711,-479.9116 231.4304,-389.6589 277.5,-343 399.6358,-219.3021 471.6658,-210.5 645.5,-210.5"/>
<polygon fill="#000000" stroke="#000000" points="236.4649,-489.6629 226.1233,-486.0158 231.4825,-490.0814 226.5,-490.5 226.5,-490.5 226.5,-490.5 231.4825,-490.0814 226.8767,-494.9842 236.4649,-489.6629 236.4649,-489.6629"/>
<text text-anchor="start" x="113.445" y="-474.5" font-family="Arial" font-size="10.00" fill="#000000">FOREIGN KEY (user_id) REFERENCES users (id)</text>
</g>
<!-- contest_team_user_belongings -->
<g id="node3" class="node">
<title>contest_team_user_belongings</title>
<polygon fill="#efefef" stroke="transparent" points="330.5,-565.5 330.5,-600.5 691.5,-600.5 691.5,-565.5 330.5,-565.5"/>
<polygon fill="none" stroke="#000000" points="330.5,-565.5 330.5,-600.5 691.5,-600.5 691.5,-565.5 330.5,-565.5"/>
<text text-anchor="start" x="337.3307" y="-578.3" font-family="Arial Bold" font-size="18.00" fill="#000000">contest_team_user_belongings</text>
<text text-anchor="start" x="587.4155" y="-578.3" font-family="Arial" font-size="14.00" fill="#000000"> </text>
<text text-anchor="start" x="591.3061" y="-578.3" font-family="Arial" font-size="14.00" fill="#666666">[BASE TABLE]</text>
<polygon fill="none" stroke="#000000" points="330.5,-535.5 330.5,-565.5 691.5,-565.5 691.5,-535.5 330.5,-535.5"/>
<text text-anchor="start" x="337.5" y="-546.9" font-family="Arial" font-size="14.00" fill="#000000">team_id </text>
<text text-anchor="start" x="391.1788" y="-546.9" font-family="Arial" font-size="14.00" fill="#666666">[char(36)]</text>
<polygon fill="none" stroke="#000000" points="330.5,-505.5 330.5,-535.5 691.5,-535.5 691.5,-505.5 330.5,-505.5"/>
<text text-anchor="start" x="337.5" y="-516.9" font-family="Arial" font-size="14.00" fill="#000000">user_id </text>
<text text-anchor="start" x="387.2882" y="-516.9" font-family="Arial" font-size="14.00" fill="#666666">[char(36)]</text>
<polygon fill="none" stroke="#000000" points="330.5,-475.5 330.5,-505.5 691.5,-505.5 691.5,-475.5 330.5,-475.5"/>
<text text-anchor="start" x="337.5" y="-486.9" font-family="Arial" font-size="14.00" fill="#000000">created_at </text>
<text text-anchor="start" x="407.528" y="-486.9" font-family="Arial" font-size="14.00" fill="#666666">[datetime(6)]</text>
<polygon fill="none" stroke="#000000" points="330.5,-445.5 330.5,-475.5 691.5,-475.5 691.5,-445.5 330.5,-445.5"/>
<text text-anchor="start" x="337.5" y="-456.9" font-family="Arial" font-size="14.00" fill="#000000">updated_at </text>
<text text-anchor="start" x="411.4326" y="-456.9" font-family="Arial" font-size="14.00" fill="#666666">[datetime(6)]</text>
</g>
<!-- contest_team_user_belongings&#45;&gt;users -->
<g id="edge2" class="edge">
<title>contest_team_user_belongings:user_id&#45;&gt;users:id</title>
<path fill="none" stroke="#000000" d="M701.5891,-519.5908C775.9029,-504.8746 647.6188,-316.3253 645.5,-307 635.9972,-265.1771 602.6111,-210.5 645.5,-210.5"/>
<polygon fill="#000000" stroke="#000000" points="701.4596,-519.6024 691.0961,-516.0182 696.4798,-520.0512 691.5,-520.5 691.5,-520.5 691.5,-520.5 696.4798,-520.0512 691.9039,-524.9818 701.4596,-519.6024 701.4596,-519.6024"/>
<text text-anchor="start" x="698.445" y="-530.5" font-family="Arial" font-size="10.00" fill="#000000">FOREIGN KEY (user_id) REFERENCES users (id)</text>
</g>
<!-- group_user_belongings -->
<g id="node4" class="node">
<title>group_user_belongings</title>
<polygon fill="#efefef" stroke="transparent" points="795.5,-595.5 795.5,-630.5 1094.5,-630.5 1094.5,-595.5 795.5,-595.5"/>
<polygon fill="none" stroke="#000000" points="795.5,-595.5 795.5,-630.5 1094.5,-630.5 1094.5,-595.5 795.5,-595.5"/>
<text text-anchor="start" x="802.3402" y="-608.3" font-family="Arial Bold" font-size="18.00" fill="#000000">group_user_belongings</text>
<text text-anchor="start" x="990.406" y="-608.3" font-family="Arial" font-size="14.00" fill="#000000"> </text>
<text text-anchor="start" x="994.2966" y="-608.3" font-family="Arial" font-size="14.00" fill="#666666">[BASE TABLE]</text>
<polygon fill="none" stroke="#000000" points="795.5,-565.5 795.5,-595.5 1094.5,-595.5 1094.5,-565.5 795.5,-565.5"/>
<text text-anchor="start" x="802.5" y="-576.9" font-family="Arial" font-size="14.00" fill="#000000">user_id </text>
<text text-anchor="start" x="852.2882" y="-576.9" font-family="Arial" font-size="14.00" fill="#666666">[char(36)]</text>
<polygon fill="none" stroke="#000000" points="795.5,-535.5 795.5,-565.5 1094.5,-565.5 1094.5,-535.5 795.5,-535.5"/>
<text text-anchor="start" x="802.5" y="-546.9" font-family="Arial" font-size="14.00" fill="#000000">group_id </text>
<text text-anchor="start" x="860.8534" y="-546.9" font-family="Arial" font-size="14.00" fill="#666666">[char(36)]</text>
<polygon fill="none" stroke="#000000" points="795.5,-505.5 795.5,-535.5 1094.5,-535.5 1094.5,-505.5 795.5,-505.5"/>
<text text-anchor="start" x="802.5" y="-516.9" font-family="Arial" font-size="14.00" fill="#000000">since_year </text>
<text text-anchor="start" x="874.0708" y="-516.9" font-family="Arial" font-size="14.00" fill="#666666">[tinyint(1)]</text>
<polygon fill="none" stroke="#000000" points="795.5,-475.5 795.5,-505.5 1094.5,-505.5 1094.5,-475.5 795.5,-475.5"/>
<text text-anchor="start" x="802.5" y="-486.9" font-family="Arial" font-size="14.00" fill="#000000">since_semester </text>
<text text-anchor="start" x="904.4046" y="-486.9" font-family="Arial" font-size="14.00" fill="#666666">[tinyint(1)]</text>
<polygon fill="none" stroke="#000000" points="795.5,-445.5 795.5,-475.5 1094.5,-475.5 1094.5,-445.5 795.5,-445.5"/>
<text text-anchor="start" x="802.5" y="-456.9" font-family="Arial" font-size="14.00" fill="#000000">until_year </text>
<text text-anchor="start" x="867.068" y="-456.9" font-family="Arial" font-size="14.00" fill="#666666">[tinyint(1)]</text>
<polygon fill="none" stroke="#000000" points="795.5,-415.5 795.5,-445.5 1094.5,-445.5 1094.5,-415.5 795.5,-415.5"/>
<text text-anchor="start" x="802.5" y="-426.9" font-family="Arial" font-size="14.00" fill="#000000">until_semester </text>
<text text-anchor="start" x="897.4018" y="-426.9" font-family="Arial" font-size="14.00" fill="#666666">[tinyint(1)]</text>
</g>
<!-- group_user_belongings&#45;&gt;users -->
<g id="edge3" class="edge">
<title>group_user_belongings:user_id&#45;&gt;users:id</title>
<path fill="none" stroke="#000000" d="M785.4724,-579.9777C709.5205,-571.4802 784.9863,-460.9939 795.5,-373 799.0808,-343.0302 807.9192,-336.9698 811.5,-307 816.5882,-264.414 854.3889,-210.5 811.5,-210.5"/>
<polygon fill="#000000" stroke="#000000" points="785.5135,-579.9797 795.2659,-584.9939 790.5068,-580.2399 795.5,-580.5 795.5,-580.5 795.5,-580.5 790.5068,-580.2399 795.7341,-576.0061 785.5135,-579.9797 785.5135,-579.9797"/>
<text text-anchor="start" x="742.445" y="-564.5" font-family="Arial" font-size="10.00" fill="#000000">FOREIGN KEY (user_id) REFERENCES users (id)</text>
</g>
<!-- project_members -->
<g id="node5" class="node">
<title>project_members</title>
<polygon fill="#efefef" stroke="transparent" points="1198.5,-580.5 1198.5,-615.5 1448.5,-615.5 1448.5,-580.5 1198.5,-580.5"/>
<polygon fill="none" stroke="#000000" points="1198.5,-580.5 1198.5,-615.5 1448.5,-615.5 1448.5,-580.5 1198.5,-580.5"/>
<text text-anchor="start" x="1205.3688" y="-593.3" font-family="Arial Bold" font-size="18.00" fill="#000000">project_members</text>
<text text-anchor="start" x="1344.3774" y="-593.3" font-family="Arial" font-size="14.00" fill="#000000"> </text>
<text text-anchor="start" x="1348.268" y="-593.3" font-family="Arial" font-size="14.00" fill="#666666">[BASE TABLE]</text>
<polygon fill="none" stroke="#000000" points="1198.5,-550.5 1198.5,-580.5 1448.5,-580.5 1448.5,-550.5 1198.5,-550.5"/>
<text text-anchor="start" x="1205.5" y="-561.9" font-family="Arial" font-size="14.00" fill="#000000">id </text>
<text text-anchor="start" x="1220.2798" y="-561.9" font-family="Arial" font-size="14.00" fill="#666666">[char(36)]</text>
<polygon fill="none" stroke="#000000" points="1198.5,-520.5 1198.5,-550.5 1448.5,-550.5 1448.5,-520.5 1198.5,-520.5"/>
<text text-anchor="start" x="1205.5" y="-531.9" font-family="Arial" font-size="14.00" fill="#000000">project_id </text>
<text text-anchor="start" x="1270.068" y="-531.9" font-family="Arial" font-size="14.00" fill="#666666">[char(36)]</text>
<polygon fill="none" stroke="#000000" points="1198.5,-490.5 1198.5,-520.5 1448.5,-520.5 1448.5,-490.5 1198.5,-490.5"/>
<text text-anchor="start" x="1205.5" y="-501.9" font-family="Arial" font-size="14.00" fill="#000000">user_id </text>
<text text-anchor="start" x="1255.2882" y="-501.9" font-family="Arial" font-size="14.00" fill="#666666">[char(36)]</text>
<polygon fill="none" stroke="#000000" points="1198.5,-460.5 1198.5,-490.5 1448.5,-490.5 1448.5,-460.5 1198.5,-460.5"/>
<text text-anchor="start" x="1205.5" y="-471.9" font-family="Arial" font-size="14.00" fill="#000000">since </text>
<text text-anchor="start" x="1242.0624" y="-471.9" font-family="Arial" font-size="14.00" fill="#666666">[datetime(6)]</text>
<polygon fill="none" stroke="#000000" points="1198.5,-430.5 1198.5,-460.5 1448.5,-460.5 1448.5,-430.5 1198.5,-430.5"/>
<text text-anchor="start" x="1205.5" y="-441.9" font-family="Arial" font-size="14.00" fill="#000000">until </text>
<text text-anchor="start" x="1235.0596" y="-441.9" font-family="Arial" font-size="14.00" fill="#666666">[datetime(6)]</text>
</g>
<!-- project_members&#45;&gt;users -->
<g id="edge4" class="edge">
<title>project_members:user_id&#45;&gt;users:id</title>
<path fill="none" stroke="#000000" d="M1188.4429,-504.7523C1129.7516,-495.1628 1195.7665,-395.6798 1146.5,-343 1037.1357,-226.0587 971.6118,-210.5 811.5,-210.5"/>
<polygon fill="#000000" stroke="#000000" points="1188.5275,-504.7585 1198.1663,-509.9876 1193.5138,-505.1293 1198.5,-505.5 1198.5,-505.5 1198.5,-505.5 1193.5138,-505.1293 1198.8337,-501.0124 1188.5275,-504.7585 1188.5275,-504.7585"/>
<text text-anchor="start" x="965.445" y="-515.5" font-family="Arial" font-size="10.00" fill="#000000">FOREIGN KEY (user_id) REFERENCES users (id)</text>
</g>
</g>
</svg>
